<?xml version="1.0" encoding="UTF-8"?>
<svg xmlns="http://www.w3.org/2000/svg" xmlns:xlink="http://www.w3.org/1999/xlink" viewBox="0 0 464.67 464.34">
  <defs>
    <style>
      .cls-1 {
        fill: url(#radial-gradient-3);
      }

      .cls-1, .cls-2, .cls-3, .cls-4, .cls-5, .cls-6, .cls-7, .cls-8, .cls-9, .cls-10, .cls-11, .cls-12, .cls-13, .cls-14 {
        mix-blend-mode: color-dodge;
      }

      .cls-2 {
        fill: url(#radial-gradient-9);
      }

      .cls-3 {
        fill: url(#radial-gradient-5);
      }

      .cls-4 {
        fill: url(#radial-gradient-7);
      }

      .cls-15 {
        fill: #fff;
      }

      .cls-16 {
        fill: url(#radial-gradient-14);
      }

      .cls-16, .cls-17, .cls-18, .cls-19, .cls-20, .cls-21, .cls-22, .cls-23, .cls-24, .cls-25, .cls-26, .cls-27, .cls-28, .cls-29 {
        mix-blend-mode: screen;
      }

      .cls-17 {
        fill: url(#radial-gradient-12);
      }

      .cls-18 {
        fill: url(#radial-gradient-16);
      }

      .cls-19 {
        fill: url(#radial-gradient-24);
      }

      .cls-20 {
        fill: url(#radial-gradient-28);
      }

      .cls-21 {
        fill: url(#radial-gradient-22);
      }

      .cls-22 {
        fill: url(#radial-gradient-26);
      }

      .cls-23 {
        fill: url(#radial-gradient-18);
      }

      .cls-24 {
        fill: url(#radial-gradient-10);
      }

      .cls-25 {
        fill: url(#radial-gradient-20);
      }

      .cls-26 {
        fill: url(#radial-gradient-6);
      }

      .cls-27 {
        fill: url(#radial-gradient-4);
      }

      .cls-28 {
        fill: url(#radial-gradient-8);
      }

      .cls-29 {
        fill: url(#radial-gradient-2);
      }

      .cls-30 {
        mix-blend-mode: overlay;
      }

      .cls-31 {
        fill: url(#radial-gradient);
      }

      .cls-5 {
        fill: url(#radial-gradient-21);
      }

      .cls-6 {
        fill: url(#radial-gradient-13);
      }

      .cls-7 {
        fill: url(#radial-gradient-15);
      }

      .cls-8 {
        fill: url(#radial-gradient-25);
      }

      .cls-9 {
        fill: url(#radial-gradient-23);
      }

      .cls-10 {
        fill: url(#radial-gradient-29);
      }

      .cls-11 {
        fill: url(#radial-gradient-27);
      }

      .cls-12 {
        fill: url(#radial-gradient-11);
      }

      .cls-13 {
        fill: url(#radial-gradient-19);
      }

      .cls-14 {
        fill: url(#radial-gradient-17);
      }

      .cls-32 {
        isolation: isolate;
      }

      .cls-33 {
        fill: none;
        stroke: #fff;
        stroke-linecap: round;
        stroke-linejoin: round;
        stroke-width: .27px;
      }
    </style>
    <radialGradient id="radial-gradient" cx="870.37" cy="-128.25" fx="870.37" fy="-128.25" r="1448.91" gradientTransform="translate(232.17 -96.17) rotate(45)" gradientUnits="userSpaceOnUse">
      <stop offset="0" stop-color="#674796"/>
      <stop offset="1" stop-color="#263167"/>
    </radialGradient>
    <radialGradient id="radial-gradient-2" cx="411.5" cy="255.7" fx="411.5" fy="255.7" r="11.65" gradientTransform="translate(597.98 -191.44) rotate(80.78)" gradientUnits="userSpaceOnUse">
      <stop offset="0" stop-color="#674796"/>
      <stop offset=".05" stop-color="#5c3f86"/>
      <stop offset=".2" stop-color="#402c5d"/>
      <stop offset=".35" stop-color="#291c3c"/>
      <stop offset=".5" stop-color="#171022"/>
      <stop offset=".66" stop-color="#0b070f"/>
      <stop offset=".82" stop-color="#030204"/>
      <stop offset="1" stop-color="#010101"/>
    </radialGradient>
    <radialGradient id="radial-gradient-3" cx="411.5" fx="411.5" r="5.91" gradientTransform="matrix(1,0,0,1,0,0)" xlink:href="#radial-gradient-2"/>
    <radialGradient id="radial-gradient-4" cx="254.02" cy="304.41" fx="254.02" fy="304.41" r="18.25" gradientTransform="matrix(1,0,0,1,0,0)" xlink:href="#radial-gradient-2"/>
    <radialGradient id="radial-gradient-5" cx="254.02" cy="304.41" fx="254.02" fy="304.41" r="9.25" gradientTransform="matrix(1,0,0,1,0,0)" xlink:href="#radial-gradient-2"/>
    <radialGradient id="radial-gradient-6" cx="265.28" cy="432.14" fx="265.28" fy="432.14" r="13.13" gradientTransform="translate(533.95 2.1) rotate(63.54)" xlink:href="#radial-gradient-2"/>
    <radialGradient id="radial-gradient-7" cx="265.28" cy="432.14" fx="265.28" fy="432.14" r="6.66" gradientTransform="matrix(1,0,0,1,0,0)" xlink:href="#radial-gradient-2"/>
    <radialGradient id="radial-gradient-8" cx="255.61" cy="87.09" fx="255.61" fy="87.09" r="9.34" gradientTransform="matrix(1,0,0,1,0,0)" xlink:href="#radial-gradient-2"/>
    <radialGradient id="radial-gradient-9" cx="255.61" cy="87.09" fx="255.61" fy="87.09" r="4.74" gradientTransform="matrix(1,0,0,1,0,0)" xlink:href="#radial-gradient-2"/>
    <radialGradient id="radial-gradient-10" cx="217.25" cy="128.8" fx="217.25" fy="128.8" r="14.47" gradientTransform="matrix(1,0,0,1,0,0)" xlink:href="#radial-gradient-2"/>
    <radialGradient id="radial-gradient-11" cx="217.25" cy="128.8" fx="217.25" fy="128.8" r="7.34" gradientUnits="userSpaceOnUse">
      <stop offset="0" stop-color="#fff"/>
      <stop offset=".03" stop-color="#efefef"/>
      <stop offset=".14" stop-color="#b8b8b8"/>
      <stop offset=".26" stop-color="#878787"/>
      <stop offset=".37" stop-color="#5e5e5e"/>
      <stop offset=".49" stop-color="#3c3c3c"/>
      <stop offset=".61" stop-color="#222"/>
      <stop offset=".73" stop-color="#0f0f0f"/>
      <stop offset=".86" stop-color="#040404"/>
      <stop offset="1" stop-color="#010101"/>
    </radialGradient>
    <radialGradient id="radial-gradient-12" cx="135.43" cy="197.74" fx="135.43" fy="197.74" r="16.85" gradientTransform="translate(155.85 -41.06) rotate(39.29)" xlink:href="#radial-gradient-2"/>
    <radialGradient id="radial-gradient-13" cx="135.43" cy="197.74" fx="135.43" fy="197.74" r="8.94" xlink:href="#radial-gradient-11"/>
    <radialGradient id="radial-gradient-14" cx="321.45" cy="335.3" fx="321.45" fy="335.3" r="10.56" gradientTransform="matrix(1,0,0,1,0,0)" xlink:href="#radial-gradient-2"/>
    <radialGradient id="radial-gradient-15" cx="321.45" cy="335.3" fx="321.45" fy="335.3" r="5.6" xlink:href="#radial-gradient-11"/>
    <radialGradient id="radial-gradient-16" cx="313.31" cy="99.52" fx="313.31" fy="99.52" r="10.14" gradientTransform="translate(162.14 -192.4) rotate(45)" xlink:href="#radial-gradient-2"/>
    <radialGradient id="radial-gradient-17" cx="313.31" cy="99.52" fx="313.31" fy="99.52" r="5.38" xlink:href="#radial-gradient-11"/>
    <radialGradient id="radial-gradient-18" cx="388.9" cy="172.45" fx="388.9" fy="172.45" r="12.19" gradientTransform="translate(467.39 -245.66) rotate(76.72)" xlink:href="#radial-gradient-2"/>
    <radialGradient id="radial-gradient-19" cx="388.9" cy="172.45" fx="388.9" fy="172.45" r="6.47" xlink:href="#radial-gradient-11"/>
    <radialGradient id="radial-gradient-20" cx="352.96" cy="381.51" fx="352.96" fy="381.51" r="6.08" gradientTransform="matrix(1,0,0,1,0,0)" xlink:href="#radial-gradient-2"/>
    <radialGradient id="radial-gradient-21" cx="352.96" cy="381.51" fx="352.96" fy="381.51" r="3.23" xlink:href="#radial-gradient-11"/>
    <radialGradient id="radial-gradient-22" cx="104.27" cy="373.93" fx="104.27" fy="373.93" r="6.08" gradientTransform="matrix(1,0,0,1,0,0)" xlink:href="#radial-gradient-2"/>
    <radialGradient id="radial-gradient-23" cx="104.27" cy="373.93" fx="104.27" fy="373.93" r="3.23" xlink:href="#radial-gradient-11"/>
    <radialGradient id="radial-gradient-24" cx="58.98" cy="299.48" fx="58.98" fy="299.48" r="6.08" gradientTransform="matrix(1,0,0,1,0,0)" xlink:href="#radial-gradient-2"/>
    <radialGradient id="radial-gradient-25" cx="58.98" cy="299.48" fx="58.98" fy="299.48" r="3.23" xlink:href="#radial-gradient-11"/>
    <radialGradient id="radial-gradient-26" cx="248.44" cy="213.45" fx="248.44" fy="213.45" r="15.33" gradientTransform="matrix(1,0,0,1,0,0)" xlink:href="#radial-gradient-2"/>
    <radialGradient id="radial-gradient-27" cx="248.44" cy="213.45" fx="248.44" fy="213.45" r="7.77" gradientTransform="translate(262.84 -113.78) rotate(51.85)" xlink:href="#radial-gradient-11"/>
    <radialGradient id="radial-gradient-28" cx="163.21" cy="274.6" fx="163.21" fy="274.6" r="11.66" gradientTransform="translate(392.65 52.35) rotate(76.64)" xlink:href="#radial-gradient-2"/>
    <radialGradient id="radial-gradient-29" cx="163.21" cy="274.6" fx="163.21" fy="274.6" r="5.91" xlink:href="#radial-gradient-11"/>
  </defs>
  <g class="cls-32">
    <g id="Calque_2" data-name="Calque 2">
      <g>
        <circle class="cls-31" cx="232.17" cy="232.17" r="232.17" transform="translate(-96.17 232.17) rotate(-45)"/>
        <g class="cls-30">
          <g>
            <path class="cls-15" d="m308.66,451.37c.21-.07.48-.17.69-.25-11.02,3.63-16.05,5.28-30.5,8.45h-.06c-4.23,1.03-6.49,1.1-7.34,1.13.06-.01.12-.03.19-.04.06-.01.12-.03.19-.04.06-.01.13-.03.19-.04.07-.01.13-.03.2-.04.07-.01.14-.03.21-.04.07-.02.15-.03.22-.05.08-.02.16-.03.24-.05.09-.02.17-.04.26-.06.17-.02,18.08-2.76,35.53-8.96m131.84-247.16c.14-78.02-37.2-141.65-93.86-173.84,15.33,9.41,25.46,15.62,42.99,31.41,15.51,15.41,16.78,16.66,25.88,28.16,13.23,18.4,14.03,19.5,20.73,31.66,10.39,21.01,10.79,21.83,15.3,34.68,6.9,22.82,7.17,23.71,9.49,37.18,3.07,24.22,3.19,25.16,3.22,39.15-1.04,24.56-1.1,26.03-3.78,41.5l-2.53,12.02-.02.06c.4-2.21.91-4.4,1.25-6.63-3.44,15.26-5.52,24.48-21.01,50.84,1.01-11.49,9.38-20.28,11.5-31.36,2.14-11.19.61-22.68,2.88-33.86.17-1.5.06-1.62-.05-1.75-.11-.12-.22-.24-.33-.36-.11-.12-.22-.24-.33-.35-.11-.12-.22-.23-.33-.35-.11-.12-.22-.23-.34-.35-.11-.12-.23-.23-.34-.35-.12-.12-.24-.23-.35-.35-.12-.12-.24-.24-.37-.35.8-3.28.74-3.72.07-9.11-.19-1.04-.27-.6-.34-.16-.07.41-.14.82-.21,1.23-.07.38-.14.76-.2,1.14-.06.35-.13.7-.19,1.05-.06.33-.12.65-.18.98-.06.3-.12.61-.18.91-.06.29-.11.57-.17.86-.05.27-.11.54-.16.81-2.16,3.3-4.84,6.22-6.83,9.64-2.16,3.73.43,10.4-5.52,11.65q-.96-1.85-.92-5.16c-.48.06-1.12.13-1.6.19-4.06,7.82-6.18,16.6-11.69,23.7,11.73-29.37,18.47-61.55,18.53-94.51"/>
            <path class="cls-15" d="m15,150.6c-.34.94-.67,1.88-.99,2.82,2.75-7.4,3.11-8.36,5.75-14.09-2,3.82-4,9.15-4.77,11.27m-5.92,145.83l-3.24-12.6c-3.94-21.25-4.99-26.97-5.75-51.98,1.06-25.06,1.08-25.54,3.36-39.14,5.09-23.87,5.19-24.32,9.63-37.17,8.62-21.84,8.96-22.69,15.45-34.65,11.88-19.84,12.34-20.61,20.87-31.63,14.08-16.67,15.23-18.03,26.02-28.1,5.94-5.08,13.94-11.75,20.15-16.49l.05-.04q9.68-6.3,10.89-6.6c-.59,1.01-.46.95-.33.89.13-.06.26-.12.4-.18.13-.06.27-.12.41-.18.14-.06.28-.12.42-.18.14-.06.29-.12.43-.19.15-.06.3-.13.44-.19.15-.07.31-.13.46-.2.16-.07.32-.13.48-.2-1.75,1.59-2.18,2-3.86,3.68.18-.07.37-.15.55-.22.19-.07.38-.15.56-.22.19-.07.38-.15.58-.22.19-.08.39-.15.59-.22.2-.08.4-.15.6-.23.2-.08.41-.15.61-.23.21-.08.42-.15.63-.23.21-.08.42-.15.64-.23-1.62,2.94-7.12,5.84-14.08,9.51q1.55.36,6.34-1.99c.68.28,1.75.32,2.45.11-.08.25-5.04,6.49-10.94,8.87-.24-.35-.56-.81-.79-1.15-.41.06-.97.14-1.38.19-.63,1.73-.7,1.91-1.99,3.85.85-.31,1.94-.83,2.7-1.31-.23.38-.53.89-.75,1.27.81-.07,1.88-.29,2.64-.56-.04,1.54.54,3,.6,4.52q-1.53,1.53-3.96,3.04c.3.27.71.63,1.01.9-.55.71-1.32,1.63-1.94,2.28-.72.64-.87.69-1.03.74-.15.05-.31.1-.46.15-.15.05-.3.1-.45.14-.15.05-.3.1-.44.14-.15.05-.29.09-.44.14-.14.05-.29.09-.43.14-.14.05-.28.09-.43.14-.14.05-.28.09-.42.14.18-.43.41-.99.59-1.42-1.9,2.26-2.72,5.1-4.13,7.62-1.95.04-3.67,1.12-5.62,1.17-1.33.6-1.45.8-1.58,1-.12.2-.24.39-.36.59-.12.19-.23.39-.35.58-.12.19-.23.38-.35.58-.11.19-.23.38-.34.58-.11.19-.23.39-.34.58-.11.2-.23.39-.34.59-.12.2-.23.4-.34.6,3.59,2.89,8.44,2.88,12.22,5.33.05.47.11,1.1.15,1.58-3.17,3.4-13.03,5.82-16.92-5.12-.48,0-1.11,0-1.59.01q.28-1.37,2.16-5.43c-.24-.33-.55-.76-.79-1.08q.13-.39,1.88-4.67-1.67.27-3.48,2.62c.37.16.86.38,1.24.55-.86,3.1-5.17,7.06-5.21,7.09-.97-2.87.6-5.21,2.28-7.69q-4.36,3.82-6.59,6.69c-.44.51-.51.56-.59.61-.08.05-.15.1-.23.15-.08.05-.15.1-.23.15-.08.05-.15.1-.23.15-.08.05-.15.1-.23.15-.08.05-.15.1-.23.15-.08.05-.15.1-.23.15-.08.05-.15.1-.23.15-.09.06-.17.12-.26.18-.08.06-.17.12-.25.17-.08.06-.16.11-.24.17-.08.05-.15.11-.23.16-.07.05-.14.1-.21.15-.06.05-.13.09-.19.14-.06.04-.11.08-.17.12-.05.04-.1.07-.15.11q-12.74,14.33-25.63,35.7c-.65.95-.86,1.35-1.06,1.75-.2.39-.4.78-.59,1.17-.19.38-.38.77-.57,1.15-.19.38-.37.75-.55,1.13-.18.37-.36.74-.53,1.11-.17.36-.35.72-.52,1.09-.17.36-.33.71-.5,1.07-.16.35-.32.7-.49,1.05C-3.78,184.26,3.24,262.28,4.93,277.37c-2.05-6.81-2.96-19.47-3.63-28.72-.19-5.02.39-10.08-.6-15.07-.48,20.46,2.33,41.6,8.38,62.84m185.53,164.79q-1.06-.07-9.57-1.71c-9.93-2.24-10.53-2.37-16.25-3.98-3.9-1.2-9.12-2.79-12.98-4.11l.28.1c.98.34,2.81.97,4.52,1.48-.54-.18-1.07-.35-1.61-.53,28.28,8.83,55,6.37,72.43,2.74-.06.03-.15.06-.21.09-7.66,2.17-15.64,2.64-23.37,4.45,1.04-.03,2.07-.08,3.11-.14-2.08.48-4.24.67-8.26.74.25.07.58.22.78.4q-1.77.68-10.89-.11.42.11,3.24.51-.68.1-1.22.07"/>
            <g>
              <path class="cls-15" d="m360.94,425.27q-10.65,7.1-35.89,19.39c.95-.02,9.23-4.02,9.31-4.06,6.45-3.41,14.97-8.12,21.24-11.86l7.49-4.92c-.71.49-1.43.97-2.15,1.45"/>
              <path class="cls-15" d="m364.98,422.52c-.32.23-.65.45-.98.68l2.61-1.84c-.54.39-1.09.77-1.64,1.16"/>
            </g>
            <path class="cls-15" d="m406.21,330.99c4.38-3.13,6.15-3.76,8.03-4.43,2.34-.84,2.47-.93,2.48-.94.01-.01,1.26-1.64,1.29-2.56.02-.65-.69-2.49-1.1-2.85-.43-.22-.85.01-1.66.65-.21.16-.42.33-.64.47-.05.03-.11.06-.16.09-1.47.88-2.53,2.46-4.42,2.63-1.24,2.33-2.51,4.64-3.81,6.94"/>
            <path class="cls-15" d="m433.97,329.17c-1.71,3.2-1.77,3.32-2.06,4.43-.2.78,0,1.68.5,1.63,1.05-.11,5.86-8.99,7.76-14.83-1.93,1.22-3.67,4.03-6.2,8.77"/>
            <path class="cls-15" d="m63.63,86.62c-1.43,2.74-1.26,3.96-.9,4.79,3.52-3.14,3.52-3.2,3.88-6.29-.07.03-.14.06-.22.09-.07.03-.14.06-.21.09-.07.03-.13.06-.2.09-.06.03-.13.06-.19.08-.06.03-.12.05-.18.08-.06.03-.12.05-.18.08-.06.03-.12.05-.17.08-.06.03-.11.05-.17.07-.06.02-.11.05-.17.07-.06.02-.11.05-.16.07-.05.02-.11.05-.16.07-.05.02-.11.05-.16.07-.05.02-.11.05-.16.07-.06.02-.11.05-.16.07-.06.03-.11.05-.17.08-.06.03-.11.05-.17.08-.04.07-.09.17-.13.25"/>
          </g>
          <g>
            <path class="cls-15" d="m453.06,191.78q-.62.97-.68.98c-.49-.5-.56-1.4-1.44-1.53-.58-.09-1,.84-1.14,1.14-.1-.38-.19-.75-.29-1.13-.09-.35-.18-.7-.28-1.06-.09-.33-.18-.66-.26-1-.08-.32-.17-.63-.26-.95-.08-.3-.17-.61-.25-.91-.08-.29-.16-.59-.25-.88-.08-.29-.16-.57-.24-.86-.08-.29-.16-.57-.25-.86.56-2.05.36-3.91-.73-6.89.06-.06.11-.13.17-.19.05-.06.11-.13.16-.19.05-.06.1-.13.16-.19.05-.06.1-.12.15-.19.05-.06.1-.12.15-.19.05-.06.1-.12.15-.18.05-.06.1-.12.15-.19.05-.06.1-.13.15-.19,1.94,5.38,3.36,9.81,4.92,15.3-.03.04-.06.09-.08.12m-6.82,20.08c.07.55.12,1.29.17,1.85-.98-.71-1.68-1.2-2.98-2.08,1.53,5.66,4.21,11,4.82,16.93.2,1.95.06,2.32-2.23,8.37q-5.02-3.79-5.34-4.9c-.71-2.42-.46-7.56-.06-9.31.27-1.17.52-2.28.1-3.83-.38-1.41-.9-1.63-1.55-1.91-.38-.16-6.67-6.6-8.66-16.53-.08-.41.17-.97.25-1.38.33-1.83.84-4.97,1.42-9.57.24-.14.47-.28.7-.42.23-.14.46-.28.69-.42.23-.14.45-.28.67-.42.22-.14.44-.28.66-.42.22-.14.43-.28.65-.42.21-.14.43-.28.64-.42.21-.14.42-.28.62-.42.2-.14.41-.28.61-.42.54,2.61.85,4.19,1.31,6.74-.06.04-.13.09-.19.13-.07.04-.13.09-.2.13-.07.05-.13.09-.2.14-.07.05-.13.09-.2.14-.07.04-.13.09-.2.13-.06.04-.13.08-.19.13-.06.04-.12.08-.18.12-.05.04-.11.07-.16.11-.36,1.76,2.03,4.29-.26,5.32.02,1.91.39,7.94,4.03,5.26q2.2,5.88,2.49,6.02c-.16-1.52-.35-3.04-.54-4.56,1.13.42,2.68,1,3.32,5.93m-21.76,8.63c.17,1.13.28,2.27.45,3.4q-9.61,4.05-14.53-.88-.6-.6-1.12-.57-2.93,3.49-3.89,4.21c-1.4,1.06-3.26,1.19-4.66,2.25-1.99,1.51-2.2,1.56-4.81,2.23q-1.87.48-4.5,3.16c-1.71-7.64-.76-16.05-.42-18.44.1-.71.49-.76.77-.8.8-.11,1.49.43,2.28.38.07-1.44.55-2.82.6-4.27.03-.92-.33-1.78-.36-2.69,0-.24.14-4.4.14-4.41.19-.96.41-.98,2.13-1.13q2.37,4.08,4.84,5.27c.29,2.73-2.2,4.36-2.67,6.79,4.26,2.16,5.84.7,10.27-5.95-.88-.55-.99-.63-2.13-.7-1.83-.12-2.14-.37-3.02-2.41,1.08-1.51,1.62-3.33,2.8-4.79.64-.79,1.57-1.06,2.02-1.19q.5-.3,2.96-4.83c.16,1.18.4,2.35.45,3.54-.16.12-3.79,2.96-1.48,10.96q2.43-.23,2.99.21c1.89,1.48,3.26,3.53,5.37,4.75,1.08.62,2.34-.73,3.39.29.32.31,1.85,3.64,2.15,5.61M346.64,30.37c-.12-.07-.24-.14-.36-.2l.03.02c3.97,2.36,9.12,5.74,10.12,6.39q-18.1-10.81-22.62-11.9c1.31.82,3.09,1.86,4.44,2.6q-4.51-1.59-6.13-1.8c9.34,5.67,16.29,14.7,26.63,18.97,1.74,9.18,11.18,8.57,16.61,13.05-3.39-1.79-3.72-1.9-6.91-2.95.81,1.42,2.33,3.09,3.67,4.03q-1.58-.3-9.28-4.64c3.61,4.37,18.02,13.95,18.16,14.04.59-.34,1.37-.79,1.96-1.12,2.08,1.08,3.91,2.58,5.97,3.7-1.34-.44-3.14-1.02-4.48-1.45,3.1,4.19,6.85,7.87,9.63,12.31-.75-.04-1.74-.09-2.49-.13-5.17-12.19-34.95-28.7-35.24-28.85,6.42,10.87,18.66,14.99,27.19,23.4q-9.02-3.62-11.82-2.41c1.51,2.79,4.28,4.42,6.22,6.82-.04.03-.08.06-.11.09-.04.03-.07.06-.11.09-.04.03-.07.06-.11.08-.03.03-.07.05-.1.08-.03.03-.07.05-.1.08-.03.03-.07.05-.1.08-.03.02-.07.05-.1.07-.03.02-.07.05-.1.07-1.06-.97-2.48-2.26-3.55-3.23.72,2.2,0,4.49.43,6.71-.72-.3-1.67-.7-2.38-1-1.82,4.04.51,8.31-.69,12.38-.17-.21-.34-.43-.51-.64-.17-.21-.33-.41-.5-.62-.16-.2-.32-.4-.49-.6-.16-.19-.31-.39-.47-.58-.15-.19-.31-.38-.46-.56-.15-.18-.3-.36-.44-.54-.14-.17-.28-.35-.43-.52-.14-.17-.27-.33-.41-.5-1.34-.79-3.14-1.84-4.48-2.63-.63-.28-.71-.24-.8-.21-.08.04-.17.07-.25.11-.08.04-.16.07-.24.11-.08.03-.16.07-.24.1-.08.03-.16.07-.24.1-.08.03-.16.07-.24.1-.08.03-.16.07-.24.1-.08.03-.16.07-.24.1,3.45,4.04,7.55,7.44,11.11,11.37-1.22-.33-3.09-.15-4.2.46-.25,1.41-.55,3.31-.75,4.73,1.4,1.79,3.55,2.81,4.85,4.7.44.86.35.89.26.92-.08.03-.17.06-.25.1-.08.03-.16.06-.24.09-.08.03-.16.06-.24.09-.08.03-.16.06-.24.09-.08.03-.17.06-.25.09-.09.03-.17.06-.26.1-.09.03-.19.07-.28.1-.12-.19-.24-.38-.37-.56-.12-.19-.24-.37-.36-.56-.12-.18-.24-.37-.36-.55-.12-.18-.24-.36-.36-.54-.12-.18-.24-.36-.36-.54-.12-.18-.24-.36-.35-.53-.12-.18-.24-.35-.35-.53-.12-.18-.24-.35-.35-.53-.67.26-1.56.61-2.24.87-.11.69-.25,1.61-.36,2.31,1.09,1.17,2.74,2.55,4.08,3.41-.77.14-1.79.32-2.56.45-3.42-2.79-5.57-4.62-9.99-9.94q6.87-1.42,7.58-1.72c-.57-3-1.22-6.4-3.02-7.46-9.08-5.36-19.92-6.23-29.04-11.46-.37.67-.87,1.56-1.25,2.23-1.33-.54-3-1.53-4.15-2.39.28.64.66,1.49.94,2.13-.75,0-1.75-.01-2.5-.02.27,1.36,1.28,3.05,2.24,4.05-1.28-.24-2.96-.73-4.17-1.23.24.67.57,1.57.81,2.24-.9-.98-2.12-2.27-3.04-3.22q-1.76,15.28-4.59,15.61c-2.2,7.11-3.1,10.05-2.8,21.69-.6.43-1.41,1-2.02,1.43-.91,1.26-.88,1.36-.84,1.47.04.11.07.21.1.32.04.11.07.22.11.33.04.11.08.23.11.34.04.12.08.24.12.36.04.13.09.26.13.39.05.14.09.28.14.42.05.15.1.3.15.46-5.08,1.5-10.89,9.67-10.94,9.75.1.38.19.76.29,1.14.09.37.18.74.28,1.11.09.36.18.72.27,1.08.09.35.17.7.26,1.06.08.34.17.69.25,1.03.08.34.16.67.24,1.01.08.33.16.66.24.99.08.33.15.65.23.98.67.04,1.56.1,2.23.14q6.09,12.65,14.28,6.91c4.67-3.28,13.9,8.11,13.94,13.61,1.19.86,2.77,2,3.96,2.85,5.11-9.7,5.43-11.3,3.47-17.13,3.8-5.31,5.38-7.51-2.78-14.53-1.81-1.6-1.93-1.92-2.05-2.24-.12-.32-.24-.64-.36-.95-.12-.32-.24-.63-.36-.95-.12-.31-.24-.63-.36-.94-.12-.31-.24-.62-.36-.94-.12-.31-.24-.62-.36-.93-.12-.31-.24-.62-.36-.92-.12-.31-.24-.61-.37-.92q3.25-10.11,3.22-18.04c5.71-1.55,6.36-.56,8.78,3.11-.65-.14-1.51-.34-2.15-.48-2.88,35.17,13.47,24.31,13.65,24.12.83-.96,2.05-2.28,3.23-2.75,1.03.84,2.32,2.09,3.19,3.1-1.32.75-3.34,1.41-4.86,1.41-2.72,3.86-2.74,4.48-2.83,7.1,1.26.95,2.93,2.22,4.19,3.17.02.73.05,1.71.07,2.44-.67.15-1.56.35-2.22.5-1.29-1.2-3.02-2.79-4.31-3.99-.79,5.94,3.46,11.36,1.81,17.4-1.62,5.92-5.36,3.98-7.37,2.94q-2.61,1-7.79,6.27c-3.94-.9-8.16,3.03-11.94-.7-5.15-5.09-.39-14.18-7.47-18.48-.46.5-1.07,1.17-1.53,1.68,1.23.62,2.52,2.13,3.11,3.37-1.04,1.05-2.94,1.95-4.4,2.2-.79.5-.73.76-.67,1.02.06.26.12.51.17.77.06.25.11.51.17.76.06.25.11.5.17.75.06.25.11.5.17.75.05.25.11.49.16.74.05.25.11.49.16.74.05.25.11.49.16.74,1.28.97,2.99,2.27,4.27,3.24.06.26.11.51.17.77.05.25.11.51.16.76.05.25.11.5.16.74.05.24.1.48.15.72.05.23.1.47.15.7.05.23.09.45.14.68.05.22.09.43.13.65.04.2.08.41.13.61-5.99,3.33-7.33,4.06-13.05,7.03.2,1.76.45,4.1.64,5.85-.13,2.01-.46,2.05-.8,2.08-.32.03-.64.07-.96.1-.31.03-.62.07-.93.1-.3.03-.61.06-.91.09-.3.03-.6.06-.9.09-.3.03-.59.06-.89.09-.3.03-.59.06-.89.09-.3.03-.6.06-.9.09q-1.12,3.52-8.11,10.38c-1.36-.76-3.18-1.77-4.53-2.54-.81-.14-.78.19-.74.52.03.3.06.61.09.91.03.28.06.56.08.84.03.26.05.51.08.77.02.24.05.48.07.72.02.23.04.45.07.68.02.21.04.43.06.64.02.21.04.41.06.62-5.86,1.7-6.47,1.94-8.9,4.72.28.68.65,1.6.93,2.28,4.99,1.73,7.92,6.15,11.93,9.15q-1.26,2.17-2.2,12.98c-.31-.16-28.09-.16-27.05,5.53q1.8,9.86-2.64,18.07c.07.23,12.59,20.06,33.39,10.16,4.02-12.35,13.6-22.05,16.6-34.89,3.96-1.91,8.21-.48,12.28-1.09.68-1.24,2.16-2.72,3.5-3.15.38-.07.41-.07.43-.07.02,0,.05,0,.07,0,.02,0,.05,0,.07,0,.02,0,.05,0,.07,0,.02,0,.05,0,.07,0,.02,0,.05,0,.07,0,.02,0,.05,0,.07,0,.02,0,.05,0,.07,0,1.16-.66,2.53-1.89,3.3-2.98.74-.04,1.73-.09,2.47-.12,6.53,8.01,16.45,12.23,22.8,20.45.02.2.03.4.05.6.02.22.04.43.05.65.02.23.04.46.06.7.02.24.04.49.06.73.02.26.04.51.06.77.02.26.04.53.06.79.02.27.04.54.06.8.02.27.04.54.06.81q2.38-.86,5.29-5.01c-.88-1.12-1.73-2.87-2.11-4.24,1.45-.12,3.4-.11,4.84.06.4-.58.92-1.35,1.32-1.93-23.49-15.88-28.37-19.19-22.75-26.56,1.02.57,24.96,14.12,32.19,36.56.65,1.22.92,1.16,1.18,1.1.26-.06.51-.11.77-.17.25-.06.49-.11.74-.17.24-.05.48-.11.72-.16.23-.05.47-.11.7-.16.23-.05.45-.11.68-.16.22-.05.44-.1.67-.16.22-.05.44-.1.65-.16-.31-.58-.72-1.35-1.03-1.93.62-1.17,1.76-2.58,2.8-3.41-.86-1.08-2.43-2.23-3.73-2.68-.88-.43-.9-.57-.91-.72-.01-.15-.03-.29-.04-.44-.01-.14-.03-.29-.04-.43-.01-.14-.03-.29-.04-.43-.01-.14-.03-.28-.04-.43-.01-.14-.03-.28-.04-.42-.01-.14-.03-.28-.04-.42-.01-.14-.03-.28-.04-.42.63-.3,1.47-.69,2.11-.98,1.26-.76,1.24-.93,1.22-1.09-.02-.16-.04-.32-.05-.48-.02-.16-.04-.32-.05-.47-.02-.16-.04-.31-.05-.47-.02-.16-.04-.31-.05-.47-.02-.16-.04-.32-.06-.47-.02-.16-.04-.32-.06-.49-.02-.17-.04-.34-.06-.5q8.61-2.78,10.21-4.08c-2.32,14.48-2.94,18.38,7.11,23.01.99-1.26,2.29-2.94,3.26-4.21.69-.05,1.62-.12,2.31-.17.54.55,1.25,1.29,1.79,1.84q1.96-.51,5.98-3.44c2.46,3.14,4.79,6.1-1.28,25.26q-10.63,4.5-10.9,6.65c-1.2-.53-2.71-1.48-3.7-2.35-1.37-.88-1.63-.8-1.9-.73s-.54.15-.8.22c-.27.07-.54.15-.81.22-.27.07-.54.14-.81.22-.27.07-.54.14-.81.22-.27.07-.54.14-.82.21-.27.07-.55.14-.82.21-.27.07-.55.14-.82.21-.27-.81-.63-1.9-.89-2.71-5.01-1.42-11.04-3.04-11.05-3.05q-1.95,2.13-4.83,6.22c-.13.42-.13.67-.13.92,0,.05,0,.09,0,.14,0,.3,0,.61,0,.91,0,.31,0,.63,0,.94,0,.32,0,.65,0,.97s0,.67-.01,1.01c0,.35,0,.7-.02,1.05,0,.36-.01.73-.02,1.09,0,.38-.01.75-.02,1.13q-4.32-.05-7.41-1.75c-.98-1.13-1.18-1.1-1.38-1.06-.21.04-.41.08-.62.12-.22.04-.43.08-.65.12-.22.04-.45.08-.67.13-.23.04-.46.09-.69.13-.24.04-.47.09-.71.13-.24.04-.48.09-.72.13-.24.04-.48.09-.73.13-.11-.74-.26-1.74-.37-2.48-4.94-3.22-11.49-1.54-16.23-5.35q-.4-15.61-3.06-16.12c-.25-.05-36.01,8.03-36.5,8.59-3.04,3.46-7.39,5.09-10.92,7.87q-8.2-1.12-11.64-2.69l-16.63,20.45c-.02,15.63-15.37,17-15.52,17,.09.84.5,1.97.3,2.79-1.83,7.62-8.38,12.5-11.27,19.5-3.42,8.3,2.4,16.74-.39,25.05-.47,1.39-1.85,3.18-5.8,3.83q4.59,5.03,4.84,5.54c-.69,1.29-1.29,3.26-1.27,4.73,1.27.59,3.05,1.18,4.4,1.5,5.73,13.32,13.21,15.18,14.04,15.34,4.55,7.54,10.69,9.25,12.72,9.81,10.47-9.06,40.35-11.85,40.65-11.88,1.02,1.15,1.86,3.19,1.97,4.73,4.44,1.92,9.65.28,13.93,2.96q-9.29,14.38-3.1,20.95c-13.71,12.12-20.27,31.62-39.41,38.13,10.71-2.37,16-3.68,29.21-8.13l.26-.09q6.47-2.44,29.05-13.51c.39-.21.52-.29.66-.37.13-.08.26-.16.38-.24.12-.08.25-.15.37-.23.12-.08.24-.15.36-.23.12-.07.24-.15.35-.22.12-.07.23-.15.35-.22.11-.07.23-.14.34-.22.11-.07.23-.14.34-.22,37.28-19.54,87.02-84.87,88.68-93.5q-10.52,9.28-12.69,8.61c-.31-.61-.72-1.43-1.03-2.04q1.13-2.97,1.69-9.34c-.46-.47-1.07-1.1-1.53-1.57,3.25-18.76-9.21-35.16-8.03-53.61,1.2,3.31,1.64,4.62,2.6,7.51.77-.24,1.8-.57,2.58-.81.55.4,1.28.92,1.83,1.32.06.89.14,2.08.21,2.98.73,9.54,4.49,18.33,6.71,27.5,2.04,8.46-5.26,15.87-2.71,24.38,8.51-11.51,18.7-21.76,25.6-34.46q.78-1.59.78-1.59h0s0,0,0,0h0s0,0,0,0h0s0,0,0,0h0c6.55-10.11,6.31-15.04,5.54-31.37q-3,9.48-4.87,11.49c-.55-.38-1.29-.88-1.84-1.26-.29-.49-.25-.72-.22-.94.03-.23.07-.46.1-.69.03-.22.06-.45.09-.68.03-.22.06-.43.09-.65.03-.2.05-.4.08-.6.02-.18.05-.36.07-.54.02-.16.04-.31.06-.47.02-.13.03-.25.05-.38-4.24-9.01-4.78-10.17-4.04-14.94.66.06,1.54.14,2.2.2.28-.62.65-1.45.92-2.07.86,8.22.97,8.41,2.84,11.59q2.71-.51,5.81-6.44-.67,4.63-.16,7.69c.2-.2.4-.39.59-.59.19-.19.38-.39.57-.58.18-.19.36-.38.54-.58.17-.19.34-.38.51-.57.16-.19.33-.37.49-.56.16-.18.31-.37.46-.55.15-.18.29-.36.44-.55.14-.18.28-.36.41-.54.15-.68.35-1.58.5-2.26.12.65.29,1.51.42,2.16.33-.68.77-1.59,1.1-2.27.47,3.57.52,3.95-1.1,11.36.71-3.38,1.65-7.89,2.36-11.27,3.34-23.63,3.61-25.56,3.78-41.5-.96-25.07-.98-25.54-3.22-39.15-5.01-23.9-5.1-24.35-9.49-37.18-8.55-21.89-8.88-22.74-15.3-34.68-11.84-19.92-12.3-20.7-20.73-31.66-14.4-17.15-15.26-18.18-25.88-28.16-13.06-11.23-23.37-20.11-42.99-31.41"/>
            <path class="cls-15" d="m109.14,179.25s0,0,0,0c0,0,0,0,0,0-.02,0-.05,0-.07,0,.02,0,.05,0,.07,0m79.16,280.77h.04s.03.02.04.02c.01,0,.03,0,.04.01.01,0,.03,0,.04.01.01,0,.03,0,.04.01s.03,0,.04.01c.01,0,.03,0,.04.01.01,0,.03,0,.04.01.01,0,.03,0,.04.01.01,0,.03,0,.04.01.01,0,.03,0,.04.01.01,0,.03,0,.04.01.01,0,.03,0,.04.01.01,0,.03,0,.04.01.01,0,.03,0,.04.01.01,0,.03,0,.04.01.01,0,.03,0,.04.01.01,0,.03,0,.04.01.01,0,.03,0,.04.01.01,0,.03,0,.04.01s.03,0,.04.01.03,0,.04.01.03,0,.04.01.03,0,.04.01c.01,0,.03,0,.04.01.01,0,.03,0,.04.01.01,0,.03,0,.04.01.01,0,.03,0,.04.01.01,0,.03,0,.04.01.01,0,.03,0,.04.01h.04s-.02,0-.03,0c0,0-.02,0-.03,0,0,0-.02,0-.03,0,0,0-.02,0-.03,0,0,0-.02,0-.03,0,0,0-.02,0-.03,0,0,0-.02,0-.03,0,0,0-.02,0-.03,0-.01,0-.03,0-.04-.01-.01,0-.03,0-.04-.01-.01,0-.03,0-.04-.01-.01,0-.03,0-.04-.01-.01,0-.03,0-.04-.01-.01,0-.03,0-.04-.01-.01,0-.03,0-.04-.01-.01,0-.03,0-.04-.01-.01,0-.03,0-.04-.01-.01,0-.03,0-.04-.01s-.03,0-.04-.01c-.01,0-.03,0-.04-.01-.01,0-.03,0-.04-.01-.01,0-.03,0-.04-.01-.01,0-.03,0-.04-.01-.01,0-.03,0-.04-.01-.01,0-.03,0-.04-.01-.01,0-.03,0-.04-.01h-.04s-.03-.02-.04-.02h-.04s-.03-.02-.04-.02-.03,0-.04-.01-.03,0-.04-.01c-.01,0-.03,0-.04-.01-.01,0-.03,0-.04-.01-.01,0-.03,0-.04-.01-.01,0-.03,0-.04-.01-.01,0-.03,0-.04-.01s-.03,0-.04-.01c-.01,0-.03,0-.04-.01-.01,0-.03,0-.04-.01,0,0,.02,0,.03,0,0,0,.02,0,.03,0,0,0,.02,0,.03,0,0,0,.02,0,.03,0,0,0,.02,0,.03,0,0,0,.02,0,.03,0,0,0,.02,0,.03,0,.01,0,.02,0,.03,0h.04m-55.43-48.93h0m0,0h0m0,0h0s0,0,0,0m0,0h0m0,0h0,0m0,0h0m0,0h0s0,0,0,0m0,0h0m0,0h0s0,0,0,0m0,0h0m0,0h0s0,0,0,0m0,0h0s0,0,0,0m0,0h0s0,0,0,0m0,0h0m0,0h0s0,0,0,0m0,0h0s0,0,0,0m0,0h0s0,0,0,0m0,0h0s0,0,0,0m0,0h0s0,0,0,0m0,0h0s0,0,0,0m0,0h0s0,0,0,0m0,0s0,0,0,0c0,0,0,0,0,0m0,0h0s0,0,0,0m0,0h0s0,0,0,0m0,0h0s0,0,0,0m0,0h0s0,0,0,0m0,0h0s0,0,0,0m0,0h0s0,0,0,0m0,0h0m0,0h0s0,0,0,0m0,0h0m0,0h0s0,0,0,0m0,0h0m0,0h0s0,0,0,0m0,0h0s0,0,0,0m0,0h0s0,0,0,0m0,0h0s0,0,0,0m0,0s0,0,0,0c0,0,0,0,0,0m0,0h0s0,0,0,0m0,0h0s0,0,0,0m0,0h0s0,0,0,0m0,0h0s0,0,0,0m0,0h0s0,0,0,0m0,0h0s0,0,0,0m0,0h0s0,0,0,0m0,0h0s0,0,0,0m0,0h0s0,0,0,0m0,0h0s0,0,0,0m0,0h0s0,0,0,0m0,0s0,0,0,0c0,0,0,0,0,0m0,0h0s0,0,0,0m0,0h0s0,0,0,0m0,0h0s0,0,0,0m0,0h0s0,0,0,0m0,0h0s0,0,0,0m0,0h0s0,0,0,0m0,0h0s0,0,0,0m0,0h0s0,0,0,0m0,0h0s0,0,0,0m0,0h0m0,0s0,0,0,0h0m0,0h0s0,0,0,0h0m-.09-.16l.02.03s.01.02.01.03c0,0,0,.02.01.03,0,0,0,.02.01.02,0,0,0,.01.01.02,0,0,0,.01,0,.02,0,0,0,0,0,.01-.02.28-.12.37-.28.48-.12-.14-.25-.27-.36-.41-.03-.04-.1-.06-.08-.13t.62-.14s.01.02.02.03m53.84,20.74c-.94-.93-2.32-2.07-3.42-2.8-.02-.65-.05-1.52-.07-2.18q-31.59-14.4-39.91-15.65c-1.02.81-2.73,1.54-4.02,1.62.28-.58.66-1.35.95-1.93q-1.48-1.48-7.02-.86c2.94-11.68-21.55-23.33-21.82-23.36-.4.54-.93,1.27-1.33,1.82q-18.67-16.54-18.55-19.74-3.71-.59-31.16-14.23c-.12.73-.27,1.7-.39,2.43-.71.09-1.66.21-2.38.3-.39,3.23-.28,6.22.33,8.86-4.54-5.41-5.26-6.15-8.53-8.74-16.41,3.29-4.24-27.83-20.95-28.65-2.85-8.2-1.8-17.54-7.34-24.94-.61.14-1.43.33-2.04.47-.13,1.66-.09,3.92.18,5.56-.53.34-1.23.79-1.75,1.13-.13-.14-12.49-16.16-8.73-47.31.82,1.07,1.7,2.7,2.08,3.99.18-.69.42-1.62.6-2.31.79-1.33.8-1.1.82-.88.01.22.02.44.04.67.01.22.02.43.04.65.01.21.02.42.04.63.01.2.02.4.04.59.01.19.02.37.04.56.01.17.02.34.03.52.01.16.02.31.03.47.57,1.22,1.49,2.77,2.28,3.86.51-1.18.85-2.94.71-4.22.57-.27,1.34-.63,1.91-.9,13.17,8.43,9.5,24.88,17.12,35.96,1.65-14.13-10.04-29.12,2.72-42.54.84.04,1.95.09,2.78.13,7.73-8.56,3.85-23.52,16.26-29.5,1.27.46,3.06.85,4.41.99.53-.6,1.23-1.4,1.75-2-.85-2.81-.9-3.52.3-7.12,7.75-3.2,13.67-9.92,22.23-11.55-1.17,5.49-11.24,6.7-8.26,13.57l16.95-8.32c-.55-2.85-.56-2.9-4.37-5.43q-1.62-.66-1.63-.66s0,0,0,0,0,0,0,0h0s0,0,0,0,0,0,0,0c0,0,0,0,0,0h0c-4.75-3.96,1.87-10.09-2.69-14.08-3.23.23-4.2.3-9.03,2.88,1.97-4.54,6.94-5.34,10.24-8.22.1.1,10.45,9.87,21.28.91,1.05-.58,1.34-.52,1.63-.46.29.06.58.12.87.17.29.06.59.12.88.17.3.06.6.12.9.17.3.06.6.12.91.17.31.06.61.12.92.17.31.06.62.12.93.17.31.06.63.12.94.17q2.77-12.32-.18-14.96c-2.47.93-3.3,1.24-6.05,1.39,2.38-1.39,3.36-2.01,6.36-4.76-.86-1.06-1.73-2.73-2.04-4.06-.66.05-1.54.13-2.19.18-.85-1.81-1.58-3.38,1.22-13.05-.43-.54-1.01-1.25-1.45-1.79.05-.15.11-.3.16-.45.06-.16.11-.31.17-.47.06-.16.12-.33.18-.49.06-.17.12-.34.18-.51.06-.17.13-.35.19-.52.06-.18.13-.35.19-.53.06-.18.13-.35.2-.53.07-.18.13-.35.2-.53-.51-.55-1.19-1.28-1.7-1.82.17-2.42.84-4.77,1.04-7.19q-15.76,9.44-14.37,2.84,3.49-16.46-2.49-20.53c-.08-.63-.18-1.47-.25-2.09q-5.11-.31-36.1,53.28c-1.13-.54-2.96-.7-4.15-.34q-.94-1.83,5.37-18.94c-.57-1.16-1.86-2.46-2.98-3.09-1.3-5.93-5.29-15.76-5.32-15.78.21-3.73,3.33-6.88,2.2-10.88,7.44-12.14,23.8-11.71,32.02-22.74-.29-1.24-.1-3.06.41-4.22.69,1.04,2.16,2.18,3.38,2.45,1.18-1.02,2.68-2.48,3.74-3.63.9.92,1.82,2.5,2.08,3.76,10.09-.75,15.87-15.62,15.87-15.76-.59-.32-1.37-.75-1.96-1.07-.86.37-10.52,6.71-13.59,10.57-.05-.75-.12-1.75-.17-2.5q4.9-5,5.8-8.1c-1.38.6-3.13,1.61-4.37,2.46,3.25-5.47,12.84-7.39,10.34-16.03-8.21,3.03-11.55,12.48-20.02,15.18.28-.63.65-1.47.93-2.1-.3-.56-.7-1.31-1-1.87-1.23.69-2.94,1.5-4.27,1.95-1.02-.75-2.33-1.82-3.28-2.65.25-1.32.94-3.02,1.64-4.16-3.32.49-3.81,1.02-5.35,3.18-.07-1.41.43-3.36,1.15-4.57-.64-.08-1.5-.19-2.14-.27,5.15-6.07,5.66-14.78,11.59-20.41-1.23.63-2.84,1.53-4.04,2.24,1.05-.92,2.46-2.14,3.52-3.03q-2.53.55-6.01,2.9c3.95-5.34,13.87-12.86,13.97-12.94-5.66,4.47-13.12,10.55-18.54,15.31-15.49,15.26-16.75,16.5-26.02,28.1-13.27,18.31-14.07,19.4-20.87,31.63-10.45,20.95-10.86,21.77-15.45,34.65-6.98,22.78-7.25,23.67-9.63,37.17C.29,216.9.17,217.85.09,231.84c.86,22.46,1.07,27.8,5.75,51.98l3.25,12.66.19.66c6.26,20.52,33.82,58.78,34.05,58.99,1.05,1.02,1.1,1.13,1.16,1.24.05.11.11.21.16.32.05.1.11.21.16.31.05.1.1.2.15.3.05.1.1.19.15.29.05.09.1.19.15.28.05.09.1.19.15.28.05.09.1.18.15.28,1.95,1.91,4.12,3.56,6.18,5.34.08-.64.19-1.49.27-2.13,13.5,11.45,15.98,30.35,28.64,42.36.04.02.09.05.13.07.04.02.09.05.13.07.04.02.09.05.13.07.04.02.08.04.12.06.04.02.07.04.11.06.03.02.07.03.1.05.03.01.06.03.08.04.02.01.04.02.07.03,33.95,30.21,66.2,43.9,87.27,50.06q10.57,2.8,16.25,3.98l6.53,1.25-.24-.04q-2.86-.88-9.32-3.93,1.21-.82,6.36-1.41-5.7-15.41-1.76-23.73"/>
            <path class="cls-15" d="m242.73,43.69q-1.22,2.47-9.01,6.22c.77.5,1.55.99,2.33,1.47-1.19,3.29-4.38,5.5-4.92,9.14q4.21-.05,5.18,1.05s.57,3.73-.28,4.49q-2.04,1.84-1.99,4.73c1.38.98,2.09,1.48,4.16,2.87q-3.49,6.05-5.05,6.44,0,1.17-3.18,3.28c-.08.4-.19.94-.27,1.34q-5-.25-5.84.95c.86,3.78,5.88,3.92,6.73,7.71.16.73-.47,5.39-4.33,3.03q-8.02-4.9-7.59.4,7.43,1.42,8.23,2.19c-.96,4.75-7.94,10.13-10.05,11.67-.66.48-2.2,1.6-4.55,1.47-2.15-.11-3.75-1.82-5.86-2.02-6.35-.6-4.63,7.94-8.9,10.2q-2.44,1.29-14.87,2.07c-.41-.02-.42-.02-.42-.02,0,0,0,0,0,0,0,0,0,0,0,0,0,0,0,0,0,0,0,0,0,0,0,0,0,0,0,0,0,0s0,0,0,0c0,0,0,0,0,0,0,0,0,0,0,0,0,0,0,0,0,0,0,0,0,0,0,0,0,0,0,0,0,0,0,0,0,0,0,0,0,0,0,0,0,0,0,0,0,0,0,0,0,0,0,0,0,0-.81.13-1.46.24-2.3,1.56-1.67,2.61-1.42,6.04-3.62,8.42q-3.97,4.31-6.4,9.28c-5.63,11.52-8.74,9.72-8.87,9.63-.08-.05-8.68-9.79-8.89-12.15-.02-.24-1.69-24.29,4.91-32.71,1.13-1.44,2.77-2.09,4.23-2.53q3.3-1,6.07-7.5-4.4-1.02-3.75-3.91c1.17.02,2.34.04,3.51.05.08-.17.15-.34.23-.51.08-.17.16-.34.23-.51.08-.18.16-.35.24-.53.08-.18.17-.37.25-.55.09-.19.18-.38.27-.58.09-.2.19-.41.28-.61.1-.22.2-.43.3-.65.11-.23.22-.47.33-.7-1.6.81-3.21,1.6-4.83,2.4q7.93-22.44,7.81-24.11-.04-.6-9.74-2.66s-.09-.02-.13-.03c-.04,0-.09-.02-.13-.03s-.09-.02-.13-.03c-.04,0-.09-.02-.13-.03-.04,0-.09-.02-.13-.03l-.13-.03s-.08-.02-.13-.03-.08-.02-.13-.03c-.49-.64-.65-.86-.35-4.27,2.23-1.69,6.52.21,7.41-3.56-1.47-1.26-3.25.48-4.74-.5q0-1.02,9.16-5.25c2.41-1.11,5.1-1.38,7.53-2.45.39-.17.65-.77.83-1.16l13.91-7.86,4.24-.86q.24.5.43,2.63,1.16-1.13,1.87-2.01c.33-.32.39-.31.45-.31.06,0,.12.02.18.02.06,0,.12.02.19.02.06,0,.13.02.19.02.06,0,.13.02.19.03.07,0,.13.02.2.03.07,0,.14.02.21.03.07,0,.15.02.22.03-.1.14-.21.28-.31.43-.11.15-.21.29-.32.44-.11.15-.21.3-.32.45-.11.15-.22.3-.33.46-.11.15-.22.31-.33.47-.11.16-.22.32-.33.48-.11.16-.23.32-.34.49-.12.17-.23.33-.35.5.08.01.16.02.25.03.08,0,.16.02.23.03.08,0,.15.02.23.03.07,0,.15.02.22.03.07,0,.15.02.22.03.08,0,.15.02.23.03.08,0,.16.02.23.03.08,0,.16.02.25.03.1-.16.2-.31.31-.47.1-.16.2-.31.31-.47.1-.16.2-.31.31-.47.1-.16.21-.31.31-.47.1-.16.21-.31.31-.47.11-.16.21-.31.32-.47.11-.16.21-.32.32-.47.11-.16.22-.32.32-.48.15.02.29.03.44.05.14.02.28.03.43.05.14.02.28.03.41.05.13.01.27.03.4.04.13.01.26.03.39.04.13.01.25.03.38.04.12.01.25.03.37.04.12.01.24.02.36.04-.19.81-.36,1.62-.52,2.43,1.49-1.41,1.27-3.91,3.22-5.02q.33-.19,2.99,1.47,6.92-5.4,10.06-5.68c.2.03.48.08.68.11.31.84.54,1.7.8,2.55-1.05,1.28-2.76,1.3-4.05,2.14.2.35.48.82.69,1.17,1.99-.46,3.36-2.2,5.37-2.61.19-.04,1.86-.33,3.36.84.15.19.15.26.15.34,0,.07,0,.15,0,.23v.23c-.01.08-.01.15-.02.23,0,.08,0,.15,0,.23,0,.08,0,.15,0,.23,0,.08,0,.15,0,.23,0,.08,0,.15,0,.23q-10.01,3.15-10.95,4.09c2.41-.48,4.7-1.37,7.12-1.83-.02.15-.04.31-.06.47-.02.15-.04.29-.05.44-.02.14-.03.28-.05.41-.02.13-.03.26-.05.4-.02.13-.03.26-.05.39-.02.13-.03.25-.05.38-.02.13-.03.25-.05.38-.02.13-.03.26-.05.39,2.07.91,2.49-2.24,4.36-2q.21.78-1.9,5.5c.39.18,1.05.25,1.42.05,1.76-.95,2.37-2.95,3.83-4.17,1.4-1.17,3.45.06,4.81-1.29,2.28.49,2.74,1.23,3.33,2.17-.03.06-.07.14-.1.2"/>
            <path class="cls-15" d="m136.52,110.68c-1.92,2.83-5.05,4.57-6.77,7.59-.12-.03-.24-.05-.36-.08-.12-.03-.24-.05-.37-.08-.12-.03-.25-.05-.37-.08-.12-.03-.25-.05-.37-.08-.13-.03-.25-.05-.38-.08-.13-.03-.26-.06-.39-.08-.13-.03-.26-.06-.39-.09-.13-.03-.27-.06-.4-.09.21-5.19.11-6.86-1.05-9.62-6.66,4.46-4.32,6.81-3,7.62,4.72,2.88-5.84,13.95-5.96,14.06q-1.66-6.5-1.7-6.54-.6.03-1.45.36c-.21.52-.47,1.17,0,3.67.51,2.66-.1,3.87-2.83,5.65-2.66-3.73-4.32-7.33-4.91-14.74-.13-1.68-.45-1.77-1.86-1.47-4.69,1.01-5.8,1.25-6.39-.59-.58-1.83,3.21-7.58,5.45-7.36,1.97.19,3.99-.06,5.92.57,14.03-7.67,12.26-13.74,11.16-14.11-.98-.33-1.99-.56-2.98-.87,2.01-3.13,5.76-8.97,2.23-8.45-1.42.21-2.48,1.66-4.1,1.19-2.02-.59.93-4.09-1.16-4.31-2-.2-4,1.25-6,.02-.11-.07-.22-.22-.32-.31q.44-.84,4.57-4.37c-2.69-2.03,3.45-7.86,13.69-13,.39-.1.49-.06.58-.02.1.04.19.08.29.12.1.04.2.08.3.12.1.04.2.08.31.13.11.04.21.09.32.13.11.05.22.09.34.14.12.05.24.1.36.14.13.05.25.1.38.15q-7.47,4.76-8.45,7.02c4.39-.53,6.47-4.49,9.8-6.59.15.06.31.12.46.17.16.06.31.12.47.17.16.06.32.12.47.17.16.06.32.12.48.17.16.06.32.12.49.17.16.06.33.12.5.18.17.06.34.12.51.18.17.06.34.12.52.18-2.19,3.41-6.11,4.98-8.55,8.12,2.42-.5,3.74-2.98,6.18-3.45.15-.03,4.26.25,5.17,1.27-.18,2.71-3.19,4.25-2.96,7.13.28,3.58,5.07,5.08,4.25,9.18,0,.04-1.02,4.1-5.91,6.64-.96,3.84-1.53,6.16.19,6.96,2.35,1.09,6.71,3.12,4.02,7.08"/>
            <path class="cls-15" d="m193.96,37.31c-2.19,2.06-6.84,1.28-7.32.96-7.92,9.44-13.87,9.53-13.89,8.2-.02-1.92-2.21-.63-3.66.22-8.27,4.87-10.13,5.64-13.31,5.51-1.11,1.07-1.45,2.69-2.64,3.7-2.04,1.72-6.08,3.64-6.11,3.66-1.45.63-2.22-.91-3.41-1.09-.72-.11-1.73.03-2.79.17-.56-1.31-2.53-2.01-1.78-3.87,1.35-3.37,4.07-3.92,4.97-4.1-.35.58-.7,1.17-1.04,1.77,4.34-1.87,8.89-3.27,13.01-5.64,2.39-1.37,3.9-3.75,6.11-5.33-.22,2.27-.07,2.27,1.35,2.35.66-3.29,4.48-1.57,6.64-2.55,1.87-.84,2.49-1.26,3.9-2.32-3.02.44-5.85,1.91-8.99,1.72-1.06-.06.25-1.49.32-2.24,0,0,0,0,0,0h0s0,0,0,0c0,0,0,0,0,0h0s0,0,0,0h0s0,0,0,0c-.08-.08-.19-.18-.27-.26.57-1.65,2.96-4.65,12.53-6.13.06.09.13.2.19.29q-.33.52-1.97,2.32c2.7-.38,4.69-2.72,7.52-2.74.06.09.13.2.19.29-.06.2-.14.46-.2.66,1.27.45,2.07-.77,3.17-.91.04.1.09.23.13.33-.52.69-1.18,1.27-1.61,2.04q.48.17,5.49-2.31,2.14,1.49,5.65,2.09c-.45.98-.96,2.09-2.16,3.21"/>
            <path class="cls-15" d="m95.3,72.26c-.54-.21-1.07-.42-1.6-.65-1.59,1.49-2.52,3.52-4.12,5.01-.82.76-1.66,1.14-2.49,1.12-2.23-.05-6.18-6.35-6.21-6.41,1.79-2.38,2.79-5.29,4.95-7.42.02-.02,1.7-1.45,1.93,0,.05.32.12.75.97.46,1.55-.55,1.55-.83,1.56-1.35,0-.61-.71-.9-.69-1.52.01-.37.29-.89.81-1.54.73-.91,3.5-2.73,3.7-1.73q.16.79,2.48-.71c1.53-1,1.77-1.15,6.24-2.08.49-.1,1.13-.24,1.62-.35-1.37,1.09-2.73,2.2-4.09,3.32,1.19.04,1.99-1.03,3.14-1.12-.07.21-.07.22-.97,1.21-1.13,1.24-1.46,1.68-3.05,3.82,2.65-1.56,4.71-4.05,7.81-4.9q-1.74,3.4-3.22,4.15c-2.55,1.29-7.5,6.32-6.92,7.41,0,0,0,0,0,0,0,0,0,0,0,0s0,0,0,0h0s0,0,0,0c0,0,0,0,0,0,0,0,0,0,0,0h0s0,0,0,0h0s0,0,0,0h0s0,0,0,0h0s0,0,0,0h0q.03.09-1.54,3.41c-.1-.04-.24-.09-.34-.13"/>
            <path class="cls-15" d="m367.07,421.04l-.46.33-2.61,1.84c-.3.21-.6.42-.91.62l-7.49,4.92c-6.29,3.7-14.77,8.49-21.24,11.86,9.12-4.53,11.33-5.93,20.63-11.83.43-.27.99-.64,1.42-.92,2.65-1.73,5.37-3.35,7.97-5.16,3.5-2.43,6.66-5.32,10.25-7.63.08-.05.18-.12.26-.16-.32.41-4.38,3.67-7.82,6.14"/>
            <path class="cls-15" d="m300.05,189.76c.03.24.07.49.1.73.04.25.07.5.11.75.04.26.07.51.11.77.04.26.07.53.11.79.04.27.08.54.11.81.04.28.08.56.12.84.04.29.08.58.12.88-.62.28-1.25.55-1.87.82-.07,1.16,1.26,2.74-.2,3.48-1.56.79-3.37.85-4.91,1.71-1.25.69-1.61,1.26-2.26,2.28-.22.02-.44.03-.67.05-2.53-1.51-3.98-.96-6.25.83q-2.4,1.89-8.03,3.28,3.9-8.44,8.04-10.32c-1.77-.08-3.54-.17-5.31-.24-.35-2.37,2.09-4.99-.51-7.16,1.83-2.02,4.69-2.88,6.1-5.39-1.19-1.78-3.41-5.09-8.26-3.69-.87-3.04-.92-3.09-4.78-5.82,3.45-5.12,2.85-6.58-3.22-7.81q-.26-2.95,1.26-5.36c.53,1.75,1.06,3.49,1.6,5.24.77-1,1.68-1.9,2.34-2.98.52-.84.47-1.93,1.15-2.7.79-.91,1.58-1,2.41-1.1.59-.02.72-.02,1.43.03.27,1.26.53,2.51.79,3.77.24-.02.48-.03.73-.05.24-.02.49-.03.73-.05.24-.02.48-.03.73-.05.24-.02.48-.03.72-.05.24-.02.48-.03.71-.05.23-.02.47-.03.7-.05.23-.02.46-.03.68-.05.22-.02.44-.03.67-.05.84,1.58,1.12,2.11.69,3.29-.56,1.56-2.34,1.99-3.11,3.37q3.75,1.61,4.73,2.76c1.36,1.59,1.33,3.77,2.32,5.52.98,1.71,2.71,2.83,3.64,4.59.76,1.42.41,3.25,1.63,4.5.77.8,1.68.88,4.69,1.17.03.24.07.48.1.72"/>
            <path class="cls-15" d="m340.57,44.43c1.67,1.21,1.64,1.59,1.62,1.79-.09,1.07.13,2.08,1.6,4.63.06.11,7.77,11.99,8.15,12.31,2.32,1.94,4.23,4.37,6.88,5.93,1.37.81,2.95,1.19,4.3,2.06,1.25.8,2.17,1.79,2.91,2.58q-.32.36-3,2.03c-.3-.19-.7-.44-1-.62-1.23-.77-2.14-1.92-3.37-2.69-1.07-.67-2.36-.89-3.43-1.57-.21-.14-.49-.33-.69-.48-2.14-1.68-3.79-3.85-5.68-5.78q.19-.59-3.6-4.07c.22-.26.43-.53.64-.8-.19-.15-.38-.31-.56-.46-.19-.15-.38-.31-.57-.46-.19-.16-.38-.31-.58-.46-.19-.16-.39-.31-.58-.47-.2-.16-.39-.31-.59-.47-.2-.16-.4-.32-.6-.47-.2-.16-.41-.32-.61-.48-.21-.16-.41-.32-.62-.48-.03-.2-.08-.4-.09-.61.93-.46.53-.92-.79-2.44q-.75-.86-.17-1.67c-.27-1.15-1.67-1.54-1.84-2.75-.14-.95.83-1.16,1.19-1.79-1.02-1.01-1.7-1.67-2.91-2.8q.13,0,.63-.64c.96-.42,3.35,1.16,3.37,1.17"/>
            <path class="cls-15" d="m102.75,54.04c-.6.38-1.42.9-3.74,1.47-1.15.29-2.34-.05-3.49.22-1.78.43-3.25,1.65-5.07,1.99-.78.15-.61-.42-.59-.48.23-.69,2.86-3.81,5.45-5.51,1.09-.72,13.74-7.23,14.49-7.59-.57.54-1.14,1.09-1.71,1.65.94-.36,1.88-.72,2.82-1.07-.84,1.13-2.1,1.83-2.97,2.94-.39.5-.39.71-.39.95,0,.4-.26.8-1.06,1.82-.39.51-.79,1.02-1.21,1.5-.67.76-1.52,1.47-2.53,2.11"/>
            <path class="cls-15" d="m296.3,54.36c.77,1.38,1.4,2.59,1.64,3.05-2.47-.47-3.46-.22-4.07,1q-3.66-4.06-5.26-4.59c.16,1.32.23,2.23.3,3.62.14.19.29.39.43.58.15.2.29.39.44.59.15.2.29.39.44.59.15.2.29.4.44.6.15.2.29.4.44.6.14.2.29.4.43.6.14.2.29.4.43.6.14.2.28.39.42.59-1.2,2.43-9.17-5.19-9.24-5.29-.71-1.03-.5-2.37-1.16-3.41-.39-.62-1.12-.7-1.68-1.05.06,1.68.2,5.19-3.18,2.03-6.73-6.28-3.08-6.86-3.04-6.87q.32-.01,2.51,2.51c.03-.78.04-1.27.03-2.11,1.37.73,2.75,1.46,4.13,2.18-.91-1.02-2.2-1.7-2.72-3.06,0,0,.17-1.09,1.05-1.37.17,0,.39,0,.77.18,3.04,1.52,5.24,4.36,8.54,5.48,1.21.41,2.52.39,3.72.84,3.82,1.42,3.88,1.54,4.21,2.12"/>
            <path class="cls-15" d="m246.53,129.12c-2.94,3.14-4.03,4.24-4.03,4.24q-.06.03-2.45-.07c-2.24-.1-2.86,1.41-3.03,2.32q-.19,1.02-.52,1.1c-1.88.48-2.21.22-3.62-.88-4.01-3.15-4.22-3.08-9.62-1.26q.77-2.53.95-2.73c.98-1.04,1.69-1.79,1.66-3.65-.02-1.26-1.29-1.71-2.72-.97q-1.64.85-2.1.94c-.62-.72-1.23-1.44-1.85-2.16q2.65-5.68,3.01-6.14t3.12-1.55c.78,1.28,1.57,2.56,2.36,3.83.41-.12.88-.06,1.23-.37.65-.56.79-1.51,1.51-2.02,1.06-.75,2.18-.05,2.84.36,1.33.83,2.47.95,3.19.91.71-.04,1.11-.26,1.3-.36,1.36-.74,2.33-1.06,4.89-1.09,2.27-.03,2.46-.03,3.43-.19q.38,1.14.89,9.25c-.14.15-.32.34-.46.49"/>
            <path class="cls-15" d="m138.79,65.44c-.7.72-1.4,1.45-2.1,2.18-.18-.72-.47-1.42-.58-2.16-.1-.72.36-1.46-.04-2.18-.26-.48-1.24-.3-1.89-.18-4.11.76-6.33.55-5.46-2.73,1.4-5.28,7.88-12.29,12.63-10.34.49.34.38.64-1.77,2.58-5.4,4.89-3.21,5.69-1.1,6.47q3.99,1.47,4.02,1.82c.01.1-.03.24-.04.34-.08.5-1.29,1.74-3.68,4.19"/>
            <path class="cls-15" d="m158.5,42.07q-4.53,3.18-8.82,5.35c-.11-.04-.21-.09-.32-.13-.11-.04-.22-.09-.32-.13-.11-.04-.22-.09-.32-.13-.11-.05-.22-.09-.32-.14-.11-.05-.22-.09-.33-.14-.11-.05-.22-.09-.32-.14-.11-.05-.22-.09-.32-.14-.11-.05-.22-.09-.32-.14,1.52-2.08,1.98-2.71,5.49-4.63-.41-.4-1.09-1.06,1.63-2.67,1.17-.69,10.89-5.11,11.52-5.08.04,0,.08.02.12.02.02.02.05.06.07.08-.01.13-3.85,5.51-3.88,5.55-1,1.08-2.37,1.64-3.55,2.46"/>
            <path class="cls-15" d="m117.5,53.62c-.38.24-.9.55-1.29.79.83-2.37-.68-3.13-4.49-2.25-2.02.47-3.2-.16-1-2.64.28-.32,5.34-3.59,6.69-3.78.02.02.04.05.06.07-.26.49-1.09.61-.92,1.37.23.08.39.12,1.7-.45,2.02-.89,3.09-1.22,3.01-.46.18-.11.36-.23.54-.34.16-.1.32-.2.48-.3.14-.09.29-.18.44-.27.13-.08.27-.17.4-.25.12-.08.25-.16.37-.23.12-.07.24-.15.36-.22.12-.07.24-.15.36-.22.12-.08.25-.15.37-.23.9-.1,1.81-.2,2.71-.31q-4.46,3.55-4.4,3.8c.12.56-.97,3.1-5.39,5.93"/>
            <path class="cls-15" d="m118.6,214.58c-1.2,3.73-4.49,4-5.45,1.89-.49-1.06-.71-2.21-1.08-3.31-.49.91-.94,1.84-1.43,2.75-.08.15-.16.39-.32.46-.31.14-1.94-.41-2.33-1.41q-.23-.59-.54-4.56c-3.41.09-5.22.12-8.44.14-.54-4.74,2.9-9.17,3.04-9.35,1.13-1.44,3.11-1.51,4.38-2.72,1.25-1.19,1.93-2.88,3.36-3.91,1.01-.73,1.63-.67,2.28-.6.54.12.9.27,1.51.63-.05.24-.11.49-.16.73-.06.25-.11.5-.17.76-.06.26-.11.52-.17.78-.06.27-.12.54-.17.8-.06.28-.12.55-.18.83-.06.28-.12.57-.18.85-.06.29-.12.58-.18.87-.06.3-.12.59-.19.89.26.05.51.1.77.14.25.05.49.09.74.14.24.04.47.09.71.13.23.04.46.08.68.12.22.04.44.08.66.12.21.04.43.08.64.11.21.04.42.07.63.11.21.04.41.07.62.11q1.11,6.16-.89,8.1c0,.93.46,1.87.7,2.01.95.53,1.63.91,1.15,2.41"/>
            <path class="cls-15" d="m275.11,183.99c-.05,1.65-1.03,3.09-1.04,4.75-.01,2.56.7,5.03.99,7.56q-6.25.36-6.74.49c-.17.04-.38.11-.54.18-1.14.51-1.85,1.61-2.98,2.13-1.28.58-2.69.69-4.03,1.07-1.55-4.07-1.19-6.07,1.44-7.93.15-1.43-.21-1.77-1.71-2.38-.65-.27-2.01-.82-1.23-2.63q1.05-2.42,6.41-2.98c.03-1.22.07-2.44.11-3.66,2.07-.54,4.13-1.09,6.19-1.64,1.28.96,3.22,2.41,3.13,5.05"/>
            <path class="cls-15" d="m108.06,68.32q-.58.41-5.52,2.85c-.31-.63-.53-1.08-.17-2.12.38-1.13,1.38-1.85,1.9-2.89.26-.52.21-1.14.48-1.66.03-.07.09-.15.13-.22.48-.75,1.93-1.87,4.45-3.79-.57,1.18-.94,1.99-1.55,3.44q3.18-2.49,3.6-2.86c.55-.49.79-1.27,1.47-1.65,1.81-1.04,3.91-1.41,4.58-1.05.12.18.44.66-.9,2.08-1.38,1.46-3.34,2.13-4.8,3.49-1.09,1.02-1.57,2.5-2.66,3.51-.29.27-.68.62-1,.85"/>
            <path class="cls-15" d="m49.43,325.02q.32,2.86-8.1-.96c.07-1.08.14-2.15.24-3.23.01-.14.1-.33.04-.45-.01-.02-2.47-3.88-5.68-7.59-3.29-3.79-6.3-5.56-8.95-5.26-.55-4.37.26-4.66,2.15-3.64.06.04,6.37,4.13,10.5,9.77,2.06,2.81,5.13,4.55,7.5,7.02.21.22,2.06,2.19,2.3,4.33"/>
            <path class="cls-15" d="m289.45,43.98c1.96,2.2,1.34,4.25,1.33,4.27-.16.28-.36.36-.59.42l-3.69.7c-.72-.12-1.18-.7-1.77-1.04-.38-.23-.77-.45-1.15-.68-.12-.13-.23-.26-.35-.4-.12-.14-.25-.28-.37-.41-.13-.15-.26-.29-.39-.44-.14-.15-.28-.31-.42-.46-.15-.16-.3-.33-.45-.49-.16-.17-.32-.35-.48-.52-.17-.19-.34-.37-.51-.56-.18-.2-.37-.4-.55-.59,1.41,0,2.82-.34,4.23-.01.62.14,1.27.29,1.85.17.87-.18.65-.93.55-1.29-.03-.1-.04-.2.15-.26.22-.07.45-.06.67-.13.61.49,1.42,1.15,1.94,1.74"/>
            <path class="cls-15" d="m128.6,38.93c-.3.16-.59.33-.89.49-.29.16-.59.33-.88.49-.29.16-.59.33-.88.5-.3.17-.59.34-.89.51-.3.17-.6.34-.9.52-.31.18-.62.36-.92.54-.32.19-.64.37-.95.56-.31-.27-.61-.56-.91-.85-2.52,1.03-4.04,1.66-6.26,2.6-1.86-1.09,4.39-4.87,6.64-5.26.18-.03.45-.04.62.04.23.11.61.3,2.59-.02,1.37-.22,2.65-.81,4.04-.91.24-.02.34.2.5.3-.3.17-.61.33-.91.5"/>
            <path class="cls-15" d="m127.51,52.87c-5.51,4.03-6.43,3.38-8.12,2.2,2.16-2.82,3.07-3.81,4.6-5.07,1.96-1.61,4.41-3.38,4.88-2.69q-.09.29-1.76,2.26c3.23-.83,3.81-.98,4.32-.73.21.28.57.74-3.93,4.03"/>
            <path class="cls-15" d="m122.9,64.14c-2.32,1.89-2.46,2-5.11,3.08-.13.05-.32.13-.45.18-1.3.5-2.71.52-4.03.95-1.34.43-2.27,1.58-3.63,1.98-.32.09-.85.16-.82-.48.04-.79.8-1.68.81-1.69.1-.09.29-.12.42-.17.94-.4,2.14-1.48,2.65-1.94,1.67-1.52,2.18-1.98,3.07-2.53,2.21-1.36,5.19-2.84,6.87-2.17.73.43.71.71.56,2.54-.1.08-.23.19-.33.27"/>
            <path class="cls-15" d="m65.86,336.7c.08.42.17.85.27,1.27-3.54-1.12-7.44-2.45-7.8-2.6-.49-.2-.95-.47-1.47-.59-.86-.21-1.52.84-2.43.39-2.19-1.07-3.67-3.04-5.59-4.45q.9-1.65,1-1.71c.24-.15.62.01,1.81,1.32.85.94,1.21.83,1.61.27.49-.68.51-.86-.25-1.92-1.08-1.5-1.74-3.67,2.63-2.29.96.36,1.13.43,3.63,2.95,6.41,6.47,6.52,7.03,6.59,7.37"/>
            <path class="cls-15" d="m138.32,44.85c-3.35,1.96-3.45.21-3.44.19.4-1.19,2.04-1.12,2.4-2.35,0-.01.33-1.06.54-1.33.04-.06.11-.13.15-.18.15-.18.75-.74,1.07-.99,2.29-1.81,4.51-2.64,5.09-2.44.12.13.2.3.36.38.03.02.03.02.03.02,0,0,0,0,0,0,0,0,0,0,0,0,0,0,0,0,0,0,0,0,0,0,0,0,0,0,0,0,0,0,0,0,0,0,0,0,0,0,0,0,0,0,1.8,1.59-6.13,6.64-6.21,6.69"/>
            <path class="cls-15" d="m315.07,21.34c5.01,1.72,6.43,2.84,6.75,3.48h0s0,0,0,0c0,0,0,0,0,0h0s0,0,0,0h0s0,0,0,0h0s0,.05,0,.07c-.47.38-5.47-1.49-5.52-1.51-.06-.02-6.71-3.27-6.76-3.34.08-.1,1.26-.17,5.53,1.3"/>
            <path class="cls-15" d="m89.17,113.74c-1.84-1.46-3.34-.59-5.62,1.65-2.09,2.05-2.83.84-2.86-.07-.13-3.8,4.84-10.04,8.18-10.27.25-.02.58.05.82.12,2.13,1.19,2.42,3.58,2.42,3.6-.04.86-.69,1.79-1.31,2.7q-.9,1.3-1.5,2.38s-.09-.07-.13-.1"/>
            <path class="cls-15" d="m325.58,24.05q3,1.44,3.15,1.83c-.11.15-.37.17-1.76-.07-.79-.14-1.61-.08-2.38-.35-.1-.04-6.29-3.3-6.31-3.33,0-.02,0-.04,0-.06.67-.27,6.59,1.64,7.29,1.98"/>
            <path class="cls-15" d="m327.36,23.39c2.03.93,4.32,1.99,4.25,2.67-.36.16-2.07-.43-2.09-.44-3.05-1.24-5.97-2.78-9.01-4.06,1.76.55,2.55.79,2.82.71q0-.08-.26-.35c3.55,1.13,3.75,1.23,4.28,1.47"/>
            <path class="cls-15" d="m144.14,45.25c-3,1.98-5.08,2.2-5.96,2.29,2.58-2.66,3.19-3.29,5.61-4.72,2.39-1.41,2.88-1.7,4.19-1.05.14.07.28.16.42.24-1.43,1.07-2.76,2.26-4.25,3.24"/>
            <path class="cls-15" d="m94.72,79.85c-.8.74-1.51,1.24-1.99,1.41-.08.03-.19.07-.27.08-.49.1-1-.04-1.49.05-.45.09-.81.42-1.27.48-.09.01-.29.04-.3-.21-.05-.81,1.45-2.49.34-2.36,5.32-4.03,6.14-4.65,6.84-4.33.1.09.31.28.03,1.01q-1.24,3.27-1.87,3.86"/>
            <path class="cls-15" d="m133.6,40.29c-2.47,1.42-2.99,1.71-3.57,1.87-.45.12-3.27.45-3.29.45q-.3.02-1.37-.15c6.29-3.31,7.6-4,8.53-3.12.15.17.25.38.4.54-.21.12-.49.28-.7.4"/>
            <path class="cls-15" d="m138.84,37.71q-1.81.67-1.99.68c-.48,0-.89-.09-3.13-.64.69-.36,1.64-.86,2.74-1.3,1.48-.6,3.02-1.03,4.5-1.62-.07.21-.03.31.23.51.27.21.27.34,0,.7,0,.01-1.31,1.28-2.36,1.67"/>
            <path class="cls-15" d="m127.73,57.14c-1.06.86-2.06,1.67-3.08,1.99-.66.2-1.69.02-1.63-.53,0-.02.42-1.64,3-2.87.37-.18,1.63-.76,2.25-.84.65-.08,1.23.28,1.87.32-.81.64-1.61,1.29-2.41,1.93"/>
            <path class="cls-15" d="m152.89,38.5c-1.24.68-3.76,1.87-3.6,1.16.13-.56.83-.83.78-1.48,1.49-.71,2.93-1.52,4.47-2.1,0,0,.44.01.72.14.76.5-2.35,2.26-2.38,2.28"/>
            <path class="cls-15" d="m163.15,99.6c-1.12,1.29-1.98,1.58-2.6,1.69-.67.11-1.45-.06-1.97-.18-1.29-.29-1.87-.37-2.82-.24,1.27-1.53,2.55-3.05,3.83-4.57.72.38,1.52.23,2.28.33.37.07,1.06.19,1.38.95.36.84.33,1.52-.11,2.02"/>
            <path class="cls-15" d="m337.16,252.19c.1,2.44-.98,3.65-2.63,4.73q-2.5-1.58-2.63-1.77c-.76-1.04-.81-2.49-.83-2.97-.05-1.55,1.49-4.01,3.14-4.4.08-.02.18-.03.26-.05.83-.07,1.41.08,2.36.61-.03,1.29.27,2.56.32,3.85"/>
            <path class="cls-15" d="m258.81,96.22c.06.91-.72,2.05-2.21,4.14-.83-.67-1.66-1.36-2.48-2.04.4-1.16.49-2.4.96-3.53.4-.98.69-1.24,1.16-1.63,1.72,1.51,2.51,2.2,2.57,3.07"/>
            <path class="cls-15" d="m112.56,100.73c-.85,1.11-2.59,1.82-5.15,2.79,2.29-3.93,3.15-5.4,6.02-6.72-.06,1.83-.16,3-.87,3.93"/>
            <path class="cls-15" d="m46.8,330.8c-.38,1.21-1.33.91-2.76.03q-.94-.58-3.27-3.76c1.24-.19,1.9-.14,2.7.19,1.04.5,1.87,1.31,3.43,3.07-.03.14-.06.33-.1.47"/>
            <path class="cls-15" d="m371.63,75.06c-.36.04-.58.24-.87.6-.25.31-.58.74-1.68.29-1.07-.44-1.24-.67-1.41-.89-.56-.74-1.02-1.49-.68-1.9.03-.04.09-.08.12-.11.15-.1.94-.49.95-.49.05-.02.18,0,.25.03.41.18.92.55,3.4,2.46-.03,0-.06,0-.09,0"/>
            <path class="cls-15" d="m357.97,257.88c0,.1.01.21.02.31,0,.11.01.21.02.32,0,.11.01.22.02.32,0,.11.01.22.02.33,0,.11.01.23.02.34,0,.12.01.23.02.35,0,.12.01.24.02.36,0,.12.02.25.02.37,0,.13.02.25.02.38,0,.13.02.26.02.39,0,.14.02.27.02.41,0,.14.02.28.02.42,0,.14.02.29.02.43,0,.15.02.3.03.45,0,.16.02.31.03.47q-3.07-1.13-3.48-1.19c-.11-.02-.44-.05-1.03.01-.64.06-1.27.21-1.91.28,0-.1-.01-.2-.02-.29,0-.09-.01-.19-.02-.28,0-.09-.01-.18-.02-.27,0-.09-.01-.18-.02-.26,0-.09-.01-.17-.01-.26v-.25c-.02-.08-.02-.16-.03-.24,0-.08,0-.16-.01-.24v-.24c-.02-.08-.02-.16-.03-.23,0-.08,0-.15-.01-.23v-.23c-.02-.08-.02-.15-.03-.23,0-.08,0-.16-.01-.23,0-.08-.01-.16-.02-.24,0-.08-.01-.16-.02-.24.07-.01.14-.02.21-.04.07-.01.14-.02.21-.04.07-.01.14-.02.21-.04.07-.01.14-.02.21-.04.07-.01.14-.02.21-.04.07-.01.14-.02.21-.04l.21-.04c.07-.01.14-.02.21-.03.07-.01.14-.02.21-.03l.2-.03c.07-.01.14-.02.2-.03.07-.01.13-.02.2-.03.07-.01.13-.02.2-.03.07-.01.13-.02.2-.03.07-.01.13-.02.2-.03.07-.01.13-.02.2-.03.07-.01.13-.02.2-.03.07-.01.13-.02.2-.03.06-.01.13-.02.19-.03.06-.01.13-.02.19-.03.06-.01.13-.02.19-.03.06-.01.13-.02.19-.03.06-.01.13-.02.19-.03.06-.01.13-.02.19-.03.06-.01.12-.02.19-.03.06-.01.12-.02.19-.03l.18-.03c.06-.01.12-.02.18-.03.06-.01.12-.02.18-.03.06-.01.12-.02.18-.03.06-.01.12-.02.18-.03.06-.01.12-.02.18-.03,0,.1.01.2.02.31"/>
            <path class="cls-15" d="m364.88,83.22c.63.69,1.36,1.56,1.49,2.14.18.81-.77,1.01-.78,1.01q-.34-.01-3.86-3.82s.08-.04.13-.06c.04-.02.08-.04.12-.06.04-.02.08-.04.12-.06.04-.02.08-.04.12-.06l.11-.06s.07-.04.11-.05c.04-.02.07-.04.11-.05.04-.02.07-.03.11-.05.03-.02.07-.03.1-.05.03-.02.07-.03.1-.05.03-.02.07-.03.1-.05.03-.02.07-.03.1-.05.03-.02.07-.03.1-.05.03-.02.06-.03.1-.05.03-.02.06-.03.1-.05.03-.02.06-.03.1-.05.49.5.97,1,1.44,1.52"/>
            <path class="cls-15" d="m110.12,59.02c-1.01-.05-1.62-.08-1.75-.46-.18-.56,1.01-1.82,1.02-1.83.02-.01,1.83-1.19,2.52-.79.03.03.28.3.06.7-.46.87-1.16,1.58-1.71,2.38-.04,0-.1,0-.14,0"/>
            <path class="cls-15" d="m116.1,91.15c-1.49,1.21-2.99,2.42-4.48,3.64,1.02-2.81,1.83-4.74,1.83-4.74.17-.22.45-.27.67-.4.25-.15.5-.3.76-.45.66-.4,1.33-.79,1.99-1.19-.18.97-.27,1.96-.51,2.93-.02.1-.18.15-.26.21"/>
            <path class="cls-15" d="m315.64,97.36c.7,1.39,1.07,2.93,1.83,4.3-.51-.79-1.01-1.21-2.34-2.16-2.3-1.63-3.31-2.68-2.63-5.18,1.02.47,2.18,1.13,3.14,3.04"/>
            <path class="cls-15" d="m412.24,256.31c-.22,1.73-.69,2.97-1.4,3.7-1.14,1.17-2.85,1.15-4.16,1.97,1.15-2.83,1.78-3.45,5.64-6.43-.02.23-.05.53-.08.76"/>
            <path class="cls-15" d="m117.83,44.05c-.06.04-.13.08-.19.12l-.19.12c-.06.04-.13.08-.19.12-.06.04-.13.08-.19.12-.06.04-.13.08-.19.12-.06.04-.13.08-.19.12-.06.04-.13.08-.19.12-.06.04-.13.08-.19.12-.06.04-.13.08-.19.12s-.13.08-.19.12c-.06.04-.13.08-.19.12-.06.04-.13.08-.19.12-.06.04-.13.08-.19.12-.06.04-.13.08-.19.12-.06.04-.13.08-.19.12-.06.04-.13.08-.19.12-.06.04-.13.08-.19.12-.06.04-.13.08-.19.12-.07.04-.13.08-.2.12-.07.04-.13.08-.2.12-.07.04-.13.08-.2.13-.07.04-.13.08-.2.13-.07.04-.14.09-.2.13-.07.04-.14.09-.21.13-.07.04-.14.09-.21.13-.07.04-.14.09-.21.13-.07.05-.14.09-.21.14l-.22.14c-.07.05-.15.09-.22.14l-.22.14c-.07.05-.15.1-.22.14.89-1.13,1.61-1.96,1.61-1.96.04-.02,4.06-2.36,4.73-2-.07.04-.13.08-.2.12"/>
            <path class="cls-15" d="m389.87,254.73c-.84,5.68-1.09,5.62-7.28,3.93q3.59-1.29,4.02-1.56t3.36-3.03c-.03.2-.07.46-.1.66"/>
            <path class="cls-15" d="m335.74,238.83c.01.1.02.21.03.31.01.11.02.22.03.32.01.11.02.22.03.34.01.12.02.23.03.35.01.12.02.24.03.36.01.12.02.24.04.37l.04.37c.01.13.02.25.04.38.01.13.02.26.04.39.01.13.02.26.04.39.01.13.02.26.04.39.01.13.02.26.04.4.01.13.02.27.04.4.01.13.02.27.04.4.01.13.02.27.04.4-1.5.95-2.13.56-3.21-.26-1.05-.8-1.53-.98-2.45-1.12,1.41-1.22,3.26-2.82,5.11-4.48.01.1.02.2.03.3"/>
            <path class="cls-15" d="m71.44,337.53c.01.06.03.13.04.19.01.06.03.13.04.19l.04.19c.01.06.03.13.04.19.01.06.03.13.04.19.01.06.03.13.04.19.01.06.03.13.04.19.01.06.03.13.05.19.02.06.03.13.05.19.02.06.03.13.05.19.02.07.03.13.05.2.02.07.03.13.05.2.02.07.03.13.05.2l.05.2c.02.07.03.14.05.21-.26.4-.33.38-.86.24-.83-.22-1.41-.63-1.74-.93-.89-.8-1.53-1.88-2.14-3.61.05.02.1.03.15.05.05.01.1.03.15.04.05.01.1.03.14.04.05.01.09.03.14.04.05.01.09.03.14.04.05.01.09.03.14.04.04.01.09.03.13.04.04.01.09.03.13.04.04.01.09.03.13.04.04.01.09.03.13.04l.13.04s.08.03.13.04c.04.01.08.02.12.04.04.01.08.02.12.04.04.01.08.02.12.04.04.01.08.02.12.04.04.01.08.02.12.04.04.01.08.02.12.04l.12.04s.08.02.12.03c.04.01.08.02.12.03.04.01.08.02.12.03.04.01.08.02.12.03l.12.03s.08.02.12.03c.04.01.08.02.12.03s.08.02.12.03c.04.01.08.02.12.03.04.01.08.02.12.03l.12.03s.08.02.12.03c.04.01.08.02.12.04.01.06.03.13.04.19"/>
            <path class="cls-15" d="m286.34,151.4c.19,1.59-.96,2.64-1.45,3.09q-2.64-2.72.41-5.43c.28.39.92,1.32,1.04,2.35"/>
            <path class="cls-15" d="m311.74,99.13s.32,1.71-.32,2.16c-.47.33-1.21.28-2.48-.18.69-1.34,1.24-2.45,1.65-3.33q1.13,1.27,1.14,1.35"/>
            <path class="cls-15" d="m318.35,95.75c.05.15.07.41.08.69.02.31.04.62.07.94-.44-.35-.9-.67-1.34-1.03-.34-.29-.47-.45-.52-.52-.08-.11-.09-.24-.09-.32,0-.29.08-.58.1-.87q1.63.91,1.7,1.12"/>
            <path class="cls-15" d="m353.81,50.82c.64.61,1.27,1.23,1.9,1.86-2.07-1.41-3.52-2.35-4.67-3.1q2.62,1.1,2.77,1.24"/>
            <path class="cls-15" d="m283.56,157.72c-.09.25-.16.51-.26.75-.07.18-.12.2-.13.2-.06.02-.37,0-.56-.04-.39-.06-.78-.16-1.17-.24.08-.25.11-.53.24-.77.06-.1.1-.11.25-.12q.21-.01,1.65.12s-.03.07-.04.09"/>
          </g>
        </g>
      </g>
      <g class="cls-30">
        <path class="cls-15" d="m438.88,126.67c-1.37,1.1-3.4.84-4.53-.58-1.13-1.41-.94-3.45.44-4.55,1.37-1.1,3.4-.84,4.53.58,1.13,1.41.94,3.45-.44,4.55Z"/>
        <path class="cls-15" d="m334.42,30.3c-.84.67-2.09.51-2.78-.35-.7-.87-.58-2.12.27-2.79.84-.67,2.09-.51,2.78.35.69.87.58,2.12-.27,2.79Z"/>
        <path class="cls-15" d="m464,235.22c-.79.63-1.96.48-2.61-.33s-.54-1.99.25-2.62c.79-.63,1.96-.48,2.61.33s.54,1.99-.25,2.62Z"/>
        <path class="cls-15" d="m362.56,214.93c-.79.63-1.96.48-2.61-.33s-.54-1.99.25-2.62c.79-.63,1.96-.48,2.61.33s.54,1.99-.25,2.62Z"/>
        <path class="cls-15" d="m106.96,154.28c-.79.63-1.96.48-2.61-.33-.65-.81-.54-1.99.25-2.62.79-.63,1.96-.48,2.61.33.65.81.54,1.99-.25,2.62Z"/>
        <path class="cls-15" d="m37.56,117.98c-.79.63-1.96.48-2.61-.33-.65-.81-.54-1.99.25-2.62.79-.63,1.96-.48,2.61.33s.54,1.99-.25,2.62Z"/>
        <path class="cls-15" d="m211.87,68.01c-1.32,1.05-3.27.81-4.36-.56s-.9-3.32.42-4.37c1.32-1.05,3.27-.81,4.36.56,1.09,1.36.9,3.32-.42,4.37Z"/>
        <path class="cls-15" d="m120.8,33.22c-.81.65-2.01.49-2.68-.34-.67-.84-.55-2.04.26-2.69.81-.65,2.01-.49,2.68.34s.55,2.04-.26,2.69Z"/>
        <path class="cls-15" d="m259.97,13.6c-.96.77-2.39.59-3.18-.41-.79-.99-.66-2.42.31-3.19.96-.77,2.39-.59,3.18.41.79.99.66,2.42-.31,3.19Z"/>
        <path class="cls-15" d="m444.16,338.66c-.79.63-1.96.48-2.61-.33-.65-.81-.54-1.99.25-2.62s1.96-.48,2.61.33c.65.81.54,1.99-.25,2.62Z"/>
        <path class="cls-15" d="m391.01,397.38c-.79.63-1.96.48-2.61-.33-.65-.81-.54-1.99.25-2.62.79-.63,1.96-.48,2.61.33.65.81.54,1.99-.25,2.62Z"/>
        <path class="cls-15" d="m349.18,336.77c-.79.63-1.96.48-2.61-.33-.65-.81-.54-1.99.25-2.62s1.96-.48,2.61.33c.65.81.54,1.99-.25,2.62Z"/>
        <path class="cls-15" d="m253.98,178.44c-1.48,1.18-3.66.9-4.88-.62-1.22-1.52-1.01-3.72.47-4.9,1.48-1.18,3.66-.9,4.88.62,1.22,1.52,1.01,3.72-.47,4.9Z"/>
        <path class="cls-15" d="m145.3,256.16c-1.48,1.18-3.67.9-4.89-.62-1.22-1.53-1.01-3.72.47-4.91,1.48-1.18,3.67-.9,4.89.62,1.22,1.53,1.01,3.72-.47,4.91Z"/>
        <path class="cls-15" d="m10.39,285.11c-.79.63-1.96.48-2.61-.33-.65-.81-.54-1.99.25-2.62.79-.63,1.96-.48,2.61.33s.54,1.99-.25,2.62Z"/>
        <path class="cls-15" d="m262.62,296.2c-1.25,1-3.09.76-4.11-.52-1.03-1.28-.85-3.13.4-4.13,1.25-1,3.09-.76,4.11.52,1.03,1.28.85,3.13-.4,4.13Z"/>
        <path class="cls-15" d="m345.68,431.19c-.79.63-1.96.48-2.61-.33-.65-.81-.54-1.99.25-2.62.79-.63,1.96-.48,2.61.33.65.81.54,1.99-.25,2.62Z"/>
        <path class="cls-15" d="m199.39,365.69c-.79.63-1.96.48-2.61-.33-.65-.81-.54-1.99.25-2.62.79-.63,1.96-.48,2.61.33.65.81.54,1.99-.25,2.62Z"/>
        <path class="cls-15" d="m69.84,382.64c-.79.63-1.96.48-2.61-.33-.65-.81-.54-1.99.25-2.62s1.96-.48,2.61.33.54,1.99-.25,2.62Z"/>
        <path class="cls-15" d="m279.86,461.65c-1.27,1.02-3.16.78-4.21-.54-1.05-1.32-.87-3.21.4-4.23,1.27-1.02,3.16-.78,4.21.54,1.05,1.32.87,3.21-.4,4.23Z"/>
        <path class="cls-15" d="m172.05,454.7c-.85.68-2.1.52-2.79-.36-.7-.87-.58-2.13.27-2.8.85-.68,2.1-.52,2.79.36.7.87.58,2.13-.27,2.8Z"/>
        <path class="cls-33" d="m258.54,11.81c2.18.61,74.62,16.92,74.62,16.92l101.16,91.14c1.25,1.13,2.13,2.6,2.51,4.24l25.99,109.64-24.66,96.66-48.33,65.5-45.33,33.81-66.54,29.56-117.34-6.27-91.96-71.83-59.45-97.53,27.17-167.13L119.4,31.86l139.14-20.06Z"/>
        <polygon class="cls-33" points="209.9 65.55 257.1 10.01 333.16 28.73 209.9 65.55"/>
        <polygon class="cls-33" points="251.78 175.68 209.9 65.55 333.16 28.73 251.78 175.68"/>
        <polygon class="cls-33" points="436.24 121.6 251.78 175.68 361.38 213.46 436.24 121.6"/>
        <polygon class="cls-33" points="348 335.29 361.38 213.46 462.82 233.75 348 335.29"/>
        <polygon class="cls-33" points="438.16 330.41 348 335.29 462.82 233.75 438.16 330.41"/>
        <polygon class="cls-33" points="251.78 175.68 348 335.29 361.38 213.46 251.78 175.68"/>
        <polygon class="cls-33" points="105.78 152.8 119.4 31.86 210.69 66.54 105.78 152.8"/>
        <polygon class="cls-33" points="143.1 253.39 251.78 175.68 260.76 293.87 143.1 253.39"/>
        <polygon class="cls-33" points="23.77 131.14 105.78 152.8 9.21 283.63 23.77 131.14"/>
        <polygon class="cls-33" points="143.1 253.39 105.78 152.8 251.78 175.68 143.1 253.39"/>
        <polygon class="cls-33" points="198.21 364.22 143.1 253.39 260.76 293.87 198.21 364.22"/>
        <polygon class="cls-33" points="9.21 283.63 143.1 253.39 68.66 381.17 9.21 283.63"/>
        <polygon class="cls-33" points="198.21 364.22 168.8 455.53 276.52 459.27 198.21 364.22"/>
        <polygon class="cls-33" points="260.76 293.87 348 335.29 344.5 429.72 260.76 293.87"/>
        <polygon class="cls-33" points="389.83 395.91 348 335.29 344.33 429.85 389.83 395.91"/>
      </g>
      <g>
        <circle class="cls-29" cx="411.5" cy="255.7" r="11.65" transform="translate(93.18 620.93) rotate(-80.78)"/>
        <path class="cls-1" d="m417.4,255.7c0,3.26-2.64,5.91-5.91,5.91s-5.91-2.64-5.91-5.91,2.64-5.91,5.91-5.91,5.91,2.64,5.91,5.91Z"/>
      </g>
      <g>
        <circle class="cls-27" cx="254.02" cy="304.41" r="18.25"/>
        <circle class="cls-3" cx="254.02" cy="304.41" r="9.25"/>
      </g>
      <g>
        <circle class="cls-26" cx="265.28" cy="432.14" r="13.13" transform="translate(-239.79 477.08) rotate(-63.54)"/>
        <circle class="cls-4" cx="265.28" cy="432.14" r="6.66"/>
      </g>
      <g>
        <circle class="cls-28" cx="255.61" cy="87.09" r="9.34"/>
        <circle class="cls-2" cx="255.61" cy="87.09" r="4.74"/>
      </g>
      <g>
        <circle class="cls-24" cx="217.25" cy="128.8" r="14.47"/>
        <circle class="cls-12" cx="217.25" cy="128.8" r="7.34"/>
      </g>
      <g>
        <circle class="cls-17" cx="135.43" cy="197.74" r="16.85" transform="translate(-94.61 130.48) rotate(-39.29)"/>
        <circle class="cls-6" cx="135.43" cy="197.74" r="8.94"/>
      </g>
      <g>
        <circle class="cls-16" cx="321.45" cy="335.3" r="10.56"/>
        <path class="cls-7" d="m327.04,335.3c0,3.09-2.51,5.6-5.6,5.6s-5.6-2.51-5.6-5.6,2.51-5.6,5.6-5.6,5.6,2.51,5.6,5.6Z"/>
      </g>
      <g>
        <circle class="cls-18" cx="313.31" cy="99.52" r="10.14" transform="translate(21.4 250.69) rotate(-45)"/>
        <path class="cls-14" d="m318.69,99.52c0,2.97-2.41,5.38-5.38,5.38s-5.38-2.41-5.38-5.38,2.41-5.38,5.38-5.38,5.38,2.41,5.38,5.38Z"/>
      </g>
      <g>
        <circle class="cls-23" cx="388.9" cy="172.45" r="12.19" transform="translate(131.71 511.33) rotate(-76.72)"/>
        <circle class="cls-13" cx="388.9" cy="172.45" r="6.47"/>
      </g>
      <g>
        <circle class="cls-25" cx="352.96" cy="381.51" r="6.08"/>
        <path class="cls-5" d="m356.18,381.51c0,1.78-1.44,3.23-3.23,3.23s-3.23-1.44-3.23-3.23,1.44-3.23,3.23-3.23,3.23,1.44,3.23,3.23Z"/>
      </g>
      <g>
        <circle class="cls-21" cx="104.27" cy="373.93" r="6.08"/>
        <circle class="cls-9" cx="104.27" cy="373.93" r="3.23"/>
      </g>
      <g>
        <circle class="cls-19" cx="58.98" cy="299.48" r="6.08"/>
        <circle class="cls-8" cx="58.98" cy="299.48" r="3.23"/>
      </g>
      <g>
        <circle class="cls-22" cx="248.44" cy="213.45" r="15.33"/>
        <circle class="cls-11" cx="248.44" cy="213.45" r="7.77" transform="translate(-72.88 276.98) rotate(-51.85)"/>
      </g>
      <g>
        <circle class="cls-20" cx="163.21" cy="274.6" r="11.66" transform="translate(-141.68 369.92) rotate(-76.64)"/>
        <path class="cls-10" d="m169.12,274.6c0,3.26-2.65,5.91-5.91,5.91s-5.91-2.65-5.91-5.91,2.65-5.91,5.91-5.91,5.91,2.65,5.91,5.91Z"/>
      </g>
    </g>
  </g>
</svg>