<?xml version="1.0" encoding="UTF-8"?><svg id="Layer_1" xmlns="http://www.w3.org/2000/svg" viewBox="0 0 974.88 415.23"><g id="little_mountains" opacity=".71"><path d="M393.07,299.29l6.22-.98c-4.38-1.9-9.31-3.98-10.87-4.46-3.02-.91-6.59,0-6.59,0l-11.08,1.54c4.55,1.96,8.91,3.9,8.91,3.9h13.43Z" fill="#cc8bea"/><polygon points="680.19 321.04 659.01 296.5 646.57 291.4 634.23 297.02 652.9 318.67 296.56 316.21 292.26 318.36 680.19 321.04" fill="#cc8bea"/><path d="M575.61,298.4l-29.22-8.95-10.99,2.62,29.44,9.02s6.27-1.66,10.77-2.69Z" fill="#cc8bea"/><polygon points="442.49 300.22 437.54 298.95 436.79 299.07 438.98 301.09 442.49 300.22" fill="#cc8bea"/><path d="M370.73,295.4c-4.02-1.73-8.19-3.48-9.61-3.91-3.02-.91-6.59,0-6.59,0l-56.22,7.81-33.34,16.7,31.59,.22,29.04-14.55,45.14-6.27Z" fill="#cc8bea" opacity=".58"/><path d="M420.35,301.67l16.44-2.6-1.59-1.47-14.36,1.7-10.58-2.72-10.97,1.73c4.06,1.76,7.64,3.35,7.64,3.35h13.43Z" fill="#cc8bea" opacity=".58"/><path d="M607.24,299.97c1.51,.1,12.85,3.5,12.85,3.5l14.13-6.44-2.5-2.9-12.44-5.1-26.48,12.06s-11.34-3.4-12.85-3.5c-.49-.03-2.22,.32-4.35,.81l16.51,5.06s13.61-3.59,15.12-3.5Z" fill="#cc8bea" opacity=".58"/><polygon points="462.48 299.97 466.26 303.46 506.71 293.45 522.58 295.13 535.4 292.07 519.1 287.08 495.29 292.76 479.42 291.08 442.49 300.22 448.12 301.67 462.48 299.97" fill="#cc8bea" opacity=".58"/><path d="M634.23,297.02l-14.13,6.44s-11.34-3.4-12.85-3.5c-1.51-.09-15.12,3.5-15.12,3.5l-16.51-5.06c-4.5,1.03-10.77,2.69-10.77,2.69l-29.44-9.02-12.82,3.06-15.87-1.68-40.44,10.01-3.78-3.5-14.36,1.7-5.63-1.45-3.52,.87-2.19-2.02-16.44,2.6h-13.43s-3.59-1.6-7.64-3.35l-6.22,.98h-13.43s-4.36-1.94-8.91-3.9l-45.14,6.27-29.04,14.55,356.34,2.45-18.67-21.64Z" fill="#cc8bea"/><path d="M634.23,297.02l-14.13,6.44s-11.34-3.4-12.85-3.5c-1.51-.09-15.12,3.5-15.12,3.5l-16.51-5.06c-4.5,1.03-10.77,2.69-10.77,2.69l-29.44-9.02-12.82,3.06-15.87-1.68-40.44,10.01-3.78-3.5-14.36,1.7-5.63-1.45-3.52,.87-2.19-2.02-16.44,2.6h-13.43s-3.59-1.6-7.64-3.35l-6.22,.98h-13.43s-4.36-1.94-8.91-3.9l-45.14,6.27-29.04,14.55,356.34,2.45-18.67-21.64Z" fill="#cc8bea" opacity=".58"/></g></svg>