<?xml version="1.0" encoding="UTF-8"?><svg xmlns="http://www.w3.org/2000/svg" xmlns:xlink="http://www.w3.org/1999/xlink" viewBox="0 0 974.88 415.23"><defs><linearGradient id="linear-gradient" x1="60.86" y1="266.16" x2="348.89" y2="266.16" gradientTransform="matrix(1, 0, 0, 1, 0, 0)" gradientUnits="userSpaceOnUse"><stop offset="0" stop-color="#7c1f7f"/><stop offset=".53" stop-color="#ac76dd"/></linearGradient><linearGradient id="linear-gradient-2" x1="560.7" y1="311.9" x2="560.7" y2="283.88" gradientTransform="matrix(1, 0, 0, 1, 0, 0)" gradientUnits="userSpaceOnUse"><stop offset=".35" stop-color="#9e66d8"/><stop offset=".57" stop-color="#9e66d8"/><stop offset=".61" stop-color="#9e66d8"/></linearGradient><linearGradient id="linear-gradient-3" x1="561.13" y1="311.9" x2="561.13" y2="283.88" gradientTransform="matrix(1, 0, 0, 1, 0, 0)" gradientUnits="userSpaceOnUse"><stop offset="0" stop-color="#7c217f"/><stop offset=".27" stop-color="#692175"/><stop offset=".83" stop-color="#3a215b"/><stop offset="1" stop-color="#2a2153"/></linearGradient><linearGradient id="linear-gradient-4" x1="563.43" y1="310.87" x2="563.43" y2="305.52" gradientTransform="matrix(1, 0, 0, 1, 0, 0)" gradientUnits="userSpaceOnUse"><stop offset="0" stop-color="#fff"/><stop offset=".13" stop-color="#dedce4"/><stop offset=".45" stop-color="#918da6"/><stop offset=".71" stop-color="#595279"/><stop offset=".9" stop-color="#372e5d"/><stop offset="1" stop-color="#2a2153"/></linearGradient><linearGradient id="linear-gradient-5" x1="563.08" y1="305.1" x2="563.08" y2="295.23" xlink:href="#linear-gradient-4"/><linearGradient id="linear-gradient-6" x1="558.41" y1="309.37" x2="558.41" y2="303.66" xlink:href="#linear-gradient-4"/><linearGradient id="linear-gradient-7" x1="-2555.96" y1="313.64" x2="-2555.96" y2="286.09" gradientTransform="translate(-2222.37) rotate(-180) scale(1 -1)" xlink:href="#linear-gradient-2"/><linearGradient id="linear-gradient-8" x1="-2555.54" y1="313.64" x2="-2555.54" y2="286.09" gradientTransform="translate(-2222.37) rotate(-180) scale(1 -1)" xlink:href="#linear-gradient-3"/><linearGradient id="linear-gradient-9" x1="-2553.28" y1="312.63" x2="-2553.28" y2="307.36" gradientTransform="translate(-2222.37) rotate(-180) scale(1 -1)" xlink:href="#linear-gradient-4"/><linearGradient id="linear-gradient-10" x1="-2553.62" y1="306.95" x2="-2553.62" y2="297.25" gradientTransform="translate(-2222.37) rotate(-180) scale(1 -1)" xlink:href="#linear-gradient-4"/><linearGradient id="linear-gradient-11" x1="-2558.21" y1="311.14" x2="-2558.21" y2="305.53" gradientTransform="translate(-2222.37) rotate(-180) scale(1 -1)" xlink:href="#linear-gradient-4"/><linearGradient id="linear-gradient-12" x1="376.54" y1="299.74" x2="395.8" y2="299.74" xlink:href="#linear-gradient-2"/><linearGradient id="linear-gradient-13" x1="-2603.39" y1="309.39" x2="-2603.39" y2="290.33" gradientTransform="translate(-2217.39) rotate(-180) scale(1 -1)" gradientUnits="userSpaceOnUse"><stop offset="0" stop-color="#6d1c6f"/><stop offset=".34" stop-color="#511e63"/><stop offset=".76" stop-color="#342057"/><stop offset="1" stop-color="#2a2153"/></linearGradient><linearGradient id="linear-gradient-14" x1="-2610.52" x2="-2610.52" y2="290.33" xlink:href="#linear-gradient-13"/><linearGradient id="linear-gradient-15" x1="-2601.4" y1="308.31" x2="-2601.4" y2="305.92" gradientTransform="translate(-2217.39) rotate(-180) scale(1 -1)" xlink:href="#linear-gradient-4"/><linearGradient id="linear-gradient-16" x1="-2600.29" y1="304.72" x2="-2600.29" y2="298.47" gradientTransform="translate(-2217.39) rotate(-180) scale(1 -1)" xlink:href="#linear-gradient-4"/><linearGradient id="linear-gradient-17" x1="-2606.83" y1="304.72" x2="-2606.83" y2="299.41" gradientTransform="translate(-2217.39) rotate(-180) scale(1 -1)" xlink:href="#linear-gradient-4"/><linearGradient id="linear-gradient-18" x1="-2608.17" y1="299.07" x2="-2608.17" y2="295.66" gradientTransform="translate(-2217.39) rotate(-180) scale(1 -1)" xlink:href="#linear-gradient-4"/><linearGradient id="linear-gradient-19" x1="423.07" y1="302.01" x2="439.05" y2="302.01" xlink:href="#linear-gradient-2"/><linearGradient id="linear-gradient-20" x1="-2648.31" y1="310.02" x2="-2648.31" y2="294.2" xlink:href="#linear-gradient-13"/><linearGradient id="linear-gradient-21" x1="-2654.23" y1="310.02" x2="-2654.23" y2="294.2" xlink:href="#linear-gradient-13"/><linearGradient id="linear-gradient-22" x1="-2646.66" y1="309.12" x2="-2646.66" y2="307.14" gradientTransform="translate(-2217.39) rotate(-180) scale(1 -1)" xlink:href="#linear-gradient-4"/><linearGradient id="linear-gradient-23" x1="-2645.73" y1="306.14" x2="-2645.73" y2="300.95" gradientTransform="translate(-2217.39) rotate(-180) scale(1 -1)" xlink:href="#linear-gradient-4"/><linearGradient id="linear-gradient-24" x1="-2651.16" y1="306.14" x2="-2651.16" y2="301.74" gradientTransform="translate(-2217.39) rotate(-180) scale(1 -1)" xlink:href="#linear-gradient-4"/><linearGradient id="linear-gradient-25" x1="-2652.27" y1="301.45" x2="-2652.27" y2="298.62" gradientTransform="translate(-2217.39) rotate(-180) scale(1 -1)" xlink:href="#linear-gradient-4"/><linearGradient id="linear-gradient-26" x1="-2467.41" y1="304.27" x2="-2456.31" y2="304.27" gradientTransform="translate(-1973.05) rotate(-180) scale(1 -1)" xlink:href="#linear-gradient-2"/><linearGradient id="linear-gradient-27" x1="244.57" y1="309.83" x2="244.57" y2="298.85" gradientTransform="translate(244.34)" xlink:href="#linear-gradient-13"/><linearGradient id="linear-gradient-28" x1="240.46" y1="309.83" x2="240.46" y2="298.85" gradientTransform="translate(244.34)" xlink:href="#linear-gradient-13"/><linearGradient id="linear-gradient-29" x1="245.71" y1="309.21" x2="245.71" y2="307.83" gradientTransform="translate(244.34)" xlink:href="#linear-gradient-4"/><linearGradient id="linear-gradient-30" x1="246.35" y1="307.14" x2="246.35" y2="303.54" gradientTransform="translate(244.34)" xlink:href="#linear-gradient-4"/><linearGradient id="linear-gradient-31" x1="242.59" y1="307.14" x2="242.59" y2="304.08" gradientTransform="translate(244.34)" xlink:href="#linear-gradient-4"/><linearGradient id="linear-gradient-32" x1="241.81" y1="303.89" x2="241.81" y2="301.92" gradientTransform="translate(244.34)" xlink:href="#linear-gradient-4"/><linearGradient id="linear-gradient-33" x1="390.2" y1="296.09" x2="422.96" y2="296.09" xlink:href="#linear-gradient-2"/><linearGradient id="linear-gradient-34" x1="-2623.67" y1="312.51" x2="-2623.67" y2="280.08" xlink:href="#linear-gradient-13"/><linearGradient id="linear-gradient-35" x1="-2635.8" y1="312.51" x2="-2635.8" y2="280.08" xlink:href="#linear-gradient-13"/><linearGradient id="linear-gradient-36" x1="-2620.29" y1="310.67" x2="-2620.29" y2="306.59" gradientTransform="translate(-2217.39) rotate(-180) scale(1 -1)" xlink:href="#linear-gradient-4"/><linearGradient id="linear-gradient-37" x1="-2618.39" y1="304.56" x2="-2618.39" y2="293.92" gradientTransform="translate(-2217.39) rotate(-180) scale(1 -1)" xlink:href="#linear-gradient-4"/><linearGradient id="linear-gradient-38" x1="-2629.52" y1="304.56" x2="-2629.52" y2="295.53" gradientTransform="translate(-2217.39) rotate(-180) scale(1 -1)" xlink:href="#linear-gradient-4"/><linearGradient id="linear-gradient-39" x1="-2631.8" y1="294.95" x2="-2631.8" y2="289.15" gradientTransform="translate(-2217.39) rotate(-180) scale(1 -1)" xlink:href="#linear-gradient-4"/><linearGradient id="linear-gradient-40" x1="-2377.9" y1="299.43" x2="-2358.22" y2="299.43" gradientTransform="translate(-1828.05) rotate(-180) scale(1 -1)" xlink:href="#linear-gradient-2"/><linearGradient id="linear-gradient-41" x1="150.85" y1="309.29" x2="150.85" y2="289.82" gradientTransform="translate(389.34)" xlink:href="#linear-gradient-13"/><linearGradient id="linear-gradient-42" x1="143.56" y1="309.29" x2="143.56" y2="289.82" gradientTransform="translate(389.34)" xlink:href="#linear-gradient-13"/><linearGradient id="linear-gradient-43" x1="152.88" y1="308.19" x2="152.88" y2="305.74" gradientTransform="translate(389.34)" xlink:href="#linear-gradient-4"/><linearGradient id="linear-gradient-44" x1="154.02" y1="304.52" x2="154.02" y2="298.13" gradientTransform="translate(389.34)" xlink:href="#linear-gradient-4"/><linearGradient id="linear-gradient-45" x1="147.33" y1="304.52" x2="147.33" y2="299.1" gradientTransform="translate(389.34)" xlink:href="#linear-gradient-4"/><linearGradient id="linear-gradient-46" x1="145.97" y1="298.75" x2="145.97" y2="295.26" gradientTransform="translate(389.34)" xlink:href="#linear-gradient-4"/><linearGradient id="linear-gradient-47" x1="509.58" y1="313.48" x2="509.58" y2="279.11" xlink:href="#linear-gradient-2"/><linearGradient id="linear-gradient-48" x1="510.11" y1="313.48" x2="510.11" y2="279.11" xlink:href="#linear-gradient-3"/><linearGradient id="linear-gradient-49" x1="512.93" y1="312.22" x2="512.93" y2="305.65" xlink:href="#linear-gradient-4"/><linearGradient id="linear-gradient-50" x1="512.5" y1="305.13" x2="512.5" y2="293.03" xlink:href="#linear-gradient-4"/><linearGradient id="linear-gradient-51" x1="506.77" y1="310.37" x2="506.77" y2="303.37" xlink:href="#linear-gradient-4"/><linearGradient id="linear-gradient-52" x1="-2414.51" y1="312.56" x2="-2414.51" y2="294.02" gradientTransform="translate(-1972.22) rotate(-180) scale(1 -1)" xlink:href="#linear-gradient-2"/><linearGradient id="linear-gradient-53" x1="-2414.23" y1="312.56" x2="-2414.23" y2="294.02" gradientTransform="translate(-1972.22) rotate(-180) scale(1 -1)" xlink:href="#linear-gradient-3"/><linearGradient id="linear-gradient-54" x1="-2412.71" y1="311.88" x2="-2412.71" y2="308.34" gradientTransform="translate(-1972.22) rotate(-180) scale(1 -1)" xlink:href="#linear-gradient-4"/><linearGradient id="linear-gradient-55" x1="-2412.94" y1="308.06" x2="-2412.94" y2="301.53" gradientTransform="translate(-1972.22) rotate(-180) scale(1 -1)" xlink:href="#linear-gradient-4"/><linearGradient id="linear-gradient-56" x1="-2416.03" y1="310.88" x2="-2416.03" y2="307.11" gradientTransform="translate(-1972.22) rotate(-180) scale(1 -1)" xlink:href="#linear-gradient-4"/><linearGradient id="linear-gradient-57" x1="615.94" y1="260.45" x2="1000.86" y2="260.45" gradientTransform="matrix(1, 0, 0, 1, 0, 0)" gradientUnits="userSpaceOnUse"><stop offset="0" stop-color="#9e66d8"/><stop offset=".2" stop-color="#9c62d3"/><stop offset=".42" stop-color="#9758c6"/><stop offset=".64" stop-color="#8f46b0"/><stop offset=".88" stop-color="#832e92"/><stop offset="1" stop-color="#7c1f7f"/></linearGradient></defs><g isolation="isolate"><g id="Layer_1"><g id="medium_mountains"><g><path d="M221.93,244.15s-.1-.06-.13-.08c.03,.02,.09,.06,.13,.08Z" fill="#ee80b1"/><path d="M226.65,248.07l-.06-.05c2.19,1.95,4.27,3.86,4.27,3.86l-7.18-2.6,2.03,3.45s7.01,3.45,9.31,4.99c2.3,1.53,3.33-.26,3.33-.26,0,0,3.58,2.05,4.35,2.56,.1,.07,.35,.22,.67,.43l5.71-.69,.92,.67-21.94-16.04,3.99,2.92-5.41,.76Z" fill="#c683ed"/><path d="M221.59,243.99s-.13-.02-.23-.07c.1,.04,.18,.07,.23,.07Z" fill="#ee80b1"/><path d="M222.97,244.92c-.09-.07-.18-.14-.26-.21,.08,.06,.17,.14,.26,.21Z" fill="#ee80b1"/><path d="M244.49,267.77h0Z" fill="#ee80b1"/><path d="M222.39,244.47c-.07-.05-.15-.11-.21-.15,.06,.04,.14,.1,.21,.15Z" fill="#ee80b1"/><path d="M244.88,267.79h0Z" fill="#ee80b1"/><path d="M221.27,243.88c-.09-.05-.19-.1-.31-.18,.12,.07,.22,.13,.31,.18Z" fill="#ee80b1"/><path d="M215.07,239.34c.51,.14,2.9,2.15,4.65,3.48l5.53-.5-11.75-8.59s.8,5.39,1.57,5.6Z" fill="#c683ed"/><path d="M220.88,243.65c-.32-.21-.72-.49-1.15-.82,.44,.33,.83,.62,1.15,.82Z" fill="#ee80b1"/><path d="M246.34,267.81s.07,0,.11,0c-.03,0-.07,0-.11,0Z" fill="#ee80b1"/><path d="M259.33,271.77c-2.03-.22-9.8-4.23-11.45-4.06l-3.29,.74-.04-.03c.66,.45,1.48,1.04,2.09,1.58,1.18,1.04,12.7,10.08,13.98,10.16,1.28,.09,8.7,2.13,8.7,2.13l-3.07-4.35,10.23,4.61,8.19,7.68,6.14,4.91-12.54-1.59s2.26,3.29,3.07,4.33c.81,1.04,18.93,10.25,18.93,10.25l16.21-4.09-32.08-23.28s-3.58-1.79-6.14-2.05c-2.56-.26-6.91-3.9-6.91-3.9l-10.62-6.52-3.62-2.64-4.03,.9c2.85,1.95,7.71,5.39,6.24,5.23Z" fill="#c683ed"/><path d="M246.89,267.79s.07,0,.1,0c-.03,0-.07,0-.1,0Z" fill="#ee80b1"/><path d="M246.73,262.52l-.36-.22,.36,.22Z" fill="#ee80b1"/><path d="M244.13,267.75c-.4-.03-.66-.05-.66-.05,0,0,.1,.06,.24,.16l-.04-.03,.46-.08Z" fill="#c683ed"/><path d="M246.01,262.08l-.31-.19c.1,.06,.2,.13,.31,.19Z" fill="#ee80b1"/><path d="M245.99,267.82s-.09,0-.13,0c.04,0,.08,0,.13,0Z" fill="#ee80b1"/><path d="M225.2,246.8c-.1-.09-.21-.18-.31-.27,.1,.09,.21,.18,.31,.27Z" fill="#ee80b1"/><path d="M226.02,247.52c-.1-.09-.19-.17-.29-.26,.1,.08,.19,.17,.29,.26Z" fill="#ee80b1"/><path d="M224.41,246.12c-.11-.09-.22-.19-.33-.28,.11,.09,.22,.19,.33,.28Z" fill="#ee80b1"/><path d="M243.81,260.73l-.23-.14c.08,.05,.14,.09,.23,.14Z" fill="#ee80b1"/><path d="M244.36,261.06l-.16-.1,.16,.1Z" fill="#ee80b1"/><path d="M245.37,261.69c-.24-.15-.48-.29-.7-.43,.22,.14,.46,.28,.7,.43Z" fill="#ee80b1"/><path d="M223.66,245.48c-.1-.08-.21-.17-.31-.25,.1,.08,.2,.17,.31,.25Z" fill="#ee80b1"/><path d="M244.09,268.11c-.06-.04-.1-.06-.15-.1,.05,.03,.09,.06,.15,.1Z" fill="#ee80b1"/><path d="M247.32,267.76s.08,0,.12-.01c-.04,0-.08,0-.12,.01Z" fill="#ee80b1"/><path d="M161.77,253.76c-.28-.35-.56-.71-.84-1.06,.28,.36,.56,.71,.84,1.06Z" fill="#ee80b1"/><path d="M160.74,252.44c-.21-.27-.41-.54-.62-.8,.2,.27,.41,.53,.62,.8Z" fill="#ee80b1"/><path d="M162.6,254.79c-.23-.28-.46-.58-.7-.87,.24,.3,.47,.59,.7,.87Z" fill="#ee80b1"/><path d="M163.41,255.79c-.18-.22-.37-.45-.56-.69,.19,.24,.38,.46,.56,.69Z" fill="#ee80b1"/><path d="M159.85,251.29c-.18-.23-.35-.46-.51-.69,.17,.23,.34,.46,.51,.69Z" fill="#ee80b1"/><polygon points="179.76 289.45 190.11 286.12 181.86 274.2 168.73 276.3 179.76 289.45" fill="#c683ed"/><path d="M139.77,229.58l3.15,4.2,4.56,4.5,4.91,4.09s3.12,2,5.02,5.35c.12,.21,.25,.43,.41,.67l8.79-.79-11.89-11.56-19.68-24.75,7.89,18.29h-3.15Z" fill="#c683ed"/><path d="M164.21,256.76c-.18-.22-.37-.45-.57-.69,.2,.24,.38,.47,.57,.69Z" fill="#ee80b1"/><path d="M158.39,249.27c-.21-.31-.41-.6-.58-.88,.17,.27,.37,.57,.58,.88Z" fill="#ee80b1"/><path d="M159.08,250.24c-.17-.23-.33-.46-.48-.68,.15,.22,.31,.44,.48,.68Z" fill="#ee80b1"/><path d="M189.49,245.94c-.08-.07-.17-.15-.26-.23,.09,.08,.18,.16,.26,.23Z" fill="#ee80b1"/><path d="M189.82,246.22c-.06-.05-.14-.12-.21-.18,.07,.06,.15,.13,.21,.18Z" fill="#ee80b1"/><path d="M198.95,251.88s6.98,8.25,7.33,9.48c.12,.42,.83,1.79,1.71,3.39l14.08-1.71-7.51-6.09s-2.46-3.07-3.15-4.22c-.16-.27-.96-1.11-2.08-2.22l-10.3,1.46-.07-.09Z" fill="#c683ed"/><path d="M208.6,265.86c-.18-.32-.35-.63-.52-.94,.17,.31,.34,.62,.52,.94Z" fill="#ee80b1"/><path d="M168.83,233.78l4.03,2.97s9.51,1.36,9.87,2.6c.28,.94,4.38,4.55,6.34,6.24l13.82-1.24c1.07,1,2.23,2.11,3.36,3.19-3.43-3.28-7.3-6.88-7.3-6.88l-29.43-18.24,3.59,7.94-4.28,3.43Z" fill="#c683ed"/><path d="M205.11,267.02l.05,.03-.05-.03Z" fill="#ee80b1"/><path d="M204.12,275.16c-.12-.06-.23-.12-.32-.17,.09,.05,.2,.11,.32,.17Z" fill="#ee80b1"/><path d="M205.19,275.73c-.37-.19-.69-.37-.97-.51,.27,.14,.6,.32,.97,.51Z" fill="#ee80b1"/><path d="M203.73,274.95l-.18-.1,.18,.1Z" fill="#ee80b1"/><path d="M205.82,276.06c-.2-.1-.39-.21-.58-.3,.19,.1,.38,.2,.58,.3Z" fill="#ee80b1"/><path d="M206.52,276.42c-.21-.11-.42-.22-.62-.32,.2,.11,.41,.21,.62,.32Z" fill="#ee80b1"/><path d="M209.33,267.17c-.21-.38-.43-.76-.64-1.14,.21,.38,.42,.76,.64,1.14Z" fill="#ee80b1"/><path d="M203.51,274.83l-.06-.03,.06,.03Z" fill="#ee80b1"/><path d="M197.65,270.09c-.76-.99-1.75-2.3-2.8-3.7,1.06,1.4,2.04,2.71,2.8,3.7Z" fill="#ee80b1"/><path d="M203.3,265.84l.08,.06-.08-.06Z" fill="#ee80b1"/><path d="M211.95,271.77l-5.67-4.06,2.96,2.12-10.5,1.68c-.25-.32-.62-.8-1.08-1.4,.61,.8,1.07,1.39,1.29,1.66,1.28,1.57,4.5,3.04,4.5,3.04,0,0-.05-.02-.13-.06l28.49-4.88-4.27-2.96-16.84,2.69c.73,1.27,1.25,2.18,1.25,2.18Z" fill="#c683ed"/><path d="M210.65,269.5c-.16-.28-.33-.58-.51-.89,.18,.31,.35,.61,.51,.89Z" fill="#ee80b1"/><path d="M209.97,268.31c-.16-.28-.32-.57-.49-.86,.16,.29,.33,.58,.49,.86Z" fill="#ee80b1"/><path d="M206.25,247.53c1.12,1.07,2.19,2.11,3.07,2.98-.88-.87-1.95-1.91-3.07-2.98Z" fill="#ee80b1"/><path d="M207.23,276.8c-.22-.11-.44-.23-.66-.34,.46,.24,.94,.49,1.38,.72,2,1.02,6.7,6.4,10.36,8.95,3.66,2.56,10.32,7.68,10.32,7.68l-10.32-15.09,7.4,1.45s3.64,3.95,5.84,5.97c2.2,2.02,15.84,8.19,17.2,8.95s2.98-7.16,2.98-7.16l-5.1-7.76-13.85-9.62,.59,.41-26.15,5.85Z" fill="#c683ed"/><path d="M202.69,265.4c-.82-.62-1.63-1.3-2.2-1.98-1.79-2.12-6.33-8.51-7.9-8.77-1.57-.26-7.73-.51-7.73-.51l3.29,3.33s3.6,4.81,6.67,8.88l7.87-.96h0Z" fill="#c683ed"/><path d="M288.5,277.68c1.02,0-3.33-4.35-3.33-4.35l7.16,1.47,9.98,7.23,8.19,6.4,5.98,4.86-7.05-2.17h-3.28s11.77,7.03,13.3,8.05c1.54,1.02,5.12,2.17,6.14,2.49s-3.07-4.1-3.07-4.1l-1.29-3.51s3.17,1.52,5.81,3.32c2.64,1.8,12.88,11.42,14.67,12.24,1.79,.82,5.63,4.14,5.63,4.14,0,0,.9,2,1.33,3.67l.41-7.8-39.65-34.44-26.24-3.42-19.28-6.6,16.15,9.63s7.42,2.88,8.44,2.88Z" fill="#c683ed"/><path d="M347.34,313.75s-3.84-3.33-5.63-4.14c-1.79-.82-12.02-10.44-14.67-12.24-2.64-1.8-5.81-3.32-5.81-3.32l1.29,3.51s4.09,4.42,3.07,4.1-4.61-1.47-6.14-2.49c-1.54-1.02-13.3-8.05-13.3-8.05h3.28l7.05,2.17-5.98-4.86-8.19-6.4-9.98-7.23-7.16-1.47s4.35,4.35,3.33,4.35-8.44-2.88-8.44-2.88l-16.15-9.63-3.17,3.11,10.62,6.52s4.35,3.65,6.91,3.9c2.56,.26,6.14,2.05,6.14,2.05l32.08,23.28-16.21,4.09s-18.12-9.22-18.93-10.25c-.81-1.04-3.07-4.33-3.07-4.33l12.54,1.59-6.14-4.91-8.19-7.68-10.23-4.61,3.07,4.35s-7.42-2.05-8.7-2.13c-1.28-.09-12.79-9.12-13.98-10.16-.61-.54-1.44-1.13-2.09-1.58-.16-.11-.31-.21-.45-.3-.05-.04-.1-.07-.15-.1-.08-.06-.17-.11-.23-.15-.14-.09-.24-.16-.24-.16,0,0,.26,.02,.66,.05,.11,0,.23,.01,.36,.02h.07c.1,0,.22,.01,.33,.02h.1c.14,0,.28,.01,.43,.02,.17,0,.31,0,.44,0,.04,0,.09,0,.13,0,.12,0,.24,0,.36,0,.04,0,.07,0,.11,0,.15,0,.29,0,.44-.02,.03,0,.07,0,.1,0,.11,0,.22-.01,.33-.02,.04,0,.08,0,.12-.01,.13-.01,.26-.03,.38-.05,.02,0,.04,0,.06,0,1.65-.16,9.43,3.84,11.45,4.06,1.47,.16-3.38-3.28-6.24-5.23-.13-.09-.25-.17-.37-.26-.58-.39-1.04-.7-1.31-.88l-.14-.09-.11-.08-.09-.06c-.12-.07-.36-.22-.68-.42l-.11-.07c-.18-.11-.38-.24-.61-.37-.37-.23-.79-.48-1.24-.76-.54-.33-1.12-.69-1.7-1.04l-.36-.22c-.12-.07-.24-.15-.36-.22-.1-.06-.21-.13-.31-.19l-.32-.2c-.24-.15-.48-.29-.7-.43-.11-.07-.21-.13-.32-.19l-.16-.1c-.13-.08-.27-.16-.39-.24-.08-.05-.15-.09-.23-.14-.07-.04-.15-.09-.21-.13-.33-.2-.57-.36-.67-.43-.77-.51-4.35-2.56-4.35-2.56,0,0-1.02,1.79-3.33,.26-2.3-1.54-9.31-4.99-9.31-4.99l-2.03-3.45,7.18,2.6s-2.08-1.92-4.27-3.86c-.19-.17-.38-.34-.57-.5-.1-.09-.19-.17-.29-.26-.18-.16-.36-.31-.53-.46-.1-.09-.21-.18-.31-.27-.16-.14-.32-.27-.48-.41-.11-.09-.22-.19-.33-.28-.15-.13-.29-.24-.43-.36-.1-.08-.21-.17-.31-.25-.14-.11-.26-.21-.38-.31-.09-.07-.18-.14-.26-.21-.12-.09-.22-.16-.32-.24-.07-.05-.15-.11-.21-.15-.1-.07-.17-.12-.25-.16-.04-.03-.1-.06-.13-.08-.1-.06-.18-.08-.22-.08-.05,0-.13-.02-.23-.07-.03-.01-.06-.03-.09-.04-.09-.05-.19-.11-.31-.18-.03-.02-.05-.03-.08-.05-.32-.21-.71-.49-1.15-.82-1.76-1.33-4.15-3.34-4.66-3.48-.77-.22-1.57-5.6-1.57-5.6l-5.55,4.61-9,2.3s3.87,3.59,7.3,6.88c1.12,1.08,2.2,2.11,3.07,2.98,1.12,1.11,1.92,1.95,2.09,2.22,.69,1.15,3.15,4.22,3.15,4.22l7.51,6.09,.47,.38,5.01,3.48,4.27,2.96,.97,.67,13.85,9.62,5.1,7.76s-1.62,7.93-2.98,7.16-15.01-6.93-17.2-8.95c-2.2-2.02-5.84-5.97-5.84-5.97l-7.4-1.45,10.32,15.09s-6.65-5.12-10.32-7.68c-3.66-2.56-8.36-7.93-10.36-8.95-.45-.23-.92-.47-1.38-.72l-.05-.03c-.21-.11-.42-.22-.62-.32l-.07-.04c-.2-.1-.39-.21-.58-.3l-.06-.03c-.36-.19-.69-.37-.97-.51l-.1-.05c-.12-.07-.23-.12-.32-.17l-.07-.04-.18-.1-.1-.05s-3.22-1.47-4.5-3.04c-.22-.27-.68-.86-1.29-1.66-.77-1.01-1.76-2.32-2.82-3.72-3.1-4.11-6.7-8.92-6.7-8.92l-3.29-3.33s6.16,.26,7.73,.51c1.57,.26,6.11,6.65,7.9,8.77,.57,.68,1.38,1.36,2.2,1.98,.2,.15,.41,.3,.62,.44l.08,.06c.63,.44,1.23,.82,1.73,1.12l.05,.03c.32,.2,.6,.35,.79,.47,.12,.07,.18,.1,.23,.13l.1,.05,5.67,4.06s-.52-.9-1.25-2.18l-.05-.09c-.16-.28-.33-.58-.51-.89-.06-.1-.11-.2-.17-.3-.16-.28-.32-.57-.49-.86-.05-.09-.1-.18-.16-.28-.21-.38-.43-.76-.64-1.14l-.1-.17c-.18-.32-.35-.63-.52-.94-.03-.06-.06-.12-.09-.17-.88-1.6-1.59-2.97-1.71-3.39-.35-1.22-7.33-9.48-7.33-9.48l-8.84-5.42s-.11-.09-.29-.25c-.06-.05-.14-.12-.21-.18l-.12-.1c-.08-.07-.17-.15-.26-.23-.05-.05-.1-.08-.16-.13-1.97-1.69-6.07-5.3-6.34-6.24-.36-1.24-9.87-2.6-9.87-2.6l-4.03-2.97,4.28-3.43-3.59-7.94-3.42,5.89-5.41,5.43-5.98,2.3,11.89,11.56,4.4,4.28v6.61l9.18,13.28,1.68,2.43,8.24,11.92-10.35,3.33-11.04-13.15-3.8-4.53-.99-1.66-7.28-12.15-1.94-3.24,4.33,1.21,7.05,7.49v-4.42l-.05-.06-.05-.06-.1-.11c-.05-.06-.11-.13-.18-.21-.05-.06-.11-.13-.17-.2-.05-.06-.1-.12-.16-.19-.07-.09-.15-.18-.24-.28-.09-.11-.18-.21-.28-.33-.09-.11-.18-.22-.28-.34-.07-.08-.14-.17-.21-.25l-.07-.08s-.07-.08-.1-.12c-.18-.22-.37-.45-.57-.69-.08-.09-.15-.18-.23-.28-.18-.22-.37-.45-.56-.69-.08-.1-.17-.2-.25-.31-.23-.29-.46-.58-.7-.87-.04-.06-.09-.11-.13-.16-.28-.35-.56-.71-.84-1.06-.07-.08-.13-.17-.19-.25-.21-.27-.41-.54-.62-.8-.09-.12-.18-.24-.27-.35-.18-.23-.35-.46-.51-.69-.09-.12-.17-.24-.26-.36-.17-.23-.33-.46-.48-.68-.07-.1-.14-.2-.21-.29-.21-.31-.41-.6-.58-.88-.15-.24-.29-.47-.41-.67-1.89-3.35-5.02-5.35-5.02-5.35l-4.91-4.09-4.56-4.5-3.15-4.2h3.15l-7.89-18.29-14.18,13.76-10.94,8.69s-.47,.76-1.31,2.13c.14,.8-8.31,6.2-8.27,6.46,.26,1.54-39.47,47.12-39.47,47.12l100.51,26.35s126.09,4.61,130.19,5.12c4.09,.51,55.77-.77,56.98-1.28,.47-.2,.39-1.14,.12-2.21-.43-1.68-1.33-3.67-1.33-3.67Z" fill="url(#linear-gradient)"/><path d="M248.43,263.56c.45,.28,.87,.53,1.24,.76,.22,.14,.43,.26,.61,.37l.11,.07c.32,.2,.56,.34,.68,.42l.09,.06,.11,.08,.14,.09c.27,.18,.73,.49,1.31,.88l4.28-.73-3.77-2.75-4.81,.77Z" fill="#c683ed"/><path d="M164.3,256.88l.07,.08c.07,.09,.14,.17,.21,.25,.1,.12,.19,.23,.28,.34,.1,.12,.19,.23,.28,.33,.08,.1,.16,.19,.24,.28,.06,.07,.11,.13,.16,.19,.06,.07,.12,.14,.17,.2,.07,.08,.13,.15,.18,.21l.1,.11,.05,.06,.05,.06v4.42l-7.05-7.49,1.4,1.49-3.79,.54,7.28,12.15,13.94-1.69,2.32,3.36-9.18-13.28v-2.56l-6.7,.95Z" fill="#c683ed"/><path d="M219.72,242.83c.44,.33,.84,.62,1.16,.83,.03,.02,.05,.03,.08,.05,.12,.07,.22,.13,.31,.18,.03,.02,.06,.03,.09,.04,.1,.04,.18,.07,.23,.07,.04,0,.12,.02,.22,.08,.03,.02,.09,.06,.13,.08,.08,.05,.15,.09,.25,.16,.06,.04,.14,.1,.21,.15,.1,.08,.2,.15,.32,.24,.08,.06,.17,.14,.26,.21,.13,.1,.25,.2,.38,.31,.1,.08,.2,.17,.31,.25,.14,.12,.28,.23,.43,.36,.11,.09,.22,.19,.33,.28,.16,.13,.31,.27,.48,.41,.1,.09,.21,.18,.31,.27,.18,.15,.35,.31,.53,.46,.1,.08,.19,.17,.29,.26,.19,.17,.38,.33,.57,.5l.06,.05,5.41-.76-3.99-2.92-2.82-2.06-5.53,.5h0Z" fill="#cd8eef"/><polygon points="160.44 257.42 159.04 255.93 154.71 254.72 156.65 257.96 160.44 257.42" fill="#cd8eef"/><path d="M157.81,248.4c.17,.27,.37,.57,.58,.88,.07,.09,.14,.19,.21,.29,.15,.22,.31,.44,.48,.68,.09,.12,.17,.24,.26,.36,.17,.23,.34,.46,.51,.69,.09,.12,.18,.24,.27,.35,.2,.27,.41,.53,.62,.8,.06,.08,.13,.17,.19,.25,.28,.36,.56,.71,.84,1.06,.04,.06,.09,.11,.13,.16,.24,.3,.47,.59,.7,.87,.09,.11,.17,.21,.25,.31,.19,.23,.38,.47,.56,.69,.08,.09,.15,.19,.23,.28,.2,.24,.39,.47,.57,.69,.03,.04,.07,.08,.1,.12l6.7-.95v-4.05l-4.4-4.28-8.79,.79h0Z" fill="#cd8eef"/><path d="M189.07,245.58c.06,.05,.1,.09,.16,.13,.09,.08,.19,.16,.26,.23l.12,.1c.07,.06,.15,.13,.21,.18,.18,.16,.29,.25,.29,.25l8.84,5.42,.07,.09,10.3-1.46c-.88-.88-1.95-1.91-3.07-2.99-1.13-1.08-2.29-2.18-3.36-3.19l-13.82,1.24Z" fill="#cd8eef"/><path d="M243.37,260.45c.06,.04,.14,.09,.21,.13l.23,.14c.12,.07,.25,.16,.39,.24l.16,.1c.1,.06,.21,.13,.32,.19,.22,.14,.46,.28,.7,.43l.32,.2,.31,.19c.12,.07,.24,.15,.36,.22l.36,.22c.58,.35,1.16,.71,1.7,1.04l4.81-.77-3.23-2.36-.92-.67-5.71,.69Z" fill="#cd8eef"/><path d="M247.88,267.7s-.04,0-.06,0c-.12,.02-.25,.04-.38,.05-.04,0-.08,0-.12,.01-.11,0-.22,.02-.33,.02-.03,0-.07,0-.1,0-.14,0-.29,.01-.44,.02-.04,0-.07,0-.11,0-.12,0-.24,0-.36,0-.04,0-.09,0-.13,0-.14,0-.27,0-.41,0-.18,0-.33,0-.46-.01h-.1c-.11,0-.22-.01-.33-.02h-.07c-.13-.01-.25-.02-.36-.02l-.46,.08,.04,.03c.06,.04,.15,.1,.23,.15,.05,.03,.09,.06,.15,.1,.13,.09,.29,.19,.45,.3l.04,.03,3.29-.74Z" fill="#cd8eef"/><path d="M252.72,266.28c.12,.08,.25,.17,.37,.26l4.03-.9-.12-.09-4.28,.73Z" fill="#cd8eef"/><polygon points="163.93 270.11 164.92 271.77 168.73 276.3 181.86 274.2 180.18 271.77 177.86 268.41 163.93 270.11" fill="#cd8eef"/><path d="M207.98,264.75c.03,.06,.06,.11,.09,.17,.17,.31,.34,.62,.52,.94l.1,.17c.21,.38,.43,.76,.64,1.14,.05,.09,.1,.18,.16,.28,.16,.29,.33,.58,.49,.86,.06,.1,.11,.2,.17,.3,.18,.31,.35,.61,.51,.89l.05,.09,16.84-2.69-5.01-3.48-.47-.38-14.08,1.71h0Z" fill="#cd8eef"/><path d="M209.24,269.82l-2.96-2.12-.06-.03c-.08-.05-.15-.08-.22-.13-.23-.13-.51-.29-.83-.49l-.05-.03c-.49-.3-1.1-.69-1.73-1.12l-.08-.06c-.2-.14-.41-.29-.62-.44l-7.87,.95c1.08,1.44,2.07,2.75,2.83,3.74,.47,.61,.84,1.1,1.09,1.41l10.5-1.68Z" fill="#cd8eef"/><path d="M203.45,274.8l.06,.03,.23,.12,.07,.04c.09,.05,.2,.11,.32,.17l.1,.05c.27,.14,.6,.32,.97,.51l.06,.03c.18,.1,.38,.2,.58,.3l.07,.04c.2,.11,.41,.21,.62,.32l.05,.03c.22,.11,.44,.23,.66,.34l26.15-5.85-.59-.41-.97-.67-28.49,4.88c.08,.04,.13,.06,.13,.06Z" fill="#cd8eef"/></g><g><polygon points="571.42 308.12 566.73 301.36 566.8 299.18 560.31 289.68 559.48 289.35 559.45 289.52 559.29 289.21 553.94 283.88 552.78 284.13 553.44 286.66 554.21 288.74 555.23 291.48 556.51 294.91 556.08 296.92 557.01 299.34 554.73 299.08 553.95 299.96 552.83 299.03 552.32 298.81 550.33 298.58 549.98 299.77 550.68 301.42 551.25 302.75 551.54 303.44 552.06 304.67 551 305.69 551.83 307.68 551.99 308.06 553.46 310.64 554.29 311.44 556.34 311.54 564.01 311.9 568.4 311.44 568.13 308.24 571.42 308.12" fill="url(#linear-gradient-2)"/><g opacity=".42"><path d="M556.11,291l.09,.17-.09-.17Zm-3.97,11.13l-.45-.77,1.09,1.9-.65-1.12Z" fill="#ee80b1"/><g><g><polygon points="557.08 302.57 555.24 299.29 554.34 300.29 557.08 302.57" fill="#7c217f"/><polygon points="560.31 289.68 559.99 289.73 559.86 290.33 562.1 294.7 560.31 289.68" fill="#7c217f"/><path d="M568.4,311.44l-.27-3.21,3.3-.11-4.69-6.76,.06-2.18-6.48-9.5,1.79,5.02-2.81-5.49-5.34-5.33v1.9s.52,1.47,.75,1.98c.24,.52,2.03,3.79,2.03,3.79l1.43,3.96-.35,1.73,.35,1.78s.57,1.08,.65,1.26c.07,.18,2.94,4.34,2.94,4.34l-4.23-5.08-2.28-.25,1.84,3.28-4.25-3.55-1.99-.22,.53,1.31,2.2,3.75,2.35,2.53-3.35-1.61,.15,1,.49,1.5,1.65,2.24-1.29-.45,.79,1.07,1.99,1.4,7.66,.36,4.39-.46Z" fill="url(#linear-gradient-3)"/><g><polygon points="551.37 300.12 550.84 298.81 550.49 299.97 551.56 300.45 551.37 300.12" fill="#7c217f"/><polygon points="551.75 302.9 553.31 303.43 552.64 302.3 551.19 301.6 551.75 302.9" fill="#7c217f"/><polygon points="552.57 304.79 555.92 306.4 553.71 304.02 552.05 303.58 552.57 304.79" fill="#7c217f"/><path d="M554.69,287.76c-.24-.52-.75-1.98-.75-1.98v-1.9l-.66,.71,.66,2.49,.77,2.04,1.02,.6c-.46-.85-.93-1.72-1.04-1.97Z" fill="#7c217f"/><polygon points="557.02 295.2 558.16 295.52 557.03 292.4 555.74 291.82 557.02 295.2" fill="#7c217f"/><path d="M558.8,300.29c-.07-.18-.65-1.26-.65-1.26l-.35-1.78-1.21-.07,.93,2.38,4.23,5.08s-2.87-4.16-2.94-4.34Z" fill="#7c217f"/><polygon points="552.96 306.53 552.72 305.79 552.57 304.79 551.5 305.79 552.96 306.53" fill="#7c217f"/><polygon points="552.5 308.12 554.29 311.44 556.34 311.54 554.36 310.14 553.57 309.08 554.86 309.53 553.93 308.26 552.34 307.76 552.5 308.12" fill="#7c217f"/><polygon points="552.05 303.58 553.71 304.02 553.57 303.87 553.31 303.43 551.75 302.9 552.05 303.58" fill="#942b99"/><polygon points="552.64 302.3 551.56 300.45 550.49 299.97 551.19 301.6 552.64 302.3" fill="#942b99"/><polygon points="558.16 295.52 557.02 295.2 556.59 297.17 557.8 297.24 558.16 295.52" fill="#942b99"/><path d="M557.03,292.4l-.3-.84s-.49-.9-.99-1.83l-1.02-.6,1.02,2.69,1.29,.58Z" fill="#942b99"/><polygon points="552.34 307.76 553.93 308.26 553.21 307.29 552.96 306.53 551.5 305.79 552.34 307.76" fill="#942b99"/></g></g><polygon points="562.1 305.52 562.1 308.38 564.76 310.87 564.76 308.71 562.96 307.94 562.1 305.52" fill="url(#linear-gradient-4)" mix-blend-mode="multiply" opacity=".46"/><polygon points="566.8 299.18 563.46 298.11 562.1 295.23 562.82 297.9 561.46 296.38 558.16 295.52 560.7 296.74 562.48 298.81 563.46 299.26 564.31 300.8 568.01 305.1 565.76 301.43 566.73 301.36 566.8 299.18" fill="url(#linear-gradient-5)" mix-blend-mode="multiply" opacity=".46"/><polygon points="557.51 303.66 558.16 305.89 556.72 306.58 558.13 306.49 560.09 309.37 558.95 306.51 559 305.6 557.51 303.66" fill="url(#linear-gradient-6)" mix-blend-mode="multiply" opacity=".46"/></g></g></g><path d="M797.78,311.57l-205.32-.51-21.48,1.76-90.35-1.21,37.92,2.71s-86.66-.91-87.79-1.01-21.54,.51-22.68,.28c-1.14-.23-26.11-2.14-27.24-1.86-1.13,.28-94.12-.33-94.12-.33,0,0-61.98,.95-63.49,.77-1.51-.18-102.75,3.82-102.75,3.82l100.46-2.83s65.96-.67,68.34-.7c2.37-.03,97.26,1.66,97.26,1.66l18.39,.85s20.93-.47,23.57-.29c2.65,.19,25.34,1.07,25.34,1.07l-12.45,1.93s-4.53,.6-6.42,.75c-1.89,.15-9.82,.25-14.74,.18s-4.92-.77-12.1-.53c-7.18,.25-21.55,.1-31.75,.39-10.2,.28,24.95,.05,26.47,.45,1.52,.4,16.64,1.09,16.64,1.09l14.74-.18s23.05-3.86,24.92-3.88c1.87-.02,18.11-.99,19.25-.88s40.08,1.12,42.72,.74c2.64-.39,12.24,.65,16.53,1.25s14.88,1.34,14.88,1.34c0,0,2.39,2.07-1.63,1.99s-22.18-1.86-27.47-1.63-21.92,.49-25.32,.31c-3.4-.18-21.93-.22-23.82-.19-1.89,.02-18.51,.71-18.51,.71l-18.11,2.64s-14.75-1.13-20.04-.83c-5.29,.3-35.91,.11-35.91,.11l-3.4,.36s14.4,.22,14.75,.4c.35,.17,27.97,.35,29.1,.14,1.13-.21,13.62,.98,13.62,.98l9.83-.12,9.04-2.33,49.42-.92,23.51-.29,29.13,2.19,12.5,2.12,8.37,4.83,9.81,2.17-16.69-8.54-13.26-2.74,24.55-1.71-5.13-1.46-17.94,1.12-31.79-3.35,.74-.91,44.61,.62,22.31,.86,9.83-.12-24.3-1.74,15.95-1.21,233.56,1.7-32.07-1.97Z" fill="#7c217f" opacity=".31"/><g><polygon points="323.05 309.92 327.66 303.27 327.6 301.13 333.97 291.8 334.79 291.48 334.82 291.64 334.98 291.33 340.23 286.09 341.38 286.34 340.73 288.83 339.97 290.87 338.97 293.56 337.71 296.94 338.13 298.91 337.22 301.29 339.46 301.04 340.22 301.9 341.33 300.98 341.83 300.77 343.78 300.55 344.13 301.71 343.44 303.34 342.88 304.64 342.59 305.32 342.08 306.53 343.13 307.53 342.31 309.49 342.15 309.86 340.71 312.4 339.89 313.19 337.87 313.28 330.34 313.64 326.02 313.19 326.29 310.04 323.05 309.92" fill="url(#linear-gradient-7)"/><g opacity=".42"><path d="M338.02,293.26l.09-.17-.09,.17Zm3.35,11.88l1.08-1.86-.44,.76-.64,1.1Z" fill="#ee80b1"/><g><g><polygon points="337.15 304.47 338.96 301.25 339.84 302.22 337.15 304.47" fill="#7c217f"/><polygon points="333.97 291.8 334.29 291.84 334.42 292.43 332.21 296.73 333.97 291.8" fill="#7c217f"/><path d="M326.02,313.19l.27-3.15-3.24-.11,4.61-6.65-.06-2.14,6.37-9.34-1.76,4.93,2.77-5.4,5.25-5.24v1.87s-.51,1.44-.74,1.95c-.23,.51-2,3.73-2,3.73l-1.41,3.89,.35,1.7-.35,1.75s-.56,1.06-.63,1.24-2.89,4.27-2.89,4.27l4.15-5,2.24-.25-1.81,3.22,4.18-3.49,1.95-.22-.52,1.29-2.16,3.69-2.31,2.49,3.29-1.58-.15,.98-.49,1.47-1.62,2.2,1.27-.44-.78,1.05-1.95,1.37-7.53,.36-4.32-.45Z" fill="url(#linear-gradient-8)"/><g><polygon points="342.77 302.06 343.28 300.76 343.63 301.91 342.58 302.38 342.77 302.06" fill="#7c217f"/><polygon points="342.39 304.79 340.86 305.31 341.51 304.2 342.94 303.51 342.39 304.79" fill="#7c217f"/><polygon points="341.58 306.65 338.29 308.23 340.46 305.89 342.1 305.46 341.58 306.65" fill="#7c217f"/><path d="M339.49,289.91c.23-.51,.74-1.95,.74-1.95v-1.87l.65,.7-.65,2.45-.76,2.01-1,.59c.45-.83,.91-1.69,1.02-1.94Z" fill="#7c217f"/><polygon points="337.21 297.22 336.09 297.53 337.2 294.47 338.47 293.9 337.21 297.22" fill="#7c217f"/><path d="M335.46,302.22c.07-.18,.63-1.24,.63-1.24l.35-1.75,1.19-.07-.91,2.34-4.15,5s2.82-4.09,2.89-4.27Z" fill="#7c217f"/><polygon points="341.2 308.36 341.44 307.63 341.58 306.65 342.63 307.63 341.2 308.36" fill="#7c217f"/><polygon points="341.66 309.92 339.89 313.19 337.87 313.28 339.83 311.91 340.6 310.86 339.33 311.3 340.25 310.06 341.81 309.56 341.66 309.92" fill="#7c217f"/><polygon points="342.1 305.46 340.46 305.89 340.6 305.74 340.86 305.31 342.39 304.79 342.1 305.46" fill="#942b99"/><polygon points="341.51 304.2 342.58 302.38 343.63 301.91 342.94 303.51 341.51 304.2" fill="#942b99"/><polygon points="336.09 297.53 337.21 297.22 337.63 299.16 336.44 299.23 336.09 297.53" fill="#942b99"/><path d="M337.2,294.47l.3-.83s.48-.88,.98-1.79l1-.59-1,2.64-1.27,.57Z" fill="#942b99"/><polygon points="341.81 309.56 340.25 310.06 340.95 309.1 341.2 308.36 342.63 307.63 341.81 309.56" fill="#942b99"/></g></g><polygon points="332.21 307.36 332.21 310.18 329.6 312.63 329.6 310.5 331.37 309.74 332.21 307.36" fill="url(#linear-gradient-9)" mix-blend-mode="multiply" opacity=".46"/><polygon points="327.6 301.13 330.88 300.08 332.21 297.25 331.51 299.87 332.85 298.38 336.09 297.53 333.6 298.74 331.84 300.76 330.88 301.21 330.04 302.72 326.41 306.95 328.62 303.34 327.66 303.27 327.6 301.13" fill="url(#linear-gradient-10)" mix-blend-mode="multiply" opacity=".46"/><polygon points="336.72 305.53 336.09 307.73 337.5 308.4 336.12 308.32 334.19 311.14 335.32 308.34 335.26 307.44 336.72 305.53" fill="url(#linear-gradient-11)" mix-blend-mode="multiply" opacity=".46"/></g></g></g><g><path d="M395.53,304.25s.28-1.03,.28-1.03l-.23-2.44-.57,.42-2.41,4.16-.24-.23-.89-.83,.4-2.16,.55-.82s.16-.48,.33-1.03c.08-.25,.17-.52,.24-.77,.12-.4,.22-.74,.24-.83,.02-.14,.02-1.16,.01-2.15,0-.97-.01-1.9-.01-1.9l.49-1.59,.44-1.41,.46-1.47-.87-.05-.86,.72-4.75,8.29-1.68,.87-.21-.45,.52-1.27,.57-1.4,.12-.3,.34-.83-.03-.47-.07-1.09,.4-1.73-.65-.04-3.84,5.28-.21,.38-.54-.18-5.2,8.02-1.08,2.99h8.42l5.84,.51,1.68-.28,.4-.07,1.35-2.14,1.56-1.38v-.37h-.72l.45-.89Z" fill="url(#linear-gradient-12)"/><g opacity=".42"><g><polygon points="382.74 298.71 382.83 297.87 383.26 298.24 382.07 300.4 382.74 298.71" fill="#7c217f"/><g><path d="M377.63,305.89l5.2-8.02-.08,.84-.67,1.68,1.5-2.72,3.84-5.28,.3,.2-1.07,2.18-.34,.45,.24,.38s-.37,.56-.24,.69c.14,.13-.66,1.58-.66,1.58l.9-.76-.24,.51-.96,1.85-.66,1.59-.06,.8-1.27,3.32,1.75-3.08,1.16-.61,.69-.86s.82-.57,.96-.72c.14-.15,.21-.81,.21-.81l4.75-8.29,.69-.48,.02,.55-.2,.7-1.71,4.25,.11,.56,.71-1.21-.31,1.76-1.02,2.86,.03,.6,.7,.06-.28,.38-1.02,2.8-.1,1.06-.03,.46-.52,1.21,.55,1.13,1.97-1.93,2.55-4.39,.45-.23-.57,2.7-2,2.63-2.07,3.1-5.84-.51h-8.42l1.08-2.99Z" fill="url(#linear-gradient-13)"/><polygon points="394.88 303.66 395.45 300.97 395.45 303.28 395.17 304.3 394.73 305.18 395.45 305.18 395.45 305.55 393.89 306.92 392.49 309.11 390.81 309.39 392.88 306.29 394.88 303.66" fill="url(#linear-gradient-14)"/></g><polygon points="383 305.92 382.82 307.19 383.34 307.52 385.73 306.39 383.57 307.67 382.59 308.31 382.59 307.67 382.3 307.19 383 305.92" fill="url(#linear-gradient-15)" mix-blend-mode="multiply" opacity=".46"/><polygon points="382.07 300.86 382.3 301.5 384.05 300.98 385.44 298.47 384.29 301.06 384.68 301.06 384.62 301.86 383.57 301.5 382.3 302.02 380.35 304.72 381.85 302.1 381.5 301.79 381.55 301.06 381.34 300.71 382.07 300.86" fill="url(#linear-gradient-16)" mix-blend-mode="multiply" opacity=".46"/><polygon points="390.78 300.71 389.38 300.98 387.69 304.72 388.64 300.98 387.9 299.92 388.06 299.41 388.78 300.29 389.53 300.53 391.15 299.82 391.18 300.42 390.78 300.71" fill="url(#linear-gradient-17)" mix-blend-mode="multiply" opacity=".46"/><polygon points="391.42 296.71 390.13 299.07 390.13 298.42 391.42 295.66 391.42 296.71" fill="url(#linear-gradient-18)" mix-blend-mode="multiply" opacity=".46"/><g><path d="M392.87,298.77l-1.71,1.04,.92-2.57,.81-.6c0,.98,0,1.99-.01,2.13Z" fill="#7c217f"/><polygon points="391.51 302.2 391.11 304.34 390.47 305.01 390.48 304.72 390.58 303.66 391.27 301.79 392.06 301.38 391.51 302.2" fill="#7c217f"/><polygon points="392.87 294.76 392.49 295.19 391.78 296.4 391.67 295.83 392.46 293.86 393.36 293.19 392.87 294.76" fill="#7c217f"/><path d="M392.39,300.36l-.51,.12-.7-.06,1.45-.82c-.08,.24-.16,.51-.24,.76Z" fill="#7c217f"/><polygon points="393.38 291.58 393.58 290.88 393.55 290.33 394.25 290.33 393.8 291.79 392.96 292.62 393.38 291.58" fill="#7c217f"/><polygon points="392.45 305.6 390.48 307.52 389.93 306.39 392 305.17 392.45 305.6" fill="#7c217f"/><path d="M384.62,301.86l.06-.8,1.43-.92,2-1.03s-.08,.66-.21,.81c-.14,.15-.96,.72-.96,.72l-.69,.86-1.16,.61-1.75,3.08,1.27-3.32Z" fill="#7c217f"/><polygon points="385.87 299.63 385.08 300.09 385.34 299.47 385.81 298.56 386.38 298.36 385.87 299.63" fill="#7c217f"/><path d="M386.95,296.98l-.41,.13-.9,.76s.18-.33,.36-.69l1.08-.5-.12,.3Z" fill="#7c217f"/><polygon points="386.64 294.77 387.71 292.59 387.31 294.31 386.53 294.92 386.64 294.77" fill="#7c217f"/><path d="M387.41,295.86l-1.1,.55c.01-.06,.01-.1,0-.12-.08-.07,0-.27,.09-.44l.99-.46,.03,.46Z" fill="#7c217f"/><polygon points="395.17 304.3 394.73 305.18 395.45 305.18 392.91 306.77 395.45 305.55 393.89 306.92 392.49 309.11 390.81 309.39 392.88 306.29 393.93 304.9 395.18 304.29 395.17 304.3" fill="#7c217f"/><polygon points="395.45 300.97 395.45 303.28 394.88 303.66 395.45 300.97" fill="#7c217f"/><polygon points="390.47 305.01 391.11 304.34 392 305.17 389.93 306.39 390.46 305.18 390.47 305.01" fill="#942b99"/><path d="M392.63,299.6l-1.45,.82-.03-.6,1.71-1.04c-.01,.09-.11,.43-.24,.83Z" fill="#942b99"/><path d="M392.06,301.38l-.79,.41,.34-.93,.28-.38,.51-.12c-.18,.55-.33,1.02-.33,1.02Z" fill="#942b99"/><polygon points="392.46 293.86 392.96 292.62 393.8 291.79 393.36 293.19 392.46 293.86" fill="#942b99"/><path d="M392.88,296.65l-.81,.6,.11-.3,.31-1.76,.37-.43s0,.92,.01,1.88Z" fill="#942b99"/><polygon points="395.45 305.18 395.45 305.55 392.91 306.77 395.45 305.18" fill="#942b99"/><polygon points="393.93 304.9 394.88 303.66 395.45 303.28 395.18 304.29 393.93 304.9" fill="#942b99"/><path d="M387.07,296.68l-1.08,.5c.14-.29,.28-.6,.31-.77l1.1-.55-.34,.82Z" fill="#942b99"/><polygon points="386.38 298.36 385.81 298.56 386.3 297.62 386.54 297.11 386.95 296.98 386.38 298.36" fill="#942b99"/><path d="M386.39,295.85c.07-.14,.15-.25,.15-.25l-.24-.38,.23-.31,.78-.6,.07,1.08-.99,.46Z" fill="#942b99"/><polygon points="385.08 300.09 385.87 299.63 386.12 300.14 384.68 301.06 385.08 300.09" fill="#942b99"/></g></g></g></g><g><path d="M438.82,305.75s.23-.86,.23-.86l-.19-2.02-.47,.35-2,3.45-.2-.19-.74-.69,.33-1.8,.46-.68s.13-.4,.28-.86c.07-.21,.14-.44,.2-.64,.1-.33,.19-.61,.2-.69,.02-.11,.02-.96,.01-1.78,0-.81-.01-1.58-.01-1.58l.41-1.32,.36-1.17,.38-1.22-.73-.04-.72,.6-3.95,6.88-1.39,.72-.18-.37,.43-1.06,.47-1.16,.1-.25,.28-.69-.02-.39-.06-.91,.33-1.44-.54-.03-3.19,4.38-.17,.31-.45-.15-4.32,6.66-.9,2.48h6.99l4.85,.42,1.4-.23,.33-.06,1.12-1.78,1.3-1.15v-.31h-.6l.37-.74Z" fill="url(#linear-gradient-19)"/><g opacity=".15"><g><polygon points="428.21 301.15 428.28 300.46 428.64 300.76 427.66 302.55 428.21 301.15" fill="#7c217f"/><g><path d="M423.97,307.12l4.32-6.66-.07,.7-.56,1.4,1.25-2.26,3.19-4.38,.25,.17-.89,1.81-.28,.37,.2,.32s-.31,.47-.2,.57c.11,.11-.55,1.31-.55,1.31l.75-.63-.2,.42-.8,1.54-.55,1.32-.05,.66-1.06,2.76,1.45-2.56,.96-.5,.57-.71s.68-.48,.8-.6c.11-.12,.18-.67,.18-.67l3.95-6.88,.57-.4,.02,.45-.17,.58-1.42,3.53,.09,.47,.59-1-.26,1.46-.85,2.38,.02,.5,.58,.05-.23,.32-.85,2.32-.08,.88-.02,.38-.43,1.01,.46,.94,1.64-1.6,2.11-3.65,.37-.19-.48,2.24-1.66,2.18-1.72,2.58-4.85-.42h-6.99l.9-2.48Z" fill="url(#linear-gradient-20)"/><polygon points="438.28 305.27 438.76 303.03 438.76 304.95 438.53 305.8 438.16 306.53 438.76 306.53 438.76 306.83 437.46 307.97 436.3 309.79 434.91 310.02 436.63 307.45 438.28 305.27" fill="url(#linear-gradient-21)"/></g><polygon points="428.42 307.14 428.28 308.19 428.71 308.47 430.69 307.53 428.9 308.59 428.09 309.12 428.09 308.59 427.84 308.19 428.42 307.14" fill="url(#linear-gradient-22)" mix-blend-mode="multiply" opacity=".46"/><polygon points="427.66 302.94 427.84 303.46 429.29 303.04 430.45 300.95 429.5 303.11 429.82 303.11 429.77 303.77 428.9 303.46 427.84 303.9 426.22 306.14 427.47 303.97 427.18 303.71 427.22 303.11 427.05 302.81 427.66 302.94" fill="url(#linear-gradient-23)" mix-blend-mode="multiply" opacity=".46"/><polygon points="434.88 302.81 433.72 303.04 432.32 306.14 433.1 303.04 432.49 302.15 432.63 301.74 433.23 302.47 433.85 302.67 435.19 302.07 435.22 302.57 434.88 302.81" fill="url(#linear-gradient-24)" mix-blend-mode="multiply" opacity=".46"/><polygon points="435.41 299.49 434.35 301.45 434.35 300.91 435.41 298.62 435.41 299.49" fill="url(#linear-gradient-25)" mix-blend-mode="multiply" opacity=".46"/><g><path d="M436.62,301.21l-1.42,.87,.76-2.13,.67-.5c0,.81,0,1.65-.01,1.76Z" fill="#7c217f"/><polygon points="435.49 304.05 435.15 305.83 434.62 306.38 434.64 306.14 434.72 305.27 435.29 303.71 435.94 303.37 435.49 304.05" fill="#7c217f"/><polygon points="436.62 297.88 436.3 298.23 435.71 299.23 435.62 298.77 436.28 297.13 437.02 296.57 436.62 297.88" fill="#7c217f"/><path d="M436.22,302.52l-.42,.1-.58-.05,1.2-.68c-.06,.2-.13,.42-.2,.63Z" fill="#7c217f"/><polygon points="437.04 295.23 437.21 294.65 437.19 294.2 437.77 294.2 437.39 295.41 436.69 296.1 437.04 295.23" fill="#7c217f"/><polygon points="436.27 306.87 434.64 308.47 434.18 307.53 435.89 306.51 436.27 306.87" fill="#7c217f"/><path d="M429.77,303.77l.05-.66,1.19-.76,1.66-.86s-.06,.55-.18,.67c-.11,.12-.8,.6-.8,.6l-.57,.71-.96,.5-1.45,2.56,1.06-2.76Z" fill="#7c217f"/><polygon points="430.8 301.91 430.15 302.3 430.37 301.78 430.76 301.03 431.23 300.87 430.8 301.91" fill="#7c217f"/><path d="M431.71,299.72l-.34,.11-.75,.63s.15-.28,.3-.57l.89-.41-.1,.25Z" fill="#7c217f"/><polygon points="431.45 297.89 432.34 296.08 432.01 297.5 431.36 298 431.45 297.89" fill="#7c217f"/><path d="M432.09,298.79l-.92,.46s0-.08,0-.1c-.06-.06,0-.23,.08-.37l.82-.38,.02,.39Z" fill="#7c217f"/><polygon points="438.53 305.8 438.16 306.53 438.76 306.53 436.65 307.84 438.76 306.83 437.46 307.97 436.3 309.79 434.91 310.02 436.63 307.45 437.5 306.29 438.53 305.79 438.53 305.8" fill="#7c217f"/><polygon points="438.76 303.03 438.76 304.95 438.28 305.27 438.76 303.03" fill="#7c217f"/><polygon points="434.62 306.38 435.15 305.83 435.89 306.51 434.18 307.53 434.61 306.53 434.62 306.38" fill="#942b99"/><path d="M436.42,301.89l-1.2,.68-.02-.5,1.42-.87c-.01,.08-.09,.35-.2,.69Z" fill="#942b99"/><path d="M435.94,303.37l-.66,.34,.28-.77,.23-.32,.42-.1c-.15,.45-.28,.85-.28,.85Z" fill="#942b99"/><polygon points="436.28 297.13 436.69 296.1 437.39 295.41 437.02 296.57 436.28 297.13" fill="#942b99"/><path d="M436.63,299.44l-.67,.5,.09-.25,.26-1.46,.31-.35s0,.77,.01,1.56Z" fill="#942b99"/><polygon points="438.76 306.53 438.76 306.83 436.65 307.84 438.76 306.53" fill="#942b99"/><polygon points="437.5 306.29 438.28 305.27 438.76 304.95 438.53 305.79 437.5 306.29" fill="#942b99"/><path d="M431.81,299.47l-.89,.41c.12-.24,.23-.5,.26-.64l.92-.46-.28,.68Z" fill="#942b99"/><polygon points="431.23 300.87 430.76 301.03 431.17 300.25 431.36 299.82 431.71 299.72 431.23 300.87" fill="#942b99"/><path d="M431.24,298.78c.06-.11,.12-.21,.12-.21l-.2-.32,.19-.25,.65-.5,.06,.9-.82,.38Z" fill="#942b99"/><polygon points="430.15 302.3 430.8 301.91 431.01 302.34 429.82 303.11 430.15 302.3" fill="#942b99"/></g></g></g></g><g><path d="M483.42,306.87l-.16-.6,.13-1.4,.33,.24,1.39,2.39,.14-.13,.51-.48-.23-1.25-.32-.47s-.09-.28-.19-.59c-.05-.15-.1-.3-.14-.44-.07-.23-.13-.43-.14-.48-.01-.08-.01-.67,0-1.24,0-.56,0-1.1,0-1.1l-.28-.92-.25-.81-.26-.85,.5-.03,.5,.42,2.74,4.78,.97,.5,.12-.26-.3-.73-.33-.81-.07-.17-.19-.48,.02-.27,.04-.63-.23-1,.38-.02,2.21,3.04,.12,.22,.31-.1,3,4.62,.62,1.72h-4.85l-3.37,.29-.97-.16-.23-.04-.78-1.23-.9-.8v-.21h.42l-.26-.51Z" fill="url(#linear-gradient-26)"/><g opacity=".15"><g><polygon points="490.78 303.68 490.73 303.19 490.48 303.41 491.17 304.65 490.78 303.68" fill="#7c217f"/><g><path d="M493.73,307.82l-3-4.62,.05,.48,.39,.97-.86-1.57-2.21-3.04-.17,.12,.62,1.26,.19,.26-.14,.22s.22,.32,.14,.4c-.08,.07,.38,.91,.38,.91l-.52-.44,.14,.29,.55,1.07,.38,.92,.04,.46,.73,1.91-1.01-1.77-.67-.35-.4-.49s-.47-.33-.55-.42c-.08-.09-.12-.46-.12-.46l-2.74-4.78-.4-.28v.32l.1,.4,.99,2.45-.07,.32-.41-.7,.18,1.02,.59,1.65-.02,.35-.4,.04,.16,.22,.59,1.61,.06,.61,.02,.27,.3,.7-.32,.65-1.14-1.11-1.47-2.53-.26-.14,.33,1.56,1.15,1.51,1.19,1.79,3.37-.29h4.85l-.62-1.72Z" fill="url(#linear-gradient-27)"/><polygon points="483.79 306.53 483.46 304.98 483.46 306.31 483.62 306.9 483.88 307.41 483.46 307.41 483.46 307.62 484.36 308.41 485.17 309.67 486.14 309.83 484.94 308.05 483.79 306.53" fill="url(#linear-gradient-28)"/></g><polygon points="490.64 307.83 490.74 308.56 490.44 308.76 489.06 308.11 490.3 308.84 490.87 309.21 490.87 308.84 491.04 308.56 490.64 307.83" fill="url(#linear-gradient-29)" mix-blend-mode="multiply" opacity=".46"/><polygon points="491.17 304.92 491.04 305.28 490.03 304.99 489.23 303.54 489.89 305.03 489.67 305.03 489.7 305.49 490.3 305.28 491.04 305.58 492.16 307.14 491.3 305.63 491.5 305.45 491.47 305.03 491.59 304.83 491.17 304.92" fill="url(#linear-gradient-30)" mix-blend-mode="multiply" opacity=".46"/><polygon points="486.15 304.83 486.96 304.99 487.94 307.14 487.39 304.99 487.81 304.37 487.72 304.08 487.3 304.59 486.87 304.73 485.94 304.32 485.92 304.66 486.15 304.83" fill="url(#linear-gradient-31)" mix-blend-mode="multiply" opacity=".46"/><polygon points="485.79 302.53 486.53 303.89 486.53 303.51 485.79 301.92 485.79 302.53" fill="url(#linear-gradient-32)" mix-blend-mode="multiply" opacity=".46"/><g><path d="M484.95,303.71l.99,.6-.53-1.48-.47-.35c0,.56,0,1.15,0,1.23Z" fill="#7c217f"/><polygon points="485.73 305.69 485.96 306.92 486.33 307.31 486.32 307.14 486.27 306.53 485.87 305.45 485.42 305.22 485.73 305.69" fill="#7c217f"/><polygon points="484.95 301.41 485.17 301.65 485.58 302.35 485.64 302.02 485.18 300.88 484.67 300.5 484.95 301.41" fill="#7c217f"/><path d="M485.23,304.63l.29,.07,.4-.04-.84-.47c.04,.14,.09,.29,.14,.44Z" fill="#7c217f"/><polygon points="484.66 299.57 484.54 299.17 484.56 298.85 484.15 298.85 484.41 299.69 484.9 300.17 484.66 299.57" fill="#7c217f"/><polygon points="485.19 307.65 486.32 308.76 486.64 308.11 485.45 307.4 485.19 307.65" fill="#7c217f"/><path d="M489.7,305.49l-.04-.46-.83-.53-1.15-.6s.04,.38,.12,.46c.08,.09,.55,.42,.55,.42l.4,.49,.67,.35,1.01,1.77-.73-1.91Z" fill="#7c217f"/><polygon points="488.98 304.21 489.44 304.48 489.29 304.12 489.02 303.59 488.69 303.48 488.98 304.21" fill="#7c217f"/><path d="M488.36,302.68l.24,.07,.52,.44s-.11-.19-.21-.4l-.62-.29,.07,.17Z" fill="#7c217f"/><polygon points="488.54 301.41 487.92 300.16 488.15 301.14 488.6 301.49 488.54 301.41" fill="#7c217f"/><path d="M488.09,302.04l.64,.32s0-.06,0-.07c.04-.04,0-.16-.05-.25l-.57-.26-.02,.27Z" fill="#7c217f"/><polygon points="483.62 306.9 483.88 307.41 483.46 307.41 484.92 308.32 483.46 307.62 484.36 308.41 485.17 309.67 486.14 309.83 484.94 308.05 484.34 307.25 483.62 306.89 483.62 306.9" fill="#7c217f"/><polygon points="483.46 304.98 483.46 306.31 483.79 306.53 483.46 304.98" fill="#7c217f"/><polygon points="486.33 307.31 485.96 306.92 485.45 307.4 486.64 308.11 486.34 307.41 486.33 307.31" fill="#942b99"/><path d="M485.09,304.19l.84,.47,.02-.35-.99-.6c0,.05,.06,.25,.14,.48Z" fill="#942b99"/><path d="M485.42,305.22l.46,.24-.2-.54-.16-.22-.29-.07c.1,.32,.19,.59,.19,.59Z" fill="#942b99"/><polygon points="485.18 300.88 484.9 300.17 484.41 299.69 484.67 300.5 485.18 300.88" fill="#942b99"/><path d="M484.94,302.49l.47,.35-.06-.17-.18-1.02-.22-.25s0,.53,0,1.08Z" fill="#942b99"/><polygon points="483.46 307.41 483.46 307.62 484.92 308.32 483.46 307.41" fill="#942b99"/><polygon points="484.34 307.25 483.79 306.53 483.46 306.31 483.62 306.89 484.34 307.25" fill="#942b99"/><path d="M488.29,302.51l.62,.29c-.08-.17-.16-.35-.18-.44l-.64-.32,.19,.47Z" fill="#942b99"/><polygon points="488.69 303.48 489.02 303.59 488.73 303.05 488.6 302.75 488.36 302.68 488.69 303.48" fill="#942b99"/><path d="M488.68,302.03c-.04-.08-.08-.14-.08-.14l.14-.22-.13-.18-.45-.35-.04,.62,.57,.26Z" fill="#942b99"/><polygon points="489.44 304.48 488.98 304.21 488.84 304.5 489.67 305.03 489.44 304.48" fill="#942b99"/></g></g></g></g><g><path d="M422.49,303.76s.47-1.76,.47-1.76l-.4-4.14-.96,.71-4.1,7.07-.42-.39-1.51-1.42,.68-3.68,.93-1.4s.27-.82,.57-1.76c.14-.43,.28-.89,.41-1.31,.21-.69,.38-1.26,.4-1.42,.03-.23,.03-1.98,.02-3.65,0-1.65-.02-3.23-.02-3.23l.84-2.71,.74-2.4,.77-2.5-1.49-.09-1.47,1.23-8.09,14.11-2.86,1.48-.36-.76,.88-2.17,.97-2.38,.21-.51,.57-1.41-.05-.8-.12-1.86,.68-2.95-1.11-.07-6.53,8.98-.35,.64-.92-.3-8.84,13.65-1.84,5.09h14.33l9.94,.87,2.87-.48,.68-.13,2.3-3.64,2.66-2.35v-.63h-1.23l.76-1.51Z" fill="url(#linear-gradient-33)"/><g opacity=".42"><g><polygon points="400.74 294.33 400.89 292.9 401.62 293.53 399.6 297.2 400.74 294.33" fill="#7c217f"/><g><path d="M392.04,306.55l8.84-13.65-.14,1.43-1.14,2.87,2.55-4.63,6.53-8.98,.51,.35-1.83,3.71-.57,.76,.4,.65s-.64,.95-.4,1.17c.23,.22-1.13,2.68-1.13,2.68l1.53-1.3-.4,.87-1.63,3.15-1.12,2.71-.11,1.35-2.17,5.65,2.97-5.24,1.97-1.03,1.17-1.46s1.4-.98,1.63-1.23c.23-.25,.36-1.37,.36-1.37l8.09-14.11,1.17-.82,.04,.93-.34,1.19-2.91,7.24,.19,.96,1.21-2.05-.53,3-1.74,4.87,.04,1.02,1.19,.11-.47,.65-1.74,4.76-.17,1.8-.04,.79-.89,2.06,.93,1.92,3.36-3.28,4.33-7.48,.76-.4-.98,4.59-3.4,4.47-3.52,5.28-9.94-.87h-14.33l1.84-5.09Z" fill="url(#linear-gradient-34)"/><polygon points="421.38 302.76 422.36 298.17 422.36 302.11 421.89 303.85 421.13 305.34 422.36 305.34 422.36 305.97 419.7 308.3 417.33 312.03 414.46 312.51 417.98 307.23 421.38 302.76" fill="url(#linear-gradient-35)"/></g><polygon points="401.17 306.59 400.88 308.76 401.76 309.33 405.82 307.4 402.16 309.58 400.49 310.67 400.49 309.58 399.98 308.76 401.17 306.59" fill="url(#linear-gradient-36)" mix-blend-mode="multiply" opacity=".46"/><polygon points="399.6 298 399.98 299.07 402.96 298.19 405.33 293.92 403.38 298.34 404.04 298.34 403.93 299.69 402.16 299.07 399.98 299.96 396.67 304.56 399.22 300.1 398.62 299.58 398.71 298.34 398.36 297.74 399.6 298" fill="url(#linear-gradient-37)" mix-blend-mode="multiply" opacity=".46"/><polygon points="414.42 297.74 412.04 298.19 409.15 304.56 410.77 298.19 409.51 296.38 409.8 295.53 411.02 297.02 412.29 297.43 415.05 296.21 415.1 297.23 414.42 297.74" fill="url(#linear-gradient-38)" mix-blend-mode="multiply" opacity=".46"/><polygon points="415.5 290.93 413.31 294.95 413.31 293.84 415.5 289.15 415.5 290.93" fill="url(#linear-gradient-39)" mix-blend-mode="multiply" opacity=".46"/><g><path d="M417.96,294.44l-2.91,1.77,1.56-4.36,1.37-1.03c0,1.66,0,3.39-.02,3.62Z" fill="#7c217f"/><polygon points="415.65 300.27 414.97 303.91 413.88 305.05 413.91 304.56 414.08 302.76 415.24 299.58 416.58 298.88 415.65 300.27" fill="#7c217f"/><polygon points="417.96 287.62 417.33 288.35 416.12 290.4 415.92 289.44 417.27 286.08 418.8 284.94 417.96 287.62" fill="#7c217f"/><path d="M417.15,297.14l-.87,.2-1.19-.11,2.47-1.39c-.13,.41-.27,.87-.41,1.3Z" fill="#7c217f"/><polygon points="418.83 282.2 419.17 281.01 419.13 280.08 420.32 280.08 419.55 282.56 418.12 283.97 418.83 282.2" fill="#7c217f"/><polygon points="417.26 306.04 413.91 309.33 412.97 307.4 416.48 305.32 417.26 306.04" fill="#7c217f"/><path d="M403.93,299.69l.11-1.35,2.44-1.57,3.4-1.76s-.13,1.12-.36,1.37c-.23,.25-1.63,1.23-1.63,1.23l-1.17,1.46-1.97,1.03-2.97,5.24,2.17-5.65Z" fill="#7c217f"/><polygon points="406.05 295.89 404.72 296.69 405.16 295.63 405.96 294.08 406.94 293.74 406.05 295.89" fill="#7c217f"/><path d="M407.9,291.39l-.71,.22-1.53,1.3s.31-.56,.61-1.18l1.83-.85-.21,.5Z" fill="#7c217f"/><polygon points="407.37 287.64 409.2 283.93 408.52 286.85 407.19 287.88 407.37 287.64" fill="#7c217f"/><path d="M408.69,289.48l-1.88,.94c.02-.1,.02-.17-.01-.2-.13-.12,0-.46,.15-.75l1.69-.78,.05,.79Z" fill="#7c217f"/><polygon points="421.89 303.85 421.13 305.34 422.36 305.34 418.04 308.05 422.36 305.97 419.7 308.3 417.33 312.03 414.46 312.51 417.98 307.23 419.78 304.87 421.9 303.83 421.89 303.85" fill="#7c217f"/><polygon points="422.36 298.17 422.36 302.11 421.38 302.76 422.36 298.17" fill="#7c217f"/><polygon points="413.88 305.05 414.97 303.91 416.48 305.32 412.97 307.4 413.86 305.34 413.88 305.05" fill="#942b99"/><path d="M417.56,295.84l-2.47,1.39-.04-1.02,2.91-1.77c-.02,.16-.19,.72-.4,1.4Z" fill="#942b99"/><path d="M416.58,298.88l-1.34,.7,.58-1.58,.47-.65,.87-.2c-.3,.93-.57,1.74-.57,1.74Z" fill="#942b99"/><polygon points="417.27 286.08 418.12 283.97 419.55 282.56 418.8 284.94 417.27 286.08" fill="#942b99"/><path d="M417.99,290.82l-1.37,1.03,.18-.5,.53-3,.64-.73s.02,1.57,.02,3.2Z" fill="#942b99"/><polygon points="422.36 305.34 422.36 305.97 418.04 308.05 422.36 305.34" fill="#942b99"/><polygon points="419.78 304.87 421.38 302.76 422.36 302.11 421.9 303.83 419.78 304.87" fill="#942b99"/><path d="M408.11,290.88l-1.83,.85c.24-.5,.47-1.02,.53-1.31l1.88-.94-.57,1.4Z" fill="#942b99"/><polygon points="406.94 293.74 405.96 294.08 406.8 292.48 407.2 291.61 407.9 291.39 406.94 293.74" fill="#942b99"/><path d="M406.95,289.47c.12-.23,.25-.43,.25-.43l-.4-.65,.39-.52,1.33-1.03,.12,1.84-1.69,.78Z" fill="#942b99"/><polygon points="404.72 296.69 406.05 295.89 406.48 296.77 404.04 298.34 404.72 296.69" fill="#942b99"/></g></g></g></g><g><path d="M530.45,304.04l-.28-1.06,.24-2.49,.58,.43,2.46,4.25,.25-.23,.91-.85-.41-2.21-.56-.84s-.16-.49-.34-1.05c-.08-.26-.17-.54-.25-.79-.13-.41-.23-.76-.24-.85-.02-.14-.02-1.19-.01-2.19,0-.99,.01-1.94,.01-1.94l-.5-1.63-.45-1.44-.46-1.5,.89-.06,.88,.74,4.86,8.47,1.72,.89,.22-.46-.53-1.3-.58-1.43-.12-.31-.35-.85,.03-.48,.07-1.12-.41-1.77,.67-.04,3.92,5.4,.21,.38,.55-.18,5.31,8.2,1.11,3.06h-8.6l-5.97,.52-1.72-.29-.41-.08-1.38-2.19-1.6-1.41v-.38h.74l-.46-.91Z" fill="url(#linear-gradient-40)"/><g opacity=".42"><g><polygon points="543.51 298.38 543.43 297.52 542.99 297.9 544.2 300.1 543.51 298.38" fill="#7c217f"/><g><path d="M548.74,305.72l-5.31-8.2,.09,.86,.69,1.72-1.53-2.78-3.92-5.4-.31,.21,1.1,2.23,.34,.46-.24,.39s.38,.57,.24,.71c-.14,.13,.68,1.61,.68,1.61l-.92-.78,.24,.52,.98,1.89,.67,1.63,.07,.81,1.3,3.4-1.79-3.15-1.18-.62-.71-.88s-.84-.59-.98-.74c-.14-.15-.22-.82-.22-.82l-4.86-8.47-.7-.49-.02,.56,.2,.71,1.75,4.35-.12,.58-.73-1.23,.32,1.8,1.05,2.92-.03,.61-.71,.07,.28,.39,1.04,2.86,.1,1.08,.03,.47,.53,1.24-.56,1.16-2.02-1.97-2.6-4.49-.46-.24,.59,2.76,2.04,2.68,2.12,3.17,5.97-.52h8.6l-1.11-3.06Z" fill="url(#linear-gradient-41)"/><polygon points="531.12 303.44 530.53 300.68 530.53 303.05 530.81 304.09 531.27 304.99 530.53 304.99 530.53 305.37 532.13 306.77 533.55 309.01 535.28 309.29 533.16 306.12 531.12 303.44" fill="url(#linear-gradient-42)"/></g><polygon points="543.26 305.74 543.43 307.04 542.9 307.38 540.47 306.23 542.67 307.54 543.67 308.19 543.67 307.54 543.97 307.04 543.26 305.74" fill="url(#linear-gradient-43)" mix-blend-mode="multiply" opacity=".46"/><polygon points="544.2 300.58 543.97 301.22 542.18 300.7 540.76 298.13 541.93 300.78 541.53 300.78 541.6 301.6 542.67 301.22 543.97 301.76 545.96 304.52 544.43 301.84 544.79 301.53 544.74 300.78 544.95 300.42 544.2 300.58" fill="url(#linear-gradient-44)" mix-blend-mode="multiply" opacity=".46"/><polygon points="535.3 300.42 536.73 300.7 538.46 304.52 537.5 300.7 538.25 299.61 538.08 299.1 537.34 299.99 536.58 300.24 534.92 299.51 534.89 300.12 535.3 300.42" fill="url(#linear-gradient-45)" mix-blend-mode="multiply" opacity=".46"/><polygon points="534.65 296.34 535.97 298.75 535.97 298.08 534.65 295.26 534.65 296.34" fill="url(#linear-gradient-46)" mix-blend-mode="multiply" opacity=".46"/><g><path d="M533.17,298.44l1.75,1.07-.94-2.62-.82-.62c0,1,0,2.03,.01,2.17Z" fill="#7c217f"/><polygon points="534.56 301.94 534.97 304.13 535.63 304.82 535.61 304.52 535.51 303.44 534.81 301.53 534 301.11 534.56 301.94" fill="#7c217f"/><polygon points="533.17 294.35 533.55 294.78 534.28 296.02 534.4 295.44 533.59 293.42 532.67 292.74 533.17 294.35" fill="#7c217f"/><path d="M533.66,300.06l.52,.12,.71-.07-1.48-.84c.08,.25,.16,.52,.25,.78Z" fill="#7c217f"/><polygon points="532.65 291.09 532.45 290.38 532.47 289.82 531.76 289.82 532.22 291.31 533.08 292.16 532.65 291.09" fill="#7c217f"/><polygon points="533.59 305.41 535.61 307.38 536.17 306.23 534.06 304.98 533.59 305.41" fill="#7c217f"/><path d="M541.6,301.6l-.07-.81-1.46-.94-2.04-1.06s.08,.67,.22,.82c.14,.15,.98,.74,.98,.74l.71,.88,1.18,.62,1.79,3.15-1.3-3.4Z" fill="#7c217f"/><polygon points="540.33 299.31 541.12 299.79 540.86 299.15 540.38 298.23 539.8 298.02 540.33 299.31" fill="#7c217f"/><path d="M539.21,296.61l.42,.13,.92,.78s-.19-.34-.37-.71l-1.1-.51,.12,.3Z" fill="#7c217f"/><polygon points="539.54 294.36 538.44 292.13 538.85 293.88 539.64 294.5 539.54 294.36" fill="#7c217f"/><path d="M538.74,295.46l1.13,.56c-.01-.06-.01-.1,0-.12,.08-.07,0-.28-.09-.45l-1.01-.47-.03,.47Z" fill="#7c217f"/><polygon points="530.81 304.09 531.27 304.99 530.53 304.99 533.13 306.61 530.53 305.37 532.13 306.77 533.55 309.01 535.28 309.29 533.16 306.12 532.08 304.71 530.81 304.08 530.81 304.09" fill="#7c217f"/><polygon points="530.53 300.68 530.53 303.05 531.12 303.44 530.53 300.68" fill="#7c217f"/><polygon points="535.63 304.82 534.97 304.13 534.06 304.98 536.17 306.23 535.63 304.99 535.63 304.82" fill="#942b99"/><path d="M533.41,299.29l1.48,.84,.03-.61-1.75-1.07c.01,.09,.11,.43,.24,.84Z" fill="#942b99"/><path d="M534,301.11l.81,.42-.35-.95-.28-.39-.52-.12c.18,.56,.34,1.04,.34,1.04Z" fill="#942b99"/><polygon points="533.59 293.42 533.08 292.16 532.22 291.31 532.67 292.74 533.59 293.42" fill="#942b99"/><path d="M533.16,296.27l.82,.62-.11-.3-.32-1.8-.38-.44s0,.94-.01,1.92Z" fill="#942b99"/><polygon points="530.53 304.99 530.53 305.37 533.13 306.61 530.53 304.99" fill="#942b99"/><polygon points="532.08 304.71 531.12 303.44 530.53 303.05 530.81 304.08 532.08 304.71" fill="#942b99"/><path d="M539.09,296.3l1.1,.51c-.15-.3-.29-.61-.32-.78l-1.13-.56,.35,.84Z" fill="#942b99"/><polygon points="539.8 298.02 540.38 298.23 539.88 297.26 539.64 296.74 539.21 296.61 539.8 298.02" fill="#942b99"/><path d="M539.79,295.46c-.07-.14-.15-.26-.15-.26l.24-.39-.24-.31-.8-.62-.07,1.11,1.01,.47Z" fill="#942b99"/><polygon points="541.12 299.79 540.33 299.31 540.07 299.84 541.53 300.78 541.12 299.79" fill="#942b99"/></g></g></g></g><g><polygon points="522.73 308.85 516.98 300.55 517.06 297.88 509.11 286.23 508.08 285.83 508.04 286.03 507.85 285.65 501.29 279.11 499.86 279.41 500.67 282.52 501.62 285.07 502.87 288.43 504.44 292.64 503.92 295.11 505.05 298.07 502.26 297.76 501.3 298.84 499.92 297.69 499.3 297.42 496.86 297.15 496.43 298.6 497.29 300.63 497.98 302.26 498.35 303.11 498.98 304.61 497.68 305.86 498.7 308.31 498.9 308.77 500.7 311.93 501.72 312.92 504.24 313.04 513.63 313.48 519.02 312.92 518.69 308.99 522.73 308.85" fill="url(#linear-gradient-47)"/><g opacity=".42"><path d="M503.94,287.85l.11,.21-.11-.21Zm-4.87,13.65l-.55-.95,1.34,2.32-.79-1.38Z" fill="#ee80b1"/><g><g><polygon points="505.14 302.04 502.88 298.02 501.78 299.24 505.14 302.04" fill="#7c217f"/><polygon points="509.11 286.23 508.7 286.29 508.55 287.02 511.3 292.38 509.11 286.23" fill="#7c217f"/><path d="M519.02,312.92l-.33-3.93,4.04-.14-5.75-8.3,.08-2.67-7.95-11.65,2.19,6.15-3.45-6.74-6.56-6.54v2.33s.63,1.8,.92,2.43c.29,.63,2.49,4.65,2.49,4.65l1.76,4.86-.43,2.12,.43,2.19s.7,1.33,.79,1.55c.09,.22,3.61,5.32,3.61,5.32l-5.18-6.23-2.8-.31,2.26,4.02-5.22-4.35-2.44-.27,.65,1.61,2.7,4.6,2.88,3.1-4.11-1.98,.18,1.23,.61,1.84,2.02,2.74-1.58-.55,.97,1.31,2.44,1.71,9.4,.44,5.39-.56Z" fill="url(#linear-gradient-48)"/><g><polygon points="498.13 299.03 497.48 297.42 497.05 298.85 498.37 299.43 498.13 299.03" fill="#7c217f"/><polygon points="498.61 302.44 500.51 303.09 499.7 301.7 497.91 300.84 498.61 302.44" fill="#7c217f"/><polygon points="499.6 304.76 503.71 306.73 501 303.82 498.97 303.28 499.6 304.76" fill="#7c217f"/><path d="M502.21,283.87c-.29-.63-.92-2.43-.92-2.43v-2.33l-.81,.88,.81,3.06,.95,2.51,1.25,.74c-.56-1.04-1.14-2.11-1.27-2.42Z" fill="#7c217f"/><polygon points="505.06 292.99 506.46 293.38 505.08 289.56 503.49 288.85 505.06 292.99" fill="#7c217f"/><path d="M507.25,299.24c-.09-.22-.79-1.55-.79-1.55l-.43-2.19-1.49-.09,1.14,2.92,5.18,6.23s-3.52-5.1-3.61-5.32Z" fill="#7c217f"/><polygon points="500.09 306.9 499.79 305.99 499.6 304.76 498.3 305.98 500.09 306.9" fill="#7c217f"/><polygon points="499.52 308.85 501.72 312.92 504.24 313.04 501.8 311.33 500.83 310.02 502.41 310.57 501.27 309.02 499.32 308.4 499.52 308.85" fill="#7c217f"/><polygon points="498.97 303.28 501 303.82 500.83 303.63 500.51 303.09 498.61 302.44 498.97 303.28" fill="#942b99"/><polygon points="499.7 301.7 498.37 299.43 497.05 298.85 497.91 300.84 499.7 301.7" fill="#942b99"/><polygon points="506.46 293.38 505.06 292.99 504.54 295.41 506.03 295.5 506.46 293.38" fill="#942b99"/><path d="M505.08,289.56l-.37-1.03s-.6-1.1-1.22-2.24l-1.25-.74,1.25,3.3,1.59,.71Z" fill="#942b99"/><polygon points="499.32 308.4 501.27 309.02 500.39 307.83 500.09 306.9 498.3 305.98 499.32 308.4" fill="#942b99"/></g></g><polygon points="511.3 305.65 511.3 309.17 514.55 312.22 514.55 309.57 512.35 308.62 511.3 305.65" fill="url(#linear-gradient-49)" mix-blend-mode="multiply" opacity=".46"/><polygon points="517.06 297.88 512.96 296.56 511.3 293.03 512.18 296.3 510.51 294.45 506.46 293.38 509.57 294.89 511.76 297.42 512.96 297.97 514.01 299.87 518.55 305.13 515.79 300.64 516.98 300.55 517.06 297.88" fill="url(#linear-gradient-50)" mix-blend-mode="multiply" opacity=".46"/><polygon points="505.67 303.37 506.46 306.11 504.7 306.95 506.42 306.84 508.84 310.37 507.43 306.87 507.5 305.75 505.67 303.37" fill="url(#linear-gradient-51)" mix-blend-mode="multiply" opacity=".46"/></g></g></g><g><polygon points="435.21 310.06 438.31 305.59 438.27 304.15 442.55 297.86 443.11 297.65 443.13 297.75 443.23 297.55 446.77 294.02 447.54 294.19 447.1 295.87 446.59 297.24 445.92 299.05 445.07 301.32 445.35 302.65 444.74 304.25 446.25 304.08 446.76 304.66 447.51 304.04 447.84 303.9 449.16 303.75 449.39 304.53 448.92 305.63 448.55 306.51 448.36 306.97 448.01 307.78 448.72 308.45 448.16 309.77 448.06 310.02 447.09 311.72 446.54 312.26 445.18 312.32 440.11 312.56 437.21 312.26 437.39 310.14 435.21 310.06" fill="url(#linear-gradient-52)"/><g opacity=".15"><path d="M445.28,298.85l.06-.11-.06,.11Zm2.26,7.99l.72-1.25-.3,.51-.43,.74Z" fill="#ee80b1"/><g><g><polygon points="444.69 306.39 445.91 304.22 446.5 304.88 444.69 306.39" fill="#7c217f"/><polygon points="442.55 297.86 442.77 297.9 442.85 298.29 441.37 301.18 442.55 297.86" fill="#7c217f"/><path d="M437.21,312.26l.18-2.12-2.18-.07,3.1-4.47-.04-1.44,4.29-6.28-1.18,3.32,1.86-3.63,3.54-3.53v1.26s-.34,.97-.5,1.31c-.16,.34-1.34,2.51-1.34,2.51l-.95,2.62,.23,1.14-.23,1.18s-.38,.72-.43,.84c-.05,.12-1.95,2.87-1.95,2.87l2.8-3.36,1.51-.17-1.22,2.17,2.81-2.35,1.32-.15-.35,.87-1.46,2.48-1.56,1.67,2.22-1.07-.1,.66-.33,.99-1.09,1.48,.85-.3-.52,.7-1.31,.92-5.07,.24-2.91-.3Z" fill="url(#linear-gradient-53)"/><g><polygon points="448.47 304.77 448.82 303.9 449.05 304.67 448.34 304.98 448.47 304.77" fill="#7c217f"/><polygon points="448.22 306.61 447.19 306.95 447.63 306.21 448.59 305.74 448.22 306.61" fill="#7c217f"/><polygon points="447.68 307.86 445.46 308.92 446.92 307.35 448.02 307.06 447.68 307.86" fill="#7c217f"/><path d="M446.27,296.59c.16-.34,.5-1.31,.5-1.31v-1.26l.43,.47-.43,1.65-.51,1.35-.67,.4c.3-.56,.61-1.14,.69-1.3Z" fill="#7c217f"/><polygon points="444.74 301.51 443.98 301.72 444.73 299.66 445.58 299.28 444.74 301.51" fill="#7c217f"/><path d="M443.55,304.88c.05-.12,.43-.84,.43-.84l.23-1.18,.8-.05-.61,1.57-2.8,3.36s1.9-2.75,1.95-2.87Z" fill="#7c217f"/><polygon points="447.42 309.01 447.58 308.52 447.68 307.86 448.38 308.52 447.42 309.01" fill="#7c217f"/><polygon points="447.72 310.06 446.54 312.26 445.18 312.32 446.49 311.4 447.02 310.69 446.16 310.99 446.78 310.15 447.83 309.82 447.72 310.06" fill="#7c217f"/><polygon points="448.02 307.06 446.92 307.35 447.02 307.25 447.19 306.95 448.22 306.61 448.02 307.06" fill="#942b99"/><polygon points="447.63 306.21 448.34 304.98 449.05 304.67 448.59 305.74 447.63 306.21" fill="#942b99"/><polygon points="443.98 301.72 444.74 301.51 445.02 302.82 444.21 302.86 443.98 301.72" fill="#942b99"/><path d="M444.73,299.66l.2-.56s.32-.59,.66-1.21l.67-.4-.67,1.78-.86,.38Z" fill="#942b99"/><polygon points="447.83 309.82 446.78 310.15 447.25 309.51 447.42 309.01 448.38 308.52 447.83 309.82" fill="#942b99"/></g></g><polygon points="441.37 308.34 441.37 310.23 439.62 311.88 439.62 310.45 440.8 309.94 441.37 308.34" fill="url(#linear-gradient-54)" mix-blend-mode="multiply" opacity=".46"/><polygon points="438.27 304.15 440.48 303.44 441.37 301.53 440.9 303.3 441.8 302.3 443.98 301.72 442.3 302.53 441.12 303.9 440.48 304.2 439.91 305.22 437.46 308.06 438.95 305.63 438.31 305.59 438.27 304.15" fill="url(#linear-gradient-55)" mix-blend-mode="multiply" opacity=".46"/><polygon points="444.41 307.11 443.98 308.59 444.93 309.04 444 308.98 442.7 310.88 443.46 308.99 443.42 308.39 444.41 307.11" fill="url(#linear-gradient-56)" mix-blend-mode="multiply" opacity=".46"/></g></g></g><g><path d="M784.66,231.21c.05-.03,.13-.09,.17-.11-.05,.03-.12,.08-.17,.11Z" fill="#ee80b1"/><path d="M778.39,236.41l.07-.07c-2.91,2.59-5.67,5.14-5.67,5.14l9.54-3.46-2.7,4.59s-9.31,4.59-12.37,6.63c-3.06,2.04-4.42-.34-4.42-.34,0,0-4.76,2.72-5.78,3.4-.14,.09-.46,.3-.9,.57l-7.59-.92-1.22,.89,29.16-21.32-5.3,3.88,7.19,1.02Z" fill="#b874e8"/><path d="M785.12,230.99c.07,0,.18-.03,.31-.09-.13,.06-.24,.1-.31,.09Z" fill="#ee80b1"/><path d="M783.28,232.22c.11-.09,.24-.19,.34-.27-.11,.08-.23,.18-.34,.27Z" fill="#ee80b1"/><path d="M754.68,262.59h0Z" fill="#ee80b1"/><path d="M784.05,231.63c.09-.07,.19-.15,.27-.2-.08,.06-.18,.14-.27,.2Z" fill="#ee80b1"/><path d="M754.16,262.62h0Z" fill="#ee80b1"/><path d="M785.54,230.84c.12-.06,.26-.14,.41-.24-.15,.1-.29,.18-.41,.24Z" fill="#ee80b1"/><path d="M793.78,224.81c-.67,.19-3.85,2.86-6.18,4.63l-7.34-.66,15.61-11.41s-1.06,7.16-2.08,7.45Z" fill="#b874e8"/><path d="M786.06,230.54c.42-.28,.95-.66,1.53-1.1-.58,.44-1.11,.82-1.53,1.1Z" fill="#ee80b1"/><path d="M752.21,262.65s-.09,0-.14,0c.05,0,.09,0,.14,0Z" fill="#ee80b1"/><path d="M734.96,267.9c2.69-.3,13.03-5.62,15.22-5.4l4.38,.98,.06-.04c-.87,.59-1.96,1.38-2.78,2.1-1.57,1.38-16.87,13.39-18.57,13.51-1.7,.12-11.56,2.84-11.56,2.84l4.08-5.78-13.6,6.12-10.88,10.2-8.16,6.53,16.66-2.11s-3,4.38-4.08,5.75c-1.08,1.38-25.16,13.63-25.16,13.63l-21.55-5.44,42.63-30.94s4.76-2.38,8.16-2.72,9.18-5.18,9.18-5.18l14.11-8.67,4.8-3.51,5.35,1.2c-3.79,2.6-10.24,7.16-8.29,6.95Z" fill="#b874e8"/><path d="M751.5,262.62s-.09,0-.14,0c.05,0,.09,0,.14,0Z" fill="#ee80b1"/><path d="M751.71,255.61c.16-.1,.32-.2,.48-.29-.16,.1-.32,.2-.48,.29Z" fill="#ee80b1"/><path d="M755.16,262.56c.54-.03,.88-.07,.88-.07,0,0-.13,.08-.32,.21l.06-.04-.61-.11Z" fill="#b874e8"/><path d="M752.66,255.03c.14-.08,.27-.17,.41-.25-.13,.08-.27,.17-.41,.25Z" fill="#ee80b1"/><path d="M752.69,262.65c.06,0,.11,0,.17,0-.06,0-.11,0-.17,0Z" fill="#ee80b1"/><path d="M780.31,234.72c.14-.12,.28-.24,.42-.36-.14,.12-.28,.24-.42,.36Z" fill="#ee80b1"/><path d="M779.22,235.68c.13-.11,.26-.23,.38-.34-.13,.11-.26,.23-.38,.34Z" fill="#ee80b1"/><path d="M781.36,233.81c.14-.12,.29-.25,.43-.37-.14,.12-.29,.25-.43,.37Z" fill="#ee80b1"/><path d="M755.58,253.23c.11-.07,.2-.13,.3-.19-.1,.06-.19,.12-.3,.19Z" fill="#ee80b1"/><path d="M754.85,253.68c.08-.05,.14-.09,.21-.13-.07,.05-.14,.09-.21,.13Z" fill="#ee80b1"/><path d="M753.5,254.51c.32-.2,.63-.39,.93-.57-.3,.18-.61,.37-.93,.57Z" fill="#ee80b1"/><path d="M782.36,232.97c.14-.11,.28-.23,.41-.34-.13,.11-.27,.23-.41,.34Z" fill="#ee80b1"/><path d="M755.21,263.04c.08-.05,.13-.09,.2-.13-.06,.04-.13,.08-.2,.13Z" fill="#ee80b1"/><path d="M750.92,262.58c-.05,0-.1,0-.15-.01,.05,0,.1,.01,.15,.01Z" fill="#ee80b1"/><path d="M864.61,243.97c.37-.47,.74-.94,1.11-1.41-.37,.47-.74,.95-1.11,1.41Z" fill="#ee80b1"/><path d="M865.98,242.22c.28-.36,.55-.71,.82-1.07-.27,.35-.54,.71-.82,1.07Z" fill="#ee80b1"/><path d="M863.5,245.35c.31-.38,.62-.77,.93-1.16-.31,.39-.62,.78-.93,1.16Z" fill="#ee80b1"/><path d="M862.42,246.67c.24-.3,.49-.6,.75-.91-.25,.31-.5,.62-.75,.91Z" fill="#ee80b1"/><path d="M867.15,240.69c.23-.31,.46-.61,.68-.92-.22,.3-.45,.61-.68,.92Z" fill="#ee80b1"/><polygon points="840.7 291.4 826.95 286.98 837.9 271.13 855.36 273.92 840.7 291.4" fill="#b874e8"/><path d="M893.83,211.84l-4.18,5.58-6.06,5.98-6.52,5.44s-4.15,2.65-6.67,7.11c-.16,.28-.34,.58-.54,.9l-11.69-1.05,15.81-15.37,26.15-32.89-10.48,24.31h4.18Z" fill="#b874e8"/><path d="M861.37,247.96c.24-.29,.49-.59,.75-.91-.26,.32-.51,.62-.75,.91Z" fill="#ee80b1"/><path d="M869.09,238.01c.28-.41,.55-.8,.78-1.17-.23,.36-.5,.76-.78,1.17Z" fill="#ee80b1"/><path d="M868.18,239.3c.22-.31,.43-.61,.64-.9-.21,.29-.42,.59-.64,.9Z" fill="#ee80b1"/><path d="M827.77,233.58c.1-.09,.23-.2,.35-.3-.12,.1-.25,.21-.35,.3Z" fill="#ee80b1"/><path d="M827.34,233.95c.08-.07,.18-.15,.28-.24-.1,.08-.2,.17-.28,.24Z" fill="#ee80b1"/><path d="M815.2,241.48s-9.27,10.97-9.74,12.6c-.16,.56-1.11,2.37-2.27,4.51l-18.71-2.27,9.98-8.09s3.27-4.08,4.19-5.61c.22-.37,1.28-1.48,2.77-2.95l13.69,1.93,.1-.12Z" fill="#b874e8"/><path d="M802.38,260.05c.23-.42,.46-.84,.69-1.24-.22,.41-.45,.82-.69,1.24Z" fill="#ee80b1"/><path d="M855.23,217.42l-5.35,3.94s-12.64,1.81-13.12,3.45c-.37,1.25-5.82,6.05-8.43,8.29l-18.37-1.65c-1.42,1.34-2.97,2.81-4.46,4.23,4.56-4.37,9.7-9.14,9.7-9.14l39.11-24.23-4.78,10.55,5.69,4.56Z" fill="#b874e8"/><path d="M807.01,261.6l-.06,.04,.06-.04Z" fill="#ee80b1"/><path d="M808.32,272.41c.16-.09,.31-.16,.43-.23-.12,.07-.26,.14-.43,.23Z" fill="#ee80b1"/><path d="M806.91,273.16c.49-.26,.92-.49,1.28-.68-.36,.19-.8,.42-1.28,.68Z" fill="#ee80b1"/><path d="M808.84,272.13l.24-.13-.24,.13Z" fill="#ee80b1"/><path d="M806.06,273.61c.26-.14,.52-.27,.77-.4-.25,.13-.5,.27-.77,.4Z" fill="#ee80b1"/><path d="M805.14,274.09c.28-.15,.55-.29,.82-.43-.27,.14-.54,.29-.82,.43Z" fill="#ee80b1"/><path d="M801.4,261.8c.28-.5,.57-1.01,.85-1.51-.28,.51-.56,1.01-.85,1.51Z" fill="#ee80b1"/><path d="M805.89,262.26l-.05,.03,.05-.03Z" fill="#ee80b1"/><path d="M809.14,271.97l.07-.04-.07,.04Z" fill="#ee80b1"/><path d="M816.92,265.67c1.01-1.32,2.32-3.06,3.73-4.92-1.4,1.86-2.72,3.6-3.73,4.92Z" fill="#ee80b1"/><path d="M809.41,260.03l-.11,.08,.11-.08Z" fill="#ee80b1"/><path d="M797.92,267.9l7.54-5.4-3.94,2.82,13.95,2.23c.33-.42,.82-1.06,1.43-1.85-.81,1.06-1.42,1.85-1.71,2.21-1.7,2.08-5.98,4.04-5.98,4.04,0,0,.06-.03,.17-.08l-37.86-6.49,5.67-3.94,22.38,3.58c-.97,1.69-1.66,2.89-1.66,2.89Z" fill="#b874e8"/><path d="M799.65,264.89c.21-.37,.44-.77,.67-1.18-.23,.41-.46,.81-.67,1.18Z" fill="#ee80b1"/><path d="M800.55,263.3c.21-.37,.43-.75,.65-1.14-.22,.39-.43,.77-.65,1.14Z" fill="#ee80b1"/><path d="M805.59,262.43l-.05,.03,.05-.03Z" fill="#ee80b1"/><path d="M805.49,235.69c-1.49,1.42-2.91,2.81-4.08,3.96,1.17-1.16,2.59-2.54,4.08-3.96Z" fill="#ee80b1"/><path d="M804.2,274.58c.29-.15,.59-.3,.88-.46-.62,.32-1.25,.65-1.84,.95-2.66,1.36-8.9,8.5-13.77,11.9-4.87,3.4-13.71,10.2-13.71,10.2l13.71-20.06-9.83,1.92s-4.84,5.25-7.76,7.94c-2.92,2.69-21.04,10.88-22.86,11.9-1.81,1.02-3.96-9.52-3.96-9.52l6.78-10.32,18.41-12.78-.79,.55,34.75,7.77Z" fill="#b874e8"/><path d="M810.23,259.44c1.1-.82,2.16-1.73,2.93-2.63,2.38-2.81,8.42-11.31,10.5-11.65,2.08-.34,10.27-.68,10.27-.68l-4.37,4.42s-4.78,6.4-8.86,11.81l-10.45-1.27h0Z" fill="#b874e8"/><path d="M696.2,275.76c-1.36,0,4.42-5.78,4.42-5.78l-9.52,1.95-13.26,9.6-10.88,8.5-7.95,6.46,9.37-2.88h4.35s-15.64,9.34-17.68,10.7c-2.04,1.36-6.8,2.89-8.16,3.32-1.36,.42,4.08-5.45,4.08-5.45l1.71-4.67s-4.21,2.03-7.72,4.41c-3.51,2.39-17.11,15.17-19.49,16.26-2.38,1.09-7.48,5.51-7.48,5.51,0,0-1.19,2.65-1.76,4.88l-.54-10.36,52.69-45.77,34.87-4.55,25.62-8.77-21.46,12.8s-9.86,3.82-11.22,3.82Z" fill="#b874e8"/><path d="M618,323.7s5.1-4.42,7.48-5.51c2.38-1.09,15.98-13.87,19.49-16.26,3.51-2.39,7.72-4.41,7.72-4.41l-1.71,4.67s-5.44,5.87-4.08,5.45c1.36-.43,6.12-1.95,8.16-3.32,2.04-1.36,17.68-10.7,17.68-10.7h-4.35l-9.37,2.88,7.95-6.46,10.88-8.5,13.26-9.6,9.52-1.95s-5.78,5.78-4.42,5.78,11.22-3.82,11.22-3.82l21.46-12.8,4.21,4.13-14.11,8.67s-5.78,4.84-9.18,5.18-8.16,2.72-8.16,2.72l-42.63,30.94,21.55,5.44s24.08-12.25,25.16-13.63c1.08-1.38,4.08-5.75,4.08-5.75l-16.66,2.11,8.16-6.53,10.88-10.2,13.6-6.12-4.08,5.78s9.86-2.72,11.56-2.84c1.7-.12,17-12.12,18.57-13.51,.81-.72,1.91-1.5,2.78-2.1,.22-.15,.42-.28,.6-.4,.07-.05,.13-.09,.2-.13,.11-.07,.22-.15,.31-.2,.19-.12,.32-.21,.32-.21,0,0-.35,.03-.88,.07-.14,0-.31,.02-.48,.03h-.09c-.14,.01-.29,.02-.44,.02h-.13c-.19,.01-.38,.02-.57,.02-.22,0-.41,0-.59,0-.06,0-.11,0-.17,0-.16,0-.32,0-.48,0-.05,0-.09,0-.14,0-.2,0-.39-.01-.58-.02-.05,0-.09,0-.14,0-.15,0-.29-.02-.44-.03-.05,0-.1,0-.15-.01-.18-.02-.35-.04-.51-.07-.02,0-.06,0-.08,0-2.19-.22-12.53,5.1-15.22,5.4-1.95,.21,4.49-4.35,8.29-6.95,.17-.12,.34-.23,.5-.34,.77-.52,1.39-.94,1.74-1.17,.07-.05,.13-.09,.18-.12l.15-.1,.12-.07c.16-.1,.48-.29,.9-.55l.15-.09c.24-.15,.51-.31,.81-.49,.5-.3,1.05-.64,1.65-1.01,.72-.44,1.49-.91,2.26-1.38,.16-.1,.32-.2,.48-.29,.16-.1,.32-.2,.48-.29,.14-.08,.27-.17,.41-.25,.15-.09,.29-.18,.43-.27,.32-.2,.63-.39,.93-.57,.14-.09,.29-.18,.42-.26,.08-.05,.14-.09,.21-.13,.18-.11,.35-.22,.51-.32,.11-.07,.2-.13,.3-.19,.09-.06,.2-.12,.28-.18,.43-.27,.76-.47,.9-.57,1.02-.68,5.78-3.4,5.78-3.4,0,0,1.36,2.38,4.42,.34,3.06-2.04,12.37-6.63,12.37-6.63l2.7-4.59-9.54,3.46s2.76-2.55,5.67-5.14c.25-.22,.5-.45,.75-.67,.13-.11,.26-.23,.38-.34,.24-.21,.47-.41,.71-.62,.14-.12,.28-.24,.42-.36,.22-.19,.42-.36,.63-.54,.14-.12,.29-.25,.43-.37,.2-.17,.38-.32,.57-.47,.14-.11,.28-.23,.41-.34,.18-.15,.34-.28,.51-.41,.11-.09,.24-.19,.34-.27,.16-.12,.29-.22,.42-.32,.09-.07,.19-.15,.27-.2,.13-.09,.23-.15,.34-.22,.05-.03,.13-.09,.17-.11,.13-.07,.23-.11,.29-.1,.07,0,.18-.03,.31-.09,.04-.02,.08-.04,.12-.06,.12-.06,.26-.14,.41-.24,.04-.02,.07-.04,.1-.06,.42-.27,.95-.66,1.53-1.1,2.34-1.77,5.52-4.44,6.19-4.63,1.02-.29,2.08-7.45,2.08-7.45l7.37,6.12,11.96,3.06s-5.14,4.78-9.7,9.14c-1.49,1.43-2.92,2.81-4.08,3.97-1.49,1.48-2.55,2.59-2.77,2.96-.91,1.53-4.19,5.61-4.19,5.61l-9.98,8.09-.62,.5-6.65,4.62-5.67,3.94-1.29,.9-18.41,12.78-6.78,10.32s2.15,10.54,3.96,9.52c1.81-1.02,19.94-9.21,22.86-11.9,2.92-2.69,7.76-7.94,7.76-7.94l9.83-1.92-13.71,20.06s8.84-6.8,13.71-10.2c4.87-3.4,11.11-10.54,13.77-11.9,.6-.3,1.22-.63,1.84-.95l.07-.04c.28-.15,.55-.29,.82-.43l.1-.05c.26-.14,.52-.27,.77-.4l.08-.04c.48-.26,.92-.49,1.28-.68l.13-.07c.16-.09,.31-.16,.43-.23l.09-.05,.24-.13,.06-.03,.07-.04s4.28-1.95,5.98-4.04c.29-.35,.9-1.15,1.71-2.21,1.03-1.34,2.34-3.08,3.74-4.94l.04-.05c4.08-5.41,8.86-11.81,8.86-11.81l4.37-4.42s-8.19,.34-10.27,.68c-2.08,.34-8.12,8.84-10.5,11.65-.76,.9-1.83,1.81-2.93,2.63-.27,.2-.55,.4-.82,.59l-.11,.08c-.83,.58-1.64,1.09-2.29,1.49l-.06,.04c-.43,.26-.79,.47-1.05,.62l-.05,.03c-.1,.06-.19,.11-.25,.14l-.05,.03-.08,.05-7.54,5.4s.69-1.2,1.66-2.89l.07-.12c.21-.37,.44-.77,.67-1.18,.08-.13,.15-.27,.23-.4,.21-.37,.43-.75,.65-1.14,.07-.12,.14-.24,.21-.37,.28-.5,.57-1.01,.85-1.51,.04-.08,.08-.15,.13-.23,.23-.42,.46-.84,.69-1.24,.04-.07,.08-.15,.13-.23,1.16-2.13,2.11-3.95,2.27-4.51,.46-1.63,9.74-12.6,9.74-12.6l11.75-7.2s.14-.12,.39-.33c.08-.07,.18-.15,.28-.24l.16-.13c.11-.09,.23-.2,.35-.3,.07-.06,.13-.11,.21-.18,2.61-2.24,8.06-7.04,8.43-8.29,.48-1.65,13.12-3.45,13.12-3.45l5.35-3.94-5.69-4.56,4.78-10.55,4.55,7.83,7.19,7.22,7.94,3.06-15.81,15.37-5.85,5.69v8.78l-12.2,17.64-2.23,3.23-10.95,15.85,13.75,4.42,14.67-17.48,5.05-6.02,1.32-2.21,9.67-16.14,2.58-4.3-5.75,1.61-9.37,9.95v-5.87l.07-.08,.07-.08,.13-.15c.07-.08,.15-.17,.24-.28,.07-.08,.14-.17,.22-.26l.22-.26c.1-.12,.2-.24,.31-.37,.12-.14,.24-.28,.37-.44,.12-.14,.24-.29,.37-.45,.09-.11,.18-.22,.28-.34l.09-.11s.09-.11,.13-.16c.24-.29,.49-.59,.75-.91,.1-.12,.2-.24,.3-.37,.24-.3,.49-.6,.75-.91,.11-.14,.22-.27,.34-.41,.31-.38,.62-.77,.93-1.16,.06-.07,.12-.14,.18-.22,.37-.47,.74-.94,1.11-1.41,.09-.11,.17-.22,.26-.33,.28-.36,.55-.71,.82-1.07,.12-.16,.24-.31,.36-.47,.23-.31,.46-.61,.68-.92,.12-.16,.23-.32,.35-.47,.22-.31,.43-.6,.64-.9,.09-.13,.19-.26,.27-.39,.28-.41,.55-.8,.78-1.17,.2-.32,.38-.62,.54-.9,2.51-4.45,6.67-7.11,6.67-7.11l6.52-5.44,6.06-5.98,4.18-5.58h-4.18l10.48-24.31,18.84,18.29,14.53,11.55s.62,1.01,1.74,2.84c-.18,1.06,11.05,8.24,10.99,8.58-.34,2.04,54.61,89.75,54.61,89.75l-135.73,7.88s-167.56,6.12-173,6.8c-5.44,.68-74.12-1.02-75.73-1.7-.63-.27-.52-1.52-.15-2.94,.57-2.23,1.76-4.88,1.76-4.88Z" fill="url(#linear-gradient-57)"/><path d="M749.45,257c-.6,.37-1.16,.71-1.65,1.01-.3,.18-.57,.35-.81,.49l-.15,.09c-.42,.26-.74,.45-.9,.55l-.12,.07-.15,.1s-.11,.07-.18,.12c-.36,.24-.97,.65-1.74,1.17l-5.69-.98,5.01-3.66,6.39,1.02Z" fill="#b874e8"/><path d="M861.24,248.11l-.09,.11c-.1,.12-.19,.23-.28,.34-.13,.16-.25,.3-.37,.45-.13,.16-.25,.3-.37,.44-.11,.13-.22,.26-.31,.37l-.22,.26c-.08,.1-.15,.18-.22,.26-.1,.11-.17,.2-.24,.28l-.13,.15-.07,.08-.07,.08v5.87l9.37-9.95-1.86,1.98,5.04,.71-9.67,16.14-18.52-2.25-3.08,4.46,12.2-17.64v-3.41l8.91,1.26Z" fill="#b874e8"/><path d="M787.59,229.44c-.58,.44-1.11,.82-1.54,1.1-.04,.02-.07,.04-.1,.06-.16,.1-.29,.18-.41,.24-.04,.02-.08,.04-.12,.06-.13,.06-.24,.1-.31,.09-.05,0-.15,.03-.29,.1-.05,.03-.12,.08-.17,.11-.1,.06-.2,.12-.34,.22-.08,.06-.18,.14-.27,.2-.14,.1-.27,.2-.42,.32-.11,.08-.23,.18-.34,.27-.17,.13-.33,.26-.51,.41-.13,.11-.27,.23-.41,.34-.19,.16-.37,.31-.57,.47-.14,.12-.29,.25-.43,.37-.21,.18-.42,.36-.63,.54-.14,.12-.28,.24-.42,.36-.23,.2-.47,.41-.71,.62-.13,.11-.26,.23-.38,.34-.25,.22-.5,.44-.75,.67l-.07,.07-7.19-1.02,5.3-3.88,3.74-2.74,7.34,.66h0Z" fill="#c07fea"/><polygon points="866.37 248.84 868.23 246.86 873.99 245.25 871.41 249.55 866.37 248.84" fill="#c07fea"/><path d="M869.87,236.84c-.23,.36-.5,.76-.78,1.17-.09,.13-.18,.26-.27,.39-.2,.29-.42,.59-.64,.9-.11,.16-.23,.31-.35,.47-.22,.3-.45,.61-.68,.92-.12,.16-.23,.31-.36,.47-.27,.35-.54,.71-.82,1.07-.09,.11-.17,.22-.26,.33-.37,.47-.74,.95-1.11,1.41-.06,.07-.12,.15-.18,.22-.31,.39-.62,.78-.93,1.16-.11,.14-.22,.28-.34,.41-.25,.31-.5,.62-.75,.91-.1,.13-.2,.25-.3,.37-.26,.32-.51,.62-.75,.91-.04,.05-.09,.11-.13,.16l-8.91-1.26v-5.38l5.85-5.69,11.69,1.05h0Z" fill="#c07fea"/><path d="M828.33,233.11c-.08,.07-.14,.12-.21,.18-.12,.1-.25,.21-.35,.3l-.16,.13c-.1,.08-.2,.17-.28,.24-.25,.21-.39,.33-.39,.33l-11.75,7.2-.1,.12-13.69-1.93c1.17-1.16,2.6-2.54,4.08-3.97,1.5-1.43,3.05-2.9,4.46-4.24l18.37,1.65Z" fill="#c07fea"/><path d="M756.16,252.87c-.08,.05-.19,.12-.28,.18-.1,.06-.19,.12-.3,.19-.16,.1-.34,.21-.51,.32-.07,.04-.14,.09-.21,.13-.13,.08-.28,.17-.42,.26-.3,.18-.61,.37-.93,.57-.14,.09-.28,.17-.43,.27-.13,.08-.27,.17-.41,.25-.16,.1-.32,.19-.48,.29-.16,.1-.32,.2-.48,.29-.77,.47-1.54,.94-2.26,1.38l-6.39-1.02,4.29-3.14,1.22-.89,7.59,.92Z" fill="#c07fea"/><path d="M750.18,262.5s.06,0,.08,0c.16,.03,.33,.05,.51,.07,.05,0,.1,.01,.15,.01,.14,.01,.29,.02,.44,.03,.05,0,.09,0,.14,0,.19,0,.38,.02,.58,.02,.05,0,.09,0,.14,0,.16,0,.32,0,.48,0,.06,0,.11,0,.17,0,.18,0,.37,0,.54,0,.24,0,.43-.01,.62-.02h.13c.15-.01,.3-.02,.44-.03h.09c.17-.01,.33-.02,.48-.03l.61,.11-.06,.04c-.09,.06-.2,.13-.31,.2-.07,.04-.12,.08-.2,.13-.18,.12-.38,.25-.6,.4l-.06,.04-4.38-.98Z" fill="#c07fea"/><path d="M743.74,260.61c-.16,.11-.33,.22-.5,.34l-5.35-1.2,.16-.12,5.69,.98Z" fill="#c07fea"/><polygon points="861.74 265.69 860.41 267.9 855.36 273.92 837.9 271.13 840.14 267.9 843.22 263.44 861.74 265.69" fill="#c07fea"/><path d="M803.19,258.58c-.04,.07-.08,.15-.13,.23-.22,.41-.45,.82-.69,1.24-.04,.08-.08,.15-.13,.23-.28,.5-.57,1.01-.85,1.51-.07,.12-.14,.24-.21,.37-.22,.39-.43,.77-.65,1.14-.08,.14-.15,.27-.23,.4-.23,.41-.46,.81-.67,1.18l-.07,.12-22.38-3.58,6.65-4.62,.62-.5,18.71,2.27h0Z" fill="#c07fea"/><path d="M801.52,265.32l3.94-2.82,.08-.05,.05-.03c.06-.03,.15-.08,.25-.14l.05-.03c.26-.15,.62-.36,1.05-.62l.06-.04c.66-.4,1.46-.91,2.29-1.49l.11-.08c.27-.19,.55-.39,.82-.59l10.46,1.27-.04,.05c-1.4,1.86-2.72,3.6-3.73,4.92-.62,.82-1.12,1.46-1.45,1.88l-13.95-2.23Z" fill="#c07fea"/><path d="M809.21,271.93l-.07,.04-.06,.03-.24,.13-.09,.05c-.12,.06-.27,.14-.43,.23l-.13,.07c-.36,.19-.8,.42-1.28,.68l-.08,.04c-.25,.13-.5,.27-.77,.4l-.1,.05c-.27,.14-.54,.29-.82,.43l-.07,.04c-.29,.15-.59,.31-.88,.46l-34.75-7.77,.79-.55,1.29-.9,37.86,6.49c-.1,.05-.17,.08-.17,.08Z" fill="#c07fea"/></g></g></g></g></svg>