<?xml version="1.0" encoding="UTF-8"?><svg xmlns="http://www.w3.org/2000/svg" xmlns:xlink="http://www.w3.org/1999/xlink" viewBox="0 0 974.88 415.23"><defs><linearGradient id="linear-gradient" x1="48.31" y1="344.95" x2="922.33" y2="344.95" gradientTransform="matrix(1, 0, 0, 1, 0, 0)" gradientUnits="userSpaceOnUse"><stop offset="0" stop-color="#7c1f7f"/><stop offset=".61" stop-color="#9e66d8"/><stop offset=".79" stop-color="#9d64d6"/><stop offset=".85" stop-color="#9a5fcf"/><stop offset=".9" stop-color="#9655c3"/><stop offset=".94" stop-color="#8f48b2"/><stop offset=".97" stop-color="#87369c"/><stop offset="1" stop-color="#7d2182"/><stop offset="1" stop-color="#7c1f7f"/></linearGradient><linearGradient id="linear-gradient-2" x1="-48.79" y1="374.65" x2="984.18" y2="374.65" gradientTransform="matrix(1, 0, 0, 1, 0, 0)" gradientUnits="userSpaceOnUse"><stop offset="0" stop-color="#7c1f7f"/><stop offset=".18" stop-color="#7e2586"/><stop offset=".45" stop-color="#86359b"/><stop offset=".78" stop-color="#9350bd"/><stop offset="1" stop-color="#9e66d8"/></linearGradient><linearGradient id="linear-gradient-3" x1="865.74" y1="337.83" x2="689.81" y2="337.83" gradientTransform="matrix(1, 0, 0, 1, 0, 0)" gradientUnits="userSpaceOnUse"><stop offset="0" stop-color="#3d2682"/><stop offset=".21" stop-color="#3a257c"/><stop offset=".49" stop-color="#33236b"/><stop offset=".81" stop-color="#272151"/><stop offset="1" stop-color="#1e1f3d"/></linearGradient><linearGradient id="linear-gradient-4" x1="131.78" y1="344.15" x2="427.33" y2="344.15" xlink:href="#linear-gradient-3"/><linearGradient id="linear-gradient-5" x1="615.66" y1="346.38" x2="615.66" y2="235.61" gradientTransform="matrix(1, 0, 0, 1, 0, 0)" gradientUnits="userSpaceOnUse"><stop offset="0" stop-color="#7c217f"/><stop offset=".27" stop-color="#692175"/><stop offset=".83" stop-color="#3a215b"/><stop offset="1" stop-color="#2a2153"/></linearGradient><linearGradient id="linear-gradient-6" x1="624.88" y1="342.31" x2="624.88" y2="321.14" gradientTransform="matrix(1, 0, 0, 1, 0, 0)" gradientUnits="userSpaceOnUse"><stop offset="0" stop-color="#fff"/><stop offset=".13" stop-color="#dedce4"/><stop offset=".45" stop-color="#918da6"/><stop offset=".71" stop-color="#595279"/><stop offset=".9" stop-color="#372e5d"/><stop offset="1" stop-color="#2a2153"/></linearGradient><linearGradient id="linear-gradient-7" x1="623.5" y1="319.47" x2="623.5" y2="280.48" xlink:href="#linear-gradient-6"/><linearGradient id="linear-gradient-8" x1="604.75" y1="336.35" x2="604.75" y2="313.78" xlink:href="#linear-gradient-6"/><linearGradient id="linear-gradient-9" x1="340.38" y1="313.02" x2="385.79" y2="313.02" gradientTransform="matrix(1, 0, 0, 1, 0, 0)" gradientUnits="userSpaceOnUse"><stop offset=".76" stop-color="#9e66d8"/><stop offset="1" stop-color="#9e66d8"/></linearGradient><linearGradient id="linear-gradient-10" x1="793.88" y1="339.44" x2="793.88" y2="231.2" gradientTransform="matrix(1, 0, 0, 1, 0, 0)" gradientUnits="userSpaceOnUse"><stop offset="0" stop-color="#6d1c6f"/><stop offset=".34" stop-color="#511e63"/><stop offset=".76" stop-color="#342057"/><stop offset="1" stop-color="#2a2153"/></linearGradient><linearGradient id="linear-gradient-11" x1="752.78" x2="752.78" y2="231.2" xlink:href="#linear-gradient-10"/><linearGradient id="linear-gradient-12" x1="805.33" y1="333.3" x2="805.33" y2="319.7" xlink:href="#linear-gradient-6"/><linearGradient id="linear-gradient-13" x1="811.76" y1="312.9" x2="811.76" y2="277.39" xlink:href="#linear-gradient-6"/><linearGradient id="linear-gradient-14" x1="774.08" y1="312.9" x2="774.08" y2="282.76" xlink:href="#linear-gradient-6"/><linearGradient id="linear-gradient-15" x1="766.35" y1="280.83" x2="766.35" y2="261.46" xlink:href="#linear-gradient-6"/><linearGradient id="linear-gradient-16" x1="566.68" y1="363.43" x2="566.68" y2="319.32" gradientTransform="matrix(1, 0, 0, 1, 0, 0)" gradientUnits="userSpaceOnUse"><stop offset="0" stop-color="#7c217f"/><stop offset=".44" stop-color="#5a216d"/><stop offset="1" stop-color="#2a2153"/></linearGradient><linearGradient id="linear-gradient-17" x1="424.36" y1="335.25" x2="424.36" y2="291.15" gradientTransform="translate(786.21) rotate(-180) scale(1 -1)" xlink:href="#linear-gradient-16"/><linearGradient id="linear-gradient-18" x1="191.88" y1="339.78" x2="191.88" y2="229.01" gradientTransform="translate(387.55) rotate(-180) scale(1 -1)" xlink:href="#linear-gradient-5"/><linearGradient id="linear-gradient-19" x1="201.1" y1="335.72" x2="201.1" y2="314.54" gradientTransform="translate(387.55) rotate(-180) scale(1 -1)" xlink:href="#linear-gradient-6"/><linearGradient id="linear-gradient-20" x1="199.72" y1="312.88" x2="199.72" y2="273.88" gradientTransform="translate(387.55) rotate(-180) scale(1 -1)" xlink:href="#linear-gradient-6"/><linearGradient id="linear-gradient-21" x1="180.97" y1="329.75" x2="180.97" y2="307.18" gradientTransform="translate(387.55) rotate(-180) scale(1 -1)" xlink:href="#linear-gradient-6"/><linearGradient id="linear-gradient-22" x1="410.33" y1="346.86" x2="410.33" y2="238.63" gradientTransform="translate(680.8) rotate(-180) scale(1 -1)" xlink:href="#linear-gradient-10"/><linearGradient id="linear-gradient-23" x1="369.23" y1="346.86" x2="369.23" y2="238.63" gradientTransform="translate(680.8) rotate(-180) scale(1 -1)" xlink:href="#linear-gradient-10"/><linearGradient id="linear-gradient-24" x1="421.77" y1="340.73" x2="421.77" y2="327.12" gradientTransform="translate(680.8) rotate(-180) scale(1 -1)" xlink:href="#linear-gradient-6"/><linearGradient id="linear-gradient-25" x1="428.21" y1="320.33" x2="428.21" y2="284.82" gradientTransform="translate(680.8) rotate(-180) scale(1 -1)" xlink:href="#linear-gradient-6"/><linearGradient id="linear-gradient-26" x1="390.52" y1="320.33" x2="390.52" y2="290.18" gradientTransform="translate(680.8) rotate(-180) scale(1 -1)" xlink:href="#linear-gradient-6"/><linearGradient id="linear-gradient-27" x1="382.8" y1="288.26" x2="382.8" y2="268.89" gradientTransform="translate(680.8) rotate(-180) scale(1 -1)" xlink:href="#linear-gradient-6"/><linearGradient id="linear-gradient-28" x1="600.86" y1="350" x2="600.86" y2="195" gradientTransform="translate(680.8) rotate(-180) scale(1 -1)" gradientUnits="userSpaceOnUse"><stop offset="0" stop-color="#6d1c6f"/><stop offset=".09" stop-color="#5f1d69"/><stop offset=".28" stop-color="#471e5f"/><stop offset=".49" stop-color="#372058"/><stop offset=".72" stop-color="#2d2054"/><stop offset="1" stop-color="#2a2153"/></linearGradient><linearGradient id="linear-gradient-29" x1="542" y1="350" x2="542" y2="195" gradientTransform="translate(680.8) rotate(-180) scale(1 -1)" xlink:href="#linear-gradient-10"/><linearGradient id="linear-gradient-30" x1="617.25" y1="341.22" x2="617.25" y2="321.73" gradientTransform="translate(680.8) rotate(-180) scale(1 -1)" xlink:href="#linear-gradient-6"/><linearGradient id="linear-gradient-31" x1="626.47" y1="312" x2="626.47" y2="261.14" gradientTransform="translate(680.8) rotate(-180) scale(1 -1)" xlink:href="#linear-gradient-6"/><linearGradient id="linear-gradient-32" x1="572.5" y1="312" x2="572.5" y2="268.83" gradientTransform="translate(680.8) rotate(-180) scale(1 -1)" xlink:href="#linear-gradient-6"/><linearGradient id="linear-gradient-33" x1="561.44" y1="266.07" x2="561.44" y2="238.33" gradientTransform="translate(680.8) rotate(-180) scale(1 -1)" xlink:href="#linear-gradient-6"/><linearGradient id="linear-gradient-34" x1="891.67" y1="368" x2="891.67" y2="192.02" gradientTransform="matrix(1, 0, 0, 1, 0, 0)" xlink:href="#linear-gradient-28"/><linearGradient id="linear-gradient-35" x1="906.32" y1="361.55" x2="906.32" y2="327.91" xlink:href="#linear-gradient-6"/><linearGradient id="linear-gradient-36" x1="904.12" y1="325.26" x2="904.12" y2="263.31" xlink:href="#linear-gradient-6"/><linearGradient id="linear-gradient-37" x1="874.33" y1="352.07" x2="874.33" y2="316.22" xlink:href="#linear-gradient-6"/></defs><g isolation="isolate"><g id="Layer_1"><g id="medium_rocks"><path d="M52.2,287.98l213.64,23.79,103.43-3.65h238.34l44.88,3.65,36.82-3.65h60.45s129.98-9.94,131.71-8.24c1.73,1.69,40.85-6.02,40.85-6.02l-2.88,108.06-871.15-9.07,3.89-104.86Z" fill="url(#linear-gradient)"/><path d="M-44.89,299.97l213.64,26.91,103.43-4.13h238.34l44.88,4.13,36.82-4.13h60.45s129.98-11.24,131.71-9.33c1.73,1.91,199.8,13.68,199.8,13.68l-2.88,122.23L-48.79,418.58l3.89-118.61Z" fill="url(#linear-gradient-2)"/><path d="M213.9,329.22l208.42-3.68,21.78,3.35,91.73-3.66-38.52,6.05s87.97-2.98,89.12-3.2,21.86,.77,23.01,.28c1.16-.49,26.53-4.73,27.67-4.17,1.14,.56,95.54-1.9,95.54-1.9,0,0,62.9,1.15,64.44,.77,1.54-.38,104.24,6.54,104.24,6.54l-101.93-4.52s-66.95-.54-69.35-.56c-2.41-.03-98.75,4.66-98.75,4.66l-18.68,1.98s-21.23-.7-23.92-.29-25.73,2.53-25.73,2.53l12.61,3.81s4.59,1.18,6.5,1.46,9.97,.38,14.96,.18c4.99-.21,5.01-1.65,12.29-1.24,7.28,.41,21.87-.06,32.22,.39,10.35,.45-25.33,.42-26.87,1.26-1.54,.84-16.91,2.45-16.91,2.45l-14.96-.18s-23.35-7.64-25.24-7.66c-1.9-.02-18.37-1.81-19.52-1.56s-40.7,2.83-43.37,2.07c-2.68-.76-12.43,1.49-16.79,2.78-4.36,1.28-15.12,2.94-15.12,2.94,0,0-2.45,4.28,1.63,4.07,4.08-.22,22.54-4.11,27.9-3.71,5.37,.4,22.24,.73,25.7,.31,3.46-.42,22.26-.73,24.18-.7,1.92,.02,18.78,1.22,18.78,1.22l18.35,5.19s14.99-2.51,20.36-1.96c5.36,.55,36.45-.23,36.45-.23l3.44,.7s-14.62,.65-14.98,1.01c-.36,.36-28.4,1.07-29.54,.66-1.15-.41-13.84,2.2-13.84,2.2l-9.97-.12-9.15-4.68-50.16-1.26-23.86-.29-29.6,4.88-12.71,4.52-8.56,10.04-9.99,4.58,17.05-17.78,13.5-5.8-24.89-3.2,5.22-3.06,18.19,2.08,32.31-7.31-.74-1.87-45.29,1.85-22.66,2.05-9.97-.12,24.69-3.88-16.17-2.28-206.55,5.66,2.04-3.63Z" fill="#7c217f" opacity=".58"/><path d="M447.68,364.46s60.88,.71,79.01-2.09c18.12-2.81,33.08-5.92,33.08-5.92l-22.73,7.44-2.01,.66h23.3s43.73-3.97,44.59-4.05c.86-.08,35.1-1.78,35.1-1.78l2.59,13.04-3.16,11.62-5.47-21.01h-31.65s-40.85,4.56-41.71,4.56-31.07-.28-31.07-.28l-3.16-1.91-50.34,2.19s-26.47,3.34-31.36,2.52c-4.89-.82,5-4.99,5-4.99Z" fill="#7c217f"/><polygon points="689.81 338.32 741.67 333.38 745.7 335.85 865.74 335.85 737.06 338.32 734.19 338.32 711.17 342.29 689.81 338.32" fill="url(#linear-gradient-3)"/><polygon points="427.33 350.96 290.2 350.99 233.29 346.54 191.05 335.38 131.78 333.38 188.34 337.83 231.66 348.34 289.05 353.99 405.98 354.93 427.33 350.96" fill="url(#linear-gradient-4)"/><g><path d="M654.91,331.19l-18.8-27.19,.25-8.75-23.97-36.69-3.35-1.3-.5,2.39,8.99,17.58-11.29-22.07-19.41-19.55-4.67,.99,2.64,10.02,3.11,8.22,4.09,10.81,5.13,13.58-1.7,7.94,3.72,9.55-9.14-1.02-3.59,4-4.05-4.22-2.03-.86-7.98-.89-1.41,4.68,2.82,6.54,2.26,5.25,1.18,2.74,2.09,4.84-4.27,4.02,3.35,7.9,.63,1.48,5.9,10.19,3.32,3.18,36.34-1.45,18.22,1.42-1.09-12.89,13.22-.45Zm-59.4-67.41c.17,.31,.29,.53,.36,.67-.08-.14-.2-.36-.36-.67Zm-15.92,43.99l-1.79-3.05,4.39,7.49-2.6-4.44Z" fill="#ee80b1"/><g><g><polygon points="599.42 309.5 592.03 296.55 588.44 300.48 599.42 309.5" fill="#7c217f"/><polygon points="612.39 258.56 611.07 258.75 610.57 261.11 619.56 278.39 612.39 258.56" fill="#7c217f"/><path d="M644.81,344.56l-1.09-12.67,13.22-.45-18.8-26.73,.25-8.61-26-37.54,7.17,19.83-11.29-21.71-21.44-21.07v7.52s2.07,5.79,3.02,7.83c.94,2.04,8.14,15,8.14,15l5.75,15.65-1.42,6.83,1.42,7.05s2.3,4.28,2.59,4.99c.29,.71,11.79,17.15,11.79,17.15l-16.95-20.09-9.14-1,7.39,12.95-17.06-14.01-7.98-.87,2.11,5.2,8.83,14.82,9.43,10-13.44-6.37,.6,3.96,1.98,5.92,6.6,8.84-5.18-1.78,3.16,4.21,7.97,5.52,30.73,1.43,17.62-1.81Z" fill="url(#linear-gradient-5)"/><g><polygon points="576.5 299.81 574.39 294.62 572.98 299.22 577.27 301.11 576.5 299.81" fill="#7c217f"/><polygon points="578.05 310.81 584.28 312.88 581.62 308.41 575.79 305.65 578.05 310.81" fill="#7c217f"/><polygon points="581.32 318.27 594.76 324.63 585.9 315.24 579.23 313.5 581.32 318.27" fill="#7c217f"/><path d="M589.85,250.97c-.94-2.04-3.02-7.83-3.02-7.83v-7.52l-2.64,2.82,2.64,9.85,3.11,8.08,4.07,2.38c-1.84-3.35-3.71-6.81-4.16-7.78Z" fill="#7c217f"/><polygon points="599.16 280.35 603.74 281.62 599.21 269.29 594.02 267 599.16 280.35" fill="#7c217f"/><path d="M606.33,300.48c-.29-.71-2.59-4.99-2.59-4.99l-1.42-7.05-4.87-.29,3.72,9.39,16.95,20.09s-11.51-16.44-11.79-17.15Z" fill="#7c217f"/><polygon points="582.9 325.15 581.92 322.22 581.32 318.27 577.05 322.22 582.9 325.15" fill="#7c217f"/><polygon points="581.03 331.44 588.22 344.56 596.46 344.95 588.49 339.43 585.33 335.21 590.5 336.99 586.77 331.99 580.4 329.99 581.03 331.44" fill="#7c217f"/><polygon points="579.23 313.5 585.9 315.24 585.33 314.63 584.28 312.88 578.05 310.81 579.23 313.5" fill="#942b99"/><polygon points="581.62 308.41 577.27 301.11 572.98 299.22 575.79 305.65 581.62 308.41" fill="#942b99"/><polygon points="603.74 281.62 599.16 280.35 597.45 288.16 602.32 288.44 603.74 281.62" fill="#942b99"/><path d="M599.21,269.29l-1.22-3.33s-1.97-3.54-3.98-7.21l-4.07-2.38,4.09,10.63,5.19,2.3Z" fill="#942b99"/><polygon points="580.4 329.99 586.77 331.99 583.9 328.15 582.9 325.15 577.05 322.22 580.4 329.99" fill="#942b99"/></g></g><polygon points="619.56 321.14 619.56 332.47 630.2 342.31 630.2 333.78 623.01 330.71 619.56 321.14" fill="url(#linear-gradient-6)" mix-blend-mode="multiply" opacity=".46"/><polygon points="638.39 296.1 625 291.87 619.56 280.48 622.44 291.02 616.97 285.04 603.74 281.62 613.92 286.46 621.06 294.62 625 296.4 628.43 302.5 643.26 319.47 634.23 304.99 638.14 304.71 638.39 296.1" fill="url(#linear-gradient-7)" mix-blend-mode="multiply" opacity=".46"/><polygon points="601.16 313.78 603.74 322.63 597.99 325.33 603.61 324.98 611.51 336.35 606.9 325.07 607.13 321.46 601.16 313.78" fill="url(#linear-gradient-8)" mix-blend-mode="multiply" opacity=".46"/></g></g><path d="M383.31,308.75l-11.88,10.35-1.77-1.43,.52-5.87,.22-2.48,.49-5.5,.84-9.55-.18-3.48-2.9,.35-14.1,17.6s-7.77,3.35-8.92,4.46c-1.15,1.11-5.24,13.15-5.24,13.15l1.99,5.46,15.7,3.44,18.2-1.93,2.4-.26,3.11-6.83,.97-3.16,1.7-5.53,1.33-4.35v-3.36l-2.47-1.1Z" fill="url(#linear-gradient-9)"/><polygon points="374.68 329.56 378.68 333.07 375.16 337.38 347.35 342.11 317.05 341.26 342.38 331.82 340.38 326.36 349.55 323.78 359.14 331.01 374.68 329.56" fill="#7c217f" opacity=".58"/><path d="M588.22,344.56l.27-5.14,7.97,2.26,.99-14.04,14.9,9.88-1.78-8.96,1.78-5.17,7.21,9.06,10.64,9.85v-8.54s-.73-5.66-.88-6.67c-.14-1.01-5.83-8.71-5.83-8.71l2.34-14.93,2.59-.96,14.83,16.98-3.23-12.08,16.92,24.05,12.61,3.72-30.87,22.8-24.03-1.51-17.19-6.18-9.23-5.7Z" fill="#7c217f" opacity=".58"/><g><path d="M840.07,319.36l-27.93-45.36-4.53,1.48,6.85,12.36-8.65-15.61-20.09-29.35-3.76,.23,2.3,9.84-.4,6.21-.17,2.66,1.95,4.72,.7,1.7,3.28,7.95,2.99,7.24-1.44,2.96-11.5-5.92-25.37-46.52-4.97-4.1-5.04,.31,2.62,8.34,2.52,8.03,2.84,9.03s-.05,5.28-.08,10.8c-.03,5.59-.03,11.41,.08,12.19,.07,.53,.64,2.44,1.36,4.73,.44,1.39,.93,2.92,1.39,4.37,1.01,3.14,1.92,5.86,1.92,5.86l3.16,4.67,2.3,12.29-5.12,4.74-2.65,2.45-12.64-24.75-3.27-2.36-1.35,13.83,1.57,5.79,.02,.07,2.59,5.04h-4.18v2.11l9,7.84,7.78,12.16,2.29,.42,41.57-2.82,47.04,.07-4.99-15.72Zm-51.3-62.94l-.61-.81,1.94,2.56-1.33-1.75Zm-34.17-6.05l-2.87-7.11-2.41-5.96,9.86,24.39-4.57-11.32Z" fill="#ee80b1"/><g><polygon points="812.63 278.77 812.14 274 809.64 276.09 816.5 288.34 812.63 278.77" fill="#7c217f"/><g><path d="M842.1,319.56l-29.96-45.55,.48,4.77,3.87,9.57-8.65-15.46-22.12-29.99-1.73,1.16,6.19,12.38,1.94,2.54-1.37,2.17s2.16,3.19,1.37,3.92c-.79,.73,3.81,8.95,3.81,8.95l-5.18-4.33,1.37,2.9,5.54,10.51,3.79,9.05,.37,4.52,7.34,18.87-10.07-17.49-6.66-3.45-3.98-4.87s-4.74-3.26-5.54-4.1c-.79-.84-1.23-4.58-1.23-4.58l-27.4-47.09-3.96-2.75-.14,3.11,1.15,3.97,9.86,24.16-.65,3.2-4.1-6.86,1.8,10.01,5.9,16.25-.15,3.41-4.03,.36,1.59,2.18,5.89,15.9,.58,6,.15,2.62,3.01,6.88-3.16,6.42-11.37-10.96-14.67-24.95-2.59-1.33,3.31,15.33,11.51,14.91,11.93,17.63,33.66-2.9h48.53l-6.25-16.98Z" fill="url(#linear-gradient-10)"/><polygon points="742.72 306.9 739.41 291.58 739.41 304.72 740.99 310.53 743.58 315.52 739.41 315.52 739.41 317.62 748.41 325.38 756.45 337.83 766.16 339.44 754.23 321.81 742.72 306.9" fill="url(#linear-gradient-11)"/></g><polygon points="811.17 319.7 812.17 326.91 809.17 328.82 795.43 322.4 807.85 329.67 813.49 333.3 813.49 329.67 815.22 326.91 811.17 319.7" fill="url(#linear-gradient-12)" mix-blend-mode="multiply" opacity=".46"/><polygon points="816.5 291 815.22 294.58 805.12 291.66 797.09 277.39 803.71 292.13 801.46 292.13 801.83 296.65 807.85 294.58 815.22 297.54 826.44 312.9 817.8 298.03 819.82 296.27 819.53 292.13 820.72 290.13 816.5 291" fill="url(#linear-gradient-13)" mix-blend-mode="multiply" opacity=".46"/><polygon points="766.31 290.13 774.36 291.66 784.15 312.9 778.68 291.66 782.92 285.61 781.97 282.76 777.82 287.75 773.5 289.12 764.16 285.05 764.01 288.46 766.31 290.13" fill="url(#linear-gradient-14)" mix-blend-mode="multiply" opacity=".46"/><polygon points="762.66 267.42 770.05 280.83 770.05 277.13 762.66 261.46 762.66 267.42" fill="url(#linear-gradient-15)" mix-blend-mode="multiply" opacity=".46"/><g><path d="M754.29,279.13l9.86,5.92-5.29-14.57-4.65-3.42c-.03,5.54-.03,11.31,.08,12.07Z" fill="#7c217f"/><polygon points="762.13 298.58 764.43 310.75 768.13 314.56 768.04 312.9 767.46 306.9 763.52 296.27 758.97 293.95 762.13 298.58" fill="#7c217f"/><polygon points="754.29 256.36 756.45 258.79 760.56 265.64 761.21 262.44 756.64 251.23 751.46 247.42 754.29 256.36" fill="#7c217f"/><path d="M757.05,288.14l2.93,.68,4.03-.36-8.35-4.64c.44,1.38,.93,2.9,1.39,4.33Z" fill="#7c217f"/><polygon points="751.35 238.28 750.2 234.31 750.34 231.2 746.31 231.2 748.93 239.47 753.76 244.19 751.35 238.28" fill="#7c217f"/><polygon points="756.67 317.86 768.04 328.82 771.2 322.4 759.31 315.44 756.67 317.86" fill="#7c217f"/><path d="M801.83,296.65l-.37-4.52-8.26-5.23-11.5-5.86s.44,3.73,1.23,4.58c.79,.84,5.54,4.1,5.54,4.1l3.98,4.87,6.66,3.45,10.07,17.49-7.34-18.87Z" fill="#7c217f"/><polygon points="794.64 283.97 799.15 286.62 797.67 283.09 794.96 277.94 791.65 276.81 794.64 283.97" fill="#7c217f"/><path d="M788.37,268.93l2.39,.73,5.18,4.33s-1.05-1.88-2.06-3.93l-6.2-2.83,.7,1.69Z" fill="#7c217f"/><polygon points="790.19 256.42 784 244.04 786.3 253.79 790.8 257.22 790.19 256.42" fill="#7c217f"/><path d="M785.72,262.58l6.36,3.14c-.06-.33-.06-.57,.05-.67,.44-.4-.02-1.55-.52-2.5l-5.71-2.6-.17,2.63Z" fill="#7c217f"/><polygon points="740.99 310.53 743.58 315.52 739.41 315.52 754.03 324.54 739.41 317.62 748.41 325.38 756.45 337.83 766.16 339.44 754.23 321.81 748.15 313.94 740.97 310.46 740.99 310.53" fill="#7c217f"/><polygon points="739.41 291.58 739.41 304.72 742.72 306.9 739.41 291.58" fill="#7c217f"/><polygon points="768.13 314.56 764.43 310.75 759.31 315.44 771.2 322.4 768.19 315.52 768.13 314.56" fill="#942b99"/><path d="M755.65,283.82l8.35,4.64,.15-3.41-9.86-5.92c.07,.52,.64,2.42,1.36,4.69Z" fill="#942b99"/><path d="M758.97,293.95l4.55,2.32-1.95-5.27-1.59-2.18-2.93-.68c1.01,3.11,1.92,5.81,1.92,5.81Z" fill="#942b99"/><polygon points="756.64 251.23 753.76 244.19 748.93 239.47 751.46 247.42 756.64 251.23" fill="#942b99"/><path d="M754.21,267.06l4.65,3.42-.61-1.68-1.8-10.01-2.16-2.42s-.05,5.23-.08,10.69Z" fill="#942b99"/><polygon points="739.41 315.52 739.41 317.62 754.03 324.54 739.41 315.52" fill="#942b99"/><polygon points="748.15 313.94 742.72 306.9 739.41 304.72 740.97 310.46 748.15 313.94" fill="#942b99"/><path d="M787.67,267.25l6.2,2.83c-.82-1.66-1.61-3.41-1.79-4.36l-6.36-3.14,1.95,4.67Z" fill="#942b99"/><polygon points="791.65 276.81 794.96 277.94 792.13 272.57 790.76 269.67 788.37 268.93 791.65 276.81" fill="#942b99"/><path d="M791.61,262.54c-.41-.78-.84-1.42-.84-1.42l1.37-2.17-1.33-1.73-4.5-3.43-.4,6.15,5.71,2.6Z" fill="#942b99"/><polygon points="799.15 286.62 794.64 283.97 793.2 286.9 801.46 292.13 799.15 286.62" fill="#942b99"/></g></g></g><g><path d="M581.89,341.38c-1.15-1.11-8.92-4.46-8.92-4.46l-13.08-17.6-2.9-.35-.18,3.48,.84,9.55,.49,5.5,.22,2.48,.52,5.87-1.79,1.44-.52,.42-11.36-10.78-2.47,1.1v3.36l1.33,4.35,1.7,5.53,.97,3.16,3.11,6.83,19.46,.68,15.83-1.94,1.99-5.46s-4.09-12.04-5.24-13.15Z" fill="#ee80b1"/><g><g><path d="M582.62,350.52l.28-9.14c-1.15-1.11-8.92-4.46-8.92-4.46l5.16,13.41,3.47,.2Z" fill="#7c217f"/><path d="M586.16,359.99l1.99-5.46s-4.09-12.04-5.24-13.15l-.28,9.14-3.47-.2-5.16-13.41-14.1-17.6-.59,4.01,1.24,1.85,7.39,26.78-1.97,3.85-3.97,.14-4.39-8.25-12.37-10.78,1.52,5.77,3.35,4.76,2.88,7.34-3.87-2.94v2.94l3.16,6.71,18.2,1.93,15.7-3.44Z" fill="url(#linear-gradient-16)"/></g><g><polygon points="559.3 323.33 559.89 319.32 557.59 319.77 557.83 322.45 559.35 323.41 559.3 323.33" fill="#7c217f"/><polygon points="559.89 345.84 567.93 351.96 566.12 345.4 559.37 339.97 559.89 345.84" fill="#7c217f"/><polygon points="557.59 347.7 561.98 355.95 565.95 355.81 558.1 347.28 557.59 347.7" fill="#7c217f"/><polygon points="559.15 337.49 565.41 342.86 563.95 337.53 558.67 331.99 559.15 337.49" fill="#7c217f"/><polygon points="545.22 336.92 543.76 338.03 543.76 341.38 546.74 342.69 545.22 336.92" fill="#7c217f"/><polygon points="549.85 361.25 552.26 361.5 549.09 354.79 547.76 354.42 549.85 361.25" fill="#7c217f"/><polygon points="546.79 351.26 549.09 351.86 552.97 354.79 550.09 347.45 545.09 345.73 546.79 351.26" fill="#7c217f"/><polygon points="559.89 345.84 558.1 347.28 565.95 355.81 567.93 351.96 559.89 345.84" fill="#942b99"/><polygon points="559.37 339.97 566.12 345.4 565.41 342.86 559.15 337.49 559.37 339.97" fill="#942b99"/><polygon points="563.95 337.53 560.54 325.18 559.35 323.41 557.83 322.45 558.67 331.99 563.95 337.53" fill="#942b99"/><polygon points="550.09 347.45 546.74 342.69 543.76 341.38 545.09 345.73 550.09 347.45" fill="#942b99"/><polygon points="547.76 354.42 549.09 354.79 549.09 351.86 546.79 351.26 547.76 354.42" fill="#942b99"/></g></g></g><g opacity=".81"><g><g><path d="M345.91,322.35l-.28-9.14c1.15-1.11,8.92-4.46,8.92-4.46l-5.16,13.41-3.47,.2Z" fill="#7c217f"/><path d="M342.38,331.82l-1.99-5.46s4.09-12.04,5.24-13.15l.28,9.14,3.47-.2,5.16-13.41,14.1-17.6,.59,4.01-1.24,1.85-7.39,26.78,1.97,3.85,3.97,.14,4.39-8.25,12.37-10.78-1.52,5.77-3.35,4.76-2.88,7.34,3.87-2.94v2.94l-3.16,6.71-18.2,1.93-15.7-3.44Z" fill="url(#linear-gradient-17)"/></g><g><polygon points="369.24 295.15 368.64 291.15 370.94 291.59 370.71 294.27 369.18 295.23 369.24 295.15" fill="#7c217f"/><polygon points="368.64 317.66 360.61 323.78 362.42 317.22 369.16 311.79 368.64 317.66" fill="#7c217f"/><polygon points="370.94 319.52 366.55 327.77 362.58 327.63 370.43 319.1 370.94 319.52" fill="#7c217f"/><polygon points="369.38 309.31 363.12 314.68 364.59 309.36 369.87 303.82 369.38 309.31" fill="#7c217f"/><polygon points="383.31 308.75 384.77 309.85 384.77 313.2 381.79 314.52 383.31 308.75" fill="#7c217f"/><polygon points="378.68 333.07 376.28 333.32 379.44 326.62 380.78 326.24 378.68 333.07" fill="#7c217f"/><polygon points="381.74 323.08 379.44 323.68 375.57 326.62 378.44 319.27 383.44 317.55 381.74 323.08" fill="#7c217f"/><polygon points="368.64 317.66 370.43 319.1 362.58 327.63 360.61 323.78 368.64 317.66" fill="#942b99"/><polygon points="369.16 311.79 362.42 317.22 363.12 314.68 369.38 309.31 369.16 311.79" fill="#942b99"/><polygon points="364.59 309.36 367.99 297 369.18 295.23 370.71 294.27 369.87 303.82 364.59 309.36" fill="#942b99"/><polygon points="378.44 319.27 381.79 314.52 384.77 313.2 383.44 317.55 378.44 319.27" fill="#942b99"/><polygon points="380.78 326.24 379.44 326.62 379.44 323.68 381.74 323.08 380.78 326.24" fill="#942b99"/></g></g></g><g><path d="M169.63,325.05l-1.09,12.89,18.22-1.42,36.34,1.45,2.03-.03,7.19-13.34,.63-1.48,3.35-7.9-4.27-4.02,2.09-4.84,1.18-2.74,2.26-5.25,2.82-6.54-1.41-4.68-7.98,.89-2.03,.86-4.05,4.22-3.59-4-9.14,1.02,3.72-9.55-1.7-7.94,5.13-13.58,4.09-10.81,3.11-8.22,2.64-10.02-4.67-.99-19.41,19.55-11.29,22.07,8.99-17.58-.5-2.39-3.35,1.3-23.97,36.69,.25,8.75-18.8,27.19,13.22,.45Zm45.82-67.2c.08-.14,.2-.36,.36-.67-.17,.31-.29,.53-.36,.67Zm13.68,47.76l4.39-7.49-1.79,3.05-2.6,4.44Z" fill="#ee80b1"/><g><g><polygon points="211.9 302.91 219.3 289.95 222.88 293.89 211.9 302.91" fill="#7c217f"/><polygon points="198.94 251.96 200.25 252.15 200.76 254.51 191.77 271.79 198.94 251.96" fill="#7c217f"/><path d="M166.51,337.96l1.09-12.67-13.22-.45,18.8-26.73-.25-8.61,26-37.54-7.17,19.83,11.29-21.7,21.44-21.07v7.52s-2.07,5.79-3.02,7.83c-.94,2.04-8.14,15-8.14,15l-5.75,15.65,1.42,6.83-1.42,7.05s-2.3,4.28-2.59,4.99c-.29,.71-11.8,17.15-11.8,17.15l16.95-20.09,9.14-1-7.39,12.95,17.06-14.01,7.98-.87-2.11,5.2-8.83,14.82-9.43,10,13.44-6.37-.6,3.96-1.98,5.93-6.6,8.84,5.18-1.78-3.16,4.21-7.97,5.52-30.73,1.43-17.62-1.81Z" fill="url(#linear-gradient-18)"/><g><polygon points="234.83 293.21 236.94 288.02 238.35 292.62 234.06 294.51 234.83 293.21" fill="#7c217f"/><polygon points="233.27 304.21 227.04 306.28 229.71 301.81 235.53 299.05 233.27 304.21" fill="#7c217f"/><polygon points="230.01 311.67 216.57 318.03 225.43 308.64 232.09 306.91 230.01 311.67" fill="#7c217f"/><path d="M221.48,244.37c.94-2.04,3.02-7.83,3.02-7.83v-7.52l2.64,2.82-2.64,9.85-3.11,8.08-4.07,2.38c1.84-3.35,3.71-6.81,4.16-7.78Z" fill="#7c217f"/><polygon points="212.17 273.75 207.59 275.02 212.11 262.7 217.3 260.4 212.17 273.75" fill="#7c217f"/><path d="M205,293.89c.29-.71,2.59-4.99,2.59-4.99l1.42-7.05,4.87-.29-3.72,9.39-16.95,20.09s11.51-16.44,11.8-17.15Z" fill="#7c217f"/><polygon points="228.43 318.55 229.41 315.63 230.01 311.67 234.28 315.62 228.43 318.55" fill="#7c217f"/><polygon points="230.29 324.85 223.1 337.96 214.86 338.35 222.84 332.83 226 328.62 220.82 330.39 224.55 325.4 230.92 323.39 230.29 324.85" fill="#7c217f"/><polygon points="232.09 306.91 225.43 308.64 226 308.03 227.04 306.28 233.27 304.21 232.09 306.91" fill="#942b99"/><polygon points="229.71 301.81 234.06 294.51 238.35 292.62 235.53 299.05 229.71 301.81" fill="#942b99"/><polygon points="207.59 275.02 212.17 273.75 213.87 281.56 209 281.84 207.59 275.02" fill="#942b99"/><path d="M212.11,262.7l1.22-3.33s1.97-3.54,3.98-7.21l4.07-2.38-4.09,10.63-5.19,2.3Z" fill="#942b99"/><polygon points="230.92 323.39 224.55 325.4 227.42 321.55 228.43 318.55 234.28 315.62 230.92 323.39" fill="#942b99"/></g></g><polygon points="191.77 314.54 191.77 325.87 181.12 335.72 181.12 327.18 188.31 324.11 191.77 314.54" fill="url(#linear-gradient-19)" mix-blend-mode="multiply" opacity=".46"/><polygon points="172.94 289.5 186.33 285.27 191.77 273.88 188.89 284.42 194.36 278.44 207.59 275.02 197.41 279.86 190.26 288.02 186.33 289.8 182.9 295.9 168.07 312.88 177.09 298.39 173.19 298.11 172.94 289.5" fill="url(#linear-gradient-20)" mix-blend-mode="multiply" opacity=".46"/><polygon points="210.17 307.18 207.59 316.03 213.34 318.73 207.71 318.38 199.82 329.75 204.42 318.47 204.19 314.86 210.17 307.18" fill="url(#linear-gradient-21)" mix-blend-mode="multiply" opacity=".46"/></g></g><g><path d="M219.29,342.51l47.04-.07,41.57,2.82,2.29-.42,7.78-12.16,9-7.84v-2.11h-4.18l2.59-5.04,.02-.07,1.57-5.79-1.35-13.83-3.27,2.36-12.64,24.75-2.65-2.45-5.12-4.74,2.3-12.29,3.16-4.67s.91-2.73,1.92-5.86c.47-1.45,.96-2.98,1.39-4.37,.72-2.29,1.29-4.2,1.36-4.73,.11-.78,.11-6.6,.08-12.19-.03-5.51-.08-10.8-.08-10.8l2.84-9.03,2.52-8.03,2.62-8.34-5.04-.31-4.97,4.1-25.37,46.52-11.5,5.92-1.44-2.96,2.99-7.24,3.28-7.95,.7-1.7,1.95-4.72-.17-2.66-.4-6.21,2.3-9.84-3.76-.23-20.09,29.34-8.65,15.61,6.85-12.36-4.53-1.48-27.93,45.36-4.99,15.72Zm54.96-76.91l1.94-2.56-.61,.81-1.33,1.75Zm30.92,3.52l9.86-24.39-2.41,5.96-2.87,7.11-4.57,11.32Z" fill="#ee80b1"/><g><polygon points="251.72 286.2 252.21 281.43 254.7 283.52 247.85 295.77 251.72 286.2" fill="#7c217f"/><g><path d="M222.25,326.98l29.96-45.55-.48,4.77-3.87,9.57,8.65-15.46,22.12-29.99,1.73,1.16-6.19,12.38-1.94,2.54,1.37,2.17s-2.16,3.19-1.37,3.92-3.81,8.95-3.81,8.95l5.18-4.33-1.37,2.9-5.54,10.51-3.79,9.05-.37,4.52-7.34,18.87,10.07-17.49,6.66-3.45,3.98-4.87s4.74-3.26,5.54-4.1c.79-.84,1.23-4.58,1.23-4.58l27.4-47.09,3.96-2.75,.14,3.11-1.15,3.97-9.86,24.16,.65,3.2,4.1-6.86-1.8,10.01-5.9,16.25,.15,3.41,4.03,.36-1.59,2.18-5.89,15.9-.58,6-.15,2.62-3.01,6.88,3.16,6.42,11.37-10.96,14.67-24.95,2.59-1.33-3.31,15.32-11.51,14.91-11.93,17.63-33.66-2.9h-48.53l6.25-16.98Z" fill="url(#linear-gradient-22)"/><polygon points="321.63 314.33 324.94 299.01 324.94 312.14 323.36 317.96 320.77 322.95 324.94 322.95 324.94 325.04 315.94 332.81 307.9 345.26 298.19 346.86 310.12 329.24 321.63 314.33" fill="url(#linear-gradient-23)"/></g><polygon points="253.18 327.12 252.18 334.34 255.18 336.25 268.91 329.83 256.5 337.1 250.86 340.73 250.86 337.1 249.13 334.34 253.18 327.12" fill="url(#linear-gradient-24)" mix-blend-mode="multiply" opacity=".46"/><polygon points="247.85 298.43 249.13 302.01 259.23 299.09 267.26 284.82 260.64 299.56 262.89 299.56 262.52 304.08 256.5 302.01 249.13 304.97 237.91 320.33 246.54 305.46 244.53 303.7 244.82 299.56 243.63 297.56 247.85 298.43" fill="url(#linear-gradient-25)" mix-blend-mode="multiply" opacity=".46"/><polygon points="298.04 297.56 289.98 299.09 280.2 320.33 285.67 299.09 281.43 293.04 282.38 290.18 286.53 295.17 290.85 296.55 300.19 292.48 300.34 295.89 298.04 297.56" fill="url(#linear-gradient-26)" mix-blend-mode="multiply" opacity=".46"/><polygon points="301.69 274.85 294.3 288.26 294.3 284.56 301.69 268.89 301.69 274.85" fill="url(#linear-gradient-27)" mix-blend-mode="multiply" opacity=".46"/><g><path d="M310.05,286.56l-9.86,5.92,5.29-14.57,4.65-3.42c.03,5.54,.03,11.31-.08,12.07Z" fill="#7c217f"/><polygon points="302.22 306.01 299.91 318.17 296.22 321.98 296.31 320.33 296.89 314.33 300.83 303.7 305.38 301.38 302.22 306.01" fill="#7c217f"/><polygon points="310.05 263.79 307.9 266.21 303.79 273.07 303.14 269.87 307.71 258.66 312.89 254.84 310.05 263.79" fill="#7c217f"/><path d="M307.3,295.57l-2.93,.68-4.03-.36,8.35-4.64c-.44,1.38-.93,2.9-1.39,4.33Z" fill="#7c217f"/><polygon points="313 245.71 314.15 241.74 314.01 238.63 318.04 238.63 315.42 246.9 310.59 251.62 313 245.71" fill="#7c217f"/><polygon points="307.68 325.29 296.31 336.25 293.15 329.83 305.04 322.87 307.68 325.29" fill="#7c217f"/><path d="M262.52,304.08l.37-4.52,8.26-5.23,11.5-5.86s-.44,3.73-1.23,4.58c-.79,.84-5.54,4.1-5.54,4.1l-3.98,4.87-6.66,3.45-10.07,17.49,7.34-18.87Z" fill="#7c217f"/><polygon points="269.71 291.4 265.2 294.05 266.68 290.51 269.39 285.36 272.69 284.23 269.71 291.4" fill="#7c217f"/><path d="M275.98,276.36l-2.39,.73-5.18,4.33s1.05-1.88,2.06-3.93l6.2-2.83-.7,1.69Z" fill="#7c217f"/><polygon points="274.16 263.85 280.35 251.47 278.05 261.22 273.55 264.65 274.16 263.85" fill="#7c217f"/><path d="M278.63,270l-6.36,3.14c.06-.33,.06-.57-.05-.67-.44-.4,.02-1.55,.52-2.5l5.71-2.6,.17,2.63Z" fill="#7c217f"/><polygon points="323.36 317.96 320.77 322.95 324.94 322.95 310.31 331.97 324.94 325.04 315.94 332.81 307.9 345.26 298.19 346.86 310.12 329.24 316.2 321.37 323.38 317.88 323.36 317.96" fill="#7c217f"/><polygon points="324.94 299.01 324.94 312.14 321.63 314.33 324.94 299.01" fill="#7c217f"/><polygon points="296.22 321.98 299.91 318.17 305.04 322.87 293.15 329.83 296.16 322.95 296.22 321.98" fill="#942b99"/><path d="M308.69,291.24l-8.35,4.64-.15-3.41,9.86-5.92c-.07,.52-.64,2.42-1.36,4.69Z" fill="#942b99"/><path d="M305.38,301.38l-4.55,2.32,1.95-5.27,1.59-2.18,2.93-.68c-1.01,3.11-1.92,5.81-1.92,5.81Z" fill="#942b99"/><polygon points="307.71 258.66 310.59 251.62 315.42 246.9 312.89 254.84 307.71 258.66" fill="#942b99"/><path d="M310.14,274.48l-4.65,3.42,.61-1.68,1.8-10.01,2.16-2.42s.05,5.23,.08,10.69Z" fill="#942b99"/><polygon points="324.94 322.95 324.94 325.04 310.31 331.97 324.94 322.95" fill="#942b99"/><polygon points="316.2 321.37 321.63 314.33 324.94 312.14 323.38 317.88 316.2 321.37" fill="#942b99"/><path d="M276.68,274.68l-6.2,2.83c.82-1.65,1.61-3.41,1.79-4.36l6.36-3.14-1.95,4.67Z" fill="#942b99"/><polygon points="272.69 284.23 269.39 285.36 272.22 280 273.59 277.1 275.98 276.36 272.69 284.23" fill="#942b99"/><path d="M272.74,269.97c.41-.78,.84-1.42,.84-1.42l-1.37-2.17,1.33-1.74,4.5-3.43,.4,6.15-5.71,2.6Z" fill="#942b99"/><polygon points="265.2 294.05 269.71 291.4 271.15 294.33 262.89 299.56 265.2 294.05" fill="#942b99"/></g></g></g><g><path d="M6.64,343.77l67.36-.1,59.54,4.03,3.28-.61,11.15-17.42,12.89-11.23v-3.03h-5.98l3.71-7.22,.03-.11,2.24-8.3-1.93-19.81-4.68,3.38-18.11,35.44-3.79-3.51-7.33-6.79,3.3-17.59,4.53-6.7s1.3-3.9,2.75-8.39c.67-2.07,1.37-4.26,2-6.26,1.03-3.28,1.84-6.02,1.95-6.78,.16-1.11,.15-9.45,.12-17.46-.04-7.89-.12-15.46-.12-15.46l4.07-12.94,3.61-11.49,3.76-11.95-7.22-.44-7.12,5.87-36.34,66.63-16.47,8.48-2.07-4.24,4.28-10.36,4.7-11.38,1.01-2.44,2.79-6.76-.25-3.81-.58-8.89,3.3-14.09-5.38-.33-28.77,42.03-12.39,22.35,9.81-17.71-6.48-2.12L13.78,321.26l-7.14,22.52Zm78.71-110.14l2.78-3.67-.88,1.16-1.9,2.51Zm44.28,5.04l14.12-34.93-3.45,8.54-4.12,10.18-6.55,16.21Z" fill="#ee80b1"/><g><polygon points="53.09 263.12 53.78 256.29 57.36 259.29 47.55 276.82 53.09 263.12" fill="#7c217f"/><g><path d="M10.87,321.53l42.91-65.24-.69,6.83-5.54,13.7,12.39-22.14,31.68-42.95,2.47,1.65-8.86,17.72-2.78,3.63,1.96,3.1s-3.09,4.56-1.96,5.62c1.13,1.05-5.46,12.82-5.46,12.82l7.42-6.2-1.96,4.16-7.93,15.06-5.43,12.96-.54,6.47-10.52,27.02,14.42-25.04,9.54-4.94,5.7-6.97s6.79-4.67,7.93-5.88c1.13-1.21,1.76-6.55,1.76-6.55l39.24-67.44,5.67-3.93,.2,4.46-1.65,5.68-14.12,34.6,.94,4.58,5.87-9.82-2.58,14.34-8.46,23.28,.22,4.88,5.77,.52-2.27,3.12-8.44,22.78-.82,8.59-.22,3.75-4.32,9.85,4.53,9.19,16.28-15.69,21.01-35.74,3.71-1.91-4.74,21.95-16.48,21.35-17.09,25.24-48.2-4.16H1.93l8.95-24.32Z" fill="url(#linear-gradient-28)"/><polygon points="153.21 303.41 157.95 281.46 157.95 300.28 155.68 308.6 151.97 315.75 157.95 315.75 157.95 318.75 145.06 329.88 133.54 347.7 119.63 350 136.73 324.76 153.21 303.41" fill="url(#linear-gradient-29)"/></g><polygon points="55.18 321.73 53.74 332.07 58.03 334.8 77.71 325.6 59.94 336.01 51.85 341.22 51.85 336.01 49.38 332.07 55.18 321.73" fill="url(#linear-gradient-30)" mix-blend-mode="multiply" opacity=".46"/><polygon points="47.55 280.63 49.38 285.77 63.84 281.59 75.34 261.14 65.86 282.26 69.09 282.26 68.55 288.73 59.94 285.77 49.38 290 33.31 312 45.67 290.71 42.79 288.19 43.2 282.26 41.5 279.4 47.55 280.63" fill="url(#linear-gradient-31)" mix-blend-mode="multiply" opacity=".46"/><polygon points="119.42 279.4 107.89 281.59 93.88 312 101.71 281.59 95.63 272.92 97 268.83 102.94 275.98 109.12 277.95 122.5 272.11 122.72 277 119.42 279.4" fill="url(#linear-gradient-32)" mix-blend-mode="multiply" opacity=".46"/><polygon points="124.65 246.87 114.07 266.07 114.07 260.77 124.65 238.33 124.65 246.87" fill="url(#linear-gradient-33)" mix-blend-mode="multiply" opacity=".46"/><g><path d="M136.63,263.64l-14.13,8.48,7.58-20.87,6.66-4.9c.04,7.93,.04,16.19-.12,17.29Z" fill="#681a6a"/><polygon points="125.4 291.49 122.11 308.92 116.81 314.37 116.95 312 117.77 303.41 123.41 288.19 129.93 284.86 125.4 291.49" fill="#681a6a"/><polygon points="136.63 231.03 133.54 234.5 127.66 244.32 126.73 239.74 133.28 223.69 140.69 218.22 136.63 231.03" fill="#681a6a"/><path d="M132.68,276.54l-4.2,.97-5.77-.52,11.96-6.65c-.62,1.98-1.33,4.15-2,6.2Z" fill="#681a6a"/><polygon points="140.85 205.14 142.49 199.46 142.29 195 148.06 195 144.31 206.84 137.39 213.6 140.85 205.14" fill="#681a6a"/><polygon points="133.23 319.11 116.95 334.8 112.42 325.6 129.44 315.64 133.23 319.11" fill="#681a6a"/><path d="M68.55,288.73l.54-6.47,11.82-7.49,16.47-8.4s-.62,5.35-1.76,6.55c-1.13,1.21-7.93,5.88-7.93,5.88l-5.7,6.97-9.54,4.94-14.42,25.04,10.52-27.02Z" fill="#681a6a"/><polygon points="78.85 270.57 72.39 274.37 74.51 269.3 78.4 261.93 83.12 260.31 78.85 270.57" fill="#7c217f"/><path d="M87.82,249.03l-3.42,1.05-7.42,6.2s1.51-2.7,2.96-5.62l8.89-4.05-1.01,2.41Z" fill="#681a6a"/><polygon points="85.23 231.11 94.09 213.39 90.79 227.35 84.35 232.26 85.23 231.11" fill="#681a6a"/><path d="M91.62,239.93l-9.11,4.49c.09-.47,.09-.82-.07-.96-.62-.58,.03-2.22,.75-3.58l8.18-3.73,.25,3.77Z" fill="#681a6a"/><polygon points="155.68 308.6 151.97 315.75 157.95 315.75 137 328.67 157.95 318.75 145.06 329.88 133.54 347.7 119.63 350 136.73 324.76 145.43 313.49 155.71 308.5 155.68 308.6" fill="#681a6a"/><polygon points="157.95 281.46 157.95 300.28 153.21 303.41 157.95 281.46" fill="#681a6a"/><polygon points="116.81 314.37 122.11 308.92 129.44 315.64 112.42 325.6 116.73 315.75 116.81 314.37" fill="#7b317d"/><path d="M134.68,270.35l-11.96,6.65-.22-4.88,14.13-8.48c-.11,.75-.92,3.46-1.95,6.71Z" fill="#7b317d"/><path d="M129.93,284.86l-6.52,3.33,2.8-7.55,2.27-3.12,4.2-.97c-1.45,4.45-2.75,8.31-2.75,8.31Z" fill="#7b317d"/><polygon points="133.28 223.69 137.39 213.6 144.31 206.84 140.69 218.22 133.28 223.69" fill="#7b317d"/><path d="M136.74,246.34l-6.66,4.9,.88-2.41,2.58-14.34,3.09-3.47s.08,7.5,.12,15.31Z" fill="#7b317d"/><polygon points="157.95 315.75 157.95 318.75 137 328.67 157.95 315.75" fill="#7b317d"/><polygon points="145.43 313.49 153.21 303.41 157.95 300.28 155.71 308.5 145.43 313.49" fill="#7b317d"/><path d="M88.83,246.62l-8.89,4.05c1.17-2.37,2.3-4.88,2.57-6.24l9.11-4.49-2.79,6.69Z" fill="#7b317d"/><polygon points="83.12 260.31 78.4 261.93 82.44 254.24 84.4 250.09 87.82 249.03 83.12 260.31" fill="#7b317d"/><path d="M83.19,239.88c.58-1.11,1.21-2.03,1.21-2.03l-1.96-3.1,1.9-2.48,6.45-4.91,.58,8.81-8.18,3.73Z" fill="#7b317d"/><polygon points="72.39 274.37 78.85 270.57 80.91 274.77 69.09 282.26 72.39 274.37" fill="#942b99"/></g></g></g><g><path d="M954.03,343.88l-29.87-43.2,.4-13.91-38.08-58.29-5.31-2.06-.8,3.81,14.28,27.93-17.94-35.07-30.84-31.07-7.41,1.58,4.19,15.92,4.94,13.06,6.49,17.17,8.15,21.57-2.71,12.62,5.91,15.18-14.52-1.62-5.7,6.36-6.43-6.7-3.23-1.37-12.67-1.41-2.24,7.44,4.47,10.39,3.59,8.34,1.88,4.36,3.31,7.69-6.79,6.38,5.33,12.55,1,2.36,11.43,21.2,3.22,.05,57.73-2.3,28.96,2.25-1.73-20.48,21-.72Zm-94.38-107.11c.27,.49,.46,.84,.58,1.06-.12-.22-.31-.57-.58-1.06Zm-25.29,69.9l-2.84-4.85,6.97,11.9-4.13-7.05Z" fill="#ee80b1"/><g><g><polygon points="865.87 309.42 854.12 288.84 848.42 295.09 865.87 309.42" fill="#681a6a"/><polygon points="886.47 228.48 884.38 228.78 883.58 232.52 897.86 259.99 886.47 228.48" fill="#681a6a"/><path d="M937.99,365.12l-1.73-20.13,21-.71-29.87-42.48,.4-13.68-41.31-59.64,11.39,31.51-17.94-34.49-34.06-33.48v11.95s3.29,9.2,4.79,12.45c1.5,3.24,12.94,23.83,12.94,23.83l9.13,24.87-2.25,10.85,2.25,11.2s3.66,6.8,4.11,7.93c.46,1.13,18.74,27.26,18.74,27.26l-26.94-31.92-14.52-1.59,11.75,20.58-27.1-22.26-12.67-1.39,3.35,8.25,14.03,23.54,14.98,15.89-21.35-10.12,.95,6.29,3.15,9.41,10.49,14.05-8.23-2.82,5.03,6.69,12.67,8.77,48.83,2.27,27.99-2.88Z" fill="url(#linear-gradient-34)"/><g><polygon points="829.44 294.02 826.09 285.77 823.85 293.08 830.67 296.09 829.44 294.02" fill="#681a6a"/><polygon points="831.92 311.49 841.81 314.79 837.59 307.69 828.32 303.29 831.92 311.49" fill="#681a6a"/><polygon points="837.11 323.34 858.45 333.46 844.38 318.53 833.79 315.78 837.11 323.34" fill="#681a6a"/><path d="M850.66,216.42c-1.5-3.24-4.79-12.45-4.79-12.45v-11.95l-4.19,4.49,4.19,15.65,4.94,12.84,6.47,3.79c-2.92-5.32-5.9-10.82-6.61-12.37Z" fill="#681a6a"/><polygon points="865.44 263.1 872.73 265.11 865.54 245.53 857.29 241.88 865.44 263.1" fill="#681a6a"/><path d="M876.84,295.09c-.46-1.13-4.11-7.93-4.11-7.93l-2.25-11.2-7.74-.45,5.91,14.93,26.94,31.92s-18.28-26.12-18.74-27.26Z" fill="#681a6a"/><polygon points="839.61 334.28 838.06 329.63 837.11 323.34 830.32 329.62 839.61 334.28" fill="#681a6a"/><polygon points="836.65 344.28 848.08 365.12 861.17 365.73 848.5 356.96 843.47 350.27 851.7 353.09 845.77 345.15 835.65 341.96 836.65 344.28" fill="#7c217f"/><polygon points="833.79 315.78 844.38 318.53 843.47 317.57 841.81 314.79 831.92 311.49 833.79 315.78" fill="#7b317d"/><polygon points="837.59 307.69 830.67 296.09 823.85 293.08 828.32 303.29 837.59 307.69" fill="#7b317d"/><polygon points="872.73 265.11 865.44 263.1 862.74 275.5 870.47 275.96 872.73 265.11" fill="#7b317d"/><path d="M865.54,245.53l-1.94-5.29s-3.13-5.63-6.32-11.46l-6.47-3.79,6.49,16.89,8.24,3.65Z" fill="#7b317d"/><polygon points="835.65 341.96 845.77 345.15 841.21 339.04 839.61 334.28 830.32 329.62 835.65 341.96" fill="#942b99"/></g></g><polygon points="897.86 327.91 897.86 345.9 914.78 361.55 914.78 347.99 903.35 343.11 897.86 327.91" fill="url(#linear-gradient-35)" mix-blend-mode="multiply" opacity=".46"/><polygon points="927.78 288.12 906.5 281.39 897.86 263.31 902.44 280.05 893.75 270.55 872.73 265.11 888.9 272.8 900.25 285.77 906.5 288.6 911.95 298.29 935.52 325.26 921.18 302.25 927.38 301.8 927.78 288.12" fill="url(#linear-gradient-36)" mix-blend-mode="multiply" opacity=".46"/><polygon points="868.63 316.22 872.73 330.28 863.59 334.56 872.53 334.01 885.07 352.07 877.75 334.14 878.12 328.42 868.63 316.22" fill="url(#linear-gradient-37)" mix-blend-mode="multiply" opacity=".46"/></g></g><polygon points="552.26 361.5 554.1 357.23 563.95 360.44 566.68 357.96 575.39 347.45 578.45 350.26 583.44 355.95 585.99 348.45 588.15 354.53 633.94 369.91 603.74 374.52 567.93 371.3 549.85 361.25 552.26 361.5" fill="#7c217f" opacity=".58"/></g></g></g></svg>