<?xml version="1.0" encoding="UTF-8"?><svg xmlns="http://www.w3.org/2000/svg" xmlns:xlink="http://www.w3.org/1999/xlink" viewBox="0 0 974.88 415.23"><defs><linearGradient id="linear-gradient" x1="-338.12" y1="-1844.74" x2="-180.93" y2="-1933.95" gradientTransform="translate(-1394.45 574.31) rotate(86.08)" gradientUnits="userSpaceOnUse"><stop offset="0" stop-color="#ef80b1"/><stop offset=".47" stop-color="#7c1f7f"/><stop offset=".82" stop-color="#4f2480"/><stop offset="1" stop-color="#322783"/></linearGradient><linearGradient id="linear-gradient-2" x1="457.2" y1="210.04" x2="550.16" y2="210.04" gradientTransform="matrix(1, 0, 0, 1, 0, 0)" gradientUnits="userSpaceOnUse"><stop offset="0" stop-color="#7c1f7f"/><stop offset=".51" stop-color="#ef80b1"/><stop offset=".75" stop-color="#7c1f7f"/><stop offset="1" stop-color="#322783"/></linearGradient><linearGradient id="linear-gradient-3" x1="-1647.33" y1="-2829.48" x2="-1722.53" y2="-2680.67" gradientTransform="translate(-2766.95 294.79) rotate(119.19)" gradientUnits="userSpaceOnUse"><stop offset="0" stop-color="#1d1d1b"/><stop offset="1" stop-color="#fff"/></linearGradient></defs><g isolation="isolate"><g id="Layer_1"><g id="big_moon"><g><circle cx="466.22" cy="176.38" r="90.36" transform="translate(11.83 381.32) rotate(-45)" fill="url(#linear-gradient)"/><g opacity=".47"><path d="M549.66,159.85s12.98,98.34-92.46,100.36l3.76-6.18s81.13,8.91,81.13-88.21l7.58-5.97Z" fill="url(#linear-gradient-2)"/></g><g opacity=".29"><circle cx="466.22" cy="176.38" r="83.35" transform="translate(11.83 381.32) rotate(-45)" fill="url(#linear-gradient-3)" mix-blend-mode="screen" opacity=".24"/><path d="M448.39,105.63c1.11-.56,1.86-1.31,2.25-2.51,.34-1.05,.71-2.07,1.72-2.65,1.15-.67,2.57-.56,3.84-.5,1.62,.08,3.24,.16,4.86,.24,1.48-2.11,4.79-2,7.05-1.62,.84,.14,1.67,.37,2.47,.67,.41,.15,.8,.36,1.22,.48,.62,.18,.99,.09,1.57-.18,1.38-.63,2.66-.94,4.19-.79,1.52,.15,2.97,.59,4.42,1.06,1.38,.45,2.8,.94,4,1.78,1.95,1.38,3.27,4,2.2,6.27,.82,.83,1.64,1.67,2.49,2.46,.28,.26,.52,.59,.97,.42,.28-.1,.49-.47,.56-.73,.19-.66-.09-1.43-.27-2.05-.2-.66,.72-1.24,1.19-.69,.74,.84,2.01-.06,2.72-.51,.86-.55,1.91-1.13,2.98-.91,1.75,.37,2.05,2.07,1.95,3.61,1.95,.18,3.64,1.39,4.5,3.15,.79-.08,1.58-.17,2.37-.25,.26-.03,.48,.16,.62,.35,1.68,2.36,4.1,4.02,6.33,5.81,2.28,1.83,4.19,3.93,5.86,6.33,.89,1.29,1.75,2.61,2.55,3.96,.6,1.02,.86,1.98,.12,2.99-.49,.67,.22,1.8,.49,2.49,.29,.75,.57,1.51,.86,2.26,.62,1.62,1.23,3.23,1.85,4.85,.13,.35-.15,.79-.5,.88-2.72,.67-5.44,1.35-8.16,2.02-.92,.23-2.1,.7-2.98,.12-.39-.25-.51-.64-.8-.97-.42-.49-1.01-.49-1.6-.29-1.07,.36-1.83,1.31-2.81,1.83-.78,.41-1.65,.59-2.54,.51-1.63-.14-3.16-1.07-3.95-2.5-.02-.03-.04-.05-.05-.08-.02-.05-.04-.09-.06-.14-.03-.06-.06-.11-.09-.17-1.06-2.56-2.24-5.04-3.67-7.33-1.16-1.86-2.86-3.89-5.26-3.85-1.87,.03-3.53,1.26-5,2.29-1.47,1.03-3,2.2-4.78,2.59-2.07,.45-3.73-.42-5.34-1.65-.96-.73-1.93-1.46-3.17-1.6-1.1-.12-2.21,.1-3.28,.33-1.95,.41-4.1,1-6.02,.13-1.1-.5-1.82-1.41-2.55-2.35-.69-.88-1.44-1.63-2.42-2.2-3.98-2.32-9.04-1.83-12.7-4.82-.23-.12-.43-.31-.53-.6-.12-.37,.07-.66,.35-.79-.15-.1-.26-.29-.38-.43-.19-.22-.37-.44-.55-.67-.39-.5-.77-1.02-1.11-1.56-.68-1.07-1.25-2.21-1.72-3.38-.93-2.33-1.53-5.03-1.38-7.55,.16-2.62,3.27-2.63,5.12-3.56Z" fill="#4f2682" opacity=".82"/><path d="M414.44,227.97c.31,.25,.92,.32,1.12-.14,.72-1.69,7.74,4.04,8.64,4.75,2.72,2.14,5.29,4.46,7.69,6.94,1.14,1.17,2.15,2.54,3.4,3.6,1.13,.95,2.38,1.27,3.76,.65,1.74-.78,3.4-1.77,5.09-2.65,1.71-.9,3.43-1.8,5.14-2.7,2.54-1.33,6.88-3.56,9.17-.54,.43,.56,1.27,.38,1.33-.36,.09-1.14,3.39-.39,4.03-.36,1.7,.1,3.41-.09,5.06-.51,3.35-.85,6.41-2.72,8.67-5.33,.32-.37,.25-.84-.14-1.12-5.09-3.64-11.6,1.12-16.86-1.75-1.17-.64-2.15-1.57-2.98-2.6-.47-.59-.9-1.23-1.29-1.88-.38-.62-1.01-1.5-.67-2.25,.53-1.17,2.49-1.91,3.6-2.32,1.32-.48,2.7-.8,4.07-1.11,2.73-.62,5.34-1.31,7.75-2.78,2.26-1.38,4.35-3.21,6.88-4.09,2.93-1.02,5.76-.06,8.61,.77,1.39,.4,2.8,.76,4.24,.84,1.53,.09,3.04-.25,4.54-.51,1.5-.26,3.09-.46,4.5,.24,1.06,.53,2.1,1.56,1.82,2.84-.24,1.09-1.3,1.77-2.17,2.34-.94,.61-1.9,1.19-2.69,2-.26,.27-.29,.75,0,1.01,1.42,1.3,3.21,2.07,5.13,2.18,2.01,.11,3.84-.63,5.49-1.73,3.61-2.4,7.05-5.1,10.56-7.64,1.81-1.31,3.62-2.63,5.43-3.94,1.62-1.18,3.35-2.27,4.86-3.59,1.17-1.02,2.17-2.48,1.64-4.09-.5-1.55-2.24-2.7-3.56-3.51-2.85-1.74-6.18-2.42-9.48-2.09-.66-1.35-1.19-2.76-1.52-4.23-.06-.28-.32-.95-.16-1.23,.19-.33,.63-.29,.95-.29,.68,0,1.37,.1,2.05,.11,3.16,.05,6.32-.58,9.24-1.79,.51-.21,.69-.75,.32-1.19-2.49-2.96,.33-6.77,2.55-8.84,.98-.92,2.55-1.85,3.04-3.15,.54-1.44-.5-2.7-1.45-3.68-1.84-1.88-4.41-4.05-7.23-3.87-1.39,.09-2.38,.81-3.43,1.65-1.07,.86-1.97,1.15-3.06,.21-1.13-.96-2.15-2.52-3.65-2.73-.12-.65-.64-1.23-1.27-1.54-.96-.47-3.15,.22-3.36-1.17-.23-1.53,1.62-2.26,2.75-2.7,1.7-.67,3.4-1.32,5.1-1.98,.83-.32,.49-1.65-.34-1.38l-.09-1.57c-.02-.35,.03-.81-.08-1.14-.22-.64-1.3-1.2-1.82-1.62-1.63-1.3-3.26-2.61-4.9-3.91-1.13-.9-2.33-1.67-3.72-.76-.72,.47-1.29,1.18-1.88,1.79-.67,.69-1.34,1.39-2.02,2.08-.71,.74-1.42,1.47-2.13,2.21-.63,.64-1.38,1.51-2.37,1.06-.72-.33-1.29-.8-2.08-.95-.67-.13-1.35-.09-2.02-.01-1.39,.16-3.19,.68-4.09-.75-.86-1.36-.98-3.24-1.52-4.74-.54-1.49-1.3-2.88-2.6-3.83-1.07-.78-2.45-1.24-3.78-.96-1.34,.29-2.24,1.32-3.18,2.23-.48,.46-1.04,1.02-1.75,1.04-.75,.02-1.44-.51-2.17-.63-1.25-.21-2.22,.52-2.67,1.65-.48,1.22-.37,2.58-.83,3.81-.52,1.4-1.62,2.54-2.88,3.29-2.73,1.63-5.98,1.28-8.61-.36-2.81-1.75-4.18-4.48-5.64-7.31-.66-1.27-1.39-2.55-2.44-3.54-.94-.89-2.4-1.91-3.73-1.31-1.42,.63-2.13,2.66-2.84,3.91-.97,1.7-1.95,3.39-2.89,5.11-1.78,3.21-3.46,6.58-4.24,10.18-.75,3.43-.47,6.8,.97,10.01,1.29,2.86,3.86,6.19,3.14,9.52-.2,.91-.85,1.57-1.32,2.34-.41,.66-.72,1.4-.93,2.14-.47,1.62-.52,3.34-.53,5.01-.03,3.74-.36,7.34-1.52,10.92-1.12,3.44-2.75,7.11-5.93,9.11-3.12,1.97-6.98,3.01-10.53,3.9-1.88,.47-3.79,.85-5.71,1.14-1.57,.24-3.01,.44-3.32,2.25-.45,2.63-.54,6.07,1.73,7.92Zm25.07-19.35c.16-1.09,.33-2.18,.52-3.26,.41-2.38,.94-4.74,1.75-7.01,.78-2.18,1.97-4.2,2.67-6.41,.37-1.18,.51-2.33,.53-3.56,.03-1.12,.02-2.29,.38-3.36,.43-1.28,1.39-2.45,2.67-2.85-.91-1.62-1.72-3.3-1.94-5.18-.13-1.07-.14-2.12-.52-3.14-.38-1.03-.99-1.95-1.44-2.95-.65-1.44-.96-3.07-.33-4.58,.27-.65,.71-1.21,1.32-1.56,.81-.47,2.03-.2,2.91-.08,2.15,.3,4.22,1.04,6.08,2.16,.89,.53,1.74,1.16,2.71,1.55,.99,.4,2.05,.47,3.1,.52,1.88,.09,3.87,.09,5.47,1.22,.39,.27,.83,.76,1.31,.83,.51,.08,.94-.33,1.29-.64,.63-.56,1.24-1.09,1.99-1.5,2.66-1.44,6.13-1.52,8.44,.41,.69-.92,2.18-1.28,3.29-1.02,1.19,.29,2.19,1.18,3.43,1.32,1.33,.14,2.57-.5,3.85,.17,.97,.5,1.56,1.47,2.04,2.41,.63,1.25,1.21,2.53,1.75,3.82,1.13,2.68,2.08,5.42,2.85,8.22,.02,.08,.02,.15,.02,.22,.21,.31,.23,.78-.15,1.07-.65,.49-.91,1.42-.69,2.2,.22,.75,.93,1.22,1.49,1.72,.93,.82,1.77,1.97,1.11,3.24-.64,1.23-2.19,1.35-3.37,1.69-1.64,.48-2.25,2.04-3.46,3.08-1.48,1.29-3.33,1.1-5.15,.9-2.2-.23-4.4-.48-6.6-.69-4.44-.43-8.91-.73-13.37-.51-2.17,.11-4.34,.34-6.48,.75-1.58,.3-4.34,.55-5.32,2.05-.46,.7-.36,1.64-.69,2.4-.29,.66-.78,1.18-1.38,1.58-1.34,.9-3.01,1.14-4.39,1.99-1.43,.88-2.58,2.18-3.33,3.67-.4,.78-.68,1.63-.82,2.49-.13,.76-.22,1.34-1.07,1.58-1.49,.41-2.62-.93-2.74-2.28-.08-.89,.13-1.8,.26-2.68Z" fill="#4f2682" opacity=".82"/><path d="M439.25,211.3c.12,1.35,1.25,2.7,2.74,2.28,.85-.24,.94-.82,1.07-1.58,.15-.86,.43-1.71,.82-2.49,.76-1.49,1.91-2.79,3.33-3.67,1.38-.85,3.05-1.09,4.39-1.99,.6-.4,1.09-.91,1.38-1.58,.33-.76,.23-1.7,.69-2.4,.98-1.5,3.74-1.75,5.32-2.05,2.14-.41,4.31-.64,6.48-.75,4.46-.22,8.93,.08,13.37,.51,2.2,.21,4.4,.46,6.6,.69,1.82,.19,3.67,.39,5.15-.9,1.21-1.05,1.82-2.61,3.46-3.08,1.18-.34,2.73-.47,3.37-1.69,.66-1.27-.18-2.42-1.11-3.24-.56-.49-1.27-.96-1.49-1.72-.23-.77,.04-1.7,.69-2.2,.38-.29,.36-.77,.15-1.07,0-.07,0-.14-.02-.22-.78-2.8-1.73-5.54-2.85-8.22-.54-1.29-1.12-2.57-1.75-3.82-.48-.94-1.08-1.91-2.04-2.41-1.28-.67-2.52-.03-3.85-.17-1.23-.13-2.23-1.03-3.43-1.32-1.1-.27-2.6,.1-3.29,1.02-2.31-1.94-5.78-1.85-8.44-.41-.75,.4-1.35,.94-1.99,1.5-.35,.31-.77,.71-1.29,.64-.49-.08-.93-.56-1.31-.83-1.6-1.13-3.59-1.13-5.47-1.22-1.05-.05-2.12-.13-3.1-.52-.97-.39-1.82-1.02-2.71-1.55-1.86-1.12-3.93-1.86-6.08-2.16-.89-.12-2.1-.39-2.91,.08-.61,.35-1.05,.91-1.32,1.56-.63,1.51-.32,3.14,.33,4.58,.45,1,1.06,1.92,1.44,2.95,.38,1.02,.39,2.07,.52,3.14,.22,1.88,1.03,3.56,1.94,5.18-1.28,.4-2.24,1.57-2.67,2.85-.36,1.07-.35,2.24-.38,3.36-.03,1.23-.16,2.39-.53,3.56-.7,2.21-1.89,4.23-2.67,6.41-.82,2.27-1.34,4.64-1.75,7.01-.19,1.08-.35,2.17-.52,3.26-.13,.88-.34,1.79-.26,2.68Zm12.93-32.41c.35-.88,.69-1.77,1.05-2.65,.2-.49,.42-.92,.93-1.14,.6-.25,1.29-.07,1.91,.03,.79,.12,1.57,.25,2.36,.39,3.37,.59,6.71,1.31,10.1,1.78,3.41,.48,6.83,.64,10.26,.27,1.32-.14,2.43,.08,3.06,1.37,.55,1.13,.9,2.4,1.26,3.63,1.46,2.2-.53,4.39-2.43,5.37-1.27,.66-2.6,1.22-3.92,1.75-1.27,.51-2.68,1.18-4.07,1.14-2.5-.07-3.74-2.49-4.58-4.49-.54-1.3-1.15-2.49-2.27-3.39-.97-.79-2.15-1.3-3.34-1.64-3.19-.93-6.59-.7-9.8-1.54-.34-.09-.64-.52-.5-.88Z" fill="#2f2870" opacity=".82"/><path d="M452.19,178.89c.35-.88,.69-1.77,1.05-2.65,.2-.49,.42-.92,.93-1.14,.6-.25,1.29-.07,1.91,.03,.79,.12,1.57,.25,2.36,.39,3.37,.59,6.71,1.31,10.1,1.78,3.41,.48,6.83,.64,10.26,.27,1.32-.14,2.43,.08,3.06,1.37,.55,1.13,.9,2.4,1.26,3.63,1.46,2.2-.53,4.39-2.43,5.37-1.27,.66-2.6,1.22-3.92,1.75-1.27,.51-2.68,1.18-4.07,1.14-2.5-.07-3.74-2.49-4.58-4.49-.54-1.3-1.15-2.49-2.27-3.39-.97-.79-2.15-1.3-3.34-1.64-3.19-.93-6.59-.7-9.8-1.54-.34-.09-.64-.52-.5-.88Z" fill="#2c2669" opacity=".82"/><path d="M486.78,238.96c.8-1.91,2.93-3.08,4.72-3.89,2.03-.91,4.31-1.55,6.05-3,.8-.66,1.45-1.78,2.65-1.32,.9,.35,1.62,1.3,2.16,2.16,.89-.47,1.32-1.55,1.79-2.41,.62-1.14,1.38-2.14,2.54-2.78,2.4-1.32,5.35-1.01,7.96-.64,.52,.07,.61,.56,.42,.94,1.34,1.53,2.3,3.37,2.67,5.37,.18,.98,.35,2.14,.09,3.13-.28,1.04-1.17,1.5-2.09,1.89-4.59,1.98-9.83,1.72-14.36,3.87-2.21,1.05-4.21,2.49-6.45,3.49-.92,.41-1.91,.83-2.92,.97-1.29,.18-1.82-.79-2.51-1.69-1.26-1.65-3.69-3.79-2.72-6.09Z" fill="#4f2682" opacity=".82"/><path d="M406.66,123.87c1.28-1.81,2.76-3.46,4.42-4.93,1.64-1.46,3.33-2.83,4.73-4.54,2.71-3.31,4.73-7.21,8.39-9.63,.26-.17,.66-.11,.86,.11,3.6,3.85,5.46,9.1,6.72,14.13,.57,2.28,.8,4.95-1.03,6.75-.86,.84-1.97,1.33-3.04,1.83-1.17,.54-2.28,1.17-3.31,1.94-1.97,1.46-3.54,3.37-4.72,5.51,.04,.15,.04,.32-.04,.49-.83,1.83-1.83,3.76-3.66,4.78-1.48,.83-3.35,.97-4.78-.04-2.43-1.73-2.14-5.15-3.48-7.54-.83-1.48-2.68-1.97-2.94-3.8-.26-1.86,.85-3.61,1.87-5.05Z" fill="#4f2682" opacity=".82"/><path d="M477.78,119.9c-2.17,.46-4.38,.65-6.59,.61-2.2-.05-4.37-.19-6.55,.1-4.24,.57-8.38,2.06-12.7,1.33-.3-.05-.56-.37-.56-.67-.02-5.27,2.2-10.38,4.7-14.93,1.13-2.06,2.79-4.17,5.35-4.24,1.2-.03,2.35,.37,3.47,.73,1.22,.4,2.47,.7,3.75,.84,2.44,.27,4.89-.05,7.21-.82,.07-.14,.18-.26,.36-.33,1.85-.78,3.9-1.5,5.93-1.01,1.65,.4,3.12,1.57,3.47,3.29,.6,2.92-1.94,5.23-2.59,7.89-.4,1.65,.62,3.26-.44,4.78-1.07,1.54-3.08,2.06-4.81,2.43Z" fill="#2f2870" opacity=".82"/></g></g></g></g></g></svg>