<?xml version="1.0" encoding="UTF-8"?><svg id="Layer_1" xmlns="http://www.w3.org/2000/svg" viewBox="0 0 1230.41 520.27"><defs><style>.cls-1{opacity:.58;}.cls-1,.cls-2{fill:#cc8bea;}.cls-3{opacity:.71;}</style></defs><g class="cls-3"><path class="cls-2" d="M458.61,338.61l6.22-.98c-4.38-1.9-9.31-3.98-10.87-4.46-3.02-.91-6.59,0-6.59,0l-11.08,1.54c4.55,1.96,8.91,3.9,8.91,3.9h13.43Z"/><polygon class="cls-2" points="745.73 360.35 724.55 335.82 712.11 330.72 699.77 336.34 718.44 357.98 362.1 355.53 357.8 357.68 745.73 360.35"/><path class="cls-2" d="M641.15,337.72l-29.22-8.95-10.99,2.62,29.44,9.02s6.27-1.66,10.77-2.69Z"/><polygon class="cls-2" points="508.03 339.54 503.08 338.26 502.33 338.38 504.52 340.41 508.03 339.54"/><path class="cls-1" d="M436.27,334.71c-4.02-1.73-8.19-3.48-9.61-3.91-3.02-.91-6.59,0-6.59,0l-56.22,7.81-33.34,16.7,31.59,.22,29.04-14.55,45.14-6.27Z"/><path class="cls-1" d="M485.89,340.98l16.44-2.6-1.59-1.47-14.36,1.7-10.58-2.72-10.97,1.73c4.06,1.76,7.64,3.35,7.64,3.35h13.43Z"/><path class="cls-1" d="M672.78,339.28c1.51,.1,12.85,3.5,12.85,3.5l14.13-6.44-2.5-2.9-12.44-5.1-26.48,12.06s-11.34-3.4-12.85-3.5c-.49-.03-2.22,.32-4.35,.81l16.51,5.06s13.61-3.59,15.12-3.5Z"/><polygon class="cls-1" points="528.02 339.28 531.8 342.78 572.25 332.77 588.12 334.45 600.94 331.39 584.64 326.39 560.83 332.07 544.96 330.39 508.03 339.54 513.66 340.98 528.02 339.28"/><path class="cls-2" d="M699.77,336.34l-14.13,6.44s-11.34-3.4-12.85-3.5c-1.51-.09-15.12,3.5-15.12,3.5l-16.51-5.06c-4.5,1.03-10.77,2.69-10.77,2.69l-29.44-9.02-12.82,3.06-15.87-1.68-40.44,10.01-3.78-3.5-14.36,1.7-5.63-1.45-3.52,.87-2.19-2.02-16.44,2.6h-13.43s-3.59-1.6-7.64-3.35l-6.22,.98h-13.43s-4.36-1.94-8.91-3.9l-45.14,6.27-29.04,14.55,356.34,2.45-18.67-21.64Z"/><path class="cls-1" d="M699.77,336.34l-14.13,6.44s-11.34-3.4-12.85-3.5c-1.51-.09-15.12,3.5-15.12,3.5l-16.51-5.06c-4.5,1.03-10.77,2.69-10.77,2.69l-29.44-9.02-12.82,3.06-15.87-1.68-40.44,10.01-3.78-3.5-14.36,1.7-5.63-1.45-3.52,.87-2.19-2.02-16.44,2.6h-13.43s-3.59-1.6-7.64-3.35l-6.22,.98h-13.43s-4.36-1.94-8.91-3.9l-45.14,6.27-29.04,14.55,356.34,2.45-18.67-21.64Z"/></g></svg>