<?xml version="1.0" encoding="UTF-8"?><svg xmlns="http://www.w3.org/2000/svg" xmlns:xlink="http://www.w3.org/1999/xlink" viewBox="0 0 1230.41 520.27"><defs><style>.cls-1{opacity:.81;}.cls-2{fill:url(#linear-gradient-2);}.cls-3{fill:#942b99;}.cls-4{fill:url(#linear-gradient-17);}.cls-5{fill:url(#linear-gradient-19);}.cls-5,.cls-6,.cls-7,.cls-8,.cls-9,.cls-10,.cls-11,.cls-12,.cls-13,.cls-14,.cls-15,.cls-16,.cls-17,.cls-18,.cls-19,.cls-20,.cls-21,.cls-22,.cls-23,.cls-24,.cls-25{mix-blend-mode:multiply;opacity:.46;}.cls-6{fill:url(#linear-gradient-7);}.cls-26{fill:url(#linear-gradient-18);}.cls-27{fill:url(#linear-gradient-28);}.cls-28{isolation:isolate;}.cls-7{fill:url(#linear-gradient-36);}.cls-29{fill:#681a6a;}.cls-30{fill:url(#linear-gradient-11);}.cls-8{fill:url(#linear-gradient-21);}.cls-31{fill:url(#linear-gradient-10);}.cls-9{fill:url(#linear-gradient-24);}.cls-10{fill:url(#linear-gradient-14);}.cls-32{fill:url(#linear-gradient-16);}.cls-11{fill:url(#linear-gradient-27);}.cls-12{fill:url(#linear-gradient-20);}.cls-13{fill:url(#linear-gradient-30);}.cls-14{fill:url(#linear-gradient-35);}.cls-15{fill:url(#linear-gradient-33);}.cls-33{fill:#ee80b1;}.cls-34{fill:url(#linear-gradient-5);}.cls-35,.cls-36{fill:#7c217f;}.cls-37{fill:url(#linear-gradient-34);}.cls-16{fill:url(#linear-gradient-31);}.cls-17{fill:url(#linear-gradient-15);}.cls-18{fill:url(#linear-gradient-37);}.cls-38{fill:url(#linear-gradient-9);}.cls-39{fill:url(#linear-gradient-22);}.cls-40{fill:#7b317d;}.cls-19{fill:url(#linear-gradient-13);}.cls-41{fill:url(#linear-gradient-3);}.cls-20{fill:url(#linear-gradient-26);}.cls-21{fill:url(#linear-gradient-6);}.cls-42{fill:url(#linear-gradient);}.cls-36{opacity:.58;}.cls-22{fill:url(#linear-gradient-25);}.cls-43{fill:url(#linear-gradient-29);}.cls-23{fill:url(#linear-gradient-12);}.cls-24{fill:url(#linear-gradient-8);}.cls-44{fill:url(#linear-gradient-23);}.cls-45{fill:url(#linear-gradient-4);}.cls-25{fill:url(#linear-gradient-32);}</style><linearGradient id="linear-gradient" x1="112.42" y1="384.27" x2="973.63" y2="384.27" gradientTransform="matrix(1, 0, 0, 1, 0, 0)" gradientUnits="userSpaceOnUse"><stop offset="0" stop-color="#7c1f7f"/><stop offset=".61" stop-color="#9e66d8"/><stop offset=".79" stop-color="#9d64d6"/><stop offset=".85" stop-color="#9a5fcf"/><stop offset=".9" stop-color="#9655c3"/><stop offset=".94" stop-color="#8f48b2"/><stop offset=".97" stop-color="#87369c"/><stop offset="1" stop-color="#7d2182"/><stop offset="1" stop-color="#7c1f7f"/></linearGradient><linearGradient id="linear-gradient-2" x1="16.75" y1="405.31" x2="1034.58" y2="405.31" gradientTransform="matrix(1, 0, 0, 1, 0, 0)" gradientUnits="userSpaceOnUse"><stop offset="0" stop-color="#7c1f7f"/><stop offset=".18" stop-color="#7e2586"/><stop offset=".45" stop-color="#86359b"/><stop offset=".78" stop-color="#9350bd"/><stop offset="1" stop-color="#9e66d8"/></linearGradient><linearGradient id="linear-gradient-3" x1="917.87" y1="377.15" x2="744.52" y2="377.15" gradientTransform="matrix(1, 0, 0, 1, 0, 0)" gradientUnits="userSpaceOnUse"><stop offset="0" stop-color="#3d2682"/><stop offset=".21" stop-color="#3a257c"/><stop offset=".49" stop-color="#33236b"/><stop offset=".81" stop-color="#272151"/><stop offset="1" stop-color="#1e1f3d"/></linearGradient><linearGradient id="linear-gradient-4" x1="194.67" y1="383.47" x2="485.89" y2="383.47" xlink:href="#linear-gradient-3"/><linearGradient id="linear-gradient-5" x1="671.46" y1="385.69" x2="671.46" y2="274.93" gradientTransform="matrix(1, 0, 0, 1, 0, 0)" gradientUnits="userSpaceOnUse"><stop offset="0" stop-color="#7c217f"/><stop offset=".27" stop-color="#692175"/><stop offset=".83" stop-color="#3a215b"/><stop offset="1" stop-color="#2a2153"/></linearGradient><linearGradient id="linear-gradient-6" x1="680.54" y1="381.63" x2="680.54" y2="360.46" gradientTransform="matrix(1, 0, 0, 1, 0, 0)" gradientUnits="userSpaceOnUse"><stop offset="0" stop-color="#fff"/><stop offset=".13" stop-color="#dedce4"/><stop offset=".45" stop-color="#918da6"/><stop offset=".71" stop-color="#595279"/><stop offset=".9" stop-color="#372e5d"/><stop offset="1" stop-color="#2a2153"/></linearGradient><linearGradient id="linear-gradient-7" x1="679.18" y1="358.79" x2="679.18" y2="319.8" xlink:href="#linear-gradient-6"/><linearGradient id="linear-gradient-8" x1="660.7" y1="375.66" x2="660.7" y2="353.1" xlink:href="#linear-gradient-6"/><linearGradient id="linear-gradient-9" x1="400.22" y1="352.34" x2="444.95" y2="352.34" gradientTransform="matrix(1, 0, 0, 1, 0, 0)" gradientUnits="userSpaceOnUse"><stop offset=".76" stop-color="#9e66d8"/><stop offset="1" stop-color="#9e66d8"/></linearGradient><linearGradient id="linear-gradient-10" x1="847.06" y1="378.75" x2="847.06" y2="270.52" gradientTransform="matrix(1, 0, 0, 1, 0, 0)" gradientUnits="userSpaceOnUse"><stop offset="0" stop-color="#6d1c6f"/><stop offset=".34" stop-color="#511e63"/><stop offset=".76" stop-color="#342057"/><stop offset="1" stop-color="#2a2153"/></linearGradient><linearGradient id="linear-gradient-11" x1="806.57" x2="806.57" y2="270.52" xlink:href="#linear-gradient-10"/><linearGradient id="linear-gradient-12" x1="858.34" y1="372.62" x2="858.34" y2="359.01" xlink:href="#linear-gradient-6"/><linearGradient id="linear-gradient-13" x1="864.68" y1="352.22" x2="864.68" y2="316.71" xlink:href="#linear-gradient-6"/><linearGradient id="linear-gradient-14" x1="827.55" y1="352.22" x2="827.55" y2="322.07" xlink:href="#linear-gradient-6"/><linearGradient id="linear-gradient-15" x1="819.94" y1="320.15" x2="819.94" y2="300.78" xlink:href="#linear-gradient-6"/><linearGradient id="linear-gradient-16" x1="623.2" y1="402.75" x2="623.2" y2="358.64" gradientTransform="matrix(1, 0, 0, 1, 0, 0)" gradientUnits="userSpaceOnUse"><stop offset="0" stop-color="#7c217f"/><stop offset=".44" stop-color="#5a216d"/><stop offset="1" stop-color="#2a2153"/></linearGradient><linearGradient id="linear-gradient-17" x1="495.92" y1="374.57" x2="495.92" y2="330.46" gradientTransform="translate(917.29) rotate(-180) scale(1 -1)" xlink:href="#linear-gradient-16"/><linearGradient id="linear-gradient-18" x1="261.01" y1="379.09" x2="261.01" y2="268.33" gradientTransform="translate(518.63) rotate(-180) scale(1 -1)" xlink:href="#linear-gradient-5"/><linearGradient id="linear-gradient-19" x1="270.09" y1="375.03" x2="270.09" y2="353.86" gradientTransform="translate(518.63) rotate(-180) scale(1 -1)" xlink:href="#linear-gradient-6"/><linearGradient id="linear-gradient-20" x1="268.73" y1="352.19" x2="268.73" y2="313.2" gradientTransform="translate(518.63) rotate(-180) scale(1 -1)" xlink:href="#linear-gradient-6"/><linearGradient id="linear-gradient-21" x1="250.25" y1="369.07" x2="250.25" y2="346.5" gradientTransform="translate(518.63) rotate(-180) scale(1 -1)" xlink:href="#linear-gradient-6"/><linearGradient id="linear-gradient-22" x1="480.55" y1="386.18" x2="480.55" y2="277.95" gradientTransform="translate(811.88) rotate(-180) scale(1 -1)" xlink:href="#linear-gradient-10"/><linearGradient id="linear-gradient-23" x1="440.06" y1="386.18" x2="440.06" y2="277.95" gradientTransform="translate(811.88) rotate(-180) scale(1 -1)" xlink:href="#linear-gradient-10"/><linearGradient id="linear-gradient-24" x1="491.83" y1="380.05" x2="491.83" y2="366.44" gradientTransform="translate(811.88) rotate(-180) scale(1 -1)" xlink:href="#linear-gradient-6"/><linearGradient id="linear-gradient-25" x1="498.17" y1="359.64" x2="498.17" y2="324.13" gradientTransform="translate(811.88) rotate(-180) scale(1 -1)" xlink:href="#linear-gradient-6"/><linearGradient id="linear-gradient-26" x1="461.04" y1="359.64" x2="461.04" y2="329.5" gradientTransform="translate(811.88) rotate(-180) scale(1 -1)" xlink:href="#linear-gradient-6"/><linearGradient id="linear-gradient-27" x1="453.43" y1="327.57" x2="453.43" y2="308.21" gradientTransform="translate(811.88) rotate(-180) scale(1 -1)" xlink:href="#linear-gradient-6"/><linearGradient id="linear-gradient-28" x1="668.29" y1="389.32" x2="668.29" y2="234.32" gradientTransform="translate(811.88) rotate(-180) scale(1 -1)" gradientUnits="userSpaceOnUse"><stop offset="0" stop-color="#6d1c6f"/><stop offset=".09" stop-color="#5f1d69"/><stop offset=".28" stop-color="#471e5f"/><stop offset=".49" stop-color="#372058"/><stop offset=".72" stop-color="#2d2054"/><stop offset="1" stop-color="#2a2153"/></linearGradient><linearGradient id="linear-gradient-29" x1="610.29" y1="389.32" x2="610.29" y2="234.32" gradientTransform="translate(811.88) rotate(-180) scale(1 -1)" xlink:href="#linear-gradient-10"/><linearGradient id="linear-gradient-30" x1="684.44" y1="380.53" x2="684.44" y2="361.05" gradientTransform="translate(811.88) rotate(-180) scale(1 -1)" xlink:href="#linear-gradient-6"/><linearGradient id="linear-gradient-31" x1="693.52" y1="351.32" x2="693.52" y2="300.46" gradientTransform="translate(811.88) rotate(-180) scale(1 -1)" xlink:href="#linear-gradient-6"/><linearGradient id="linear-gradient-32" x1="640.34" y1="351.32" x2="640.34" y2="308.15" gradientTransform="translate(811.88) rotate(-180) scale(1 -1)" xlink:href="#linear-gradient-6"/><linearGradient id="linear-gradient-33" x1="629.44" y1="305.39" x2="629.44" y2="277.65" gradientTransform="translate(811.88) rotate(-180) scale(1 -1)" xlink:href="#linear-gradient-6"/><linearGradient id="linear-gradient-34" x1="943.42" y1="407.32" x2="943.42" y2="231.33" gradientTransform="matrix(1, 0, 0, 1, 0, 0)" xlink:href="#linear-gradient-28"/><linearGradient id="linear-gradient-35" x1="957.85" y1="400.87" x2="957.85" y2="367.23" xlink:href="#linear-gradient-6"/><linearGradient id="linear-gradient-36" x1="955.69" y1="364.58" x2="955.69" y2="302.63" xlink:href="#linear-gradient-6"/><linearGradient id="linear-gradient-37" x1="926.33" y1="391.39" x2="926.33" y2="355.53" xlink:href="#linear-gradient-6"/></defs><g class="cls-28"><g id="Layer_1"><g id="z9"><path class="cls-42" d="M116.26,327.3l210.5,23.79,101.92-3.65h234.84l44.22,3.65,36.28-3.65h59.57s128.08-9.94,129.78-8.24c1.7,1.69,40.26-6.02,40.26-6.02l-2.83,108.06-858.37-9.07,3.84-104.86Z"/><path class="cls-2" d="M20.59,339.28l210.5,23.79,101.92-3.65h234.84l44.22,3.65,36.28-3.65h59.57s128.08-9.94,129.78-8.24c1.7,1.69,196.87,12.1,196.87,12.1l-2.83,108.06L16.75,444.14l3.84-104.86Z"/><path class="cls-36" d="M275.59,368.54l205.36-3.68,21.46,3.35,90.38-3.66-37.96,6.05s86.68-2.98,87.82-3.2,21.54,.77,22.68,.28c1.14-.49,26.14-4.73,27.27-4.17,1.13,.56,94.14-1.9,94.14-1.9,0,0,61.97,1.15,63.49,.77,1.52-.38,102.71,6.54,102.71,6.54l-100.44-4.52s-65.97-.54-68.34-.56c-2.37-.03-97.3,4.66-97.3,4.66l-18.4,1.98s-20.92-.7-23.57-.29-25.36,2.53-25.36,2.53l12.43,3.81s4.52,1.18,6.41,1.46,9.82,.38,14.74,.18c4.92-.21,4.93-1.65,12.11-1.24,7.18,.41,21.55-.06,31.75,.39,10.2,.45-24.95,.42-26.48,1.26-1.52,.84-16.66,2.45-16.66,2.45l-14.74-.18s-23.01-7.64-24.87-7.66c-1.87-.02-18.1-1.81-19.24-1.56s-40.1,2.83-42.74,2.07c-2.64-.76-12.25,1.49-16.54,2.78-4.29,1.28-14.9,2.94-14.9,2.94,0,0-2.41,4.28,1.6,4.07,4.02-.22,22.21-4.11,27.5-3.71,5.29,.4,21.91,.73,25.32,.31,3.41-.42,21.93-.73,23.82-.7,1.89,.02,18.51,1.22,18.51,1.22l18.08,5.19s14.77-2.51,20.06-1.96c5.29,.55,35.91-.23,35.91-.23l3.39,.7s-14.4,.65-14.76,1.01c-.36,.36-27.98,1.07-29.11,.66-1.13-.41-13.63,2.2-13.63,2.2l-9.83-.12-9.01-4.68-49.42-1.26-23.51-.29-29.16,4.88-12.53,4.52-8.44,10.04-9.84,4.58,16.8-17.78,13.3-5.8-24.53-3.2,5.14-3.06,17.92,2.08,31.84-7.31-.73-1.87-44.62,1.85-22.33,2.05-9.83-.12,24.32-3.88-15.93-2.28-203.52,5.66,2.01-3.63Z"/><path class="cls-35" d="M505.94,403.78s59.99,.71,77.85-2.09c17.86-2.81,32.6-5.92,32.6-5.92l-22.39,7.44-1.98,.66h22.96s43.09-3.97,43.94-4.05c.85-.08,34.58-1.78,34.58-1.78l2.55,13.04-3.12,11.62-5.39-21.01h-31.18s-40.25,4.56-41.1,4.56-30.61-.28-30.61-.28l-3.12-1.91-49.61,2.19s-26.08,3.34-30.9,2.52c-4.82-.82,4.92-4.99,4.92-4.99Z"/><polygon class="cls-41" points="744.52 377.64 795.62 372.69 799.58 375.17 917.87 375.17 791.08 377.64 788.25 377.64 765.56 381.61 744.52 377.64"/><polygon class="cls-45" points="485.89 390.27 350.76 390.3 294.69 385.85 253.08 374.7 194.67 372.69 250.4 377.15 293.08 387.66 349.63 393.3 464.85 394.24 485.89 390.27"/><g><path class="cls-33" d="M710.13,370.51l-18.53-27.19,.25-8.75-23.62-36.69-3.3-1.3-.5,2.39,8.86,17.58-11.12-22.07-19.12-19.55-4.6,.99,2.6,10.02,3.06,8.22,4.03,10.81,5.06,13.58-1.68,7.94,3.66,9.55-9.01-1.02-3.53,4-3.99-4.22-2-.86-7.86-.89-1.39,4.68,2.77,6.54,2.23,5.25,1.16,2.74,2.05,4.84-4.21,4.02,3.3,7.9,.62,1.48,5.81,10.19,3.27,3.18,35.8-1.45,17.96,1.42-1.07-12.89,13.02-.45Zm-58.53-67.41c.17,.31,.28,.53,.36,.67-.07-.14-.19-.36-.36-.67Zm-15.69,43.99l-1.76-3.05,4.32,7.49-2.56-4.44Z"/><g><g><polygon class="cls-35" points="655.46 348.82 648.17 335.87 644.64 339.8 655.46 348.82"/><polygon class="cls-35" points="668.23 297.88 666.94 298.07 666.44 300.42 675.3 317.71 668.23 297.88"/><path class="cls-34" d="M700.18,383.88l-1.07-12.67,13.02-.45-18.53-26.73,.25-8.61-25.62-37.54,7.07,19.83-11.12-21.71-21.12-21.07v7.52s2.04,5.79,2.97,7.83c.93,2.04,8.02,15,8.02,15l5.66,15.65-1.4,6.83,1.4,7.05s2.27,4.28,2.55,4.99c.28,.71,11.62,17.15,11.62,17.15l-16.7-20.09-9.01-1,7.29,12.95-16.81-14.01-7.86-.87,2.08,5.2,8.7,14.82,9.29,10-13.24-6.37,.59,3.96,1.95,5.92,6.51,8.84-5.1-1.78,3.12,4.21,7.86,5.52,30.28,1.43,17.36-1.81Z"/><g><polygon class="cls-35" points="632.87 339.13 630.79 333.93 629.4 338.54 633.63 340.43 632.87 339.13"/><polygon class="cls-35" points="634.4 350.12 640.54 352.2 637.92 347.73 632.17 344.96 634.4 350.12"/><polygon class="cls-35" points="637.62 357.58 650.86 363.95 642.13 354.56 635.56 352.82 637.62 357.58"/><path class="cls-35" d="M646.02,290.28c-.93-2.04-2.97-7.83-2.97-7.83v-7.52l-2.6,2.82,2.6,9.85,3.06,8.08,4.01,2.38c-1.81-3.35-3.66-6.81-4.1-7.78Z"/><polygon class="cls-35" points="655.19 319.66 659.71 320.93 655.25 308.61 650.14 306.31 655.19 319.66"/><path class="cls-35" d="M662.26,339.8c-.28-.71-2.55-4.99-2.55-4.99l-1.4-7.05-4.8-.29,3.66,9.39,16.7,20.09s-11.34-16.44-11.62-17.15Z"/><polygon class="cls-35" points="639.17 364.47 638.21 361.54 637.62 357.58 633.41 361.53 639.17 364.47"/><polygon class="cls-35" points="637.34 370.76 644.42 383.88 652.54 384.26 644.68 378.74 641.57 374.53 646.67 376.31 642.99 371.31 636.72 369.3 637.34 370.76"/><polygon class="cls-3" points="635.56 352.82 642.13 354.56 641.57 353.95 640.54 352.2 634.4 350.12 635.56 352.82"/><polygon class="cls-3" points="637.92 347.73 633.63 340.43 629.4 338.54 632.17 344.96 637.92 347.73"/><polygon class="cls-3" points="659.71 320.93 655.19 319.66 653.51 327.47 658.31 327.76 659.71 320.93"/><path class="cls-3" d="M655.25,308.61l-1.2-3.33s-1.94-3.54-3.92-7.21l-4.01-2.38,4.03,10.63,5.11,2.3Z"/><polygon class="cls-3" points="636.72 369.3 642.99 371.31 640.16 367.46 639.17 364.47 633.41 361.53 636.72 369.3"/></g></g><polygon class="cls-21" points="675.3 360.46 675.3 371.78 685.79 381.63 685.79 373.09 678.7 370.02 675.3 360.46"/><polygon class="cls-6" points="693.85 335.42 680.65 331.18 675.3 319.8 678.13 330.34 672.75 324.36 659.71 320.93 669.74 325.77 676.78 333.93 680.65 335.72 684.04 341.81 698.65 358.79 689.76 344.31 693.6 344.03 693.85 335.42"/><polygon class="cls-24" points="657.17 353.1 659.71 361.95 654.05 364.65 659.59 364.3 667.36 375.66 662.83 364.38 663.05 360.78 657.17 353.1"/></g></g><path class="cls-38" d="M442.52,348.06l-11.71,10.35-1.75-1.43,.51-5.87,.22-2.48,.48-5.5,.83-9.55-.18-3.48-2.85,.35-13.89,17.6s-7.65,3.35-8.79,4.46c-1.13,1.11-5.17,13.15-5.17,13.15l1.96,5.46,15.47,3.44,17.93-1.93,2.37-.26,3.06-6.83,.95-3.16,1.67-5.53,1.31-4.35v-3.36l-2.44-1.1Z"/><polygon class="cls-36" points="434.01 368.87 437.95 372.38 434.48 376.7 407.08 381.42 377.22 380.57 402.18 371.13 400.22 365.67 409.25 363.1 418.7 370.33 434.01 368.87"/><path class="cls-36" d="M644.42,383.88l.26-5.14,7.86,2.26,.97-14.04,14.68,9.88-1.76-8.96,1.76-5.17,7.1,9.06,10.49,9.85v-8.54s-.72-5.66-.86-6.67c-.14-1.01-5.74-8.71-5.74-8.71l2.31-14.93,2.55-.96,14.61,16.98-3.19-12.08,16.67,24.05,12.42,3.72-30.42,22.8-23.68-1.51-16.94-6.18-9.09-5.7Z"/><g><path class="cls-33" d="M892.58,358.68l-27.52-45.36-4.46,1.48,6.75,12.36-8.52-15.61-19.8-29.35-3.7,.23,2.27,9.84-.4,6.21-.17,2.66,1.92,4.72,.69,1.7,3.23,7.95,2.94,7.24-1.42,2.96-11.33-5.92-25-46.52-4.9-4.1-4.96,.31,2.58,8.34,2.49,8.03,2.8,9.03s-.05,5.28-.08,10.8c-.03,5.59-.03,11.41,.08,12.19,.07,.53,.63,2.44,1.34,4.73,.43,1.39,.91,2.92,1.37,4.37,1,3.14,1.89,5.86,1.89,5.86l3.12,4.67,2.27,12.29-5.05,4.74-2.61,2.45-12.46-24.75-3.22-2.36-1.33,13.83,1.54,5.79,.02,.07,2.55,5.04h-4.11v2.11l8.87,7.84,7.67,12.16,2.26,.42,40.96-2.82,46.35,.07-4.92-15.72Zm-50.55-62.94l-.6-.81,1.91,2.56-1.31-1.75Zm-33.66-6.05l-2.83-7.11-2.38-5.96,9.72,24.39-4.51-11.32Z"/><g><polygon class="cls-35" points="865.53 318.09 865.06 313.32 862.6 315.41 869.35 327.65 865.53 318.09"/><g><path class="cls-31" d="M894.58,358.87l-29.52-45.55,.48,4.77,3.81,9.57-8.52-15.46-21.8-29.99-1.7,1.16,6.1,12.38,1.91,2.54-1.35,2.17s2.13,3.19,1.35,3.92c-.78,.73,3.76,8.95,3.76,8.95l-5.1-4.33,1.35,2.9,5.46,10.51,3.73,9.05,.37,4.52,7.24,18.87-9.92-17.49-6.57-3.45-3.92-4.87s-4.67-3.26-5.46-4.1c-.78-.84-1.21-4.58-1.21-4.58l-27-47.09-3.9-2.75-.14,3.11,1.13,3.97,9.72,24.16-.64,3.2-4.04-6.86,1.77,10.01,5.82,16.25-.15,3.41-3.97,.36,1.56,2.18,5.81,15.9,.57,6,.15,2.62,2.97,6.88-3.12,6.42-11.2-10.96-14.46-24.95-2.55-1.33,3.26,15.33,11.34,14.91,11.76,17.63,33.17-2.9h47.82l-6.16-16.98Z"/><polygon class="cls-30" points="796.65 346.22 793.39 330.89 793.39 344.03 794.95 349.85 797.5 354.84 793.39 354.84 793.39 356.93 802.26 364.7 810.18 377.15 819.75 378.75 807.99 361.13 796.65 346.22"/></g><polygon class="cls-23" points="864.1 359.01 865.08 366.23 862.13 368.14 848.59 361.72 860.82 368.99 866.38 372.62 866.38 368.99 868.08 366.23 864.1 359.01"/><polygon class="cls-19" points="869.35 330.32 868.08 333.9 858.14 330.98 850.23 316.71 856.75 331.45 854.53 331.45 854.9 335.97 860.82 333.9 868.08 336.86 879.14 352.22 870.64 337.35 872.62 335.59 872.34 331.45 873.51 329.45 869.35 330.32"/><polygon class="cls-10" points="819.9 329.45 827.83 330.98 837.47 352.22 832.08 330.98 836.27 324.93 835.32 322.07 831.23 327.06 826.98 328.44 817.78 324.37 817.63 327.78 819.9 329.45"/><polygon class="cls-17" points="816.3 306.74 823.58 320.15 823.58 316.45 816.3 300.78 816.3 306.74"/><g><path class="cls-35" d="M808.06,318.45l9.72,5.92-5.22-14.57-4.58-3.42c-.03,5.54-.03,11.31,.08,12.07Z"/><polygon class="cls-35" points="815.78 337.9 818.05 350.06 821.69 353.87 821.6 352.22 821.03 346.22 817.15 335.59 812.66 333.27 815.78 337.9"/><polygon class="cls-35" points="808.06 295.68 810.18 298.1 814.23 304.96 814.87 301.76 810.36 290.55 805.26 286.73 808.06 295.68"/><path class="cls-35" d="M810.77,327.46l2.89,.68,3.97-.36-8.23-4.64c.43,1.38,.91,2.9,1.37,4.33Z"/><polygon class="cls-35" points="805.16 277.6 804.02 273.63 804.16 270.52 800.19 270.52 802.77 278.78 807.53 283.51 805.16 277.6"/><polygon class="cls-35" points="810.4 357.18 821.6 368.14 824.71 361.72 813 354.76 810.4 357.18"/><path class="cls-35" d="M854.9,335.97l-.37-4.52-8.14-5.23-11.33-5.86s.43,3.73,1.21,4.58c.78,.84,5.46,4.1,5.46,4.1l3.92,4.87,6.57,3.45,9.92,17.49-7.24-18.87Z"/><polygon class="cls-35" points="847.81 323.29 852.25 325.94 850.79 322.4 848.12 317.25 844.87 316.12 847.81 323.29"/><path class="cls-35" d="M841.64,308.25l2.35,.73,5.1,4.33s-1.04-1.88-2.03-3.93l-6.11-2.83,.69,1.69Z"/><polygon class="cls-35" points="843.42 295.74 837.32 283.36 839.59 293.11 844.03 296.54 843.42 295.74"/><path class="cls-35" d="M839.02,301.89l6.27,3.14c-.06-.33-.06-.57,.04-.67,.43-.4-.02-1.55-.52-2.5l-5.63-2.6-.17,2.63Z"/><polygon class="cls-35" points="794.95 349.85 797.5 354.84 793.39 354.84 807.8 363.86 793.39 356.93 802.26 364.7 810.18 377.15 819.75 378.75 807.99 361.13 802 353.26 794.93 349.77 794.95 349.85"/><polygon class="cls-35" points="793.39 330.89 793.39 344.03 796.65 346.22 793.39 330.89"/><polygon class="cls-3" points="821.69 353.87 818.05 350.06 813 354.76 824.71 361.72 821.74 354.84 821.69 353.87"/><path class="cls-3" d="M809.4,323.13l8.23,4.64,.15-3.41-9.72-5.92c.07,.52,.63,2.42,1.34,4.69Z"/><path class="cls-3" d="M812.66,333.27l4.49,2.32-1.92-5.27-1.56-2.18-2.89-.68c1,3.11,1.89,5.81,1.89,5.81Z"/><polygon class="cls-3" points="810.36 290.55 807.53 283.51 802.77 278.78 805.26 286.73 810.36 290.55"/><path class="cls-3" d="M807.98,306.37l4.58,3.42-.6-1.68-1.77-10.01-2.13-2.42s-.05,5.23-.08,10.69Z"/><polygon class="cls-3" points="793.39 354.84 793.39 356.93 807.8 363.86 793.39 354.84"/><polygon class="cls-3" points="802 353.26 796.65 346.22 793.39 344.03 794.93 349.77 802 353.26"/><path class="cls-3" d="M840.94,306.57l6.11,2.83c-.81-1.66-1.58-3.41-1.77-4.36l-6.27-3.14,1.92,4.67Z"/><polygon class="cls-3" points="844.87 316.12 848.12 317.25 845.34 311.89 843.99 308.98 841.64 308.25 844.87 316.12"/><path class="cls-3" d="M844.82,301.86c-.4-.78-.83-1.42-.83-1.42l1.35-2.17-1.31-1.73-4.44-3.43-.4,6.15,5.63,2.6Z"/><polygon class="cls-3" points="852.25 325.94 847.81 323.29 846.39 326.22 854.53 331.45 852.25 325.94"/></g></g></g><g><path class="cls-33" d="M638.18,380.7c-1.13-1.11-8.79-4.46-8.79-4.46l-12.89-17.6-2.85-.35-.18,3.48,.83,9.55,.48,5.5,.22,2.48,.51,5.87-1.76,1.44-.51,.42-11.19-10.78-2.44,1.1v3.36l1.31,4.35,1.67,5.53,.95,3.16,3.06,6.83,19.18,.68,15.59-1.94,1.96-5.46s-4.03-12.04-5.17-13.15Z"/><g><g><path class="cls-35" d="M638.9,389.84l.28-9.14c-1.13-1.11-8.79-4.46-8.79-4.46l5.08,13.41,3.42,.2Z"/><path class="cls-32" d="M642.39,399.31l1.96-5.46s-4.03-12.04-5.17-13.15l-.28,9.14-3.42-.2-5.08-13.41-13.89-17.6-.59,4.01,1.23,1.85,7.28,26.78-1.94,3.85-3.92,.14-4.33-8.25-12.19-10.78,1.5,5.77,3.3,4.76,2.83,7.34-3.82-2.94v2.94l3.12,6.71,17.93,1.93,15.47-3.44Z"/></g><g><polygon class="cls-35" points="615.92 362.65 616.5 358.64 614.24 359.08 614.47 361.76 615.97 362.73 615.92 362.65"/><polygon class="cls-35" points="616.5 385.16 624.42 391.28 622.64 384.71 615.99 379.28 616.5 385.16"/><polygon class="cls-35" points="614.24 387.02 618.56 395.26 622.48 395.13 614.74 386.6 614.24 387.02"/><polygon class="cls-35" points="615.78 376.81 621.95 382.17 620.5 376.85 615.3 371.31 615.78 376.81"/><polygon class="cls-35" points="602.05 376.24 600.61 377.34 600.61 380.7 603.55 382.01 602.05 376.24"/><polygon class="cls-35" points="606.61 400.56 608.98 400.82 605.86 394.11 604.55 393.73 606.61 400.56"/><polygon class="cls-35" points="603.6 390.58 605.86 391.18 609.68 394.11 606.85 386.77 601.92 385.05 603.6 390.58"/><polygon class="cls-3" points="616.5 385.16 614.74 386.6 622.48 395.13 624.42 391.28 616.5 385.16"/><polygon class="cls-3" points="615.99 379.28 622.64 384.71 621.95 382.17 615.78 376.81 615.99 379.28"/><polygon class="cls-3" points="620.5 376.85 617.14 364.5 615.97 362.73 614.47 361.76 615.3 371.31 620.5 376.85"/><polygon class="cls-3" points="606.85 386.77 603.55 382.01 600.61 380.7 601.92 385.05 606.85 386.77"/><polygon class="cls-3" points="604.55 393.73 605.86 394.11 605.86 391.18 603.6 390.58 604.55 393.73"/></g></g></g><g class="cls-1"><g><g><path class="cls-35" d="M405.66,361.66l-.28-9.14c1.13-1.11,8.79-4.46,8.79-4.46l-5.08,13.41-3.42,.2Z"/><path class="cls-4" d="M402.18,371.13l-1.96-5.46s4.03-12.04,5.17-13.15l.28,9.14,3.42-.2,5.08-13.41,13.89-17.6,.59,4.01-1.23,1.85-7.28,26.78,1.94,3.85,3.92,.14,4.33-8.25,12.19-10.78-1.5,5.77-3.3,4.76-2.83,7.34,3.82-2.94v2.94l-3.12,6.71-17.93,1.93-15.47-3.44Z"/></g><g><polygon class="cls-35" points="428.65 334.47 428.06 330.46 430.33 330.9 430.1 333.59 428.59 334.55 428.65 334.47"/><polygon class="cls-35" points="428.06 356.98 420.14 363.1 421.93 356.54 428.57 351.11 428.06 356.98"/><polygon class="cls-35" points="430.33 358.84 426 367.09 422.09 366.95 429.82 358.42 430.33 358.84"/><polygon class="cls-35" points="428.79 348.63 422.62 353.99 424.06 348.67 429.27 343.13 428.79 348.63"/><polygon class="cls-35" points="442.52 348.06 443.95 349.17 443.95 352.52 441.02 353.83 442.52 348.06"/><polygon class="cls-35" points="437.95 372.38 435.58 372.64 438.7 365.93 440.02 365.56 437.95 372.38"/><polygon class="cls-35" points="440.97 362.4 438.7 363 434.88 365.93 437.72 358.59 442.64 356.87 440.97 362.4"/><polygon class="cls-3" points="428.06 356.98 429.82 358.42 422.09 366.95 420.14 363.1 428.06 356.98"/><polygon class="cls-3" points="428.57 351.11 421.93 356.54 422.62 353.99 428.79 348.63 428.57 351.11"/><polygon class="cls-3" points="424.06 348.67 427.42 336.32 428.59 334.55 430.1 333.59 429.27 343.13 424.06 348.67"/><polygon class="cls-3" points="437.72 358.59 441.02 353.83 443.95 352.52 442.64 356.87 437.72 358.59"/><polygon class="cls-3" points="440.02 365.56 438.7 365.93 438.7 363 440.97 362.4 440.02 365.56"/></g></g></g><g><path class="cls-33" d="M231.97,364.36l-1.07,12.89,17.96-1.42,35.8,1.45,2-.03,7.09-13.34,.62-1.48,3.3-7.9-4.21-4.02,2.05-4.84,1.16-2.74,2.23-5.25,2.77-6.54-1.39-4.68-7.86,.89-2,.86-3.99,4.22-3.53-4-9.01,1.02,3.66-9.55-1.68-7.94,5.06-13.58,4.03-10.81,3.06-8.22,2.6-10.02-4.6-.99-19.12,19.55-11.12,22.07,8.86-17.58-.5-2.39-3.3,1.3-23.62,36.69,.25,8.75-18.53,27.19,13.02,.45Zm45.15-67.2c.07-.14,.19-.36,.36-.67-.16,.31-.28,.53-.36,.67Zm13.48,47.76l4.32-7.49-1.76,3.05-2.56,4.44Z"/><g><g><polygon class="cls-35" points="273.62 342.22 280.91 329.27 284.44 333.2 273.62 342.22"/><polygon class="cls-35" points="260.84 291.28 262.14 291.47 262.64 293.82 253.78 311.11 260.84 291.28"/><path class="cls-26" d="M228.9,377.28l1.07-12.67-13.02-.45,18.53-26.73-.25-8.61,25.62-37.54-7.07,19.83,11.12-21.7,21.12-21.07v7.52s-2.04,5.79-2.97,7.83c-.93,2.04-8.02,15-8.02,15l-5.66,15.65,1.4,6.83-1.4,7.05s-2.27,4.28-2.55,4.99c-.28,.71-11.62,17.15-11.62,17.15l16.7-20.09,9.01-1-7.29,12.95,16.81-14.01,7.86-.87-2.08,5.2-8.7,14.82-9.29,10,13.24-6.37-.59,3.96-1.95,5.93-6.51,8.84,5.1-1.78-3.12,4.21-7.86,5.52-30.28,1.43-17.36-1.81Z"/><g><polygon class="cls-35" points="296.21 332.53 298.29 327.34 299.68 331.94 295.45 333.83 296.21 332.53"/><polygon class="cls-35" points="294.68 343.53 288.54 345.6 291.16 341.13 296.9 338.37 294.68 343.53"/><polygon class="cls-35" points="291.46 350.98 278.22 357.35 286.95 347.96 293.51 346.22 291.46 350.98"/><path class="cls-35" d="M283.05,283.69c.93-2.04,2.97-7.83,2.97-7.83v-7.52l2.6,2.82-2.6,9.85-3.06,8.08-4.01,2.38c1.81-3.35,3.66-6.81,4.1-7.78Z"/><polygon class="cls-35" points="273.88 313.07 269.37 314.33 273.83 302.01 278.94 299.72 273.88 313.07"/><path class="cls-35" d="M266.82,333.2c.28-.71,2.55-4.99,2.55-4.99l1.4-7.05,4.8-.29-3.66,9.39-16.7,20.09s11.34-16.44,11.62-17.15Z"/><polygon class="cls-35" points="289.9 357.87 290.87 354.94 291.46 350.98 295.67 354.93 289.9 357.87"/><polygon class="cls-35" points="291.74 364.16 284.66 377.28 276.54 377.66 284.39 372.14 287.51 367.93 282.41 369.71 286.08 364.71 292.36 362.7 291.74 364.16"/><polygon class="cls-3" points="293.51 346.22 286.95 347.96 287.51 347.35 288.54 345.6 294.68 343.53 293.51 346.22"/><polygon class="cls-3" points="291.16 341.13 295.45 333.83 299.68 331.94 296.9 338.37 291.16 341.13"/><polygon class="cls-3" points="269.37 314.33 273.88 313.07 275.56 320.88 270.76 321.16 269.37 314.33"/><path class="cls-3" d="M273.83,302.01l1.2-3.33s1.94-3.54,3.92-7.21l4.01-2.38-4.03,10.63-5.11,2.3Z"/><polygon class="cls-3" points="292.36 362.7 286.08 364.71 288.91 360.87 289.9 357.87 295.67 354.93 292.36 362.7"/></g></g><polygon class="cls-5" points="253.78 353.86 253.78 365.18 243.29 375.03 243.29 366.5 250.38 363.42 253.78 353.86"/><polygon class="cls-12" points="235.23 328.82 248.42 324.58 253.78 313.2 250.94 323.74 256.33 317.76 269.37 314.33 259.34 319.18 252.3 327.34 248.42 329.12 245.04 335.22 230.43 352.19 239.32 337.71 235.47 337.43 235.23 328.82"/><polygon class="cls-8" points="271.91 346.5 269.37 355.35 275.03 358.05 269.49 357.7 261.72 369.07 266.25 357.78 266.02 354.18 271.91 346.5"/></g></g><g><path class="cls-33" d="M280.9,381.83l46.35-.07,40.96,2.82,2.26-.42,7.67-12.16,8.87-7.84v-2.11h-4.11l2.55-5.04,.02-.07,1.54-5.79-1.33-13.83-3.22,2.36-12.46,24.75-2.61-2.45-5.05-4.74,2.27-12.29,3.12-4.67s.89-2.73,1.89-5.86c.46-1.45,.94-2.98,1.37-4.37,.71-2.29,1.27-4.2,1.34-4.73,.11-.78,.11-6.6,.08-12.19-.03-5.51-.08-10.8-.08-10.8l2.8-9.03,2.49-8.03,2.58-8.34-4.96-.31-4.9,4.1-25,46.52-11.33,5.92-1.42-2.96,2.94-7.24,3.23-7.95,.69-1.7,1.92-4.72-.17-2.66-.4-6.21,2.27-9.84-3.7-.23-19.8,29.34-8.52,15.61,6.75-12.36-4.46-1.48-27.52,45.36-4.92,15.72Zm54.16-76.91l1.91-2.56-.6,.81-1.31,1.75Zm30.47,3.52l9.72-24.39-2.38,5.96-2.83,7.11-4.51,11.32Z"/><g><polygon class="cls-35" points="312.86 325.51 313.33 320.75 315.79 322.84 309.04 335.08 312.86 325.51"/><g><path class="cls-39" d="M283.81,366.3l29.52-45.55-.48,4.77-3.81,9.57,8.52-15.46,21.8-29.99,1.7,1.16-6.1,12.38-1.91,2.54,1.35,2.17s-2.13,3.19-1.35,3.92-3.76,8.95-3.76,8.95l5.1-4.33-1.35,2.9-5.46,10.51-3.73,9.05-.37,4.52-7.24,18.87,9.92-17.49,6.57-3.45,3.92-4.87s4.67-3.26,5.46-4.1c.78-.84,1.21-4.58,1.21-4.58l27-47.09,3.9-2.75,.14,3.11-1.13,3.97-9.72,24.16,.64,3.2,4.04-6.86-1.77,10.01-5.82,16.25,.15,3.41,3.97,.36-1.56,2.18-5.81,15.9-.57,6-.15,2.62-2.97,6.88,3.12,6.42,11.2-10.96,14.46-24.95,2.55-1.33-3.26,15.32-11.34,14.91-11.76,17.63-33.17-2.9h-47.82l6.16-16.98Z"/><polygon class="cls-44" points="381.74 353.65 385 338.32 385 351.46 383.44 357.27 380.89 362.27 385 362.27 385 364.36 376.13 372.13 368.2 384.57 358.64 386.18 370.4 368.55 381.74 353.65"/></g><polygon class="cls-9" points="314.29 366.44 313.3 373.66 316.26 375.56 329.79 369.14 317.57 376.41 312.01 380.05 312.01 376.41 310.3 373.66 314.29 366.44"/><polygon class="cls-22" points="309.04 337.74 310.3 341.33 320.25 338.41 328.16 324.13 321.64 338.88 323.86 338.88 323.49 343.4 317.57 341.33 310.3 344.29 299.25 359.64 307.75 344.78 305.77 343.02 306.05 338.88 304.88 336.88 309.04 337.74"/><polygon class="cls-20" points="358.49 336.88 350.56 338.41 340.92 359.64 346.3 338.41 342.12 332.36 343.07 329.5 347.15 334.49 351.41 335.87 360.61 331.79 360.76 335.2 358.49 336.88"/><polygon class="cls-11" points="362.09 314.16 354.81 327.57 354.81 323.87 362.09 308.21 362.09 314.16"/><g><path class="cls-35" d="M370.33,325.87l-9.72,5.92,5.22-14.57,4.58-3.42c.03,5.54,.03,11.31-.08,12.07Z"/><polygon class="cls-35" points="362.61 345.32 360.34 357.49 356.7 361.3 356.79 359.64 357.36 353.65 361.24 343.02 365.73 340.69 362.61 345.32"/><polygon class="cls-35" points="370.33 303.11 368.2 305.53 364.16 312.39 363.52 309.19 368.03 297.98 373.13 294.16 370.33 303.11"/><path class="cls-35" d="M367.62,334.89l-2.89,.68-3.97-.36,8.23-4.64c-.43,1.38-.91,2.9-1.37,4.33Z"/><polygon class="cls-35" points="373.23 285.03 374.37 281.06 374.23 277.95 378.2 277.95 375.61 286.21 370.86 290.93 373.23 285.03"/><polygon class="cls-35" points="367.99 364.61 356.79 375.56 353.67 369.14 365.39 362.18 367.99 364.61"/><path class="cls-35" d="M323.49,343.4l.37-4.52,8.14-5.23,11.33-5.86s-.43,3.73-1.21,4.58c-.78,.84-5.46,4.1-5.46,4.1l-3.92,4.87-6.57,3.45-9.92,17.49,7.24-18.87Z"/><polygon class="cls-35" points="330.58 330.72 326.14 333.37 327.6 329.83 330.27 324.68 333.52 323.55 330.58 330.72"/><path class="cls-35" d="M336.75,315.68l-2.35,.73-5.1,4.33s1.04-1.88,2.03-3.93l6.11-2.83-.69,1.69Z"/><polygon class="cls-35" points="334.97 303.16 341.06 290.79 338.8 300.54 334.36 303.97 334.97 303.16"/><path class="cls-35" d="M339.36,309.32l-6.27,3.14c.06-.33,.06-.57-.05-.67-.43-.4,.02-1.55,.52-2.5l5.63-2.6,.17,2.63Z"/><polygon class="cls-35" points="383.44 357.27 380.89 362.27 385 362.27 370.59 371.29 385 364.36 376.13 372.13 368.2 384.57 358.64 386.18 370.4 368.55 376.39 360.68 383.46 357.2 383.44 357.27"/><polygon class="cls-35" points="385 338.32 385 351.46 381.74 353.65 385 338.32"/><polygon class="cls-3" points="356.7 361.3 360.34 357.49 365.39 362.18 353.67 369.14 356.64 362.27 356.7 361.3"/><path class="cls-3" d="M368.99,330.56l-8.23,4.64-.15-3.41,9.72-5.92c-.07,.52-.63,2.42-1.34,4.69Z"/><path class="cls-3" d="M365.73,340.69l-4.49,2.32,1.92-5.27,1.56-2.18,2.89-.68c-1,3.11-1.89,5.81-1.89,5.81Z"/><polygon class="cls-3" points="368.03 297.98 370.86 290.93 375.61 286.21 373.13 294.16 368.03 297.98"/><path class="cls-3" d="M370.41,313.8l-4.58,3.42,.6-1.68,1.77-10.01,2.13-2.42s.05,5.23,.08,10.69Z"/><polygon class="cls-3" points="385 362.27 385 364.36 370.59 371.29 385 362.27"/><polygon class="cls-3" points="376.39 360.68 381.74 353.65 385 351.46 383.46 357.2 376.39 360.68"/><path class="cls-3" d="M337.45,313.99l-6.11,2.83c.81-1.65,1.58-3.41,1.77-4.36l6.27-3.14-1.92,4.67Z"/><polygon class="cls-3" points="333.52 323.55 330.27 324.68 333.05 319.32 334.4 316.41 336.75 315.68 333.52 323.55"/><path class="cls-3" d="M333.57,309.29c.4-.78,.83-1.42,.83-1.42l-1.35-2.17,1.31-1.74,4.44-3.43,.4,6.15-5.63,2.6Z"/><polygon class="cls-3" points="326.14 333.37 330.58 330.72 332 333.65 323.86 338.88 326.14 333.37"/></g></g></g><g><path class="cls-33" d="M71.36,383.09l66.37-.1,58.66,4.03,3.23-.61,10.98-17.42,12.7-11.23v-3.03h-5.89l3.65-7.22,.03-.11,2.21-8.3-1.91-19.81-4.61,3.38-17.84,35.44-3.73-3.51-7.23-6.79,3.25-17.59,4.47-6.7s1.28-3.9,2.71-8.39c.66-2.07,1.35-4.26,1.97-6.26,1.01-3.28,1.82-6.02,1.92-6.78,.15-1.11,.15-9.45,.11-17.46-.04-7.89-.11-15.46-.11-15.46l4.01-12.94,3.56-11.49,3.7-11.95-7.11-.44-7.02,5.87-35.8,66.63-16.23,8.48-2.03-4.24,4.21-10.36,4.63-11.38,.99-2.44,2.75-6.76-.24-3.81-.57-8.89,3.25-14.09-5.3-.33-28.35,42.03-12.21,22.35,9.67-17.71-6.39-2.12-39.41,64.96-7.04,22.52Zm77.56-110.14l2.74-3.67-.87,1.16-1.87,2.51Zm43.63,5.04l13.91-34.93-3.4,8.54-4.06,10.18-6.45,16.21Z"/><g><polygon class="cls-35" points="117.14 302.44 117.82 295.61 121.34 298.6 111.68 316.14 117.14 302.44"/><g><path class="cls-27" d="M75.54,360.85l42.28-65.24-.68,6.83-5.46,13.7,12.21-22.14,31.22-42.95,2.44,1.65-8.73,17.72-2.74,3.63,1.93,3.1s-3.05,4.56-1.93,5.62c1.12,1.05-5.38,12.82-5.38,12.82l7.31-6.2-1.93,4.16-7.81,15.06-5.35,12.96-.53,6.47-10.36,27.02,14.21-25.04,9.4-4.94,5.62-6.97s6.7-4.67,7.81-5.88c1.12-1.21,1.73-6.55,1.73-6.55l38.67-67.44,5.58-3.93,.2,4.46-1.62,5.68-13.91,34.6,.92,4.58,5.79-9.82-2.54,14.34-8.33,23.28,.21,4.88,5.68,.52-2.24,3.12-8.31,22.78-.81,8.59-.21,3.75-4.25,9.85,4.47,9.19,16.04-15.69,20.7-35.74,3.65-1.91-4.67,21.95-16.24,21.35-16.84,25.24-47.5-4.16H66.72l8.82-24.32Z"/><polygon class="cls-43" points="215.78 342.73 220.46 320.78 220.46 339.6 218.22 347.92 214.57 355.07 220.46 355.07 220.46 358.07 207.76 369.19 196.4 387.02 182.7 389.32 199.55 364.08 215.78 342.73"/></g><polygon class="cls-13" points="119.19 361.05 117.78 371.38 122.01 374.11 141.39 364.92 123.88 375.33 115.92 380.53 115.92 375.33 113.48 371.38 119.19 361.05"/><polygon class="cls-16" points="111.68 319.95 113.48 325.08 127.72 320.9 139.06 300.46 129.72 321.58 132.9 321.58 132.37 328.05 123.88 325.08 113.48 329.32 97.65 351.32 109.83 330.03 106.99 327.5 107.39 321.58 105.72 318.71 111.68 319.95"/><polygon class="cls-25" points="182.49 318.71 171.13 320.9 157.33 351.32 165.04 320.9 159.05 312.24 160.4 308.15 166.26 315.29 172.35 317.26 185.53 311.43 185.74 316.31 182.49 318.71"/><polygon class="cls-15" points="187.65 286.18 177.22 305.39 177.22 300.09 187.65 277.65 187.65 286.18"/><g><path class="cls-29" d="M199.45,302.95l-13.92,8.48,7.47-20.87,6.56-4.9c.04,7.93,.04,16.19-.11,17.29Z"/><polygon class="cls-29" points="188.39 330.81 185.14 348.23 179.92 353.69 180.06 351.32 180.87 342.73 186.43 327.5 192.85 324.17 188.39 330.81"/><polygon class="cls-29" points="199.45 270.35 196.4 273.82 190.61 283.64 189.69 279.05 196.15 263 203.46 257.54 199.45 270.35"/><path class="cls-29" d="M195.56,315.86l-4.14,.97-5.68-.52,11.79-6.65c-.62,1.98-1.31,4.15-1.97,6.2Z"/><polygon class="cls-29" points="203.6 244.45 205.23 238.77 205.03 234.32 210.72 234.32 207.01 246.15 200.2 252.92 203.6 244.45"/><polygon class="cls-29" points="196.1 358.42 180.06 374.11 175.59 364.92 192.37 354.95 196.1 358.42"/><path class="cls-29" d="M132.37,328.05l.53-6.47,11.65-7.49,16.23-8.4s-.62,5.35-1.73,6.55c-1.12,1.21-7.81,5.88-7.81,5.88l-5.62,6.97-9.4,4.94-14.21,25.04,10.36-27.02Z"/><polygon class="cls-35" points="142.51 309.89 136.15 313.69 138.25 308.62 142.07 301.24 146.73 299.62 142.51 309.89"/><path class="cls-29" d="M151.36,288.35l-3.37,1.05-7.31,6.2s1.49-2.7,2.91-5.62l8.76-4.05-.99,2.41Z"/><polygon class="cls-29" points="148.8 270.43 157.53 252.71 154.29 266.66 147.93 271.58 148.8 270.43"/><path class="cls-29" d="M155.1,279.25l-8.97,4.49c.09-.47,.09-.82-.06-.96-.61-.58,.03-2.22,.74-3.58l8.06-3.73,.24,3.77Z"/><polygon class="cls-29" points="218.22 347.92 214.57 355.07 220.46 355.07 199.82 367.99 220.46 358.07 207.76 369.19 196.4 387.02 182.7 389.32 199.55 364.08 208.12 352.8 218.25 347.82 218.22 347.92"/><polygon class="cls-29" points="220.46 320.78 220.46 339.6 215.78 342.73 220.46 320.78"/><polygon class="cls-40" points="179.92 353.69 185.14 348.23 192.37 354.95 175.59 364.92 179.85 355.07 179.92 353.69"/><path class="cls-40" d="M197.53,309.66l-11.79,6.65-.21-4.88,13.92-8.48c-.1,.75-.91,3.46-1.92,6.71Z"/><path class="cls-40" d="M192.85,324.17l-6.42,3.33,2.76-7.55,2.24-3.12,4.14-.97c-1.43,4.45-2.71,8.31-2.71,8.31Z"/><polygon class="cls-40" points="196.15 263 200.2 252.92 207.01 246.15 203.46 257.54 196.15 263"/><path class="cls-40" d="M199.56,285.66l-6.56,4.9,.86-2.41,2.54-14.34,3.05-3.47s.08,7.5,.11,15.31Z"/><polygon class="cls-40" points="220.46 355.07 220.46 358.07 199.82 367.99 220.46 355.07"/><polygon class="cls-40" points="208.12 352.8 215.78 342.73 220.46 339.6 218.25 347.82 208.12 352.8"/><path class="cls-40" d="M152.35,285.94l-8.76,4.05c1.16-2.37,2.27-4.88,2.53-6.24l8.97-4.49-2.75,6.69Z"/><polygon class="cls-40" points="146.73 299.62 142.07 301.24 146.06 293.56 147.99 289.4 151.36 288.35 146.73 299.62"/><path class="cls-40" d="M146.8,279.2c.58-1.11,1.19-2.03,1.19-2.03l-1.93-3.1,1.87-2.48,6.35-4.91,.57,8.81-8.06,3.73Z"/><polygon class="cls-3" points="136.15 313.69 142.51 309.89 144.55 314.08 132.9 321.58 136.15 313.69"/></g></g></g><g><path class="cls-33" d="M1004.86,383.19l-29.44-43.2,.39-13.91-37.52-58.29-5.24-2.06-.79,3.81,14.08,27.93-17.68-35.07-30.38-31.07-7.3,1.58,4.13,15.92,4.86,13.06,6.4,17.17,8.03,21.57-2.67,12.62,5.82,15.18-14.31-1.62-5.61,6.36-6.34-6.7-3.18-1.37-12.49-1.41-2.21,7.44,4.41,10.39,3.54,8.34,1.85,4.36,3.26,7.69-6.69,6.38,5.25,12.55,.99,2.36,11.26,21.2,3.18,.05,56.88-2.3,28.53,2.25-1.71-20.48,20.69-.72Zm-92.99-107.11c.26,.49,.45,.84,.57,1.06-.12-.22-.31-.57-.57-1.06Zm-24.92,69.9l-2.8-4.85,6.87,11.9-4.07-7.05Z"/><g><g><polygon class="cls-29" points="917.99 348.74 906.42 328.16 900.81 334.41 917.99 348.74"/><polygon class="cls-29" points="938.29 267.8 936.24 268.1 935.45 271.84 949.52 299.3 938.29 267.8"/><path class="cls-37" d="M989.06,404.44l-1.71-20.13,20.69-.71-29.44-42.48,.39-13.68-40.7-59.64,11.23,31.51-17.68-34.49-33.56-33.48v11.95s3.24,9.2,4.72,12.45c1.48,3.24,12.75,23.83,12.75,23.83l9,24.87-2.22,10.85,2.22,11.2s3.6,6.8,4.05,7.93c.45,1.13,18.47,27.26,18.47,27.26l-26.54-31.92-14.31-1.59,11.58,20.58-26.71-22.26-12.49-1.39,3.3,8.25,13.82,23.54,14.76,15.89-21.04-10.12,.94,6.29,3.11,9.41,10.34,14.05-8.11-2.82,4.95,6.69,12.48,8.77,48.11,2.27,27.58-2.88Z"/><g><polygon class="cls-29" points="882.1 333.34 878.8 325.08 876.59 332.4 883.32 335.4 882.1 333.34"/><polygon class="cls-29" points="884.54 350.81 894.29 354.1 890.13 347 881 342.61 884.54 350.81"/><polygon class="cls-29" points="889.65 362.66 910.69 372.77 896.82 357.85 886.39 355.09 889.65 362.66"/><path class="cls-29" d="M903.01,255.73c-1.48-3.24-4.72-12.45-4.72-12.45v-11.95l-4.13,4.49,4.13,15.65,4.86,12.84,6.37,3.79c-2.88-5.32-5.81-10.82-6.52-12.37Z"/><polygon class="cls-29" points="917.58 302.41 924.75 304.43 917.67 284.85 909.54 281.2 917.58 302.41"/><path class="cls-29" d="M928.8,334.41c-.45-1.13-4.05-7.93-4.05-7.93l-2.22-11.2-7.62-.45,5.82,14.93,26.54,31.92s-18.02-26.12-18.47-27.26Z"/><polygon class="cls-29" points="892.13 373.6 890.59 368.95 889.65 362.66 882.97 368.93 892.13 373.6"/><polygon class="cls-35" points="889.2 383.6 900.46 404.44 913.36 405.05 900.88 396.28 895.93 389.59 904.03 392.41 898.19 384.47 888.22 381.28 889.2 383.6"/><polygon class="cls-40" points="886.39 355.09 896.82 357.85 895.93 356.88 894.29 354.1 884.54 350.81 886.39 355.09"/><polygon class="cls-40" points="890.13 347 883.32 335.4 876.59 332.4 881 342.61 890.13 347"/><polygon class="cls-40" points="924.75 304.43 917.58 302.41 914.91 314.82 922.53 315.27 924.75 304.43"/><path class="cls-40" d="M917.67,284.85l-1.91-5.29s-3.08-5.63-6.23-11.46l-6.37-3.79,6.4,16.89,8.12,3.65Z"/><polygon class="cls-3" points="888.22 381.28 898.19 384.47 893.7 378.36 892.13 373.6 882.97 368.93 888.22 381.28"/></g></g><polygon class="cls-14" points="949.52 367.23 949.52 385.22 966.19 400.87 966.19 387.3 954.93 382.42 949.52 367.23"/><polygon class="cls-7" points="979 327.44 958.03 320.71 949.52 302.63 954.03 319.37 945.47 309.87 924.75 304.43 940.68 312.12 951.87 325.08 958.03 327.91 963.4 337.6 986.62 364.58 972.49 341.57 978.61 341.12 979 327.44"/><polygon class="cls-18" points="920.71 355.53 924.75 369.6 915.75 373.88 924.56 373.33 936.91 391.39 929.7 373.46 930.07 367.74 920.71 355.53"/></g></g><polygon class="cls-36" points="608.98 400.82 610.8 396.54 620.5 399.75 623.2 397.28 631.77 386.77 634.79 389.58 639.71 395.26 642.22 387.77 644.35 393.85 689.47 409.23 659.71 413.83 624.42 410.62 606.61 400.56 608.98 400.82"/></g></g></g></svg>