<?xml version="1.0" encoding="UTF-8"?><svg xmlns="http://www.w3.org/2000/svg" xmlns:xlink="http://www.w3.org/1999/xlink" viewBox="0 0 1230.41 520.27"><defs><style>.cls-1{fill:url(#linear-gradient-2);}.cls-2{fill:url(#linear-gradient-29);}.cls-2,.cls-3,.cls-4,.cls-5,.cls-6,.cls-7,.cls-8,.cls-9,.cls-10,.cls-11,.cls-12,.cls-13,.cls-14,.cls-15,.cls-16,.cls-17,.cls-18,.cls-19,.cls-20,.cls-21,.cls-22,.cls-23,.cls-24,.cls-25,.cls-26,.cls-27,.cls-28,.cls-29,.cls-30,.cls-31,.cls-32,.cls-33{mix-blend-mode:multiply;opacity:.46;}.cls-34{fill:#942b99;}.cls-3{fill:url(#linear-gradient-38);}.cls-4{fill:url(#linear-gradient-39);}.cls-5{fill:url(#linear-gradient-50);}.cls-6{fill:url(#linear-gradient-17);}.cls-7{fill:url(#linear-gradient-49);}.cls-35{fill:url(#linear-gradient-40);}.cls-36{fill:url(#linear-gradient-52);}.cls-37{fill:url(#linear-gradient-28);}.cls-38{fill:url(#linear-gradient-14);}.cls-39{fill:url(#linear-gradient-20);}.cls-40{fill:url(#linear-gradient-53);}.cls-41{isolation:isolate;}.cls-8{fill:url(#linear-gradient-36);}.cls-42{opacity:.31;}.cls-42,.cls-43{fill:#7c217f;}.cls-9{fill:url(#linear-gradient-16);}.cls-10{fill:url(#linear-gradient-9);}.cls-11{fill:url(#linear-gradient-11);}.cls-44{fill:url(#linear-gradient-35);}.cls-45{fill:url(#linear-gradient-48);}.cls-12{fill:url(#linear-gradient-23);}.cls-46{fill:#cd8eef;}.cls-13{fill:url(#linear-gradient-5);}.cls-14{fill:url(#linear-gradient-4);}.cls-15{fill:url(#linear-gradient-24);}.cls-47{opacity:.15;}.cls-16{fill:url(#linear-gradient-10);}.cls-17{fill:url(#linear-gradient-18);}.cls-18{fill:url(#linear-gradient-30);}.cls-48{fill:url(#linear-gradient-41);}.cls-49{fill:#c683ed;}.cls-19{fill:url(#linear-gradient-46);}.cls-50{fill:#ee80b1;}.cls-51{fill:url(#linear-gradient-21);}.cls-52{fill:#b874e8;}.cls-53{fill:#c07fea;}.cls-54{fill:url(#linear-gradient-34);}.cls-20{fill:url(#linear-gradient-45);}.cls-21{fill:url(#linear-gradient-54);}.cls-22{fill:url(#linear-gradient-31);}.cls-55{fill:url(#linear-gradient-7);}.cls-23{fill:url(#linear-gradient-15);}.cls-24{fill:url(#linear-gradient-37);}.cls-25{fill:url(#linear-gradient-51);}.cls-26{fill:url(#linear-gradient-44);}.cls-56{opacity:.42;}.cls-27{fill:url(#linear-gradient-22);}.cls-57{fill:url(#linear-gradient-42);}.cls-58{fill:url(#linear-gradient-3);}.cls-28{fill:url(#linear-gradient-6);}.cls-59{fill:url(#linear-gradient);}.cls-29{fill:url(#linear-gradient-55);}.cls-60{fill:url(#linear-gradient-27);}.cls-61{fill:url(#linear-gradient-33);}.cls-30{fill:url(#linear-gradient-25);}.cls-62{fill:url(#linear-gradient-19);}.cls-31{fill:url(#linear-gradient-32);}.cls-63{fill:url(#linear-gradient-8);}.cls-64{fill:url(#linear-gradient-57);}.cls-65{fill:url(#linear-gradient-47);}.cls-32{fill:url(#linear-gradient-43);}.cls-33{fill:url(#linear-gradient-56);}.cls-66{fill:url(#linear-gradient-12);}.cls-67{fill:url(#linear-gradient-13);}.cls-68{fill:url(#linear-gradient-26);}</style><linearGradient id="linear-gradient" x1="126.4" y1="305.48" x2="414.43" y2="305.48" gradientTransform="matrix(1, 0, 0, 1, 0, 0)" gradientUnits="userSpaceOnUse"><stop offset="0" stop-color="#7c1f7f"/><stop offset=".53" stop-color="#ac76dd"/></linearGradient><linearGradient id="linear-gradient-2" x1="626.24" y1="351.22" x2="626.24" y2="323.19" gradientTransform="matrix(1, 0, 0, 1, 0, 0)" gradientUnits="userSpaceOnUse"><stop offset=".35" stop-color="#9e66d8"/><stop offset=".57" stop-color="#9e66d8"/><stop offset=".61" stop-color="#9e66d8"/></linearGradient><linearGradient id="linear-gradient-3" x1="626.67" y1="351.22" x2="626.67" y2="323.19" gradientTransform="matrix(1, 0, 0, 1, 0, 0)" gradientUnits="userSpaceOnUse"><stop offset="0" stop-color="#7c217f"/><stop offset=".27" stop-color="#692175"/><stop offset=".83" stop-color="#3a215b"/><stop offset="1" stop-color="#2a2153"/></linearGradient><linearGradient id="linear-gradient-4" x1="628.97" y1="350.19" x2="628.97" y2="344.83" gradientTransform="matrix(1, 0, 0, 1, 0, 0)" gradientUnits="userSpaceOnUse"><stop offset="0" stop-color="#fff"/><stop offset=".13" stop-color="#dedce4"/><stop offset=".45" stop-color="#918da6"/><stop offset=".71" stop-color="#595279"/><stop offset=".9" stop-color="#372e5d"/><stop offset="1" stop-color="#2a2153"/></linearGradient><linearGradient id="linear-gradient-5" x1="628.62" y1="344.41" x2="628.62" y2="334.55" xlink:href="#linear-gradient-4"/><linearGradient id="linear-gradient-6" x1="623.95" y1="348.68" x2="623.95" y2="342.97" xlink:href="#linear-gradient-4"/><linearGradient id="linear-gradient-7" x1="407.77" y1="352.95" x2="407.77" y2="325.41" gradientTransform="translate(806.9) rotate(-180) scale(1 -1)" xlink:href="#linear-gradient-2"/><linearGradient id="linear-gradient-8" x1="408.19" y1="352.95" x2="408.19" y2="325.41" gradientTransform="translate(806.9) rotate(-180) scale(1 -1)" xlink:href="#linear-gradient-3"/><linearGradient id="linear-gradient-9" x1="410.45" y1="351.94" x2="410.45" y2="346.68" gradientTransform="translate(806.9) rotate(-180) scale(1 -1)" xlink:href="#linear-gradient-4"/><linearGradient id="linear-gradient-10" x1="410.11" y1="346.26" x2="410.11" y2="336.57" gradientTransform="translate(806.9) rotate(-180) scale(1 -1)" xlink:href="#linear-gradient-4"/><linearGradient id="linear-gradient-11" x1="405.51" y1="350.46" x2="405.51" y2="344.85" gradientTransform="translate(806.9) rotate(-180) scale(1 -1)" xlink:href="#linear-gradient-4"/><linearGradient id="linear-gradient-12" x1="442.08" y1="339.06" x2="461.34" y2="339.06" xlink:href="#linear-gradient-2"/><linearGradient id="linear-gradient-13" x1="360.34" y1="348.71" x2="360.34" y2="329.65" gradientTransform="translate(811.88) rotate(-180) scale(1 -1)" gradientUnits="userSpaceOnUse"><stop offset="0" stop-color="#6d1c6f"/><stop offset=".34" stop-color="#511e63"/><stop offset=".76" stop-color="#342057"/><stop offset="1" stop-color="#2a2153"/></linearGradient><linearGradient id="linear-gradient-14" x1="353.21" x2="353.21" y2="329.65" xlink:href="#linear-gradient-13"/><linearGradient id="linear-gradient-15" x1="362.32" y1="347.63" x2="362.32" y2="345.23" gradientTransform="translate(811.88) rotate(-180) scale(1 -1)" xlink:href="#linear-gradient-4"/><linearGradient id="linear-gradient-16" x1="363.44" y1="344.04" x2="363.44" y2="337.78" gradientTransform="translate(811.88) rotate(-180) scale(1 -1)" xlink:href="#linear-gradient-4"/><linearGradient id="linear-gradient-17" x1="356.9" y1="344.04" x2="356.9" y2="338.73" gradientTransform="translate(811.88) rotate(-180) scale(1 -1)" xlink:href="#linear-gradient-4"/><linearGradient id="linear-gradient-18" x1="355.56" y1="338.39" x2="355.56" y2="334.98" gradientTransform="translate(811.88) rotate(-180) scale(1 -1)" xlink:href="#linear-gradient-4"/><linearGradient id="linear-gradient-19" x1="488.61" y1="341.33" x2="504.59" y2="341.33" xlink:href="#linear-gradient-2"/><linearGradient id="linear-gradient-20" x1="315.42" y1="349.34" x2="315.42" y2="333.52" xlink:href="#linear-gradient-13"/><linearGradient id="linear-gradient-21" x1="309.5" y1="349.34" x2="309.5" y2="333.52" xlink:href="#linear-gradient-13"/><linearGradient id="linear-gradient-22" x1="317.07" y1="348.44" x2="317.07" y2="346.45" gradientTransform="translate(811.88) rotate(-180) scale(1 -1)" xlink:href="#linear-gradient-4"/><linearGradient id="linear-gradient-23" x1="318" y1="345.46" x2="318" y2="340.27" gradientTransform="translate(811.88) rotate(-180) scale(1 -1)" xlink:href="#linear-gradient-4"/><linearGradient id="linear-gradient-24" x1="312.57" y1="345.46" x2="312.57" y2="341.05" gradientTransform="translate(811.88) rotate(-180) scale(1 -1)" xlink:href="#linear-gradient-4"/><linearGradient id="linear-gradient-25" x1="311.46" y1="340.77" x2="311.46" y2="337.94" gradientTransform="translate(811.88) rotate(-180) scale(1 -1)" xlink:href="#linear-gradient-4"/><linearGradient id="linear-gradient-26" x1="496.32" y1="343.59" x2="507.42" y2="343.59" gradientTransform="translate(1056.22) rotate(-180) scale(1 -1)" xlink:href="#linear-gradient-2"/><linearGradient id="linear-gradient-27" x1="310.11" y1="349.15" x2="310.11" y2="338.17" gradientTransform="translate(244.34)" xlink:href="#linear-gradient-13"/><linearGradient id="linear-gradient-28" x1="306" y1="349.15" x2="306" y2="338.17" gradientTransform="translate(244.34)" xlink:href="#linear-gradient-13"/><linearGradient id="linear-gradient-29" x1="311.25" y1="348.53" x2="311.25" y2="347.15" gradientTransform="translate(244.34)" xlink:href="#linear-gradient-4"/><linearGradient id="linear-gradient-30" x1="311.89" y1="346.46" x2="311.89" y2="342.85" gradientTransform="translate(244.34)" xlink:href="#linear-gradient-4"/><linearGradient id="linear-gradient-31" x1="308.13" y1="346.46" x2="308.13" y2="343.4" gradientTransform="translate(244.34)" xlink:href="#linear-gradient-4"/><linearGradient id="linear-gradient-32" x1="307.35" y1="343.2" x2="307.35" y2="341.24" gradientTransform="translate(244.34)" xlink:href="#linear-gradient-4"/><linearGradient id="linear-gradient-33" x1="455.74" y1="335.41" x2="488.5" y2="335.41" xlink:href="#linear-gradient-2"/><linearGradient id="linear-gradient-34" x1="340.06" y1="351.82" x2="340.06" y2="319.4" xlink:href="#linear-gradient-13"/><linearGradient id="linear-gradient-35" x1="327.93" y1="351.82" x2="327.93" y2="319.4" xlink:href="#linear-gradient-13"/><linearGradient id="linear-gradient-36" x1="343.44" y1="349.99" x2="343.44" y2="345.91" gradientTransform="translate(811.88) rotate(-180) scale(1 -1)" xlink:href="#linear-gradient-4"/><linearGradient id="linear-gradient-37" x1="345.34" y1="343.87" x2="345.34" y2="333.23" gradientTransform="translate(811.88) rotate(-180) scale(1 -1)" xlink:href="#linear-gradient-4"/><linearGradient id="linear-gradient-38" x1="334.21" y1="343.87" x2="334.21" y2="334.84" gradientTransform="translate(811.88) rotate(-180) scale(1 -1)" xlink:href="#linear-gradient-4"/><linearGradient id="linear-gradient-39" x1="331.93" y1="334.27" x2="331.93" y2="328.46" gradientTransform="translate(811.88) rotate(-180) scale(1 -1)" xlink:href="#linear-gradient-4"/><linearGradient id="linear-gradient-40" x1="585.83" y1="338.75" x2="605.51" y2="338.75" gradientTransform="translate(1201.22) rotate(-180) scale(1 -1)" xlink:href="#linear-gradient-2"/><linearGradient id="linear-gradient-41" x1="216.39" y1="348.61" x2="216.39" y2="329.13" gradientTransform="translate(389.34)" xlink:href="#linear-gradient-13"/><linearGradient id="linear-gradient-42" x1="209.1" y1="348.61" x2="209.1" y2="329.13" gradientTransform="translate(389.34)" xlink:href="#linear-gradient-13"/><linearGradient id="linear-gradient-43" x1="218.42" y1="347.51" x2="218.42" y2="345.06" gradientTransform="translate(389.34)" xlink:href="#linear-gradient-4"/><linearGradient id="linear-gradient-44" x1="219.56" y1="343.84" x2="219.56" y2="337.45" gradientTransform="translate(389.34)" xlink:href="#linear-gradient-4"/><linearGradient id="linear-gradient-45" x1="212.88" y1="343.84" x2="212.88" y2="338.41" gradientTransform="translate(389.34)" xlink:href="#linear-gradient-4"/><linearGradient id="linear-gradient-46" x1="211.51" y1="338.06" x2="211.51" y2="334.58" gradientTransform="translate(389.34)" xlink:href="#linear-gradient-4"/><linearGradient id="linear-gradient-47" x1="575.12" y1="352.8" x2="575.12" y2="318.42" xlink:href="#linear-gradient-2"/><linearGradient id="linear-gradient-48" x1="575.65" y1="352.8" x2="575.65" y2="318.42" xlink:href="#linear-gradient-3"/><linearGradient id="linear-gradient-49" x1="578.47" y1="351.54" x2="578.47" y2="344.97" xlink:href="#linear-gradient-4"/><linearGradient id="linear-gradient-50" x1="578.04" y1="344.45" x2="578.04" y2="332.35" xlink:href="#linear-gradient-4"/><linearGradient id="linear-gradient-51" x1="572.31" y1="349.69" x2="572.31" y2="342.68" xlink:href="#linear-gradient-4"/><linearGradient id="linear-gradient-52" x1="549.22" y1="351.88" x2="549.22" y2="333.34" gradientTransform="translate(1057.05) rotate(-180) scale(1 -1)" xlink:href="#linear-gradient-2"/><linearGradient id="linear-gradient-53" x1="549.5" y1="351.88" x2="549.5" y2="333.34" gradientTransform="translate(1057.05) rotate(-180) scale(1 -1)" xlink:href="#linear-gradient-3"/><linearGradient id="linear-gradient-54" x1="551.02" y1="351.2" x2="551.02" y2="347.65" gradientTransform="translate(1057.05) rotate(-180) scale(1 -1)" xlink:href="#linear-gradient-4"/><linearGradient id="linear-gradient-55" x1="550.79" y1="347.37" x2="550.79" y2="340.85" gradientTransform="translate(1057.05) rotate(-180) scale(1 -1)" xlink:href="#linear-gradient-4"/><linearGradient id="linear-gradient-56" x1="547.7" y1="350.2" x2="547.7" y2="346.42" gradientTransform="translate(1057.05) rotate(-180) scale(1 -1)" xlink:href="#linear-gradient-4"/><linearGradient id="linear-gradient-57" x1="681.48" y1="299.77" x2="1064.24" y2="299.77" gradientTransform="matrix(1, 0, 0, 1, 0, 0)" gradientUnits="userSpaceOnUse"><stop offset="0" stop-color="#9e66d8"/><stop offset=".2" stop-color="#9c62d3"/><stop offset=".42" stop-color="#9758c6"/><stop offset=".64" stop-color="#8f46b0"/><stop offset=".88" stop-color="#832e92"/><stop offset="1" stop-color="#7c1f7f"/></linearGradient></defs><g class="cls-41"><g id="Layer_1"><g id="z1"><g><path class="cls-50" d="M287.47,283.47s-.1-.06-.13-.08c.03,.02,.09,.06,.13,.08Z"/><path class="cls-49" d="M292.19,287.38l-.06-.05c2.19,1.95,4.27,3.86,4.27,3.86l-7.18-2.6,2.03,3.45s7.01,3.45,9.31,4.99c2.3,1.53,3.33-.26,3.33-.26,0,0,3.58,2.05,4.35,2.56,.1,.07,.35,.22,.67,.43l5.71-.69,.92,.67-21.94-16.04,3.99,2.92-5.41,.76Z"/><path class="cls-50" d="M287.13,283.31s-.13-.02-.23-.07c.1,.04,.18,.07,.23,.07Z"/><path class="cls-50" d="M288.51,284.23c-.09-.07-.18-.14-.26-.21,.08,.06,.17,.14,.26,.21Z"/><path class="cls-50" d="M310.03,307.09h0Z"/><path class="cls-50" d="M287.93,283.79c-.07-.05-.15-.11-.21-.15,.06,.04,.14,.1,.21,.15Z"/><path class="cls-50" d="M310.42,307.11h0Z"/><path class="cls-50" d="M286.81,283.2c-.09-.05-.19-.1-.31-.18,.12,.07,.22,.13,.31,.18Z"/><path class="cls-49" d="M280.61,278.66c.51,.14,2.9,2.15,4.65,3.48l5.53-.5-11.75-8.59s.8,5.39,1.57,5.6Z"/><path class="cls-50" d="M286.42,282.97c-.32-.21-.72-.49-1.15-.82,.44,.33,.83,.62,1.15,.82Z"/><path class="cls-50" d="M311.88,307.13s.07,0,.11,0c-.03,0-.07,0-.11,0Z"/><path class="cls-49" d="M324.87,311.08c-2.03-.22-9.8-4.23-11.45-4.06l-3.29,.74-.04-.03c.66,.45,1.48,1.04,2.09,1.58,1.18,1.04,12.7,10.08,13.98,10.16,1.28,.09,8.7,2.13,8.7,2.13l-3.07-4.35,10.23,4.61,8.19,7.68,6.14,4.91-12.54-1.59s2.26,3.29,3.07,4.33c.81,1.04,18.93,10.25,18.93,10.25l16.21-4.09-32.08-23.28s-3.58-1.79-6.14-2.05c-2.56-.26-6.91-3.9-6.91-3.9l-10.62-6.52-3.62-2.64-4.03,.9c2.85,1.95,7.71,5.39,6.24,5.23Z"/><path class="cls-50" d="M312.43,307.11s.07,0,.1,0c-.03,0-.07,0-.1,0Z"/><path class="cls-50" d="M312.27,301.84l-.36-.22,.36,.22Z"/><path class="cls-49" d="M309.67,307.07c-.4-.03-.66-.05-.66-.05,0,0,.1,.06,.24,.16l-.04-.03,.46-.08Z"/><path class="cls-50" d="M311.55,301.39l-.31-.19c.1,.06,.2,.13,.31,.19Z"/><path class="cls-50" d="M311.53,307.13s-.09,0-.13,0c.04,0,.08,0,.13,0Z"/><path class="cls-50" d="M290.74,286.11c-.1-.09-.21-.18-.31-.27,.1,.09,.21,.18,.31,.27Z"/><path class="cls-50" d="M291.56,286.83c-.1-.09-.19-.17-.29-.26,.1,.08,.19,.17,.29,.26Z"/><path class="cls-50" d="M289.95,285.43c-.11-.09-.22-.19-.33-.28,.11,.09,.22,.19,.33,.28Z"/><path class="cls-50" d="M309.35,300.04l-.23-.14c.08,.05,.14,.09,.23,.14Z"/><path class="cls-50" d="M309.9,300.38l-.16-.1,.16,.1Z"/><path class="cls-50" d="M310.91,301.01c-.24-.15-.48-.29-.7-.43,.22,.14,.46,.28,.7,.43Z"/><path class="cls-50" d="M289.2,284.8c-.1-.08-.21-.17-.31-.25,.1,.08,.2,.17,.31,.25Z"/><path class="cls-50" d="M309.63,307.43c-.06-.04-.1-.06-.15-.1,.05,.03,.09,.06,.15,.1Z"/><path class="cls-50" d="M312.86,307.08s.08,0,.12-.01c-.04,0-.08,0-.12,.01Z"/><path class="cls-50" d="M227.31,293.07c-.28-.35-.56-.71-.84-1.06,.28,.36,.56,.71,.84,1.06Z"/><path class="cls-50" d="M226.28,291.76c-.21-.27-.41-.54-.62-.8,.2,.27,.41,.53,.62,.8Z"/><path class="cls-50" d="M228.14,294.11c-.23-.28-.46-.58-.7-.87,.24,.3,.47,.59,.7,.87Z"/><path class="cls-50" d="M228.95,295.11c-.18-.22-.37-.45-.56-.69,.19,.24,.38,.46,.56,.69Z"/><path class="cls-50" d="M225.39,290.6c-.18-.23-.35-.46-.51-.69,.17,.23,.34,.46,.51,.69Z"/><polygon class="cls-49" points="245.3 328.77 255.65 325.44 247.4 313.51 234.27 315.61 245.3 328.77"/><path class="cls-49" d="M205.32,268.9l3.15,4.2,4.56,4.5,4.91,4.09s3.12,2,5.02,5.35c.12,.21,.25,.43,.41,.67l8.79-.79-11.89-11.56-19.68-24.75,7.89,18.29h-3.15Z"/><path class="cls-50" d="M229.75,296.07c-.18-.22-.37-.45-.57-.69,.2,.24,.38,.47,.57,.69Z"/><path class="cls-50" d="M223.93,288.59c-.21-.31-.41-.6-.58-.88,.17,.27,.37,.57,.58,.88Z"/><path class="cls-50" d="M224.62,289.56c-.17-.23-.33-.46-.48-.68,.15,.22,.31,.44,.48,.68Z"/><path class="cls-50" d="M255.03,285.26c-.08-.07-.17-.15-.26-.23,.09,.08,.18,.16,.26,.23Z"/><path class="cls-50" d="M255.36,285.54c-.06-.05-.14-.12-.21-.18,.07,.06,.15,.13,.21,.18Z"/><path class="cls-49" d="M264.49,291.2s6.98,8.25,7.33,9.48c.12,.42,.83,1.79,1.71,3.39l14.08-1.71-7.51-6.09s-2.46-3.07-3.15-4.22c-.16-.27-.96-1.11-2.08-2.22l-10.3,1.46-.07-.09Z"/><path class="cls-50" d="M274.14,305.17c-.18-.32-.35-.63-.52-.94,.17,.31,.34,.62,.52,.94Z"/><path class="cls-49" d="M234.37,273.1l4.03,2.97s9.51,1.36,9.87,2.6c.28,.94,4.38,4.55,6.34,6.24l13.82-1.24c1.07,1,2.23,2.11,3.36,3.19-3.43-3.28-7.3-6.88-7.3-6.88l-29.43-18.24,3.59,7.94-4.28,3.43Z"/><path class="cls-50" d="M270.65,306.34l.05,.03-.05-.03Z"/><path class="cls-50" d="M269.66,314.48c-.12-.06-.23-.12-.32-.17,.09,.05,.2,.11,.32,.17Z"/><path class="cls-50" d="M270.73,315.04c-.37-.19-.69-.37-.97-.51,.27,.14,.6,.32,.97,.51Z"/><path class="cls-50" d="M269.27,314.27l-.18-.1,.18,.1Z"/><path class="cls-50" d="M271.36,315.38c-.2-.1-.39-.21-.58-.3,.19,.1,.38,.2,.58,.3Z"/><path class="cls-50" d="M272.06,315.74c-.21-.11-.42-.22-.62-.32,.2,.11,.41,.21,.62,.32Z"/><path class="cls-50" d="M274.87,306.49c-.21-.38-.43-.76-.64-1.14,.21,.38,.42,.76,.64,1.14Z"/><path class="cls-50" d="M269.05,314.15l-.06-.03,.06,.03Z"/><path class="cls-50" d="M263.19,309.41c-.76-.99-1.75-2.3-2.8-3.7,1.06,1.4,2.04,2.71,2.8,3.7Z"/><path class="cls-50" d="M268.84,305.16l.08,.06-.08-.06Z"/><path class="cls-49" d="M277.49,311.08l-5.67-4.06,2.96,2.12-10.5,1.68c-.25-.32-.62-.8-1.08-1.4,.61,.8,1.07,1.39,1.29,1.66,1.28,1.57,4.5,3.04,4.5,3.04,0,0-.05-.02-.13-.06l28.49-4.88-4.27-2.96-16.84,2.69c.73,1.27,1.25,2.18,1.25,2.18Z"/><path class="cls-50" d="M276.19,308.81c-.16-.28-.33-.58-.51-.89,.18,.31,.35,.61,.51,.89Z"/><path class="cls-50" d="M275.51,307.62c-.16-.28-.32-.57-.49-.86,.16,.29,.33,.58,.49,.86Z"/><path class="cls-50" d="M271.79,286.85c1.12,1.07,2.19,2.11,3.07,2.98-.88-.87-1.95-1.91-3.07-2.98Z"/><path class="cls-49" d="M272.77,316.11c-.22-.11-.44-.23-.66-.34,.46,.24,.94,.49,1.38,.72,2,1.02,6.7,6.4,10.36,8.95,3.66,2.56,10.32,7.68,10.32,7.68l-10.32-15.09,7.4,1.45s3.64,3.95,5.84,5.97c2.2,2.02,15.84,8.19,17.2,8.95s2.98-7.16,2.98-7.16l-5.1-7.76-13.85-9.62,.59,.41-26.15,5.85Z"/><path class="cls-49" d="M268.23,304.71c-.82-.62-1.63-1.3-2.2-1.98-1.79-2.12-6.33-8.51-7.9-8.77-1.57-.26-7.73-.51-7.73-.51l3.29,3.33s3.6,4.81,6.67,8.88l7.87-.96h0Z"/><path class="cls-49" d="M354.04,317c1.02,0-3.33-4.35-3.33-4.35l7.16,1.47,9.98,7.23,8.19,6.4,5.98,4.86-7.05-2.17h-3.28s11.77,7.03,13.3,8.05c1.54,1.02,5.12,2.17,6.14,2.49s-3.07-4.1-3.07-4.1l-1.29-3.51s3.17,1.52,5.81,3.32,12.88,11.42,14.67,12.24c1.79,.82,5.63,4.14,5.63,4.14,0,0,.9,2,1.33,3.67l.41-7.8-39.65-34.44-26.24-3.42-19.28-6.6,16.15,9.63s7.42,2.88,8.44,2.88Z"/><path class="cls-59" d="M412.88,353.07s-3.84-3.33-5.63-4.14c-1.79-.82-12.02-10.44-14.67-12.24s-5.81-3.32-5.81-3.32l1.29,3.51s4.09,4.42,3.07,4.1-4.61-1.47-6.14-2.49c-1.54-1.02-13.3-8.05-13.3-8.05h3.28l7.05,2.17-5.98-4.86-8.19-6.4-9.98-7.23-7.16-1.47s4.35,4.35,3.33,4.35-8.44-2.88-8.44-2.88l-16.15-9.63-3.17,3.11,10.62,6.52s4.35,3.65,6.91,3.9c2.56,.26,6.14,2.05,6.14,2.05l32.08,23.28-16.21,4.09s-18.12-9.22-18.93-10.25c-.81-1.04-3.07-4.33-3.07-4.33l12.54,1.59-6.14-4.91-8.19-7.68-10.23-4.61,3.07,4.35s-7.42-2.05-8.7-2.13c-1.28-.09-12.79-9.12-13.98-10.16-.61-.54-1.44-1.13-2.09-1.58-.16-.11-.31-.21-.45-.3-.05-.04-.1-.07-.15-.1-.08-.06-.17-.11-.23-.15-.14-.09-.24-.16-.24-.16,0,0,.26,.02,.66,.05,.11,0,.23,.01,.36,.02h.07c.1,0,.22,.01,.33,.02h.1c.14,0,.28,.01,.43,.02,.17,0,.31,0,.44,0,.04,0,.09,0,.13,0,.12,0,.24,0,.36,0,.04,0,.07,0,.11,0,.15,0,.29,0,.44-.02,.03,0,.07,0,.1,0,.11,0,.22-.01,.33-.02,.04,0,.08,0,.12-.01,.13-.01,.26-.03,.38-.05,.02,0,.04,0,.06,0,1.65-.16,9.43,3.84,11.45,4.06,1.47,.16-3.38-3.28-6.24-5.23-.13-.09-.25-.17-.37-.26-.58-.39-1.04-.7-1.31-.88l-.14-.09-.11-.08-.09-.06c-.12-.07-.36-.22-.68-.42l-.11-.07c-.18-.11-.38-.24-.61-.37-.37-.23-.79-.48-1.24-.76-.54-.33-1.12-.69-1.7-1.04l-.36-.22c-.12-.07-.24-.15-.36-.22-.1-.06-.21-.13-.31-.19l-.32-.2c-.24-.15-.48-.29-.7-.43-.11-.07-.21-.13-.32-.19l-.16-.1c-.13-.08-.27-.16-.39-.24-.08-.05-.15-.09-.23-.14-.07-.04-.15-.09-.21-.13-.33-.2-.57-.36-.67-.43-.77-.51-4.35-2.56-4.35-2.56,0,0-1.02,1.79-3.33,.26-2.3-1.54-9.31-4.99-9.31-4.99l-2.03-3.45,7.18,2.6s-2.08-1.92-4.27-3.86c-.19-.17-.38-.34-.57-.5-.1-.09-.19-.17-.29-.26-.18-.16-.36-.31-.53-.46-.1-.09-.21-.18-.31-.27-.16-.14-.32-.27-.48-.41-.11-.09-.22-.19-.33-.28-.15-.13-.29-.24-.43-.36-.1-.08-.21-.17-.31-.25-.14-.11-.26-.21-.38-.31-.09-.07-.18-.14-.26-.21-.12-.09-.22-.16-.32-.24-.07-.05-.15-.11-.21-.15-.1-.07-.17-.12-.25-.16-.04-.03-.1-.06-.13-.08-.1-.06-.18-.08-.22-.08-.05,0-.13-.02-.23-.07-.03-.01-.06-.03-.09-.04-.09-.05-.19-.11-.31-.18-.03-.02-.05-.03-.08-.05-.32-.21-.71-.49-1.15-.82-1.76-1.33-4.15-3.34-4.66-3.48-.77-.22-1.57-5.6-1.57-5.6l-5.55,4.61-9,2.3s3.87,3.59,7.3,6.88c1.12,1.08,2.2,2.11,3.07,2.98,1.12,1.11,1.92,1.95,2.09,2.22,.69,1.15,3.15,4.22,3.15,4.22l7.51,6.09,.47,.38,5.01,3.48,4.27,2.96,.97,.67,13.85,9.62,5.1,7.76s-1.62,7.93-2.98,7.16-15.01-6.93-17.2-8.95c-2.2-2.02-5.84-5.97-5.84-5.97l-7.4-1.45,10.32,15.09s-6.65-5.12-10.32-7.68c-3.66-2.56-8.36-7.93-10.36-8.95-.45-.23-.92-.47-1.38-.72l-.05-.03c-.21-.11-.42-.22-.62-.32l-.07-.04c-.2-.1-.39-.21-.58-.3l-.06-.03c-.36-.19-.69-.37-.97-.51l-.1-.05c-.12-.07-.23-.12-.32-.17l-.07-.04-.18-.1-.1-.05s-3.22-1.47-4.5-3.04c-.22-.27-.68-.86-1.29-1.66-.77-1.01-1.76-2.32-2.82-3.72-3.1-4.11-6.7-8.92-6.7-8.92l-3.29-3.33s6.16,.26,7.73,.51c1.57,.26,6.11,6.65,7.9,8.77,.57,.68,1.38,1.36,2.2,1.98,.2,.15,.41,.3,.62,.44l.08,.06c.63,.44,1.23,.82,1.73,1.12l.05,.03c.32,.2,.6,.35,.79,.47,.12,.07,.18,.1,.23,.13l.1,.05,5.67,4.06s-.52-.9-1.25-2.18l-.05-.09c-.16-.28-.33-.58-.51-.89-.06-.1-.11-.2-.17-.3-.16-.28-.32-.57-.49-.86-.05-.09-.1-.18-.16-.28-.21-.38-.43-.76-.64-1.14l-.1-.17c-.18-.32-.35-.63-.52-.94-.03-.06-.06-.12-.09-.17-.88-1.6-1.59-2.97-1.71-3.39-.35-1.22-7.33-9.48-7.33-9.48l-8.84-5.42s-.11-.09-.29-.25c-.06-.05-.14-.12-.21-.18l-.12-.1c-.08-.07-.17-.15-.26-.23-.05-.05-.1-.08-.16-.13-1.97-1.69-6.07-5.3-6.34-6.24-.36-1.24-9.87-2.6-9.87-2.6l-4.03-2.97,4.28-3.43-3.59-7.94-3.42,5.89-5.41,5.43-5.98,2.3,11.89,11.56,4.4,4.28v6.61l9.18,13.28,1.68,2.43,8.24,11.92-10.35,3.33-11.04-13.15-3.8-4.53-.99-1.66-7.28-12.15-1.94-3.24,4.33,1.21,7.05,7.49v-4.42l-.05-.06-.05-.06-.1-.11c-.05-.06-.11-.13-.18-.21-.05-.06-.11-.13-.17-.2-.05-.06-.1-.12-.16-.19-.07-.09-.15-.18-.24-.28-.09-.11-.18-.21-.28-.33-.09-.11-.18-.22-.28-.34-.07-.08-.14-.17-.21-.25l-.07-.08s-.07-.08-.1-.12c-.18-.22-.37-.45-.57-.69-.08-.09-.15-.18-.23-.28-.18-.22-.37-.45-.56-.69-.08-.1-.17-.2-.25-.31-.23-.29-.46-.58-.7-.87-.04-.06-.09-.11-.13-.16-.28-.35-.56-.71-.84-1.06-.07-.08-.13-.17-.19-.25-.21-.27-.41-.54-.62-.8-.09-.12-.18-.24-.27-.35-.18-.23-.35-.46-.51-.69-.09-.12-.17-.24-.26-.36-.17-.23-.33-.46-.48-.68-.07-.1-.14-.2-.2-.29-.21-.31-.41-.6-.58-.88-.15-.24-.29-.47-.41-.67-1.89-3.35-5.02-5.35-5.02-5.35l-4.91-4.09-4.56-4.5-3.15-4.2h3.15l-7.89-18.29-14.18,13.76-10.94,8.69s-.47,.76-1.31,2.13c.14,.8-8.31,6.2-8.27,6.46,.26,1.54-39.47,47.12-39.47,47.12l100.51,26.35s126.09,4.61,130.19,5.12c4.09,.51,55.77-.77,56.98-1.28,.47-.2,.39-1.14,.12-2.21-.43-1.68-1.33-3.67-1.33-3.67Z"/><path class="cls-49" d="M313.97,302.88c.45,.28,.87,.53,1.24,.76,.22,.14,.43,.26,.61,.37l.11,.07c.32,.2,.56,.34,.68,.42l.09,.06,.11,.08,.14,.09c.27,.18,.73,.49,1.31,.88l4.28-.73-3.77-2.75-4.81,.77Z"/><path class="cls-49" d="M229.84,296.19l.07,.08c.07,.09,.14,.17,.21,.25,.1,.12,.19,.23,.28,.34,.1,.12,.19,.23,.28,.33,.08,.1,.16,.19,.24,.28,.06,.07,.11,.13,.16,.19,.06,.07,.12,.14,.17,.2,.07,.08,.13,.15,.18,.21l.1,.11,.05,.06,.05,.06v4.42l-7.05-7.49,1.4,1.49-3.79,.54,7.28,12.15,13.94-1.69,2.32,3.36-9.18-13.28v-2.56l-6.7,.95Z"/><path class="cls-46" d="M285.26,282.14c.44,.33,.84,.62,1.16,.83,.03,.02,.05,.03,.08,.05,.12,.07,.22,.13,.31,.18,.03,.02,.06,.03,.09,.04,.1,.04,.18,.07,.23,.07,.04,0,.12,.02,.22,.08,.03,.02,.09,.06,.13,.08,.08,.05,.15,.09,.25,.16,.06,.04,.14,.1,.21,.15,.1,.08,.2,.15,.32,.24,.08,.06,.17,.14,.26,.21,.13,.1,.25,.2,.38,.31,.1,.08,.2,.17,.31,.25,.14,.12,.28,.23,.43,.36,.11,.09,.22,.19,.33,.28,.16,.13,.31,.27,.48,.41,.1,.09,.21,.18,.31,.27,.18,.15,.35,.31,.53,.46,.1,.08,.19,.17,.29,.26,.19,.17,.38,.33,.57,.5l.06,.05,5.41-.76-3.99-2.92-2.82-2.06-5.53,.5h0Z"/><polygon class="cls-46" points="225.98 296.74 224.58 295.25 220.25 294.04 222.19 297.27 225.98 296.74"/><path class="cls-46" d="M223.35,287.71c.17,.27,.37,.57,.58,.88,.07,.09,.14,.19,.2,.29,.15,.22,.31,.44,.48,.68,.09,.12,.17,.24,.26,.36,.17,.23,.34,.46,.51,.69,.09,.12,.18,.24,.27,.35,.2,.27,.41,.53,.62,.8,.06,.08,.13,.17,.19,.25,.28,.36,.56,.71,.84,1.06,.04,.06,.09,.11,.13,.16,.24,.3,.47,.59,.7,.87,.09,.11,.17,.21,.25,.31,.19,.23,.38,.47,.56,.69,.08,.09,.15,.19,.23,.28,.2,.24,.39,.47,.57,.69,.03,.04,.07,.08,.1,.12l6.7-.95v-4.05l-4.4-4.28-8.79,.79h0Z"/><path class="cls-46" d="M254.61,284.9c.06,.05,.1,.09,.16,.13,.09,.08,.19,.16,.26,.23l.12,.1c.07,.06,.15,.13,.21,.18,.18,.16,.29,.25,.29,.25l8.84,5.42,.07,.09,10.3-1.46c-.88-.88-1.95-1.91-3.07-2.99-1.13-1.08-2.29-2.18-3.36-3.19l-13.82,1.24Z"/><path class="cls-46" d="M308.91,299.77c.06,.04,.14,.09,.21,.13l.23,.14c.12,.07,.25,.16,.39,.24l.16,.1c.1,.06,.21,.13,.32,.19,.22,.14,.46,.28,.7,.43l.32,.2,.31,.19c.12,.07,.24,.15,.36,.22l.36,.22c.58,.35,1.16,.71,1.7,1.04l4.81-.77-3.23-2.36-.92-.67-5.71,.69Z"/><path class="cls-46" d="M313.42,307.02s-.04,0-.06,0c-.12,.02-.25,.04-.38,.05-.04,0-.08,0-.12,.01-.11,0-.22,.02-.33,.02-.03,0-.07,0-.1,0-.14,0-.29,.01-.44,.02-.04,0-.07,0-.11,0-.12,0-.24,0-.36,0-.04,0-.09,0-.13,0-.14,0-.27,0-.41,0-.18,0-.33,0-.46-.01h-.1c-.11,0-.22-.01-.33-.02h-.07c-.13-.01-.25-.02-.36-.02l-.46,.08,.04,.03c.06,.04,.15,.1,.23,.15,.05,.03,.09,.06,.15,.1,.13,.09,.29,.19,.45,.3l.04,.03,3.29-.74Z"/><path class="cls-46" d="M318.26,305.6c.12,.08,.25,.17,.37,.26l4.03-.9-.12-.09-4.28,.73Z"/><polygon class="cls-46" points="229.47 309.42 230.46 311.08 234.27 315.61 247.4 313.51 245.72 311.08 243.4 307.73 229.47 309.42"/><path class="cls-46" d="M273.52,304.07c.03,.06,.06,.11,.09,.17,.17,.31,.34,.62,.52,.94l.1,.17c.21,.38,.43,.76,.64,1.14,.05,.09,.1,.18,.16,.28,.16,.29,.33,.58,.49,.86,.06,.1,.11,.2,.17,.3,.18,.31,.35,.61,.51,.89l.05,.09,16.84-2.69-5.01-3.48-.47-.38-14.08,1.71h0Z"/><path class="cls-46" d="M274.78,309.14l-2.96-2.12-.06-.03c-.08-.05-.15-.08-.22-.13-.23-.13-.51-.29-.83-.49l-.05-.03c-.49-.3-1.1-.69-1.73-1.12l-.08-.06c-.2-.14-.41-.29-.62-.44l-7.87,.95c1.08,1.44,2.07,2.75,2.83,3.74,.47,.61,.84,1.1,1.09,1.41l10.5-1.68Z"/><path class="cls-46" d="M268.99,314.12l.06,.03,.23,.12,.07,.04c.09,.05,.2,.11,.32,.17l.1,.05c.27,.14,.6,.32,.97,.51l.06,.03c.18,.1,.38,.2,.58,.3l.07,.04c.2,.11,.41,.21,.62,.32l.05,.03c.22,.11,.44,.23,.66,.34l26.15-5.85-.59-.41-.97-.67-28.49,4.88c.08,.04,.13,.06,.13,.06Z"/></g><g><polygon class="cls-1" points="636.96 347.44 632.27 340.68 632.34 338.5 625.85 329 625.02 328.67 624.99 328.83 624.83 328.52 619.48 323.19 618.32 323.44 618.98 325.98 619.75 328.06 620.77 330.79 622.05 334.23 621.62 336.24 622.55 338.66 620.27 338.4 619.49 339.28 618.37 338.34 617.86 338.12 615.87 337.9 615.52 339.08 616.22 340.74 616.79 342.07 617.08 342.76 617.6 343.99 616.54 345 617.37 347 617.53 347.38 619 349.95 619.83 350.76 621.88 350.86 629.55 351.22 633.94 350.76 633.67 347.55 636.96 347.44"/><g class="cls-56"><path class="cls-50" d="M621.65,330.32l.09,.17-.09-.17Zm-3.97,11.13l-.45-.77,1.09,1.9-.65-1.12Z"/><g><g><polygon class="cls-43" points="622.62 341.89 620.78 338.61 619.88 339.61 622.62 341.89"/><polygon class="cls-43" points="625.85 329 625.53 329.05 625.4 329.64 627.64 334.02 625.85 329"/><path class="cls-58" d="M633.94,350.76l-.27-3.21,3.3-.11-4.69-6.76,.06-2.18-6.48-9.5,1.79,5.02-2.81-5.49-5.34-5.33v1.9s.52,1.47,.75,1.98c.24,.52,2.03,3.79,2.03,3.79l1.43,3.96-.35,1.73,.35,1.78s.57,1.08,.65,1.26c.07,.18,2.94,4.34,2.94,4.34l-4.23-5.08-2.28-.25,1.84,3.28-4.25-3.55-1.99-.22,.53,1.31,2.2,3.75,2.35,2.53-3.35-1.61,.15,1,.49,1.5,1.65,2.24-1.29-.45,.79,1.07,1.99,1.4,7.66,.36,4.39-.46Z"/><g><polygon class="cls-43" points="616.91 339.44 616.38 338.12 616.03 339.29 617.1 339.77 616.91 339.44"/><polygon class="cls-43" points="617.29 342.22 618.85 342.74 618.18 341.61 616.73 340.91 617.29 342.22"/><polygon class="cls-43" points="618.11 344.11 621.46 345.72 619.25 343.34 617.59 342.9 618.11 344.11"/><path class="cls-43" d="M620.23,327.08c-.24-.52-.75-1.98-.75-1.98v-1.9l-.66,.71,.66,2.49,.77,2.04,1.02,.6c-.46-.85-.93-1.72-1.04-1.97Z"/><polygon class="cls-43" points="622.56 334.51 623.7 334.83 622.57 331.71 621.28 331.13 622.56 334.51"/><path class="cls-43" d="M624.34,339.61c-.07-.18-.65-1.26-.65-1.26l-.35-1.78-1.21-.07,.93,2.38,4.23,5.08s-2.87-4.16-2.94-4.34Z"/><polygon class="cls-43" points="618.5 345.85 618.26 345.11 618.11 344.11 617.04 345.11 618.5 345.85"/><polygon class="cls-43" points="618.04 347.44 619.83 350.76 621.88 350.86 619.9 349.46 619.11 348.39 620.4 348.84 619.47 347.58 617.88 347.07 618.04 347.44"/><polygon class="cls-34" points="617.59 342.9 619.25 343.34 619.11 343.19 618.85 342.74 617.29 342.22 617.59 342.9"/><polygon class="cls-34" points="618.18 341.61 617.1 339.77 616.03 339.29 616.73 340.91 618.18 341.61"/><polygon class="cls-34" points="623.7 334.83 622.56 334.51 622.13 336.49 623.34 336.56 623.7 334.83"/><path class="cls-34" d="M622.57,331.71l-.3-.84s-.49-.9-.99-1.83l-1.02-.6,1.02,2.69,1.29,.58Z"/><polygon class="cls-34" points="617.88 347.07 619.47 347.58 618.75 346.61 618.5 345.85 617.04 345.11 617.88 347.07"/></g></g><polygon class="cls-14" points="627.64 344.83 627.64 347.7 630.3 350.19 630.3 348.03 628.5 347.25 627.64 344.83"/><polygon class="cls-13" points="632.34 338.5 629 337.43 627.64 334.55 628.36 337.21 627 335.7 623.7 334.83 626.24 336.06 628.02 338.12 629 338.57 629.85 340.12 633.55 344.41 631.3 340.75 632.27 340.68 632.34 338.5"/><polygon class="cls-28" points="623.05 342.97 623.7 345.21 622.26 345.89 623.67 345.81 625.63 348.68 624.49 345.83 624.54 344.91 623.05 342.97"/></g></g></g><path class="cls-42" d="M863.32,350.89l-205.32-.51-21.48,1.76-90.35-1.21,37.92,2.71s-86.66-.91-87.79-1.01-21.54,.51-22.68,.28c-1.14-.23-26.11-2.14-27.24-1.86-1.13,.28-94.12-.33-94.12-.33,0,0-61.98,.95-63.49,.77-1.51-.18-102.75,3.82-102.75,3.82l100.46-2.83s65.96-.67,68.34-.7c2.37-.03,97.26,1.66,97.26,1.66l18.39,.85s20.93-.47,23.57-.29c2.65,.19,25.34,1.07,25.34,1.07l-12.45,1.93s-4.53,.6-6.42,.75c-1.89,.15-9.82,.25-14.74,.18s-4.92-.77-12.1-.53c-7.18,.25-21.55,.1-31.75,.39-10.2,.28,24.95,.05,26.47,.45,1.52,.4,16.64,1.09,16.64,1.09l14.74-.18s23.05-3.86,24.92-3.88c1.87-.02,18.11-.99,19.25-.88s40.08,1.12,42.72,.74c2.64-.39,12.24,.65,16.53,1.25s14.88,1.34,14.88,1.34c0,0,2.39,2.07-1.63,1.99s-22.18-1.86-27.47-1.63-21.92,.49-25.32,.31c-3.4-.18-21.93-.22-23.82-.19-1.89,.02-18.51,.71-18.51,.71l-18.11,2.64s-14.75-1.13-20.04-.83c-5.29,.3-35.91,.11-35.91,.11l-3.4,.36s14.4,.22,14.75,.4c.35,.17,27.97,.35,29.1,.14,1.13-.21,13.62,.98,13.62,.98l9.83-.12,9.04-2.33,49.42-.92,23.51-.29,29.13,2.19,12.5,2.12,8.37,4.83,9.81,2.17-16.69-8.54-13.26-2.74,24.55-1.71-5.13-1.46-17.94,1.12-31.79-3.35,.74-.91,44.61,.62,22.31,.86,9.83-.12-24.3-1.74,15.95-1.21,233.56,1.7-32.07-1.97Z"/><g><polygon class="cls-55" points="388.59 349.24 393.2 342.59 393.14 340.45 399.51 331.11 400.33 330.79 400.36 330.95 400.52 330.65 405.77 325.41 406.92 325.65 406.27 328.14 405.51 330.19 404.51 332.88 403.25 336.25 403.67 338.23 402.76 340.61 405 340.35 405.76 341.22 406.87 340.3 407.37 340.08 409.32 339.86 409.67 341.03 408.98 342.65 408.42 343.96 408.13 344.64 407.62 345.84 408.67 346.84 407.85 348.81 407.69 349.18 406.25 351.71 405.43 352.5 403.41 352.6 395.88 352.95 391.56 352.5 391.83 349.35 388.59 349.24"/><g class="cls-56"><path class="cls-50" d="M403.56,332.58l.09-.17-.09,.17Zm3.35,11.88l1.08-1.86-.44,.76-.64,1.1Z"/><g><g><polygon class="cls-43" points="402.69 343.78 404.5 340.56 405.38 341.54 402.69 343.78"/><polygon class="cls-43" points="399.51 331.11 399.83 331.16 399.96 331.75 397.75 336.05 399.51 331.11"/><path class="cls-63" d="M391.56,352.5l.27-3.15-3.24-.11,4.61-6.65-.06-2.14,6.37-9.34-1.76,4.93,2.77-5.4,5.25-5.24v1.87s-.51,1.44-.74,1.95c-.23,.51-2,3.73-2,3.73l-1.41,3.89,.35,1.7-.35,1.75s-.56,1.06-.63,1.24-2.89,4.27-2.89,4.27l4.15-5,2.24-.25-1.81,3.22,4.18-3.49,1.95-.22-.52,1.29-2.16,3.69-2.31,2.49,3.29-1.58-.15,.98-.49,1.47-1.62,2.2,1.27-.44-.78,1.05-1.95,1.37-7.53,.36-4.32-.45Z"/><g><polygon class="cls-43" points="408.31 341.37 408.82 340.08 409.17 341.23 408.12 341.7 408.31 341.37"/><polygon class="cls-43" points="407.93 344.11 406.4 344.62 407.05 343.51 408.48 342.82 407.93 344.11"/><polygon class="cls-43" points="407.12 345.96 403.83 347.55 406 345.21 407.64 344.78 407.12 345.96"/><path class="cls-43" d="M405.03,329.23c.23-.51,.74-1.95,.74-1.95v-1.87l.65,.7-.65,2.45-.76,2.01-1,.59c.45-.83,.91-1.69,1.02-1.94Z"/><polygon class="cls-43" points="402.75 336.53 401.63 336.85 402.74 333.78 404.01 333.21 402.75 336.53"/><path class="cls-43" d="M401,341.54c.07-.18,.63-1.24,.63-1.24l.35-1.75,1.19-.07-.91,2.34-4.15,5s2.82-4.09,2.89-4.27Z"/><polygon class="cls-43" points="406.74 347.68 406.98 346.95 407.12 345.96 408.17 346.95 406.74 347.68"/><polygon class="cls-43" points="407.2 349.24 405.43 352.5 403.41 352.6 405.37 351.23 406.14 350.18 404.87 350.62 405.79 349.38 407.35 348.88 407.2 349.24"/><polygon class="cls-34" points="407.64 344.78 406 345.21 406.14 345.06 406.4 344.62 407.93 344.11 407.64 344.78"/><polygon class="cls-34" points="407.05 343.51 408.12 341.7 409.17 341.23 408.48 342.82 407.05 343.51"/><polygon class="cls-34" points="401.63 336.85 402.75 336.53 403.17 338.47 401.98 338.55 401.63 336.85"/><path class="cls-34" d="M402.74,333.78l.3-.83s.48-.88,.98-1.79l1-.59-1,2.64-1.27,.57Z"/><polygon class="cls-34" points="407.35 348.88 405.79 349.38 406.49 348.42 406.74 347.68 408.17 346.95 407.35 348.88"/></g></g><polygon class="cls-10" points="397.75 346.68 397.75 349.49 395.14 351.94 395.14 349.82 396.91 349.06 397.75 346.68"/><polygon class="cls-16" points="393.14 340.45 396.42 339.4 397.75 336.57 397.05 339.19 398.39 337.7 401.63 336.85 399.14 338.05 397.38 340.08 396.42 340.52 395.58 342.04 391.95 346.26 394.16 342.66 393.2 342.59 393.14 340.45"/><polygon class="cls-11" points="402.26 344.85 401.63 347.05 403.04 347.72 401.66 347.63 399.73 350.46 400.86 347.65 400.8 346.76 402.26 344.85"/></g></g></g><g><path class="cls-66" d="M461.07,343.57s.28-1.03,.28-1.03l-.23-2.44-.57,.42-2.41,4.16-.24-.23-.89-.83,.4-2.16,.55-.82s.16-.48,.33-1.03c.08-.25,.17-.52,.24-.77,.12-.4,.22-.74,.24-.83,.02-.14,.02-1.16,.01-2.15,0-.97-.01-1.9-.01-1.9l.49-1.59,.44-1.41,.46-1.47-.87-.05-.86,.72-4.75,8.29-1.68,.87-.21-.45,.52-1.27,.57-1.4,.12-.3,.34-.83-.03-.47-.07-1.09,.4-1.73-.65-.04-3.84,5.28-.21,.38-.54-.18-5.2,8.02-1.08,2.99h8.42l5.84,.51,1.68-.28,.4-.07,1.35-2.14,1.56-1.38v-.37h-.72l.45-.89Z"/><g class="cls-56"><g><polygon class="cls-43" points="448.28 338.03 448.37 337.19 448.8 337.55 447.61 339.71 448.28 338.03"/><g><path class="cls-67" d="M443.17,345.21l5.2-8.02-.08,.84-.67,1.68,1.5-2.72,3.84-5.28,.3,.2-1.07,2.18-.34,.45,.24,.38s-.37,.56-.24,.69c.14,.13-.66,1.58-.66,1.58l.9-.76-.24,.51-.96,1.85-.66,1.59-.06,.8-1.27,3.32,1.75-3.08,1.16-.61,.69-.86s.82-.57,.96-.72c.14-.15,.21-.81,.21-.81l4.75-8.29,.69-.48,.02,.55-.2,.7-1.71,4.25,.11,.56,.71-1.21-.31,1.76-1.02,2.86,.03,.6,.7,.06-.28,.38-1.02,2.8-.1,1.06-.03,.46-.52,1.21,.55,1.13,1.97-1.93,2.55-4.39,.45-.23-.57,2.7-2,2.63-2.07,3.1-5.84-.51h-8.42l1.08-2.99Z"/><polygon class="cls-38" points="460.42 342.98 460.99 340.28 460.99 342.6 460.71 343.62 460.27 344.5 460.99 344.5 460.99 344.87 459.43 346.24 458.03 348.43 456.35 348.71 458.42 345.61 460.42 342.98"/></g><polygon class="cls-23" points="448.54 345.23 448.36 346.51 448.88 346.84 451.27 345.71 449.11 346.99 448.13 347.63 448.13 346.99 447.84 346.51 448.54 345.23"/><polygon class="cls-9" points="447.61 340.18 447.84 340.81 449.59 340.3 450.98 337.78 449.83 340.38 450.22 340.38 450.16 341.18 449.11 340.81 447.84 341.33 445.89 344.04 447.39 341.42 447.04 341.11 447.09 340.38 446.88 340.03 447.61 340.18"/><polygon class="cls-6" points="456.32 340.03 454.92 340.3 453.23 344.04 454.18 340.3 453.44 339.23 453.6 338.73 454.32 339.61 455.07 339.85 456.69 339.13 456.72 339.73 456.32 340.03"/><polygon class="cls-17" points="456.96 336.03 455.67 338.39 455.67 337.74 456.96 334.98 456.96 336.03"/><g><path class="cls-43" d="M458.41,338.09l-1.71,1.04,.92-2.57,.81-.6c0,.98,0,1.99-.01,2.13Z"/><polygon class="cls-43" points="457.05 341.52 456.65 343.66 456.01 344.33 456.02 344.04 456.12 342.98 456.81 341.11 457.6 340.7 457.05 341.52"/><polygon class="cls-43" points="458.41 334.08 458.03 334.51 457.32 335.71 457.21 335.15 458 333.18 458.9 332.5 458.41 334.08"/><path class="cls-43" d="M457.93,339.68l-.51,.12-.7-.06,1.45-.82c-.08,.24-.16,.51-.24,.76Z"/><polygon class="cls-43" points="458.92 330.9 459.12 330.2 459.09 329.65 459.79 329.65 459.34 331.1 458.5 331.94 458.92 330.9"/><polygon class="cls-43" points="457.99 344.91 456.02 346.84 455.47 345.71 457.54 344.48 457.99 344.91"/><path class="cls-43" d="M450.16,341.18l.06-.8,1.43-.92,2-1.03s-.08,.66-.21,.81c-.14,.15-.96,.72-.96,.72l-.69,.86-1.16,.61-1.75,3.08,1.27-3.32Z"/><polygon class="cls-43" points="451.41 338.94 450.62 339.41 450.88 338.79 451.35 337.88 451.92 337.68 451.41 338.94"/><path class="cls-43" d="M452.49,336.29l-.41,.13-.9,.76s.18-.33,.36-.69l1.08-.5-.12,.3Z"/><polygon class="cls-43" points="452.18 334.09 453.25 331.91 452.85 333.63 452.07 334.23 452.18 334.09"/><path class="cls-43" d="M452.95,335.17l-1.1,.55c.01-.06,.01-.1,0-.12-.08-.07,0-.27,.09-.44l.99-.46,.03,.46Z"/><polygon class="cls-43" points="460.71 343.62 460.27 344.5 460.99 344.5 458.45 346.09 460.99 344.87 459.43 346.24 458.03 348.43 456.35 348.71 458.42 345.61 459.47 344.22 460.72 343.61 460.71 343.62"/><polygon class="cls-43" points="460.99 340.28 460.99 342.6 460.42 342.98 460.99 340.28"/><polygon class="cls-34" points="456.01 344.33 456.65 343.66 457.54 344.48 455.47 345.71 456 344.5 456.01 344.33"/><path class="cls-34" d="M458.17,338.92l-1.45,.82-.03-.6,1.71-1.04c-.01,.09-.11,.43-.24,.83Z"/><path class="cls-34" d="M457.6,340.7l-.79,.41,.34-.93,.28-.38,.51-.12c-.18,.55-.33,1.02-.33,1.02Z"/><polygon class="cls-34" points="458 333.18 458.5 331.94 459.34 331.1 458.9 332.5 458 333.18"/><path class="cls-34" d="M458.42,335.96l-.81,.6,.11-.3,.31-1.76,.37-.43s0,.92,.01,1.88Z"/><polygon class="cls-34" points="460.99 344.5 460.99 344.87 458.45 346.09 460.99 344.5"/><polygon class="cls-34" points="459.47 344.22 460.42 342.98 460.99 342.6 460.72 343.61 459.47 344.22"/><path class="cls-34" d="M452.61,336l-1.08,.5c.14-.29,.28-.6,.31-.77l1.1-.55-.34,.82Z"/><polygon class="cls-34" points="451.92 337.68 451.35 337.88 451.84 336.93 452.08 336.42 452.49 336.29 451.92 337.68"/><path class="cls-34" d="M451.93,335.17c.07-.14,.15-.25,.15-.25l-.24-.38,.23-.31,.78-.6,.07,1.08-.99,.46Z"/><polygon class="cls-34" points="450.62 339.41 451.41 338.94 451.66 339.46 450.22 340.38 450.62 339.41"/></g></g></g></g><g><path class="cls-62" d="M504.36,345.07s.23-.86,.23-.86l-.19-2.02-.47,.35-2,3.45-.2-.19-.74-.69,.33-1.8,.46-.68s.13-.4,.28-.86c.07-.21,.14-.44,.2-.64,.1-.33,.19-.61,.2-.69,.02-.11,.02-.96,.01-1.78,0-.81-.01-1.58-.01-1.58l.41-1.32,.36-1.17,.38-1.22-.73-.04-.72,.6-3.95,6.88-1.39,.72-.18-.37,.43-1.06,.47-1.16,.1-.25,.28-.69-.02-.39-.06-.91,.33-1.44-.54-.03-3.19,4.38-.17,.31-.45-.15-4.32,6.66-.9,2.48h6.99l4.85,.42,1.4-.23,.33-.06,1.12-1.78,1.3-1.15v-.31h-.6l.37-.74Z"/><g class="cls-47"><g><polygon class="cls-43" points="493.75 340.47 493.82 339.77 494.18 340.08 493.2 341.87 493.75 340.47"/><g><path class="cls-39" d="M489.51,346.43l4.32-6.66-.07,.7-.56,1.4,1.25-2.26,3.19-4.38,.25,.17-.89,1.81-.28,.37,.2,.32s-.31,.47-.2,.57c.11,.11-.55,1.31-.55,1.31l.75-.63-.2,.42-.8,1.54-.55,1.32-.05,.66-1.06,2.76,1.45-2.56,.96-.5,.57-.71s.68-.48,.8-.6c.11-.12,.18-.67,.18-.67l3.95-6.88,.57-.4,.02,.45-.17,.58-1.42,3.53,.09,.47,.59-1-.26,1.46-.85,2.38,.02,.5,.58,.05-.23,.32-.85,2.32-.08,.88-.02,.38-.43,1.01,.46,.94,1.64-1.6,2.11-3.65,.37-.19-.48,2.24-1.66,2.18-1.72,2.58-4.85-.42h-6.99l.9-2.48Z"/><polygon class="cls-51" points="503.82 344.58 504.3 342.34 504.3 344.26 504.07 345.11 503.7 345.84 504.3 345.84 504.3 346.15 503 347.28 501.84 349.1 500.45 349.34 502.17 346.76 503.82 344.58"/></g><polygon class="cls-27" points="493.96 346.45 493.82 347.51 494.25 347.79 496.23 346.85 494.44 347.91 493.63 348.44 493.63 347.91 493.38 347.51 493.96 346.45"/><polygon class="cls-12" points="493.2 342.26 493.38 342.78 494.83 342.35 495.99 340.27 495.04 342.42 495.36 342.42 495.31 343.08 494.44 342.78 493.38 343.21 491.76 345.46 493.01 343.29 492.72 343.03 492.76 342.42 492.59 342.13 493.2 342.26"/><polygon class="cls-15" points="500.42 342.13 499.26 342.35 497.86 345.46 498.64 342.35 498.03 341.47 498.17 341.05 498.77 341.78 499.39 341.98 500.73 341.39 500.76 341.89 500.42 342.13"/><polygon class="cls-30" points="500.95 338.81 499.89 340.77 499.89 340.23 500.95 337.94 500.95 338.81"/><g><path class="cls-43" d="M502.16,340.52l-1.42,.87,.76-2.13,.67-.5c0,.81,0,1.65-.01,1.76Z"/><polygon class="cls-43" points="501.03 343.37 500.69 345.14 500.16 345.7 500.18 345.46 500.26 344.58 500.83 343.03 501.48 342.69 501.03 343.37"/><polygon class="cls-43" points="502.16 337.19 501.84 337.55 501.25 338.55 501.16 338.08 501.82 336.44 502.56 335.89 502.16 337.19"/><path class="cls-43" d="M501.76,341.84l-.42,.1-.58-.05,1.2-.68c-.06,.2-.13,.42-.2,.63Z"/><polygon class="cls-43" points="502.58 334.55 502.75 333.97 502.73 333.52 503.31 333.52 502.93 334.72 502.23 335.41 502.58 334.55"/><polygon class="cls-43" points="501.81 346.18 500.18 347.79 499.72 346.85 501.43 345.83 501.81 346.18"/><path class="cls-43" d="M495.31,343.08l.05-.66,1.19-.76,1.66-.86s-.06,.55-.18,.67c-.11,.12-.8,.6-.8,.6l-.57,.71-.96,.5-1.45,2.56,1.06-2.76Z"/><polygon class="cls-43" points="496.34 341.23 495.69 341.62 495.91 341.1 496.3 340.35 496.77 340.18 496.34 341.23"/><path class="cls-43" d="M497.25,339.03l-.34,.11-.75,.63s.15-.28,.3-.57l.89-.41-.1,.25Z"/><polygon class="cls-43" points="496.99 337.2 497.88 335.39 497.55 336.82 496.9 337.32 496.99 337.2"/><path class="cls-43" d="M497.63,338.1l-.92,.46s0-.08,0-.1c-.06-.06,0-.23,.08-.37l.82-.38,.02,.39Z"/><polygon class="cls-43" points="504.07 345.11 503.7 345.84 504.3 345.84 502.19 347.16 504.3 346.15 503 347.28 501.84 349.1 500.45 349.34 502.17 346.76 503.04 345.61 504.07 345.1 504.07 345.11"/><polygon class="cls-43" points="504.3 342.34 504.3 344.26 503.82 344.58 504.3 342.34"/><polygon class="cls-34" points="500.16 345.7 500.69 345.14 501.43 345.83 499.72 346.85 500.15 345.84 500.16 345.7"/><path class="cls-34" d="M501.96,341.21l-1.2,.68-.02-.5,1.42-.87c-.01,.08-.09,.35-.2,.69Z"/><path class="cls-34" d="M501.48,342.69l-.66,.34,.28-.77,.23-.32,.42-.1c-.15,.45-.28,.85-.28,.85Z"/><polygon class="cls-34" points="501.82 336.44 502.23 335.41 502.93 334.72 502.56 335.89 501.82 336.44"/><path class="cls-34" d="M502.17,338.76l-.67,.5,.09-.25,.26-1.46,.31-.35s0,.77,.01,1.56Z"/><polygon class="cls-34" points="504.3 345.84 504.3 346.15 502.19 347.16 504.3 345.84"/><polygon class="cls-34" points="503.04 345.61 503.82 344.58 504.3 344.26 504.07 345.1 503.04 345.61"/><path class="cls-34" d="M497.35,338.79l-.89,.41c.12-.24,.23-.5,.26-.64l.92-.46-.28,.68Z"/><polygon class="cls-34" points="496.77 340.18 496.3 340.35 496.71 339.56 496.9 339.14 497.25 339.03 496.77 340.18"/><path class="cls-34" d="M496.78,338.1c.06-.11,.12-.21,.12-.21l-.2-.32,.19-.25,.65-.5,.06,.9-.82,.38Z"/><polygon class="cls-34" points="495.69 341.62 496.34 341.23 496.55 341.66 495.36 342.42 495.69 341.62"/></g></g></g></g><g><path class="cls-68" d="M548.96,346.19l-.16-.6,.13-1.4,.33,.24,1.39,2.39,.14-.13,.51-.48-.23-1.25-.32-.47s-.09-.28-.19-.59c-.05-.15-.1-.3-.14-.44-.07-.23-.13-.43-.14-.48-.01-.08-.01-.67,0-1.24,0-.56,0-1.1,0-1.1l-.28-.92-.25-.81-.26-.85,.5-.03,.5,.42,2.74,4.78,.97,.5,.12-.26-.3-.73-.33-.81-.07-.17-.19-.48,.02-.27,.04-.63-.23-1,.38-.02,2.21,3.04,.12,.22,.31-.1,3,4.62,.62,1.72h-4.85l-3.37,.29-.97-.16-.23-.04-.78-1.23-.9-.8v-.21h.42l-.26-.51Z"/><g class="cls-47"><g><polygon class="cls-43" points="556.32 342.99 556.27 342.51 556.02 342.72 556.71 343.97 556.32 342.99"/><g><path class="cls-60" d="M559.27,347.13l-3-4.62,.05,.48,.39,.97-.86-1.57-2.21-3.04-.17,.12,.62,1.26,.19,.26-.14,.22s.22,.32,.14,.4c-.08,.07,.38,.91,.38,.91l-.52-.44,.14,.29,.55,1.07,.38,.92,.04,.46,.73,1.91-1.01-1.77-.67-.35-.4-.49s-.47-.33-.55-.42c-.08-.09-.12-.46-.12-.46l-2.74-4.78-.4-.28v.32l.1,.4,.99,2.45-.07,.32-.41-.7,.18,1.02,.59,1.65-.02,.35-.4,.04,.16,.22,.59,1.61,.06,.61,.02,.27,.3,.7-.32,.65-1.14-1.11-1.47-2.53-.26-.14,.33,1.56,1.15,1.51,1.19,1.79,3.37-.29h4.85l-.62-1.72Z"/><polygon class="cls-37" points="549.33 345.85 549 344.29 549 345.63 549.16 346.22 549.42 346.72 549 346.72 549 346.94 549.9 347.72 550.71 348.99 551.68 349.15 550.48 347.36 549.33 345.85"/></g><polygon class="cls-2" points="556.18 347.15 556.28 347.88 555.98 348.07 554.6 347.42 555.84 348.16 556.41 348.53 556.41 348.16 556.58 347.88 556.18 347.15"/><polygon class="cls-18" points="556.71 344.24 556.58 344.6 555.57 344.3 554.77 342.85 555.43 344.35 555.21 344.35 555.24 344.81 555.84 344.6 556.58 344.9 557.7 346.46 556.84 344.95 557.04 344.77 557.01 344.35 557.13 344.15 556.71 344.24"/><polygon class="cls-22" points="551.69 344.15 552.5 344.3 553.48 346.46 552.93 344.3 553.35 343.69 553.26 343.4 552.84 343.91 552.41 344.05 551.48 343.63 551.46 343.98 551.69 344.15"/><polygon class="cls-31" points="551.33 341.84 552.07 343.2 552.07 342.83 551.33 341.24 551.33 341.84"/><g><path class="cls-43" d="M550.49,343.03l.99,.6-.53-1.48-.47-.35c0,.56,0,1.15,0,1.23Z"/><polygon class="cls-43" points="551.27 345 551.5 346.24 551.87 346.63 551.86 346.46 551.81 345.85 551.41 344.77 550.96 344.53 551.27 345"/><polygon class="cls-43" points="550.49 340.72 550.71 340.97 551.12 341.66 551.18 341.34 550.72 340.2 550.21 339.81 550.49 340.72"/><path class="cls-43" d="M550.77,343.95l.29,.07,.4-.04-.84-.47c.04,.14,.09,.29,.14,.44Z"/><polygon class="cls-43" points="550.2 338.89 550.08 338.48 550.1 338.17 549.69 338.17 549.95 339.01 550.44 339.49 550.2 338.89"/><polygon class="cls-43" points="550.73 346.96 551.86 348.07 552.18 347.42 550.99 346.72 550.73 346.96"/><path class="cls-43" d="M555.24,344.81l-.04-.46-.83-.53-1.15-.6s.04,.38,.12,.46c.08,.09,.55,.42,.55,.42l.4,.49,.67,.35,1.01,1.77-.73-1.91Z"/><polygon class="cls-43" points="554.52 343.52 554.98 343.79 554.83 343.43 554.56 342.91 554.23 342.8 554.52 343.52"/><path class="cls-43" d="M553.9,342l.24,.07,.52,.44s-.11-.19-.21-.4l-.62-.29,.07,.17Z"/><polygon class="cls-43" points="554.08 340.73 553.46 339.47 553.69 340.46 554.14 340.81 554.08 340.73"/><path class="cls-43" d="M553.63,341.35l.64,.32s0-.06,0-.07c.04-.04,0-.16-.05-.25l-.57-.26-.02,.27Z"/><polygon class="cls-43" points="549.16 346.22 549.42 346.72 549 346.72 550.46 347.64 549 346.94 549.9 347.72 550.71 348.99 551.68 349.15 550.48 347.36 549.88 346.56 549.16 346.21 549.16 346.22"/><polygon class="cls-43" points="549 344.29 549 345.63 549.33 345.85 549 344.29"/><polygon class="cls-34" points="551.87 346.63 551.5 346.24 550.99 346.72 552.18 347.42 551.88 346.72 551.87 346.63"/><path class="cls-34" d="M550.63,343.51l.84,.47,.02-.35-.99-.6c0,.05,.06,.25,.14,.48Z"/><path class="cls-34" d="M550.96,344.53l.46,.24-.2-.54-.16-.22-.29-.07c.1,.32,.19,.59,.19,.59Z"/><polygon class="cls-34" points="550.72 340.2 550.44 339.49 549.95 339.01 550.21 339.81 550.72 340.2"/><path class="cls-34" d="M550.48,341.81l.47,.35-.06-.17-.18-1.02-.22-.25s0,.53,0,1.08Z"/><polygon class="cls-34" points="549 346.72 549 346.94 550.46 347.64 549 346.72"/><polygon class="cls-34" points="549.88 346.56 549.33 345.85 549 345.63 549.16 346.21 549.88 346.56"/><path class="cls-34" d="M553.83,341.83l.62,.29c-.08-.17-.16-.35-.18-.44l-.64-.32,.19,.47Z"/><polygon class="cls-34" points="554.23 342.8 554.56 342.91 554.27 342.37 554.14 342.07 553.9 342 554.23 342.8"/><path class="cls-34" d="M554.22,341.35c-.04-.08-.08-.14-.08-.14l.14-.22-.13-.18-.45-.35-.04,.62,.57,.26Z"/><polygon class="cls-34" points="554.98 343.79 554.52 343.52 554.38 343.82 555.21 344.35 554.98 343.79"/></g></g></g></g><g><path class="cls-61" d="M488.03,343.08s.47-1.76,.47-1.76l-.4-4.14-.96,.71-4.1,7.07-.42-.39-1.51-1.42,.68-3.68,.93-1.4s.27-.82,.57-1.76c.14-.43,.28-.89,.41-1.31,.21-.69,.38-1.26,.4-1.42,.03-.23,.03-1.98,.02-3.65,0-1.65-.02-3.23-.02-3.23l.84-2.71,.74-2.4,.77-2.5-1.49-.09-1.47,1.23-8.09,14.11-2.86,1.48-.36-.76,.88-2.17,.97-2.38,.21-.51,.57-1.41-.05-.8-.12-1.86,.68-2.95-1.11-.07-6.53,8.98-.35,.64-.92-.3-8.84,13.65-1.84,5.09h14.33l9.94,.87,2.87-.48,.68-.13,2.3-3.64,2.66-2.35v-.63h-1.23l.76-1.51Z"/><g class="cls-56"><g><polygon class="cls-43" points="466.28 333.65 466.43 332.22 467.16 332.85 465.14 336.51 466.28 333.65"/><g><path class="cls-54" d="M457.58,345.87l8.84-13.65-.14,1.43-1.14,2.87,2.55-4.63,6.53-8.98,.51,.35-1.83,3.71-.57,.76,.4,.65s-.64,.95-.4,1.17c.23,.22-1.13,2.68-1.13,2.68l1.53-1.3-.4,.87-1.63,3.15-1.12,2.71-.11,1.35-2.17,5.65,2.97-5.24,1.97-1.03,1.17-1.46s1.4-.98,1.63-1.23c.23-.25,.36-1.37,.36-1.37l8.09-14.11,1.17-.82,.04,.93-.34,1.19-2.91,7.24,.19,.96,1.21-2.05-.53,3-1.74,4.87,.04,1.02,1.19,.11-.47,.65-1.74,4.76-.17,1.8-.04,.79-.89,2.06,.93,1.92,3.36-3.28,4.33-7.48,.76-.4-.98,4.59-3.4,4.47-3.52,5.28-9.94-.87h-14.33l1.84-5.09Z"/><polygon class="cls-44" points="486.92 342.08 487.9 337.49 487.9 341.42 487.43 343.16 486.67 344.66 487.9 344.66 487.9 345.29 485.24 347.61 482.87 351.34 480 351.82 483.52 346.54 486.92 342.08"/></g><polygon class="cls-8" points="466.71 345.91 466.42 348.07 467.3 348.64 471.36 346.72 467.7 348.9 466.03 349.99 466.03 348.9 465.52 348.07 466.71 345.91"/><polygon class="cls-24" points="465.14 337.31 465.52 338.39 468.5 337.51 470.87 333.23 468.92 337.65 469.58 337.65 469.47 339.01 467.7 338.39 465.52 339.27 462.21 343.87 464.76 339.42 464.16 338.89 464.25 337.65 463.9 337.05 465.14 337.31"/><polygon class="cls-3" points="479.96 337.05 477.58 337.51 474.69 343.87 476.31 337.51 475.05 335.7 475.34 334.84 476.56 336.34 477.83 336.75 480.59 335.53 480.64 336.55 479.96 337.05"/><polygon class="cls-4" points="481.04 330.25 478.85 334.27 478.85 333.16 481.04 328.46 481.04 330.25"/><g><path class="cls-43" d="M483.5,333.76l-2.91,1.77,1.56-4.36,1.37-1.03c0,1.66,0,3.39-.02,3.62Z"/><polygon class="cls-43" points="481.19 339.58 480.51 343.23 479.42 344.37 479.45 343.87 479.62 342.08 480.78 338.89 482.12 338.2 481.19 339.58"/><polygon class="cls-43" points="483.5 326.94 482.87 327.66 481.66 329.72 481.46 328.76 482.81 325.4 484.34 324.26 483.5 326.94"/><path class="cls-43" d="M482.69,336.46l-.87,.2-1.19-.11,2.47-1.39c-.13,.41-.27,.87-.41,1.3Z"/><polygon class="cls-43" points="484.37 321.52 484.71 320.33 484.67 319.4 485.86 319.4 485.09 321.87 483.66 323.29 484.37 321.52"/><polygon class="cls-43" points="482.8 345.36 479.45 348.64 478.51 346.72 482.02 344.63 482.8 345.36"/><path class="cls-43" d="M469.47,339.01l.11-1.35,2.44-1.57,3.4-1.76s-.13,1.12-.36,1.37c-.23,.25-1.63,1.23-1.63,1.23l-1.17,1.46-1.97,1.03-2.97,5.24,2.17-5.65Z"/><polygon class="cls-43" points="471.59 335.21 470.26 336 470.7 334.94 471.5 333.4 472.48 333.06 471.59 335.21"/><path class="cls-43" d="M473.44,330.7l-.71,.22-1.53,1.3s.31-.56,.61-1.18l1.83-.85-.21,.5Z"/><polygon class="cls-43" points="472.91 326.95 474.74 323.24 474.06 326.16 472.73 327.19 472.91 326.95"/><path class="cls-43" d="M474.23,328.8l-1.88,.94c.02-.1,.02-.17-.01-.2-.13-.12,0-.46,.15-.75l1.69-.78,.05,.79Z"/><polygon class="cls-43" points="487.43 343.16 486.67 344.66 487.9 344.66 483.58 347.36 487.9 345.29 485.24 347.61 482.87 351.34 480 351.82 483.52 346.54 485.32 344.18 487.44 343.14 487.43 343.16"/><polygon class="cls-43" points="487.9 337.49 487.9 341.42 486.92 342.08 487.9 337.49"/><polygon class="cls-34" points="479.42 344.37 480.51 343.23 482.02 344.63 478.51 346.72 479.4 344.66 479.42 344.37"/><path class="cls-34" d="M483.1,335.16l-2.47,1.39-.04-1.02,2.91-1.77c-.02,.16-.19,.72-.4,1.4Z"/><path class="cls-34" d="M482.12,338.2l-1.34,.7,.58-1.58,.47-.65,.87-.2c-.3,.93-.57,1.74-.57,1.74Z"/><polygon class="cls-34" points="482.81 325.4 483.66 323.29 485.09 321.87 484.34 324.26 482.81 325.4"/><path class="cls-34" d="M483.53,330.14l-1.37,1.03,.18-.5,.53-3,.64-.73s.02,1.57,.02,3.2Z"/><polygon class="cls-34" points="487.9 344.66 487.9 345.29 483.58 347.36 487.9 344.66"/><polygon class="cls-34" points="485.32 344.18 486.92 342.08 487.9 341.42 487.44 343.14 485.32 344.18"/><path class="cls-34" d="M473.65,330.2l-1.83,.85c.24-.5,.47-1.02,.53-1.31l1.88-.94-.57,1.4Z"/><polygon class="cls-34" points="472.48 333.06 471.5 333.4 472.34 331.79 472.74 330.92 473.44 330.7 472.48 333.06"/><path class="cls-34" d="M472.49,328.79c.12-.23,.25-.43,.25-.43l-.4-.65,.39-.52,1.33-1.03,.12,1.84-1.69,.78Z"/><polygon class="cls-34" points="470.26 336 471.59 335.21 472.02 336.08 469.58 337.65 470.26 336"/></g></g></g></g><g><path class="cls-35" d="M595.99,343.36l-.28-1.06,.24-2.49,.58,.43,2.46,4.25,.25-.23,.91-.85-.41-2.21-.56-.84s-.16-.49-.34-1.05c-.08-.26-.17-.54-.25-.79-.13-.41-.23-.76-.24-.85-.02-.14-.02-1.19-.01-2.19,0-.99,.01-1.94,.01-1.94l-.5-1.63-.45-1.44-.46-1.5,.89-.06,.88,.74,4.86,8.47,1.72,.89,.22-.46-.53-1.3-.58-1.43-.12-.31-.35-.85,.03-.48,.07-1.12-.41-1.77,.67-.04,3.92,5.4,.21,.38,.55-.18,5.31,8.2,1.11,3.06h-8.6l-5.97,.52-1.72-.29-.41-.08-1.38-2.19-1.6-1.41v-.38h.74l-.46-.91Z"/><g class="cls-56"><g><polygon class="cls-43" points="609.05 337.69 608.97 336.84 608.53 337.21 609.74 339.42 609.05 337.69"/><g><path class="cls-48" d="M614.28,345.03l-5.31-8.2,.09,.86,.69,1.72-1.53-2.78-3.92-5.4-.31,.21,1.1,2.23,.34,.46-.24,.39s.38,.57,.24,.71c-.14,.13,.68,1.61,.68,1.61l-.92-.78,.24,.52,.98,1.89,.67,1.63,.07,.81,1.3,3.4-1.79-3.15-1.18-.62-.71-.88s-.84-.59-.98-.74c-.14-.15-.22-.82-.22-.82l-4.86-8.47-.7-.49-.02,.56,.2,.71,1.75,4.35-.12,.58-.73-1.23,.32,1.8,1.05,2.92-.03,.61-.71,.07,.28,.39,1.04,2.86,.1,1.08,.03,.47,.53,1.24-.56,1.16-2.02-1.97-2.6-4.49-.46-.24,.59,2.76,2.04,2.68,2.12,3.17,5.97-.52h8.6l-1.11-3.06Z"/><polygon class="cls-57" points="596.66 342.76 596.07 340 596.07 342.36 596.35 343.41 596.81 344.31 596.07 344.31 596.07 344.68 597.67 346.08 599.09 348.32 600.82 348.61 598.7 345.44 596.66 342.76"/></g><polygon class="cls-32" points="608.8 345.06 608.97 346.36 608.44 346.7 606.01 345.55 608.21 346.85 609.21 347.51 609.21 346.85 609.51 346.36 608.8 345.06"/><polygon class="cls-26" points="609.74 339.89 609.51 340.54 607.72 340.01 606.3 337.45 607.47 340.1 607.07 340.1 607.14 340.91 608.21 340.54 609.51 341.07 611.5 343.84 609.97 341.16 610.33 340.84 610.28 340.1 610.49 339.74 609.74 339.89"/><polygon class="cls-20" points="600.84 339.74 602.27 340.01 604 343.84 603.04 340.01 603.79 338.93 603.62 338.41 602.88 339.31 602.12 339.56 600.46 338.82 600.43 339.44 600.84 339.74"/><polygon class="cls-19" points="600.19 335.65 601.51 338.06 601.51 337.4 600.19 334.58 600.19 335.65"/><g><path class="cls-43" d="M598.71,337.76l1.75,1.07-.94-2.62-.82-.62c0,1,0,2.03,.01,2.17Z"/><polygon class="cls-43" points="600.1 341.26 600.51 343.45 601.17 344.13 601.15 343.84 601.05 342.76 600.35 340.84 599.54 340.43 600.1 341.26"/><polygon class="cls-43" points="598.71 333.66 599.09 334.1 599.82 335.33 599.94 334.76 599.13 332.74 598.21 332.05 598.71 333.66"/><path class="cls-43" d="M599.2,339.38l.52,.12,.71-.07-1.48-.84c.08,.25,.16,.52,.25,.78Z"/><polygon class="cls-43" points="598.19 330.41 597.99 329.69 598.01 329.13 597.3 329.13 597.76 330.62 598.62 331.47 598.19 330.41"/><polygon class="cls-43" points="599.13 344.73 601.15 346.7 601.71 345.55 599.6 344.29 599.13 344.73"/><path class="cls-43" d="M607.14,340.91l-.07-.81-1.46-.94-2.04-1.06s.08,.67,.22,.82c.14,.15,.98,.74,.98,.74l.71,.88,1.18,.62,1.79,3.15-1.3-3.4Z"/><polygon class="cls-43" points="605.87 338.63 606.66 339.11 606.4 338.47 605.92 337.54 605.34 337.34 605.87 338.63"/><path class="cls-43" d="M604.75,335.92l.42,.13,.92,.78s-.19-.34-.37-.71l-1.1-.51,.12,.3Z"/><polygon class="cls-43" points="605.08 333.67 603.98 331.45 604.39 333.2 605.18 333.82 605.08 333.67"/><path class="cls-43" d="M604.28,334.78l1.13,.56c-.01-.06-.01-.1,0-.12,.08-.07,0-.28-.09-.45l-1.01-.47-.03,.47Z"/><polygon class="cls-43" points="596.35 343.41 596.81 344.31 596.07 344.31 598.67 345.93 596.07 344.68 597.67 346.08 599.09 348.32 600.82 348.61 598.7 345.44 597.62 344.02 596.35 343.4 596.35 343.41"/><polygon class="cls-43" points="596.07 340 596.07 342.36 596.66 342.76 596.07 340"/><polygon class="cls-34" points="601.17 344.13 600.51 343.45 599.6 344.29 601.71 345.55 601.17 344.31 601.17 344.13"/><path class="cls-34" d="M598.95,338.6l1.48,.84,.03-.61-1.75-1.07c.01,.09,.11,.43,.24,.84Z"/><path class="cls-34" d="M599.54,340.43l.81,.42-.35-.95-.28-.39-.52-.12c.18,.56,.34,1.04,.34,1.04Z"/><polygon class="cls-34" points="599.13 332.74 598.62 331.47 597.76 330.62 598.21 332.05 599.13 332.74"/><path class="cls-34" d="M598.7,335.59l.82,.62-.11-.3-.32-1.8-.38-.44s0,.94-.01,1.92Z"/><polygon class="cls-34" points="596.07 344.31 596.07 344.68 598.67 345.93 596.07 344.31"/><polygon class="cls-34" points="597.62 344.02 596.66 342.76 596.07 342.36 596.35 343.4 597.62 344.02"/><path class="cls-34" d="M604.63,335.62l1.1,.51c-.15-.3-.29-.61-.32-.78l-1.13-.56,.35,.84Z"/><polygon class="cls-34" points="605.34 337.34 605.92 337.54 605.42 336.58 605.18 336.06 604.75 335.92 605.34 337.34"/><path class="cls-34" d="M605.33,334.77c-.07-.14-.15-.26-.15-.26l.24-.39-.24-.31-.8-.62-.07,1.11,1.01,.47Z"/><polygon class="cls-34" points="606.66 339.11 605.87 338.63 605.61 339.16 607.07 340.1 606.66 339.11"/></g></g></g></g><g><polygon class="cls-65" points="588.27 348.17 582.52 339.87 582.6 337.2 574.65 325.54 573.62 325.14 573.58 325.34 573.39 324.96 566.83 318.42 565.4 318.73 566.21 321.84 567.16 324.39 568.41 327.75 569.98 331.96 569.46 334.42 570.59 337.39 567.8 337.07 566.84 338.16 565.46 337.01 564.84 336.74 562.4 336.46 561.97 337.92 562.83 339.94 563.52 341.57 563.89 342.42 564.52 343.93 563.22 345.17 564.24 347.63 564.44 348.09 566.24 351.25 567.26 352.24 569.78 352.36 579.17 352.8 584.56 352.24 584.23 348.3 588.27 348.17"/><g class="cls-56"><path class="cls-50" d="M569.48,327.16l.11,.21-.11-.21Zm-4.87,13.65l-.55-.95,1.34,2.32-.79-1.38Z"/><g><g><polygon class="cls-43" points="570.68 341.36 568.42 337.34 567.32 338.56 570.68 341.36"/><polygon class="cls-43" points="574.65 325.54 574.24 325.6 574.09 326.33 576.84 331.7 574.65 325.54"/><path class="cls-45" d="M584.56,352.24l-.33-3.93,4.04-.14-5.75-8.3,.08-2.67-7.95-11.65,2.19,6.15-3.45-6.74-6.56-6.54v2.33s.63,1.8,.92,2.43c.29,.63,2.49,4.65,2.49,4.65l1.76,4.86-.43,2.12,.43,2.19s.7,1.33,.79,1.55c.09,.22,3.61,5.32,3.61,5.32l-5.18-6.23-2.8-.31,2.26,4.02-5.22-4.35-2.44-.27,.65,1.61,2.7,4.6,2.88,3.1-4.11-1.98,.18,1.23,.61,1.84,2.02,2.74-1.58-.55,.97,1.31,2.44,1.71,9.4,.44,5.39-.56Z"/><g><polygon class="cls-43" points="563.67 338.35 563.02 336.74 562.59 338.16 563.91 338.75 563.67 338.35"/><polygon class="cls-43" points="564.15 341.76 566.05 342.4 565.24 341.02 563.45 340.16 564.15 341.76"/><polygon class="cls-43" points="565.14 344.07 569.25 346.05 566.54 343.14 564.51 342.6 565.14 344.07"/><path class="cls-43" d="M567.75,323.19c-.29-.63-.92-2.43-.92-2.43v-2.33l-.81,.88,.81,3.06,.95,2.51,1.25,.74c-.56-1.04-1.14-2.11-1.27-2.42Z"/><polygon class="cls-43" points="570.6 332.31 572 332.7 570.62 328.88 569.03 328.16 570.6 332.31"/><path class="cls-43" d="M572.79,338.56c-.09-.22-.79-1.55-.79-1.55l-.43-2.19-1.49-.09,1.14,2.92,5.18,6.23s-3.52-5.1-3.61-5.32Z"/><polygon class="cls-43" points="565.63 346.21 565.33 345.3 565.14 344.07 563.84 345.3 565.63 346.21"/><polygon class="cls-43" points="565.06 348.17 567.26 352.24 569.78 352.36 567.34 350.64 566.37 349.34 567.95 349.89 566.81 348.34 564.86 347.71 565.06 348.17"/><polygon class="cls-34" points="564.51 342.6 566.54 343.14 566.37 342.95 566.05 342.4 564.15 341.76 564.51 342.6"/><polygon class="cls-34" points="565.24 341.02 563.91 338.75 562.59 338.16 563.45 340.16 565.24 341.02"/><polygon class="cls-34" points="572 332.7 570.6 332.31 570.08 334.73 571.57 334.82 572 332.7"/><path class="cls-34" d="M570.62,328.88l-.37-1.03s-.6-1.1-1.22-2.24l-1.25-.74,1.25,3.3,1.59,.71Z"/><polygon class="cls-34" points="564.86 347.71 566.81 348.34 565.93 347.14 565.63 346.21 563.84 345.3 564.86 347.71"/></g></g><polygon class="cls-7" points="576.84 344.97 576.84 348.48 580.09 351.54 580.09 348.89 577.89 347.94 576.84 344.97"/><polygon class="cls-5" points="582.6 337.2 578.5 335.88 576.84 332.35 577.72 335.62 576.05 333.76 572 332.7 575.11 334.2 577.3 336.74 578.5 337.29 579.55 339.18 584.09 344.45 581.33 339.95 582.52 339.87 582.6 337.2"/><polygon class="cls-25" points="571.21 342.68 572 345.43 570.24 346.27 571.96 346.16 574.38 349.69 572.97 346.19 573.04 345.07 571.21 342.68"/></g></g></g><g><polygon class="cls-36" points="500.75 349.38 503.85 344.9 503.81 343.46 508.09 337.18 508.65 336.96 508.67 337.07 508.77 336.87 512.31 333.34 513.08 333.51 512.64 335.18 512.13 336.56 511.46 338.37 510.61 340.64 510.89 341.97 510.28 343.57 511.79 343.4 512.3 343.98 513.05 343.36 513.38 343.22 514.7 343.07 514.93 343.85 514.46 344.94 514.09 345.82 513.9 346.28 513.55 347.09 514.26 347.76 513.7 349.09 513.6 349.34 512.63 351.04 512.08 351.57 510.72 351.64 505.65 351.88 502.75 351.57 502.93 349.45 500.75 349.38"/><g class="cls-47"><path class="cls-50" d="M510.82,338.16l.06-.11-.06,.11Zm2.26,7.99l.72-1.25-.3,.51-.43,.74Z"/><g><g><polygon class="cls-43" points="510.23 345.71 511.45 343.54 512.04 344.2 510.23 345.71"/><polygon class="cls-43" points="508.09 337.18 508.31 337.21 508.39 337.61 506.91 340.5 508.09 337.18"/><path class="cls-40" d="M502.75,351.57l.18-2.12-2.18-.07,3.1-4.47-.04-1.44,4.29-6.28-1.18,3.32,1.86-3.63,3.54-3.53v1.26s-.34,.97-.5,1.31c-.16,.34-1.34,2.51-1.34,2.51l-.95,2.62,.23,1.14-.23,1.18s-.38,.72-.43,.84c-.05,.12-1.95,2.87-1.95,2.87l2.8-3.36,1.51-.17-1.22,2.17,2.81-2.35,1.32-.15-.35,.87-1.46,2.48-1.56,1.67,2.22-1.07-.1,.66-.33,.99-1.09,1.48,.85-.3-.52,.7-1.31,.92-5.07,.24-2.91-.3Z"/><g><polygon class="cls-43" points="514.01 344.08 514.36 343.21 514.59 343.98 513.88 344.3 514.01 344.08"/><polygon class="cls-43" points="513.76 345.92 512.73 346.27 513.17 345.52 514.13 345.06 513.76 345.92"/><polygon class="cls-43" points="513.22 347.17 511 348.24 512.46 346.67 513.56 346.38 513.22 347.17"/><path class="cls-43" d="M511.81,335.91c.16-.34,.5-1.31,.5-1.31v-1.26l.43,.47-.43,1.65-.51,1.35-.67,.4c.3-.56,.61-1.14,.69-1.3Z"/><polygon class="cls-43" points="510.28 340.83 509.52 341.04 510.27 338.98 511.12 338.59 510.28 340.83"/><path class="cls-43" d="M509.09,344.2c.05-.12,.43-.84,.43-.84l.23-1.18,.8-.05-.61,1.57-2.8,3.36s1.9-2.75,1.95-2.87Z"/><polygon class="cls-43" points="512.96 348.32 513.12 347.83 513.22 347.17 513.92 347.83 512.96 348.32"/><polygon class="cls-43" points="513.26 349.38 512.08 351.57 510.72 351.64 512.03 350.71 512.56 350.01 511.7 350.31 512.32 349.47 513.37 349.13 513.26 349.38"/><polygon class="cls-34" points="513.56 346.38 512.46 346.67 512.56 346.56 512.73 346.27 513.76 345.92 513.56 346.38"/><polygon class="cls-34" points="513.17 345.52 513.88 344.3 514.59 343.98 514.13 345.06 513.17 345.52"/><polygon class="cls-34" points="509.52 341.04 510.28 340.83 510.56 342.13 509.75 342.18 509.52 341.04"/><path class="cls-34" d="M510.27,338.98l.2-.56s.32-.59,.66-1.21l.67-.4-.67,1.78-.86,.38Z"/><polygon class="cls-34" points="513.37 349.13 512.32 349.47 512.79 348.83 512.96 348.32 513.92 347.83 513.37 349.13"/></g></g><polygon class="cls-21" points="506.91 347.65 506.91 349.55 505.16 351.2 505.16 349.77 506.34 349.25 506.91 347.65"/><polygon class="cls-29" points="503.81 343.46 506.02 342.75 506.91 340.85 506.44 342.61 507.34 341.61 509.52 341.04 507.84 341.85 506.66 343.21 506.02 343.51 505.45 344.53 503 347.37 504.49 344.95 503.85 344.9 503.81 343.46"/><polygon class="cls-33" points="509.95 346.42 509.52 347.9 510.47 348.35 509.54 348.3 508.24 350.2 509 348.31 508.96 347.71 509.95 346.42"/></g></g></g><g><path class="cls-50" d="M850.2,270.52c.05-.03,.13-.09,.17-.11-.05,.03-.12,.08-.17,.11Z"/><path class="cls-52" d="M843.93,275.72l.07-.07c-2.91,2.59-5.67,5.14-5.67,5.14l9.54-3.46-2.7,4.59s-9.31,4.59-12.37,6.63c-3.06,2.04-4.42-.34-4.42-.34,0,0-4.76,2.72-5.78,3.4-.14,.09-.46,.3-.9,.57l-7.59-.92-1.22,.89,29.16-21.32-5.3,3.88,7.19,1.02Z"/><path class="cls-50" d="M850.66,270.31c.07,0,.18-.03,.31-.09-.13,.06-.24,.1-.31,.09Z"/><path class="cls-50" d="M848.82,271.54c.11-.09,.24-.19,.34-.27-.11,.08-.23,.18-.34,.27Z"/><path class="cls-50" d="M820.22,301.91h0Z"/><path class="cls-50" d="M849.59,270.94c.09-.07,.19-.15,.27-.2-.08,.06-.18,.14-.27,.2Z"/><path class="cls-50" d="M819.7,301.93h0Z"/><path class="cls-50" d="M851.08,270.16c.12-.06,.26-.14,.41-.24-.15,.1-.29,.18-.41,.24Z"/><path class="cls-52" d="M859.32,264.13c-.67,.19-3.85,2.86-6.18,4.63l-7.34-.66,15.61-11.41s-1.06,7.16-2.08,7.45Z"/><path class="cls-50" d="M851.6,269.86c.42-.28,.95-.66,1.53-1.1-.58,.44-1.11,.82-1.53,1.1Z"/><path class="cls-50" d="M817.75,301.96s-.09,0-.14,0c.05,0,.09,0,.14,0Z"/><path class="cls-52" d="M800.5,307.22c2.69-.3,13.03-5.62,15.22-5.4l4.38,.98,.06-.04c-.87,.59-1.96,1.38-2.78,2.1-1.57,1.38-16.87,13.39-18.57,13.51-1.7,.12-11.56,2.84-11.56,2.84l4.08-5.78-13.6,6.12-10.88,10.2-8.16,6.53,16.66-2.11s-3,4.38-4.08,5.75c-1.08,1.38-25.16,13.63-25.16,13.63l-21.55-5.44,42.63-30.94s4.76-2.38,8.16-2.72,9.18-5.18,9.18-5.18l14.11-8.67,4.8-3.51,5.35,1.2c-3.79,2.6-10.24,7.16-8.29,6.95Z"/><path class="cls-50" d="M817.04,301.94s-.09,0-.14,0c.05,0,.09,0,.14,0Z"/><path class="cls-50" d="M817.25,294.93c.16-.1,.32-.2,.48-.29-.16,.1-.32,.2-.48,.29Z"/><path class="cls-52" d="M820.7,301.88c.54-.03,.88-.07,.88-.07,0,0-.13,.08-.32,.21l.06-.04-.61-.11Z"/><path class="cls-50" d="M818.2,294.34c.14-.08,.27-.17,.41-.25-.13,.08-.27,.17-.41,.25Z"/><path class="cls-50" d="M818.23,301.97c.06,0,.11,0,.17,0-.06,0-.11,0-.17,0Z"/><path class="cls-50" d="M845.85,274.04c.14-.12,.28-.24,.42-.36-.14,.12-.28,.24-.42,.36Z"/><path class="cls-50" d="M844.76,274.99c.13-.11,.26-.23,.38-.34-.13,.11-.26,.23-.38,.34Z"/><path class="cls-50" d="M846.9,273.13c.14-.12,.29-.25,.43-.37-.14,.12-.29,.25-.43,.37Z"/><path class="cls-50" d="M821.12,292.55c.11-.07,.2-.13,.3-.19-.1,.06-.19,.12-.3,.19Z"/><path class="cls-50" d="M820.39,293c.08-.05,.14-.09,.21-.13-.07,.05-.14,.09-.21,.13Z"/><path class="cls-50" d="M819.04,293.83c.32-.2,.63-.39,.93-.57-.3,.18-.61,.37-.93,.57Z"/><path class="cls-50" d="M847.9,272.29c.14-.11,.28-.23,.41-.34-.13,.11-.27,.23-.41,.34Z"/><path class="cls-50" d="M820.75,302.36c.08-.05,.13-.09,.2-.13-.06,.04-.13,.08-.2,.13Z"/><path class="cls-50" d="M816.46,301.9c-.05,0-.1,0-.15-.01,.05,0,.1,.01,.15,.01Z"/><path class="cls-50" d="M930.15,283.28c.37-.47,.74-.94,1.11-1.41-.37,.47-.74,.95-1.11,1.41Z"/><path class="cls-50" d="M931.52,281.54c.28-.36,.55-.71,.82-1.07-.27,.35-.54,.71-.82,1.07Z"/><path class="cls-50" d="M929.04,284.66c.31-.38,.62-.77,.93-1.16-.31,.39-.62,.78-.93,1.16Z"/><path class="cls-50" d="M927.96,285.99c.24-.3,.49-.6,.75-.91-.25,.31-.5,.62-.75,.91Z"/><path class="cls-50" d="M932.69,280c.23-.31,.46-.61,.68-.92-.22,.3-.45,.61-.68,.92Z"/><polygon class="cls-52" points="906.24 330.72 892.49 326.3 903.44 310.45 920.9 313.24 906.24 330.72"/><path class="cls-52" d="M959.37,251.16l-4.18,5.58-6.06,5.98-6.52,5.44s-4.15,2.65-6.67,7.11c-.16,.28-.34,.58-.54,.9l-11.69-1.05,15.81-15.37,26.15-32.89-10.48,24.31h4.18Z"/><path class="cls-50" d="M926.91,287.27c.24-.29,.49-.59,.75-.91-.26,.32-.51,.62-.75,.91Z"/><path class="cls-50" d="M934.63,277.33c.28-.41,.55-.8,.78-1.17-.23,.36-.5,.76-.78,1.17Z"/><path class="cls-50" d="M933.72,278.61c.22-.31,.43-.61,.64-.9-.21,.29-.42,.59-.64,.9Z"/><path class="cls-50" d="M893.31,272.9c.1-.09,.23-.2,.35-.3-.12,.1-.25,.21-.35,.3Z"/><path class="cls-50" d="M892.88,273.27c.08-.07,.18-.15,.28-.24-.1,.08-.2,.17-.28,.24Z"/><path class="cls-52" d="M880.74,280.79s-9.27,10.97-9.74,12.6c-.16,.56-1.11,2.37-2.27,4.51l-18.71-2.27,9.98-8.09s3.27-4.08,4.19-5.61c.22-.37,1.28-1.48,2.77-2.95l13.69,1.93,.1-.12Z"/><path class="cls-50" d="M867.92,299.37c.23-.42,.46-.84,.69-1.24-.22,.41-.45,.82-.69,1.24Z"/><path class="cls-52" d="M920.77,256.74l-5.35,3.94s-12.64,1.81-13.12,3.45c-.37,1.25-5.82,6.05-8.43,8.29l-18.37-1.65c-1.42,1.34-2.97,2.81-4.46,4.23,4.56-4.37,9.7-9.14,9.7-9.14l39.11-24.23-4.78,10.55,5.69,4.56Z"/><path class="cls-50" d="M872.55,300.91l-.06,.04,.06-.04Z"/><path class="cls-50" d="M873.86,311.73c.16-.09,.31-.16,.43-.23-.12,.07-.26,.14-.43,.23Z"/><path class="cls-50" d="M872.45,312.48c.49-.26,.92-.49,1.28-.68-.36,.19-.8,.42-1.28,.68Z"/><path class="cls-50" d="M874.38,311.45l.24-.13-.24,.13Z"/><path class="cls-50" d="M871.6,312.92c.26-.14,.52-.27,.77-.4-.25,.13-.5,.27-.77,.4Z"/><path class="cls-50" d="M870.68,313.41c.28-.15,.55-.29,.82-.43-.27,.14-.54,.29-.82,.43Z"/><path class="cls-50" d="M866.94,301.11c.28-.5,.57-1.01,.85-1.51-.28,.51-.56,1.01-.85,1.51Z"/><path class="cls-50" d="M871.43,301.57l-.05,.03,.05-.03Z"/><path class="cls-50" d="M874.68,311.29l.07-.04-.07,.04Z"/><path class="cls-50" d="M882.46,304.99c1.01-1.32,2.32-3.06,3.73-4.92-1.4,1.86-2.72,3.6-3.73,4.92Z"/><path class="cls-50" d="M874.95,299.35l-.11,.08,.11-.08Z"/><path class="cls-52" d="M863.46,307.22l7.54-5.4-3.94,2.82,13.95,2.23c.33-.42,.82-1.06,1.43-1.85-.81,1.06-1.42,1.85-1.71,2.21-1.7,2.08-5.98,4.04-5.98,4.04,0,0,.06-.03,.17-.08l-37.86-6.49,5.67-3.94,22.38,3.58c-.97,1.69-1.66,2.89-1.66,2.89Z"/><path class="cls-50" d="M865.19,304.2c.21-.37,.44-.77,.67-1.18-.23,.41-.46,.81-.67,1.18Z"/><path class="cls-50" d="M866.09,302.62c.21-.37,.43-.75,.65-1.14-.22,.39-.43,.77-.65,1.14Z"/><path class="cls-50" d="M871.13,301.74l-.05,.03,.05-.03Z"/><path class="cls-50" d="M871.03,275.01c-1.49,1.42-2.91,2.81-4.08,3.96,1.17-1.16,2.59-2.54,4.08-3.96Z"/><path class="cls-52" d="M869.74,313.9c.29-.15,.59-.3,.88-.46-.62,.32-1.25,.65-1.84,.95-2.66,1.36-8.9,8.5-13.77,11.9-4.87,3.4-13.71,10.2-13.71,10.2l13.71-20.06-9.83,1.92s-4.84,5.25-7.76,7.94c-2.92,2.69-21.04,10.88-22.86,11.9-1.81,1.02-3.96-9.52-3.96-9.52l6.78-10.32,18.41-12.78-.79,.55,34.75,7.77Z"/><path class="cls-52" d="M875.77,298.75c1.1-.82,2.16-1.73,2.93-2.63,2.38-2.81,8.42-11.31,10.5-11.65,2.08-.34,10.27-.68,10.27-.68l-4.37,4.42s-4.78,6.4-8.86,11.81l-10.45-1.27h0Z"/><path class="cls-52" d="M761.74,315.08c-1.36,0,4.42-5.78,4.42-5.78l-9.52,1.95-13.26,9.6-10.88,8.5-7.95,6.46,9.37-2.88h4.35s-15.64,9.34-17.68,10.7c-2.04,1.36-6.8,2.89-8.16,3.32-1.36,.42,4.08-5.45,4.08-5.45l1.71-4.67s-4.21,2.03-7.72,4.41c-3.51,2.39-17.11,15.17-19.49,16.26-2.38,1.09-7.48,5.51-7.48,5.51,0,0-1.19,2.65-1.76,4.88l-.54-10.36,52.69-45.77,34.87-4.55,25.62-8.77-21.46,12.8s-9.86,3.82-11.22,3.82Z"/><path class="cls-64" d="M683.54,363.01s5.1-4.42,7.48-5.51c2.38-1.09,15.98-13.87,19.49-16.26,3.51-2.39,7.72-4.41,7.72-4.41l-1.71,4.67s-5.44,5.87-4.08,5.45c1.36-.43,6.12-1.95,8.16-3.32,2.04-1.36,17.68-10.7,17.68-10.7h-4.35l-9.37,2.88,7.95-6.46,10.88-8.5,13.26-9.6,9.52-1.95s-5.78,5.78-4.42,5.78,11.22-3.82,11.22-3.82l21.46-12.8,4.21,4.13-14.11,8.67s-5.78,4.84-9.18,5.18-8.16,2.72-8.16,2.72l-42.63,30.94,21.55,5.44s24.08-12.25,25.16-13.63c1.08-1.38,4.08-5.75,4.08-5.75l-16.66,2.11,8.16-6.53,10.88-10.2,13.6-6.12-4.08,5.78s9.86-2.72,11.56-2.84c1.7-.12,17-12.12,18.57-13.51,.81-.72,1.91-1.5,2.78-2.1,.22-.15,.42-.28,.6-.4,.07-.05,.13-.09,.2-.13,.11-.07,.22-.15,.31-.2,.19-.12,.32-.21,.32-.21,0,0-.35,.03-.88,.07-.14,0-.31,.02-.48,.03h-.09c-.14,.01-.29,.02-.44,.02h-.13c-.19,.01-.38,.02-.57,.02-.22,0-.41,0-.59,0-.06,0-.11,0-.17,0-.16,0-.32,0-.48,0-.05,0-.09,0-.14,0-.2,0-.39-.01-.58-.02-.05,0-.09,0-.14,0-.15,0-.29-.02-.44-.03-.05,0-.1,0-.15-.01-.18-.02-.35-.04-.51-.07-.02,0-.06,0-.08,0-2.19-.22-12.53,5.1-15.22,5.4-1.95,.21,4.49-4.35,8.29-6.95,.17-.12,.34-.23,.5-.34,.77-.52,1.39-.94,1.74-1.17,.07-.05,.13-.09,.18-.12l.15-.1,.12-.07c.16-.1,.48-.29,.9-.55l.15-.09c.24-.15,.51-.31,.81-.49,.5-.3,1.05-.64,1.65-1.01,.72-.44,1.49-.91,2.26-1.38,.16-.1,.32-.2,.48-.29,.16-.1,.32-.2,.48-.29,.14-.08,.27-.17,.41-.25,.15-.09,.29-.18,.43-.27,.32-.2,.63-.39,.93-.57,.14-.09,.29-.18,.42-.26,.08-.05,.14-.09,.21-.13,.18-.11,.35-.22,.51-.32,.11-.07,.2-.13,.3-.19,.09-.06,.2-.12,.28-.18,.43-.27,.76-.47,.9-.57,1.02-.68,5.78-3.4,5.78-3.4,0,0,1.36,2.38,4.42,.34,3.06-2.04,12.37-6.63,12.37-6.63l2.7-4.59-9.54,3.46s2.76-2.55,5.67-5.14c.25-.22,.5-.45,.75-.67,.13-.11,.26-.23,.38-.34,.24-.21,.47-.41,.71-.62,.14-.12,.28-.24,.42-.36,.22-.19,.42-.36,.63-.54,.14-.12,.29-.25,.43-.37,.2-.17,.38-.32,.57-.47,.14-.11,.28-.23,.41-.34,.18-.15,.34-.28,.51-.41,.11-.09,.24-.19,.34-.27,.16-.12,.29-.22,.42-.32,.09-.07,.19-.15,.27-.2,.13-.09,.23-.15,.34-.22,.05-.03,.13-.09,.17-.11,.13-.07,.23-.11,.29-.1,.07,0,.18-.03,.31-.09,.04-.02,.08-.04,.12-.06,.12-.06,.26-.14,.41-.24,.04-.02,.07-.04,.1-.06,.42-.27,.95-.66,1.53-1.1,2.34-1.77,5.52-4.44,6.19-4.63,1.02-.29,2.08-7.45,2.08-7.45l7.37,6.12,11.96,3.06s-5.14,4.78-9.7,9.14c-1.49,1.43-2.92,2.81-4.08,3.97-1.49,1.48-2.55,2.59-2.77,2.96-.91,1.53-4.19,5.61-4.19,5.61l-9.98,8.09-.62,.5-6.65,4.62-5.67,3.94-1.29,.9-18.41,12.78-6.78,10.32s2.15,10.54,3.96,9.52c1.81-1.02,19.94-9.21,22.86-11.9,2.92-2.69,7.76-7.94,7.76-7.94l9.83-1.92-13.71,20.06s8.84-6.8,13.71-10.2c4.87-3.4,11.11-10.54,13.77-11.9,.6-.3,1.22-.63,1.84-.95l.07-.04c.28-.15,.55-.29,.82-.43l.1-.05c.26-.14,.52-.27,.77-.4l.08-.04c.48-.26,.92-.49,1.28-.68l.13-.07c.16-.09,.31-.16,.43-.23l.09-.05,.24-.13,.06-.03,.07-.04s4.28-1.95,5.98-4.04c.29-.35,.9-1.15,1.71-2.21,1.03-1.34,2.34-3.08,3.74-4.94l.04-.05c4.08-5.41,8.86-11.81,8.86-11.81l4.37-4.42s-8.19,.34-10.27,.68c-2.08,.34-8.12,8.84-10.5,11.65-.76,.9-1.83,1.81-2.93,2.63-.27,.2-.55,.4-.82,.59l-.11,.08c-.83,.58-1.64,1.09-2.29,1.49l-.06,.04c-.43,.26-.79,.47-1.05,.62l-.05,.03c-.1,.06-.19,.11-.25,.14l-.05,.03-.08,.05-7.54,5.4s.69-1.2,1.66-2.89l.07-.12c.21-.37,.44-.77,.67-1.18,.08-.13,.15-.27,.23-.4,.21-.37,.43-.75,.65-1.14,.07-.12,.14-.24,.21-.37,.28-.5,.57-1.01,.85-1.51,.04-.08,.08-.15,.13-.23,.23-.42,.46-.84,.69-1.24,.04-.07,.08-.15,.13-.23,1.16-2.13,2.11-3.95,2.27-4.51,.46-1.63,9.74-12.6,9.74-12.6l11.75-7.2s.14-.12,.39-.33c.08-.07,.18-.15,.28-.24l.16-.13c.11-.09,.23-.2,.35-.3,.07-.06,.13-.11,.21-.18,2.61-2.24,8.06-7.04,8.43-8.29,.48-1.65,13.12-3.45,13.12-3.45l5.35-3.94-5.69-4.56,4.78-10.55,4.55,7.83,7.19,7.22,7.94,3.06-15.81,15.37-5.85,5.69v8.78l-12.2,17.64-2.23,3.23-10.95,15.85,13.75,4.42,14.67-17.48,5.05-6.02,1.32-2.21,9.67-16.14,2.58-4.3-5.75,1.61-9.37,9.95v-5.87l.07-.08,.07-.08,.13-.15c.07-.08,.15-.17,.24-.28,.07-.08,.14-.17,.22-.26l.22-.26c.1-.12,.2-.24,.31-.37,.12-.14,.24-.28,.37-.44,.12-.14,.24-.29,.37-.45,.09-.11,.18-.22,.28-.34l.09-.11s.09-.11,.13-.16c.24-.29,.49-.59,.75-.91,.1-.12,.2-.24,.3-.37,.24-.3,.49-.6,.75-.91,.11-.14,.22-.27,.34-.41,.31-.38,.62-.77,.93-1.16,.06-.07,.12-.14,.18-.22,.37-.47,.74-.94,1.11-1.41,.09-.11,.17-.22,.26-.33,.28-.36,.55-.71,.82-1.07,.12-.16,.24-.31,.36-.47,.23-.31,.46-.61,.68-.92,.12-.16,.23-.32,.35-.47,.22-.31,.43-.6,.64-.9,.09-.13,.19-.26,.27-.39,.28-.41,.55-.8,.78-1.17,.2-.32,.38-.62,.54-.9,2.51-4.45,6.67-7.11,6.67-7.11l6.52-5.44,6.06-5.98,4.18-5.58h-4.18l10.48-24.31,18.84,18.29,14.53,11.55s.62,1.01,1.74,2.84c-.18,1.06,11.05,8.24,10.99,8.58-.34,2.04,52.45,62.62,52.45,62.62l-133.57,35.02s-167.56,6.12-173,6.8c-5.44,.68-74.12-1.02-75.73-1.7-.63-.27-.52-1.52-.15-2.94,.57-2.23,1.76-4.88,1.76-4.88Z"/><path class="cls-52" d="M814.99,296.31c-.6,.37-1.16,.71-1.65,1.01-.3,.18-.57,.35-.81,.49l-.15,.09c-.42,.26-.74,.45-.9,.55l-.12,.07-.15,.1s-.11,.07-.18,.12c-.36,.24-.97,.65-1.74,1.17l-5.69-.98,5.01-3.66,6.39,1.02Z"/><path class="cls-52" d="M926.78,287.43l-.09,.11c-.1,.12-.19,.23-.28,.34-.13,.16-.25,.3-.37,.45-.13,.16-.25,.3-.37,.44-.11,.13-.22,.26-.31,.37l-.22,.26c-.08,.1-.15,.18-.22,.26-.1,.11-.17,.2-.24,.28l-.13,.15-.07,.08-.07,.08v5.87l9.37-9.95-1.86,1.98,5.04,.71-9.67,16.14-18.52-2.25-3.08,4.46,12.2-17.64v-3.41l8.91,1.26Z"/><path class="cls-53" d="M853.13,268.76c-.58,.44-1.11,.82-1.54,1.1-.04,.02-.07,.04-.1,.06-.16,.1-.29,.18-.41,.24-.04,.02-.08,.04-.12,.06-.13,.06-.24,.1-.31,.09-.05,0-.15,.03-.29,.1-.05,.03-.12,.08-.17,.11-.1,.06-.2,.12-.34,.22-.08,.06-.18,.14-.27,.2-.14,.1-.27,.2-.42,.32-.11,.08-.23,.18-.34,.27-.17,.13-.33,.26-.51,.41-.13,.11-.27,.23-.41,.34-.19,.16-.37,.31-.57,.47-.14,.12-.29,.25-.43,.37-.21,.18-.42,.36-.63,.54-.14,.12-.28,.24-.42,.36-.23,.2-.47,.41-.71,.62-.13,.11-.26,.23-.38,.34-.25,.22-.5,.44-.75,.67l-.07,.07-7.19-1.02,5.3-3.88,3.74-2.74,7.34,.66h0Z"/><polygon class="cls-53" points="931.91 288.15 933.77 286.18 939.53 284.56 936.95 288.87 931.91 288.15"/><path class="cls-53" d="M935.41,276.16c-.23,.36-.5,.76-.78,1.17-.09,.13-.18,.26-.27,.39-.2,.29-.42,.59-.64,.9-.11,.16-.23,.31-.35,.47-.22,.3-.45,.61-.68,.92-.12,.16-.23,.31-.36,.47-.27,.35-.54,.71-.82,1.07-.09,.11-.17,.22-.26,.33-.37,.47-.74,.95-1.11,1.41-.06,.07-.12,.15-.18,.22-.31,.39-.62,.78-.93,1.16-.11,.14-.22,.28-.34,.41-.25,.31-.5,.62-.75,.91-.1,.13-.2,.25-.3,.37-.26,.32-.51,.62-.75,.91-.04,.05-.09,.11-.13,.16l-8.91-1.26v-5.38l5.85-5.69,11.69,1.05h0Z"/><path class="cls-53" d="M893.87,272.42c-.08,.07-.14,.12-.21,.18-.12,.1-.25,.21-.35,.3l-.16,.13c-.1,.08-.2,.17-.28,.24-.25,.21-.39,.33-.39,.33l-11.75,7.2-.1,.12-13.69-1.93c1.17-1.16,2.6-2.54,4.08-3.97,1.5-1.43,3.05-2.9,4.46-4.24l18.37,1.65Z"/><path class="cls-53" d="M821.7,292.18c-.08,.05-.19,.12-.28,.18-.1,.06-.19,.12-.3,.19-.16,.1-.34,.21-.51,.32-.07,.04-.14,.09-.21,.13-.13,.08-.28,.17-.42,.26-.3,.18-.61,.37-.93,.57-.14,.09-.28,.17-.43,.27-.13,.08-.27,.17-.41,.25-.16,.1-.32,.19-.48,.29-.16,.1-.32,.2-.48,.29-.77,.47-1.54,.94-2.26,1.38l-6.39-1.02,4.29-3.14,1.22-.89,7.59,.92Z"/><path class="cls-53" d="M815.72,301.82s.06,0,.08,0c.16,.03,.33,.05,.51,.07,.05,0,.1,.01,.15,.01,.14,.01,.29,.02,.44,.03,.05,0,.09,0,.14,0,.19,0,.38,.02,.58,.02,.05,0,.09,0,.14,0,.16,0,.32,0,.48,0,.06,0,.11,0,.17,0,.18,0,.37,0,.54,0,.24,0,.43-.01,.62-.02h.13c.15-.01,.3-.02,.44-.03h.09c.17-.01,.33-.02,.48-.03l.61,.11-.06,.04c-.09,.06-.2,.13-.31,.2-.07,.04-.12,.08-.2,.13-.18,.12-.38,.25-.6,.4l-.06,.04-4.38-.98Z"/><path class="cls-53" d="M809.28,299.93c-.16,.11-.33,.22-.5,.34l-5.35-1.2,.16-.12,5.69,.98Z"/><polygon class="cls-53" points="927.28 305.01 925.95 307.22 920.9 313.24 903.44 310.45 905.68 307.22 908.76 302.76 927.28 305.01"/><path class="cls-53" d="M868.73,297.9c-.04,.07-.08,.15-.13,.23-.22,.41-.45,.82-.69,1.24-.04,.08-.08,.15-.13,.23-.28,.5-.57,1.01-.85,1.51-.07,.12-.14,.24-.21,.37-.22,.39-.43,.77-.65,1.14-.08,.14-.15,.27-.23,.4-.23,.41-.46,.81-.67,1.18l-.07,.12-22.38-3.58,6.65-4.62,.62-.5,18.71,2.27h0Z"/><path class="cls-53" d="M867.06,304.63l3.94-2.82,.08-.05,.05-.03c.06-.03,.15-.08,.25-.14l.05-.03c.26-.15,.62-.36,1.05-.62l.06-.04c.66-.4,1.46-.91,2.29-1.49l.11-.08c.27-.19,.55-.39,.82-.59l10.46,1.27-.04,.05c-1.4,1.86-2.72,3.6-3.73,4.92-.62,.82-1.12,1.46-1.45,1.88l-13.95-2.23Z"/><path class="cls-53" d="M874.75,311.25l-.07,.04-.06,.03-.24,.13-.09,.05c-.12,.06-.27,.14-.43,.23l-.13,.07c-.36,.19-.8,.42-1.28,.68l-.08,.04c-.25,.13-.5,.27-.77,.4l-.1,.05c-.27,.14-.54,.29-.82,.43l-.07,.04c-.29,.15-.59,.31-.88,.46l-34.75-7.77,.79-.55,1.29-.9,37.86,6.49c-.1,.05-.17,.08-.17,.08Z"/></g></g></g></g></svg>