<?xml version="1.0" encoding="UTF-8"?><svg xmlns="http://www.w3.org/2000/svg" xmlns:xlink="http://www.w3.org/1999/xlink" viewBox="0 0 1230.41 520.27"><defs><style>.cls-1{isolation:isolate;}.cls-2{opacity:.25;}.cls-2,.cls-3{mix-blend-mode:multiply;}.cls-4{fill:url(#linear-gradient);}</style><linearGradient id="linear-gradient" x1="473.23" y1="-225.59" x2="139.27" y2="-272.24" gradientTransform="translate(396.43 -20.18) rotate(82.05)" gradientUnits="userSpaceOnUse"><stop offset="0" stop-color="#fff"/><stop offset=".39" stop-color="#fdfdfd"/><stop offset=".53" stop-color="#f6f6fa"/><stop offset=".63" stop-color="#eaeaf3"/><stop offset=".71" stop-color="#d9dae9"/><stop offset=".78" stop-color="#c3c5dd"/><stop offset=".84" stop-color="#a8aace"/><stop offset=".89" stop-color="#878abc"/><stop offset=".94" stop-color="#6266a6"/><stop offset=".99" stop-color="#393d8f"/><stop offset="1" stop-color="#2f348a"/></linearGradient></defs><g class="cls-1"><g id="Layer_1"><g id="moonShadow"><g class="cls-2"><g class="cls-3"><path class="cls-4" d="M741.92,407.49c8.3-2.97,16.34-6.57,24.05-10.77,17.67-9.63,33.6-22.39,46.91-37.77,16.25-18.78,28.6-41.45,35.39-67.07,2.24-8.46,3.8-16.94,4.7-25.38,2-18.66,.82-37.14-3.17-54.79-4.71-20.86-13.34-40.57-25.29-58.08-22.02-32.27-55.3-57.08-96.03-67.87-17.82-4.72-35.72-6.39-53.16-5.36-70.68,4.18-133.84,52.96-152.96,125.14-23.84,90,29.78,182.28,119.78,206.13,16.4,4.35,32.88,6.11,49.01,5.55,17.52-.6,34.63-3.94,50.77-9.72Z"/></g></g></g></g></g></svg>