<?xml version="1.0" encoding="UTF-8"?><svg xmlns="http://www.w3.org/2000/svg" viewBox="0 0 1230.41 520.27"><defs><style>.cls-1{isolation:isolate;}.cls-2{fill:#ff007a;}.cls-3{mix-blend-mode:color-dodge;opacity:.1;}</style></defs><g class="cls-1"><g id="Layer_1"><g id="sky" class="cls-3"><g><path class="cls-2" d="M208.84,233.8c13.06,26.39-31.62,11.98-55.87-6.77v37.63c12.79,3.94,26.88,6.49,41.69,7.11,92.41,3.84,14.17-37.96,14.17-37.96Z"/><path class="cls-2" d="M249.66,302.78c26.65-57.17,169.51-12.14,169.51-12.14,0,0-76.54-28.19-60.66-45.81,15.87-17.62,70.3-5.48,73.7,7.83,3.4,13.31-38.55,2.74-38.55,2.74,18.71,12.14,79.94,27.41,45.35-9.01-34.58-36.41,66.33,12.14,66.33,12.14,0,0-118.46-99.67,5.67-67.74,197.86,50.9,19.28,74,19.28,74,0,0,194.46-12.14,5.67-74-188.79-61.86-1.13-36.02-22.11-72.04-20.98-36.02-106.02-19.19-106.02-19.19,0,0,47.06,16.84,43.09,28.97-3.97,12.14-151.37,1.96-76.54,27.8,74.83,25.84,47.62,67.74,9.64,70.87-37.98,3.13-68.6-21.54-68.6-21.54,0,0,27.21,29.76-7.94,29.76s-37.42-33.28-85.04-56.77c-29.73-14.67-54.82-14.68-69.47-12.63v31.81c58.09-13.71,117.66,52.86,94.42,84.97-14.19,19.6-60.5,10.75-94.42,.87v13.8c33.89,20.58,80.45,40.13,96.69,5.29Z"/><path class="cls-2" d="M278.01,150.68s-57.69-88.72,75.15-47.77c132.84,40.95,5.92-26.35,5.92-26.35h-125.29s-30.61,5.87,2.83,27.2c33.45,21.33-70.91-38.82-83.65,.85v22.61c16-15.44,60.73-44.88,125.03,23.46Z"/><path class="cls-2" d="M910.99,236.53c15.29-2.27,30.15-6.51,41.99-12.37v-63.3c-14.6-10.09-36.22-20.77-66.65-31.82-146.27-53.11,42.52-17.92,42.52-17.92,0,0-170.93-54.55-144.57-5.92,0,0-188.79-36.31-118.2,21.28,70.58,57.58,86.74,84.46,19.56,63.34-67.18-21.11-82.49-65.26-18.71-39.03,0,0-168.38-88.3-93.54,1.92,49.09,59.17,166.68,67.18,188.79,37.11,22.11-30.07-102.05-71.02-14.46-74.86,87.59-3.84,286.58,83.83,127.56,103.66-133.63,16.66,23.96,49.59,77.71,59.68v-2.12c-31.27-10.13-91.28-32.33-41.99-39.65Z"/><path class="cls-2" d="M774.4,235.99c2.33-31.35,77.6-24.31,77.6-24.31,0,0-73.13-35.19-46.77-49.27,26.36-14.08,73.98,10.88,59.53,21.11-14.46,10.24-36.57-5.76-36.57-5.76,0,0,1.7,14.97,48.47,17.28,46.77,2.31,6.8-33.91-79.94-51.83-66.42-13.72-26.13,26.21-3.61,45.67-6.28-1.39-13.67,3.41-18.71,27.27-8.26,39.05-70.05,23.04-95.34,14.72,28.57,10.43,103.26,39.35,88.75,51.83-17.86,15.36-132.66-46.07-77.39,7.04,55.28,53.11,267.02,26.23,267.02,26.23,0,0-185.39-48.63-183.05-79.98Z"/></g></g></g></g></svg>